<?xml version="1.0" encoding="utf-8" standalone="no"?>
<!DOCTYPE svg PUBLIC "-//W3C//DTD SVG 1.1//EN"
  "http://www.w3.org/Graphics/SVG/1.1/DTD/svg11.dtd">
<svg xmlns:xlink="http://www.w3.org/1999/xlink" width="430.908125pt" height="314.7395pt" viewBox="0 0 430.908125 314.7395" xmlns="http://www.w3.org/2000/svg" version="1.1">
 <metadata>
  <rdf:RDF xmlns:dc="http://purl.org/dc/elements/1.1/" xmlns:cc="http://creativecommons.org/ns#" xmlns:rdf="http://www.w3.org/1999/02/22-rdf-syntax-ns#">
   <cc:Work>
    <dc:type rdf:resource="http://purl.org/dc/dcmitype/StillImage"/>
    <dc:date>2024-08-15T20:31:52.570001</dc:date>
    <dc:format>image/svg+xml</dc:format>
    <dc:creator>
     <cc:Agent>
      <dc:title>Matplotlib v3.7.2, https://matplotlib.org/</dc:title>
     </cc:Agent>
    </dc:creator>
   </cc:Work>
  </rdf:RDF>
 </metadata>
 <defs>
  <style type="text/css">*{stroke-linejoin: round; stroke-linecap: butt}</style>
 </defs>
 <g id="figure_1">
  <g id="patch_1">
   <path d="M 0 314.7395 
L 430.908125 314.7395 
L 430.908125 0 
L 0 0 
z
" style="fill: #ffffff"/>
  </g>
  <g id="axes_1">
   <g id="patch_2">
    <path d="M 66.588125 273.312 
L 423.708125 273.312 
L 423.708125 7.2 
L 66.588125 7.2 
z
" style="fill: #ffffff"/>
   </g>
   <g id="matplotlib.axis_1">
    <g id="xtick_1">
     <g id="line2d_1">
      <defs>
       <path id="mb1fe7f7a09" d="M 0 0 
L 0 3.5 
" style="stroke: #000000; stroke-width: 0.8"/>
      </defs>
      <g>
       <use xlink:href="#mb1fe7f7a09" x="111.051682" y="273.312" style="stroke: #000000; stroke-width: 0.8"/>
      </g>
     </g>
     <g id="text_1">
      <!-- 5 -->
      <g transform="translate(107.234182 289.430125) scale(0.12 -0.12)">
       <defs>
        <path id="DejaVuSans-35" d="M 691 4666 
L 3169 4666 
L 3169 4134 
L 1269 4134 
L 1269 2991 
Q 1406 3038 1543 3061 
Q 1681 3084 1819 3084 
Q 2600 3084 3056 2656 
Q 3513 2228 3513 1497 
Q 3513 744 3044 326 
Q 2575 -91 1722 -91 
Q 1428 -91 1123 -41 
Q 819 9 494 109 
L 494 744 
Q 775 591 1075 516 
Q 1375 441 1709 441 
Q 2250 441 2565 725 
Q 2881 1009 2881 1497 
Q 2881 1984 2565 2268 
Q 2250 2553 1709 2553 
Q 1456 2553 1204 2497 
Q 953 2441 691 2322 
L 691 4666 
z
" transform="scale(0.015625)"/>
       </defs>
       <use xlink:href="#DejaVuSans-35"/>
      </g>
     </g>
    </g>
    <g id="xtick_2">
     <g id="line2d_2">
      <g>
       <use xlink:href="#mb1fe7f7a09" x="181.628757" y="273.312" style="stroke: #000000; stroke-width: 0.8"/>
      </g>
     </g>
     <g id="text_2">
      <!-- 10 -->
      <g transform="translate(173.993757 289.430125) scale(0.12 -0.12)">
       <defs>
        <path id="DejaVuSans-31" d="M 794 531 
L 1825 531 
L 1825 4091 
L 703 3866 
L 703 4441 
L 1819 4666 
L 2450 4666 
L 2450 531 
L 3481 531 
L 3481 0 
L 794 0 
L 794 531 
z
" transform="scale(0.015625)"/>
        <path id="DejaVuSans-30" d="M 2034 4250 
Q 1547 4250 1301 3770 
Q 1056 3291 1056 2328 
Q 1056 1369 1301 889 
Q 1547 409 2034 409 
Q 2525 409 2770 889 
Q 3016 1369 3016 2328 
Q 3016 3291 2770 3770 
Q 2525 4250 2034 4250 
z
M 2034 4750 
Q 2819 4750 3233 4129 
Q 3647 3509 3647 2328 
Q 3647 1150 3233 529 
Q 2819 -91 2034 -91 
Q 1250 -91 836 529 
Q 422 1150 422 2328 
Q 422 3509 836 4129 
Q 1250 4750 2034 4750 
z
" transform="scale(0.015625)"/>
       </defs>
       <use xlink:href="#DejaVuSans-31"/>
       <use xlink:href="#DejaVuSans-30" x="63.623047"/>
      </g>
     </g>
    </g>
    <g id="xtick_3">
     <g id="line2d_3">
      <g>
       <use xlink:href="#mb1fe7f7a09" x="252.205833" y="273.312" style="stroke: #000000; stroke-width: 0.8"/>
      </g>
     </g>
     <g id="text_3">
      <!-- 15 -->
      <g transform="translate(244.570833 289.430125) scale(0.12 -0.12)">
       <use xlink:href="#DejaVuSans-31"/>
       <use xlink:href="#DejaVuSans-35" x="63.623047"/>
      </g>
     </g>
    </g>
    <g id="xtick_4">
     <g id="line2d_4">
      <g>
       <use xlink:href="#mb1fe7f7a09" x="322.782908" y="273.312" style="stroke: #000000; stroke-width: 0.8"/>
      </g>
     </g>
     <g id="text_4">
      <!-- 20 -->
      <g transform="translate(315.147908 289.430125) scale(0.12 -0.12)">
       <defs>
        <path id="DejaVuSans-32" d="M 1228 531 
L 3431 531 
L 3431 0 
L 469 0 
L 469 531 
Q 828 903 1448 1529 
Q 2069 2156 2228 2338 
Q 2531 2678 2651 2914 
Q 2772 3150 2772 3378 
Q 2772 3750 2511 3984 
Q 2250 4219 1831 4219 
Q 1534 4219 1204 4116 
Q 875 4013 500 3803 
L 500 4441 
Q 881 4594 1212 4672 
Q 1544 4750 1819 4750 
Q 2544 4750 2975 4387 
Q 3406 4025 3406 3419 
Q 3406 3131 3298 2873 
Q 3191 2616 2906 2266 
Q 2828 2175 2409 1742 
Q 1991 1309 1228 531 
z
" transform="scale(0.015625)"/>
       </defs>
       <use xlink:href="#DejaVuSans-32"/>
       <use xlink:href="#DejaVuSans-30" x="63.623047"/>
      </g>
     </g>
    </g>
    <g id="xtick_5">
     <g id="line2d_5">
      <g>
       <use xlink:href="#mb1fe7f7a09" x="393.359983" y="273.312" style="stroke: #000000; stroke-width: 0.8"/>
      </g>
     </g>
     <g id="text_5">
      <!-- 25 -->
      <g transform="translate(385.724983 289.430125) scale(0.12 -0.12)">
       <use xlink:href="#DejaVuSans-32"/>
       <use xlink:href="#DejaVuSans-35" x="63.623047"/>
      </g>
     </g>
    </g>
    <g id="text_6">
     <!-- Site (#) -->
     <g transform="translate(222.011563 305.043875) scale(0.12 -0.12)">
      <defs>
       <path id="DejaVuSans-53" d="M 3425 4513 
L 3425 3897 
Q 3066 4069 2747 4153 
Q 2428 4238 2131 4238 
Q 1616 4238 1336 4038 
Q 1056 3838 1056 3469 
Q 1056 3159 1242 3001 
Q 1428 2844 1947 2747 
L 2328 2669 
Q 3034 2534 3370 2195 
Q 3706 1856 3706 1288 
Q 3706 609 3251 259 
Q 2797 -91 1919 -91 
Q 1588 -91 1214 -16 
Q 841 59 441 206 
L 441 856 
Q 825 641 1194 531 
Q 1563 422 1919 422 
Q 2459 422 2753 634 
Q 3047 847 3047 1241 
Q 3047 1584 2836 1778 
Q 2625 1972 2144 2069 
L 1759 2144 
Q 1053 2284 737 2584 
Q 422 2884 422 3419 
Q 422 4038 858 4394 
Q 1294 4750 2059 4750 
Q 2388 4750 2728 4690 
Q 3069 4631 3425 4513 
z
" transform="scale(0.015625)"/>
       <path id="DejaVuSans-69" d="M 603 3500 
L 1178 3500 
L 1178 0 
L 603 0 
L 603 3500 
z
M 603 4863 
L 1178 4863 
L 1178 4134 
L 603 4134 
L 603 4863 
z
" transform="scale(0.015625)"/>
       <path id="DejaVuSans-74" d="M 1172 4494 
L 1172 3500 
L 2356 3500 
L 2356 3053 
L 1172 3053 
L 1172 1153 
Q 1172 725 1289 603 
Q 1406 481 1766 481 
L 2356 481 
L 2356 0 
L 1766 0 
Q 1100 0 847 248 
Q 594 497 594 1153 
L 594 3053 
L 172 3053 
L 172 3500 
L 594 3500 
L 594 4494 
L 1172 4494 
z
" transform="scale(0.015625)"/>
       <path id="DejaVuSans-65" d="M 3597 1894 
L 3597 1613 
L 953 1613 
Q 991 1019 1311 708 
Q 1631 397 2203 397 
Q 2534 397 2845 478 
Q 3156 559 3463 722 
L 3463 178 
Q 3153 47 2828 -22 
Q 2503 -91 2169 -91 
Q 1331 -91 842 396 
Q 353 884 353 1716 
Q 353 2575 817 3079 
Q 1281 3584 2069 3584 
Q 2775 3584 3186 3129 
Q 3597 2675 3597 1894 
z
M 3022 2063 
Q 3016 2534 2758 2815 
Q 2500 3097 2075 3097 
Q 1594 3097 1305 2825 
Q 1016 2553 972 2059 
L 3022 2063 
z
" transform="scale(0.015625)"/>
       <path id="DejaVuSans-20" transform="scale(0.015625)"/>
       <path id="DejaVuSans-28" d="M 1984 4856 
Q 1566 4138 1362 3434 
Q 1159 2731 1159 2009 
Q 1159 1288 1364 580 
Q 1569 -128 1984 -844 
L 1484 -844 
Q 1016 -109 783 600 
Q 550 1309 550 2009 
Q 550 2706 781 3412 
Q 1013 4119 1484 4856 
L 1984 4856 
z
" transform="scale(0.015625)"/>
       <path id="DejaVuSans-23" d="M 3272 2816 
L 2363 2816 
L 2100 1772 
L 3016 1772 
L 3272 2816 
z
M 2803 4594 
L 2478 3297 
L 3391 3297 
L 3719 4594 
L 4219 4594 
L 3897 3297 
L 4872 3297 
L 4872 2816 
L 3775 2816 
L 3519 1772 
L 4513 1772 
L 4513 1294 
L 3397 1294 
L 3072 0 
L 2572 0 
L 2894 1294 
L 1978 1294 
L 1656 0 
L 1153 0 
L 1478 1294 
L 494 1294 
L 494 1772 
L 1594 1772 
L 1856 2816 
L 850 2816 
L 850 3297 
L 1978 3297 
L 2297 4594 
L 2803 4594 
z
" transform="scale(0.015625)"/>
       <path id="DejaVuSans-29" d="M 513 4856 
L 1013 4856 
Q 1481 4119 1714 3412 
Q 1947 2706 1947 2009 
Q 1947 1309 1714 600 
Q 1481 -109 1013 -844 
L 513 -844 
Q 928 -128 1133 580 
Q 1338 1288 1338 2009 
Q 1338 2731 1133 3434 
Q 928 4138 513 4856 
z
" transform="scale(0.015625)"/>
      </defs>
      <use xlink:href="#DejaVuSans-53"/>
      <use xlink:href="#DejaVuSans-69" x="63.476562"/>
      <use xlink:href="#DejaVuSans-74" x="91.259766"/>
      <use xlink:href="#DejaVuSans-65" x="130.46875"/>
      <use xlink:href="#DejaVuSans-20" x="191.992188"/>
      <use xlink:href="#DejaVuSans-28" x="223.779297"/>
      <use xlink:href="#DejaVuSans-23" x="262.792969"/>
      <use xlink:href="#DejaVuSans-29" x="346.582031"/>
     </g>
    </g>
   </g>
   <g id="matplotlib.axis_2">
    <g id="ytick_1">
     <g id="line2d_6">
      <defs>
       <path id="m142ccaa2dc" d="M 0 0 
L -3.5 0 
" style="stroke: #000000; stroke-width: 0.8"/>
      </defs>
      <g>
       <use xlink:href="#m142ccaa2dc" x="66.588125" y="252.689044" style="stroke: #000000; stroke-width: 0.8"/>
      </g>
     </g>
     <g id="text_7">
      <!-- −0.15 -->
      <g transform="translate(22.81375 257.248107) scale(0.12 -0.12)">
       <defs>
        <path id="DejaVuSans-2212" d="M 678 2272 
L 4684 2272 
L 4684 1741 
L 678 1741 
L 678 2272 
z
" transform="scale(0.015625)"/>
        <path id="DejaVuSans-2e" d="M 684 794 
L 1344 794 
L 1344 0 
L 684 0 
L 684 794 
z
" transform="scale(0.015625)"/>
       </defs>
       <use xlink:href="#DejaVuSans-2212"/>
       <use xlink:href="#DejaVuSans-30" x="83.789062"/>
       <use xlink:href="#DejaVuSans-2e" x="147.412109"/>
       <use xlink:href="#DejaVuSans-31" x="179.199219"/>
       <use xlink:href="#DejaVuSans-35" x="242.822266"/>
      </g>
     </g>
    </g>
    <g id="ytick_2">
     <g id="line2d_7">
      <g>
       <use xlink:href="#m142ccaa2dc" x="66.588125" y="214.556296" style="stroke: #000000; stroke-width: 0.8"/>
      </g>
     </g>
     <g id="text_8">
      <!-- −0.10 -->
      <g transform="translate(22.81375 219.115359) scale(0.12 -0.12)">
       <use xlink:href="#DejaVuSans-2212"/>
       <use xlink:href="#DejaVuSans-30" x="83.789062"/>
       <use xlink:href="#DejaVuSans-2e" x="147.412109"/>
       <use xlink:href="#DejaVuSans-31" x="179.199219"/>
       <use xlink:href="#DejaVuSans-30" x="242.822266"/>
      </g>
     </g>
    </g>
    <g id="ytick_3">
     <g id="line2d_8">
      <g>
       <use xlink:href="#m142ccaa2dc" x="66.588125" y="176.423548" style="stroke: #000000; stroke-width: 0.8"/>
      </g>
     </g>
     <g id="text_9">
      <!-- −0.05 -->
      <g transform="translate(22.81375 180.982611) scale(0.12 -0.12)">
       <use xlink:href="#DejaVuSans-2212"/>
       <use xlink:href="#DejaVuSans-30" x="83.789062"/>
       <use xlink:href="#DejaVuSans-2e" x="147.412109"/>
       <use xlink:href="#DejaVuSans-30" x="179.199219"/>
       <use xlink:href="#DejaVuSans-35" x="242.822266"/>
      </g>
     </g>
    </g>
    <g id="ytick_4">
     <g id="line2d_9">
      <g>
       <use xlink:href="#m142ccaa2dc" x="66.588125" y="138.2908" style="stroke: #000000; stroke-width: 0.8"/>
      </g>
     </g>
     <g id="text_10">
      <!-- 0.00 -->
      <g transform="translate(32.869375 142.849863) scale(0.12 -0.12)">
       <use xlink:href="#DejaVuSans-30"/>
       <use xlink:href="#DejaVuSans-2e" x="63.623047"/>
       <use xlink:href="#DejaVuSans-30" x="95.410156"/>
       <use xlink:href="#DejaVuSans-30" x="159.033203"/>
      </g>
     </g>
    </g>
    <g id="ytick_5">
     <g id="line2d_10">
      <g>
       <use xlink:href="#m142ccaa2dc" x="66.588125" y="100.158052" style="stroke: #000000; stroke-width: 0.8"/>
      </g>
     </g>
     <g id="text_11">
      <!-- 0.05 -->
      <g transform="translate(32.869375 104.717115) scale(0.12 -0.12)">
       <use xlink:href="#DejaVuSans-30"/>
       <use xlink:href="#DejaVuSans-2e" x="63.623047"/>
       <use xlink:href="#DejaVuSans-30" x="95.410156"/>
       <use xlink:href="#DejaVuSans-35" x="159.033203"/>
      </g>
     </g>
    </g>
    <g id="ytick_6">
     <g id="line2d_11">
      <g>
       <use xlink:href="#m142ccaa2dc" x="66.588125" y="62.025304" style="stroke: #000000; stroke-width: 0.8"/>
      </g>
     </g>
     <g id="text_12">
      <!-- 0.10 -->
      <g transform="translate(32.869375 66.584367) scale(0.12 -0.12)">
       <use xlink:href="#DejaVuSans-30"/>
       <use xlink:href="#DejaVuSans-2e" x="63.623047"/>
       <use xlink:href="#DejaVuSans-31" x="95.410156"/>
       <use xlink:href="#DejaVuSans-30" x="159.033203"/>
      </g>
     </g>
    </g>
    <g id="ytick_7">
     <g id="line2d_12">
      <g>
       <use xlink:href="#m142ccaa2dc" x="66.588125" y="23.892556" style="stroke: #000000; stroke-width: 0.8"/>
      </g>
     </g>
     <g id="text_13">
      <!-- 0.15 -->
      <g transform="translate(32.869375 28.451619) scale(0.12 -0.12)">
       <use xlink:href="#DejaVuSans-30"/>
       <use xlink:href="#DejaVuSans-2e" x="63.623047"/>
       <use xlink:href="#DejaVuSans-31" x="95.410156"/>
       <use xlink:href="#DejaVuSans-35" x="159.033203"/>
      </g>
     </g>
    </g>
    <g id="text_14">
     <!-- Spin torque (meV) -->
     <g transform="translate(16.318125 195.168187) rotate(-90) scale(0.12 -0.12)">
      <defs>
       <path id="DejaVuSans-70" d="M 1159 525 
L 1159 -1331 
L 581 -1331 
L 581 3500 
L 1159 3500 
L 1159 2969 
Q 1341 3281 1617 3432 
Q 1894 3584 2278 3584 
Q 2916 3584 3314 3078 
Q 3713 2572 3713 1747 
Q 3713 922 3314 415 
Q 2916 -91 2278 -91 
Q 1894 -91 1617 61 
Q 1341 213 1159 525 
z
M 3116 1747 
Q 3116 2381 2855 2742 
Q 2594 3103 2138 3103 
Q 1681 3103 1420 2742 
Q 1159 2381 1159 1747 
Q 1159 1113 1420 752 
Q 1681 391 2138 391 
Q 2594 391 2855 752 
Q 3116 1113 3116 1747 
z
" transform="scale(0.015625)"/>
       <path id="DejaVuSans-6e" d="M 3513 2113 
L 3513 0 
L 2938 0 
L 2938 2094 
Q 2938 2591 2744 2837 
Q 2550 3084 2163 3084 
Q 1697 3084 1428 2787 
Q 1159 2491 1159 1978 
L 1159 0 
L 581 0 
L 581 3500 
L 1159 3500 
L 1159 2956 
Q 1366 3272 1645 3428 
Q 1925 3584 2291 3584 
Q 2894 3584 3203 3211 
Q 3513 2838 3513 2113 
z
" transform="scale(0.015625)"/>
       <path id="DejaVuSans-6f" d="M 1959 3097 
Q 1497 3097 1228 2736 
Q 959 2375 959 1747 
Q 959 1119 1226 758 
Q 1494 397 1959 397 
Q 2419 397 2687 759 
Q 2956 1122 2956 1747 
Q 2956 2369 2687 2733 
Q 2419 3097 1959 3097 
z
M 1959 3584 
Q 2709 3584 3137 3096 
Q 3566 2609 3566 1747 
Q 3566 888 3137 398 
Q 2709 -91 1959 -91 
Q 1206 -91 779 398 
Q 353 888 353 1747 
Q 353 2609 779 3096 
Q 1206 3584 1959 3584 
z
" transform="scale(0.015625)"/>
       <path id="DejaVuSans-72" d="M 2631 2963 
Q 2534 3019 2420 3045 
Q 2306 3072 2169 3072 
Q 1681 3072 1420 2755 
Q 1159 2438 1159 1844 
L 1159 0 
L 581 0 
L 581 3500 
L 1159 3500 
L 1159 2956 
Q 1341 3275 1631 3429 
Q 1922 3584 2338 3584 
Q 2397 3584 2469 3576 
Q 2541 3569 2628 3553 
L 2631 2963 
z
" transform="scale(0.015625)"/>
       <path id="DejaVuSans-71" d="M 947 1747 
Q 947 1113 1208 752 
Q 1469 391 1925 391 
Q 2381 391 2643 752 
Q 2906 1113 2906 1747 
Q 2906 2381 2643 2742 
Q 2381 3103 1925 3103 
Q 1469 3103 1208 2742 
Q 947 2381 947 1747 
z
M 2906 525 
Q 2725 213 2448 61 
Q 2172 -91 1784 -91 
Q 1150 -91 751 415 
Q 353 922 353 1747 
Q 353 2572 751 3078 
Q 1150 3584 1784 3584 
Q 2172 3584 2448 3432 
Q 2725 3281 2906 2969 
L 2906 3500 
L 3481 3500 
L 3481 -1331 
L 2906 -1331 
L 2906 525 
z
" transform="scale(0.015625)"/>
       <path id="DejaVuSans-75" d="M 544 1381 
L 544 3500 
L 1119 3500 
L 1119 1403 
Q 1119 906 1312 657 
Q 1506 409 1894 409 
Q 2359 409 2629 706 
Q 2900 1003 2900 1516 
L 2900 3500 
L 3475 3500 
L 3475 0 
L 2900 0 
L 2900 538 
Q 2691 219 2414 64 
Q 2138 -91 1772 -91 
Q 1169 -91 856 284 
Q 544 659 544 1381 
z
M 1991 3584 
L 1991 3584 
z
" transform="scale(0.015625)"/>
       <path id="DejaVuSans-6d" d="M 3328 2828 
Q 3544 3216 3844 3400 
Q 4144 3584 4550 3584 
Q 5097 3584 5394 3201 
Q 5691 2819 5691 2113 
L 5691 0 
L 5113 0 
L 5113 2094 
Q 5113 2597 4934 2840 
Q 4756 3084 4391 3084 
Q 3944 3084 3684 2787 
Q 3425 2491 3425 1978 
L 3425 0 
L 2847 0 
L 2847 2094 
Q 2847 2600 2669 2842 
Q 2491 3084 2119 3084 
Q 1678 3084 1418 2786 
Q 1159 2488 1159 1978 
L 1159 0 
L 581 0 
L 581 3500 
L 1159 3500 
L 1159 2956 
Q 1356 3278 1631 3431 
Q 1906 3584 2284 3584 
Q 2666 3584 2933 3390 
Q 3200 3197 3328 2828 
z
" transform="scale(0.015625)"/>
       <path id="DejaVuSans-56" d="M 1831 0 
L 50 4666 
L 709 4666 
L 2188 738 
L 3669 4666 
L 4325 4666 
L 2547 0 
L 1831 0 
z
" transform="scale(0.015625)"/>
      </defs>
      <use xlink:href="#DejaVuSans-53"/>
      <use xlink:href="#DejaVuSans-70" x="63.476562"/>
      <use xlink:href="#DejaVuSans-69" x="126.953125"/>
      <use xlink:href="#DejaVuSans-6e" x="154.736328"/>
      <use xlink:href="#DejaVuSans-20" x="218.115234"/>
      <use xlink:href="#DejaVuSans-74" x="249.902344"/>
      <use xlink:href="#DejaVuSans-6f" x="289.111328"/>
      <use xlink:href="#DejaVuSans-72" x="350.292969"/>
      <use xlink:href="#DejaVuSans-71" x="389.65625"/>
      <use xlink:href="#DejaVuSans-75" x="453.132812"/>
      <use xlink:href="#DejaVuSans-65" x="516.511719"/>
      <use xlink:href="#DejaVuSans-20" x="578.035156"/>
      <use xlink:href="#DejaVuSans-28" x="609.822266"/>
      <use xlink:href="#DejaVuSans-6d" x="648.835938"/>
      <use xlink:href="#DejaVuSans-65" x="746.248047"/>
      <use xlink:href="#DejaVuSans-56" x="807.771484"/>
      <use xlink:href="#DejaVuSans-29" x="876.179688"/>
     </g>
    </g>
   </g>
   <g id="line2d_13">
    <path d="M 82.820852 138.29964 
L 96.936267 138.26398 
L 111.051682 138.265906 
L 125.167097 138.4834 
L 139.282512 138.219452 
L 153.397927 136.99854 
L 167.513342 139.980832 
L 181.628757 142.444184 
L 195.744172 131.908821 
L 209.859587 121.568858 
L 223.975002 162.252229 
L 238.090417 191.226035 
L 252.205833 138.477339 
L 266.321248 138.295571 
L 280.436663 138.291697 
L 294.552078 138.291055 
L 308.667493 138.29083 
L 322.782908 138.290814 
L 336.898323 138.290799 
L 351.013738 138.2908 
L 365.129153 138.2908 
L 379.244568 138.2908 
L 393.359983 138.2908 
L 407.475398 138.2908 
" clip-path="url(#p8fc2c5fa8d)" style="fill: none; stroke: #1f77b4; stroke-width: 1.5; stroke-linecap: square"/>
    <defs>
     <path id="med458ba27c" d="M 0 1.5 
C 0.397805 1.5 0.77937 1.341951 1.06066 1.06066 
C 1.341951 0.77937 1.5 0.397805 1.5 0 
C 1.5 -0.397805 1.341951 -0.77937 1.06066 -1.06066 
C 0.77937 -1.341951 0.397805 -1.5 0 -1.5 
C -0.397805 -1.5 -0.77937 -1.341951 -1.06066 -1.06066 
C -1.341951 -0.77937 -1.5 -0.397805 -1.5 0 
C -1.5 0.397805 -1.341951 0.77937 -1.06066 1.06066 
C -0.77937 1.341951 -0.397805 1.5 0 1.5 
z
" style="stroke: #1f77b4"/>
    </defs>
    <g clip-path="url(#p8fc2c5fa8d)">
     <use xlink:href="#med458ba27c" x="82.820852" y="138.29964" style="fill: #1f77b4; stroke: #1f77b4"/>
     <use xlink:href="#med458ba27c" x="96.936267" y="138.26398" style="fill: #1f77b4; stroke: #1f77b4"/>
     <use xlink:href="#med458ba27c" x="111.051682" y="138.265906" style="fill: #1f77b4; stroke: #1f77b4"/>
     <use xlink:href="#med458ba27c" x="125.167097" y="138.4834" style="fill: #1f77b4; stroke: #1f77b4"/>
     <use xlink:href="#med458ba27c" x="139.282512" y="138.219452" style="fill: #1f77b4; stroke: #1f77b4"/>
     <use xlink:href="#med458ba27c" x="153.397927" y="136.99854" style="fill: #1f77b4; stroke: #1f77b4"/>
     <use xlink:href="#med458ba27c" x="167.513342" y="139.980832" style="fill: #1f77b4; stroke: #1f77b4"/>
     <use xlink:href="#med458ba27c" x="181.628757" y="142.444184" style="fill: #1f77b4; stroke: #1f77b4"/>
     <use xlink:href="#med458ba27c" x="195.744172" y="131.908821" style="fill: #1f77b4; stroke: #1f77b4"/>
     <use xlink:href="#med458ba27c" x="209.859587" y="121.568858" style="fill: #1f77b4; stroke: #1f77b4"/>
     <use xlink:href="#med458ba27c" x="223.975002" y="162.252229" style="fill: #1f77b4; stroke: #1f77b4"/>
     <use xlink:href="#med458ba27c" x="238.090417" y="191.226035" style="fill: #1f77b4; stroke: #1f77b4"/>
     <use xlink:href="#med458ba27c" x="252.205833" y="138.477339" style="fill: #1f77b4; stroke: #1f77b4"/>
     <use xlink:href="#med458ba27c" x="266.321248" y="138.295571" style="fill: #1f77b4; stroke: #1f77b4"/>
     <use xlink:href="#med458ba27c" x="280.436663" y="138.291697" style="fill: #1f77b4; stroke: #1f77b4"/>
     <use xlink:href="#med458ba27c" x="294.552078" y="138.291055" style="fill: #1f77b4; stroke: #1f77b4"/>
     <use xlink:href="#med458ba27c" x="308.667493" y="138.29083" style="fill: #1f77b4; stroke: #1f77b4"/>
     <use xlink:href="#med458ba27c" x="322.782908" y="138.290814" style="fill: #1f77b4; stroke: #1f77b4"/>
     <use xlink:href="#med458ba27c" x="336.898323" y="138.290799" style="fill: #1f77b4; stroke: #1f77b4"/>
     <use xlink:href="#med458ba27c" x="351.013738" y="138.2908" style="fill: #1f77b4; stroke: #1f77b4"/>
     <use xlink:href="#med458ba27c" x="365.129153" y="138.2908" style="fill: #1f77b4; stroke: #1f77b4"/>
     <use xlink:href="#med458ba27c" x="379.244568" y="138.2908" style="fill: #1f77b4; stroke: #1f77b4"/>
     <use xlink:href="#med458ba27c" x="393.359983" y="138.2908" style="fill: #1f77b4; stroke: #1f77b4"/>
     <use xlink:href="#med458ba27c" x="407.475398" y="138.2908" style="fill: #1f77b4; stroke: #1f77b4"/>
    </g>
   </g>
   <g id="line2d_14">
    <path d="M 82.820852 138.296095 
L 96.936267 138.234955 
L 111.051682 138.302545 
L 125.167097 138.679553 
L 139.282512 137.757618 
L 153.397927 135.826373 
L 167.513342 142.874307 
L 181.628757 147.858828 
L 195.744172 120.893898 
L 209.859587 94.288611 
L 223.975002 192.730946 
L 238.090417 261.216 
L 252.205833 19.296 
L 266.321248 80.418436 
L 280.436663 178.099182 
L 294.552078 159.087439 
L 308.667493 129.660283 
L 322.782908 133.225084 
L 336.898323 140.31707 
L 351.013738 139.148894 
L 365.129153 137.883772 
L 379.244568 138.23778 
L 393.359983 138.357801 
L 407.475398 138.290669 
" clip-path="url(#p8fc2c5fa8d)" style="fill: none; stroke: #ff7f0e; stroke-width: 1.5; stroke-linecap: square"/>
    <defs>
     <path id="mf28e8ac150" d="M 0 1.5 
C 0.397805 1.5 0.77937 1.341951 1.06066 1.06066 
C 1.341951 0.77937 1.5 0.397805 1.5 0 
C 1.5 -0.397805 1.341951 -0.77937 1.06066 -1.06066 
C 0.77937 -1.341951 0.397805 -1.5 0 -1.5 
C -0.397805 -1.5 -0.77937 -1.341951 -1.06066 -1.06066 
C -1.341951 -0.77937 -1.5 -0.397805 -1.5 0 
C -1.5 0.397805 -1.341951 0.77937 -1.06066 1.06066 
C -0.77937 1.341951 -0.397805 1.5 0 1.5 
z
" style="stroke: #ff7f0e"/>
    </defs>
    <g clip-path="url(#p8fc2c5fa8d)">
     <use xlink:href="#mf28e8ac150" x="82.820852" y="138.296095" style="fill: #ff7f0e; stroke: #ff7f0e"/>
     <use xlink:href="#mf28e8ac150" x="96.936267" y="138.234955" style="fill: #ff7f0e; stroke: #ff7f0e"/>
     <use xlink:href="#mf28e8ac150" x="111.051682" y="138.302545" style="fill: #ff7f0e; stroke: #ff7f0e"/>
     <use xlink:href="#mf28e8ac150" x="125.167097" y="138.679553" style="fill: #ff7f0e; stroke: #ff7f0e"/>
     <use xlink:href="#mf28e8ac150" x="139.282512" y="137.757618" style="fill: #ff7f0e; stroke: #ff7f0e"/>
     <use xlink:href="#mf28e8ac150" x="153.397927" y="135.826373" style="fill: #ff7f0e; stroke: #ff7f0e"/>
     <use xlink:href="#mf28e8ac150" x="167.513342" y="142.874307" style="fill: #ff7f0e; stroke: #ff7f0e"/>
     <use xlink:href="#mf28e8ac150" x="181.628757" y="147.858828" style="fill: #ff7f0e; stroke: #ff7f0e"/>
     <use xlink:href="#mf28e8ac150" x="195.744172" y="120.893898" style="fill: #ff7f0e; stroke: #ff7f0e"/>
     <use xlink:href="#mf28e8ac150" x="209.859587" y="94.288611" style="fill: #ff7f0e; stroke: #ff7f0e"/>
     <use xlink:href="#mf28e8ac150" x="223.975002" y="192.730946" style="fill: #ff7f0e; stroke: #ff7f0e"/>
     <use xlink:href="#mf28e8ac150" x="238.090417" y="261.216" style="fill: #ff7f0e; stroke: #ff7f0e"/>
     <use xlink:href="#mf28e8ac150" x="252.205833" y="19.296" style="fill: #ff7f0e; stroke: #ff7f0e"/>
     <use xlink:href="#mf28e8ac150" x="266.321248" y="80.418436" style="fill: #ff7f0e; stroke: #ff7f0e"/>
     <use xlink:href="#mf28e8ac150" x="280.436663" y="178.099182" style="fill: #ff7f0e; stroke: #ff7f0e"/>
     <use xlink:href="#mf28e8ac150" x="294.552078" y="159.087439" style="fill: #ff7f0e; stroke: #ff7f0e"/>
     <use xlink:href="#mf28e8ac150" x="308.667493" y="129.660283" style="fill: #ff7f0e; stroke: #ff7f0e"/>
     <use xlink:href="#mf28e8ac150" x="322.782908" y="133.225084" style="fill: #ff7f0e; stroke: #ff7f0e"/>
     <use xlink:href="#mf28e8ac150" x="336.898323" y="140.31707" style="fill: #ff7f0e; stroke: #ff7f0e"/>
     <use xlink:href="#mf28e8ac150" x="351.013738" y="139.148894" style="fill: #ff7f0e; stroke: #ff7f0e"/>
     <use xlink:href="#mf28e8ac150" x="365.129153" y="137.883772" style="fill: #ff7f0e; stroke: #ff7f0e"/>
     <use xlink:href="#mf28e8ac150" x="379.244568" y="138.23778" style="fill: #ff7f0e; stroke: #ff7f0e"/>
     <use xlink:href="#mf28e8ac150" x="393.359983" y="138.357801" style="fill: #ff7f0e; stroke: #ff7f0e"/>
     <use xlink:href="#mf28e8ac150" x="407.475398" y="138.290669" style="fill: #ff7f0e; stroke: #ff7f0e"/>
    </g>
   </g>
   <g id="line2d_15">
    <path d="M 82.820852 138.2908 
L 96.936267 138.2908 
L 111.051682 138.2908 
L 125.167097 138.2908 
L 139.282512 138.2908 
L 153.397927 138.290801 
L 167.513342 138.290789 
L 181.628757 138.29078 
L 195.744172 138.290629 
L 209.859587 138.289888 
L 223.975002 138.287195 
L 238.090417 138.100567 
L 252.205833 86.289169 
L 266.321248 114.297717 
L 280.436663 153.173262 
L 294.552078 145.191917 
L 308.667493 134.702733 
L 322.782908 136.635011 
L 336.898323 139.286972 
L 351.013738 138.481221 
L 365.129153 138.118688 
L 379.244568 138.28854 
L 393.359983 138.318583 
L 407.475398 138.287769 
" clip-path="url(#p8fc2c5fa8d)" style="fill: none; stroke: #2ca02c; stroke-width: 1.5; stroke-linecap: square"/>
    <defs>
     <path id="m5eba5d4dda" d="M 0 1.5 
C 0.397805 1.5 0.77937 1.341951 1.06066 1.06066 
C 1.341951 0.77937 1.5 0.397805 1.5 0 
C 1.5 -0.397805 1.341951 -0.77937 1.06066 -1.06066 
C 0.77937 -1.341951 0.397805 -1.5 0 -1.5 
C -0.397805 -1.5 -0.77937 -1.341951 -1.06066 -1.06066 
C -1.341951 -0.77937 -1.5 -0.397805 -1.5 0 
C -1.5 0.397805 -1.341951 0.77937 -1.06066 1.06066 
C -0.77937 1.341951 -0.397805 1.5 0 1.5 
z
" style="stroke: #2ca02c"/>
    </defs>
    <g clip-path="url(#p8fc2c5fa8d)">
     <use xlink:href="#m5eba5d4dda" x="82.820852" y="138.2908" style="fill: #2ca02c; stroke: #2ca02c"/>
     <use xlink:href="#m5eba5d4dda" x="96.936267" y="138.2908" style="fill: #2ca02c; stroke: #2ca02c"/>
     <use xlink:href="#m5eba5d4dda" x="111.051682" y="138.2908" style="fill: #2ca02c; stroke: #2ca02c"/>
     <use xlink:href="#m5eba5d4dda" x="125.167097" y="138.2908" style="fill: #2ca02c; stroke: #2ca02c"/>
     <use xlink:href="#m5eba5d4dda" x="139.282512" y="138.2908" style="fill: #2ca02c; stroke: #2ca02c"/>
     <use xlink:href="#m5eba5d4dda" x="153.397927" y="138.290801" style="fill: #2ca02c; stroke: #2ca02c"/>
     <use xlink:href="#m5eba5d4dda" x="167.513342" y="138.290789" style="fill: #2ca02c; stroke: #2ca02c"/>
     <use xlink:href="#m5eba5d4dda" x="181.628757" y="138.29078" style="fill: #2ca02c; stroke: #2ca02c"/>
     <use xlink:href="#m5eba5d4dda" x="195.744172" y="138.290629" style="fill: #2ca02c; stroke: #2ca02c"/>
     <use xlink:href="#m5eba5d4dda" x="209.859587" y="138.289888" style="fill: #2ca02c; stroke: #2ca02c"/>
     <use xlink:href="#m5eba5d4dda" x="223.975002" y="138.287195" style="fill: #2ca02c; stroke: #2ca02c"/>
     <use xlink:href="#m5eba5d4dda" x="238.090417" y="138.100567" style="fill: #2ca02c; stroke: #2ca02c"/>
     <use xlink:href="#m5eba5d4dda" x="252.205833" y="86.289169" style="fill: #2ca02c; stroke: #2ca02c"/>
     <use xlink:href="#m5eba5d4dda" x="266.321248" y="114.297717" style="fill: #2ca02c; stroke: #2ca02c"/>
     <use xlink:href="#m5eba5d4dda" x="280.436663" y="153.173262" style="fill: #2ca02c; stroke: #2ca02c"/>
     <use xlink:href="#m5eba5d4dda" x="294.552078" y="145.191917" style="fill: #2ca02c; stroke: #2ca02c"/>
     <use xlink:href="#m5eba5d4dda" x="308.667493" y="134.702733" style="fill: #2ca02c; stroke: #2ca02c"/>
     <use xlink:href="#m5eba5d4dda" x="322.782908" y="136.635011" style="fill: #2ca02c; stroke: #2ca02c"/>
     <use xlink:href="#m5eba5d4dda" x="336.898323" y="139.286972" style="fill: #2ca02c; stroke: #2ca02c"/>
     <use xlink:href="#m5eba5d4dda" x="351.013738" y="138.481221" style="fill: #2ca02c; stroke: #2ca02c"/>
     <use xlink:href="#m5eba5d4dda" x="365.129153" y="138.118688" style="fill: #2ca02c; stroke: #2ca02c"/>
     <use xlink:href="#m5eba5d4dda" x="379.244568" y="138.28854" style="fill: #2ca02c; stroke: #2ca02c"/>
     <use xlink:href="#m5eba5d4dda" x="393.359983" y="138.318583" style="fill: #2ca02c; stroke: #2ca02c"/>
     <use xlink:href="#m5eba5d4dda" x="407.475398" y="138.287769" style="fill: #2ca02c; stroke: #2ca02c"/>
    </g>
   </g>
   <g id="patch_3">
    <path d="M 66.588125 273.312 
L 66.588125 7.2 
" style="fill: none; stroke: #000000; stroke-width: 0.8; stroke-linejoin: miter; stroke-linecap: square"/>
   </g>
   <g id="patch_4">
    <path d="M 423.708125 273.312 
L 423.708125 7.2 
" style="fill: none; stroke: #000000; stroke-width: 0.8; stroke-linejoin: miter; stroke-linecap: square"/>
   </g>
   <g id="patch_5">
    <path d="M 66.588125 273.312 
L 423.708125 273.312 
" style="fill: none; stroke: #000000; stroke-width: 0.8; stroke-linejoin: miter; stroke-linecap: square"/>
   </g>
   <g id="patch_6">
    <path d="M 66.588125 7.2 
L 423.708125 7.2 
" style="fill: none; stroke: #000000; stroke-width: 0.8; stroke-linejoin: miter; stroke-linecap: square"/>
   </g>
   <g id="legend_1">
    <g id="patch_7">
     <path d="M 342.985625 70.6425 
L 415.308125 70.6425 
Q 417.708125 70.6425 417.708125 68.2425 
L 417.708125 15.6 
Q 417.708125 13.2 415.308125 13.2 
L 342.985625 13.2 
Q 340.585625 13.2 340.585625 15.6 
L 340.585625 68.2425 
Q 340.585625 70.6425 342.985625 70.6425 
z
" style="fill: #ffffff; opacity: 0.8; stroke: #cccccc; stroke-linejoin: miter"/>
    </g>
    <g id="line2d_16">
     <path d="M 345.385625 22.918125 
L 357.385625 22.918125 
L 369.385625 22.918125 
" style="fill: none; stroke: #1f77b4; stroke-width: 1.5; stroke-linecap: square"/>
     <g>
      <use xlink:href="#med458ba27c" x="357.385625" y="22.918125" style="fill: #1f77b4; stroke: #1f77b4"/>
     </g>
    </g>
    <g id="text_15">
     <!-- Txc_x -->
     <g transform="translate(378.985625 27.118125) scale(0.12 -0.12)">
      <defs>
       <path id="DejaVuSans-54" d="M -19 4666 
L 3928 4666 
L 3928 4134 
L 2272 4134 
L 2272 0 
L 1638 0 
L 1638 4134 
L -19 4134 
L -19 4666 
z
" transform="scale(0.015625)"/>
       <path id="DejaVuSans-78" d="M 3513 3500 
L 2247 1797 
L 3578 0 
L 2900 0 
L 1881 1375 
L 863 0 
L 184 0 
L 1544 1831 
L 300 3500 
L 978 3500 
L 1906 2253 
L 2834 3500 
L 3513 3500 
z
" transform="scale(0.015625)"/>
       <path id="DejaVuSans-63" d="M 3122 3366 
L 3122 2828 
Q 2878 2963 2633 3030 
Q 2388 3097 2138 3097 
Q 1578 3097 1268 2742 
Q 959 2388 959 1747 
Q 959 1106 1268 751 
Q 1578 397 2138 397 
Q 2388 397 2633 464 
Q 2878 531 3122 666 
L 3122 134 
Q 2881 22 2623 -34 
Q 2366 -91 2075 -91 
Q 1284 -91 818 406 
Q 353 903 353 1747 
Q 353 2603 823 3093 
Q 1294 3584 2113 3584 
Q 2378 3584 2631 3529 
Q 2884 3475 3122 3366 
z
" transform="scale(0.015625)"/>
       <path id="DejaVuSans-5f" d="M 3263 -1063 
L 3263 -1509 
L -63 -1509 
L -63 -1063 
L 3263 -1063 
z
" transform="scale(0.015625)"/>
      </defs>
      <use xlink:href="#DejaVuSans-54"/>
      <use xlink:href="#DejaVuSans-78" x="61.083984"/>
      <use xlink:href="#DejaVuSans-63" x="118.513672"/>
      <use xlink:href="#DejaVuSans-5f" x="173.494141"/>
      <use xlink:href="#DejaVuSans-78" x="223.494141"/>
     </g>
    </g>
    <g id="line2d_17">
     <path d="M 345.385625 40.865625 
L 357.385625 40.865625 
L 369.385625 40.865625 
" style="fill: none; stroke: #ff7f0e; stroke-width: 1.5; stroke-linecap: square"/>
     <g>
      <use xlink:href="#mf28e8ac150" x="357.385625" y="40.865625" style="fill: #ff7f0e; stroke: #ff7f0e"/>
     </g>
    </g>
    <g id="text_16">
     <!-- Txc_y -->
     <g transform="translate(378.985625 45.065625) scale(0.12 -0.12)">
      <defs>
       <path id="DejaVuSans-79" d="M 2059 -325 
Q 1816 -950 1584 -1140 
Q 1353 -1331 966 -1331 
L 506 -1331 
L 506 -850 
L 844 -850 
Q 1081 -850 1212 -737 
Q 1344 -625 1503 -206 
L 1606 56 
L 191 3500 
L 800 3500 
L 1894 763 
L 2988 3500 
L 3597 3500 
L 2059 -325 
z
" transform="scale(0.015625)"/>
      </defs>
      <use xlink:href="#DejaVuSans-54"/>
      <use xlink:href="#DejaVuSans-78" x="61.083984"/>
      <use xlink:href="#DejaVuSans-63" x="118.513672"/>
      <use xlink:href="#DejaVuSans-5f" x="173.494141"/>
      <use xlink:href="#DejaVuSans-79" x="223.494141"/>
     </g>
    </g>
    <g id="line2d_18">
     <path d="M 345.385625 58.813125 
L 357.385625 58.813125 
L 369.385625 58.813125 
" style="fill: none; stroke: #2ca02c; stroke-width: 1.5; stroke-linecap: square"/>
     <g>
      <use xlink:href="#m5eba5d4dda" x="357.385625" y="58.813125" style="fill: #2ca02c; stroke: #2ca02c"/>
     </g>
    </g>
    <g id="text_17">
     <!-- Txc_z -->
     <g transform="translate(378.985625 63.013125) scale(0.12 -0.12)">
      <defs>
       <path id="DejaVuSans-7a" d="M 353 3500 
L 3084 3500 
L 3084 2975 
L 922 459 
L 3084 459 
L 3084 0 
L 275 0 
L 275 525 
L 2438 3041 
L 353 3041 
L 353 3500 
z
" transform="scale(0.015625)"/>
      </defs>
      <use xlink:href="#DejaVuSans-54"/>
      <use xlink:href="#DejaVuSans-78" x="61.083984"/>
      <use xlink:href="#DejaVuSans-63" x="118.513672"/>
      <use xlink:href="#DejaVuSans-5f" x="173.494141"/>
      <use xlink:href="#DejaVuSans-7a" x="223.494141"/>
     </g>
    </g>
   </g>
  </g>
 </g>
 <defs>
  <clipPath id="p8fc2c5fa8d">
   <rect x="66.588125" y="7.2" width="357.12" height="266.112"/>
  </clipPath>
 </defs>
</svg>