<?xml version="1.0" encoding="utf-8" standalone="no"?>
<!DOCTYPE svg PUBLIC "-//W3C//DTD SVG 1.1//EN"
  "http://www.w3.org/Graphics/SVG/1.1/DTD/svg11.dtd">
<svg xmlns:xlink="http://www.w3.org/1999/xlink" width="401.76875pt" height="314.7395pt" viewBox="0 0 401.76875 314.7395" xmlns="http://www.w3.org/2000/svg" version="1.1">
 <metadata>
  <rdf:RDF xmlns:dc="http://purl.org/dc/elements/1.1/" xmlns:cc="http://creativecommons.org/ns#" xmlns:rdf="http://www.w3.org/1999/02/22-rdf-syntax-ns#">
   <cc:Work>
    <dc:type rdf:resource="http://purl.org/dc/dcmitype/StillImage"/>
    <dc:date>2024-08-14T20:02:11.131367</dc:date>
    <dc:format>image/svg+xml</dc:format>
    <dc:creator>
     <cc:Agent>
      <dc:title>Matplotlib v3.7.2, https://matplotlib.org/</dc:title>
     </cc:Agent>
    </dc:creator>
   </cc:Work>
  </rdf:RDF>
 </metadata>
 <defs>
  <style type="text/css">*{stroke-linejoin: round; stroke-linecap: butt}</style>
 </defs>
 <g id="figure_1">
  <g id="patch_1">
   <path d="M 0 314.7395 
L 401.76875 314.7395 
L 401.76875 0 
L 0 0 
z
" style="fill: #ffffff"/>
  </g>
  <g id="axes_1">
   <g id="patch_2">
    <path d="M 37.44875 273.312 
L 394.56875 273.312 
L 394.56875 7.2 
L 37.44875 7.2 
z
" style="fill: #ffffff"/>
   </g>
   <g id="matplotlib.axis_1">
    <g id="xtick_1">
     <g id="line2d_1">
      <defs>
       <path id="m547458930a" d="M 0 0 
L 0 3.5 
" style="stroke: #000000; stroke-width: 0.8"/>
      </defs>
      <g>
       <use xlink:href="#m547458930a" x="53.681477" y="273.312" style="stroke: #000000; stroke-width: 0.8"/>
      </g>
     </g>
     <g id="text_1">
      <!-- −3 -->
      <g transform="translate(44.836165 289.430125) scale(0.12 -0.12)">
       <defs>
        <path id="DejaVuSans-2212" d="M 678 2272 
L 4684 2272 
L 4684 1741 
L 678 1741 
L 678 2272 
z
" transform="scale(0.015625)"/>
        <path id="DejaVuSans-33" d="M 2597 2516 
Q 3050 2419 3304 2112 
Q 3559 1806 3559 1356 
Q 3559 666 3084 287 
Q 2609 -91 1734 -91 
Q 1441 -91 1130 -33 
Q 819 25 488 141 
L 488 750 
Q 750 597 1062 519 
Q 1375 441 1716 441 
Q 2309 441 2620 675 
Q 2931 909 2931 1356 
Q 2931 1769 2642 2001 
Q 2353 2234 1838 2234 
L 1294 2234 
L 1294 2753 
L 1863 2753 
Q 2328 2753 2575 2939 
Q 2822 3125 2822 3475 
Q 2822 3834 2567 4026 
Q 2313 4219 1838 4219 
Q 1578 4219 1281 4162 
Q 984 4106 628 3988 
L 628 4550 
Q 988 4650 1302 4700 
Q 1616 4750 1894 4750 
Q 2613 4750 3031 4423 
Q 3450 4097 3450 3541 
Q 3450 3153 3228 2886 
Q 3006 2619 2597 2516 
z
" transform="scale(0.015625)"/>
       </defs>
       <use xlink:href="#DejaVuSans-2212"/>
       <use xlink:href="#DejaVuSans-33" x="83.789062"/>
      </g>
     </g>
    </g>
    <g id="xtick_2">
     <g id="line2d_2">
      <g>
       <use xlink:href="#m547458930a" x="107.790568" y="273.312" style="stroke: #000000; stroke-width: 0.8"/>
      </g>
     </g>
     <g id="text_2">
      <!-- −2 -->
      <g transform="translate(98.945256 289.430125) scale(0.12 -0.12)">
       <defs>
        <path id="DejaVuSans-32" d="M 1228 531 
L 3431 531 
L 3431 0 
L 469 0 
L 469 531 
Q 828 903 1448 1529 
Q 2069 2156 2228 2338 
Q 2531 2678 2651 2914 
Q 2772 3150 2772 3378 
Q 2772 3750 2511 3984 
Q 2250 4219 1831 4219 
Q 1534 4219 1204 4116 
Q 875 4013 500 3803 
L 500 4441 
Q 881 4594 1212 4672 
Q 1544 4750 1819 4750 
Q 2544 4750 2975 4387 
Q 3406 4025 3406 3419 
Q 3406 3131 3298 2873 
Q 3191 2616 2906 2266 
Q 2828 2175 2409 1742 
Q 1991 1309 1228 531 
z
" transform="scale(0.015625)"/>
       </defs>
       <use xlink:href="#DejaVuSans-2212"/>
       <use xlink:href="#DejaVuSans-32" x="83.789062"/>
      </g>
     </g>
    </g>
    <g id="xtick_3">
     <g id="line2d_3">
      <g>
       <use xlink:href="#m547458930a" x="161.899659" y="273.312" style="stroke: #000000; stroke-width: 0.8"/>
      </g>
     </g>
     <g id="text_3">
      <!-- −1 -->
      <g transform="translate(153.054347 289.430125) scale(0.12 -0.12)">
       <defs>
        <path id="DejaVuSans-31" d="M 794 531 
L 1825 531 
L 1825 4091 
L 703 3866 
L 703 4441 
L 1819 4666 
L 2450 4666 
L 2450 531 
L 3481 531 
L 3481 0 
L 794 0 
L 794 531 
z
" transform="scale(0.015625)"/>
       </defs>
       <use xlink:href="#DejaVuSans-2212"/>
       <use xlink:href="#DejaVuSans-31" x="83.789062"/>
      </g>
     </g>
    </g>
    <g id="xtick_4">
     <g id="line2d_4">
      <g>
       <use xlink:href="#m547458930a" x="216.00875" y="273.312" style="stroke: #000000; stroke-width: 0.8"/>
      </g>
     </g>
     <g id="text_4">
      <!-- 0 -->
      <g transform="translate(212.19125 289.430125) scale(0.12 -0.12)">
       <defs>
        <path id="DejaVuSans-30" d="M 2034 4250 
Q 1547 4250 1301 3770 
Q 1056 3291 1056 2328 
Q 1056 1369 1301 889 
Q 1547 409 2034 409 
Q 2525 409 2770 889 
Q 3016 1369 3016 2328 
Q 3016 3291 2770 3770 
Q 2525 4250 2034 4250 
z
M 2034 4750 
Q 2819 4750 3233 4129 
Q 3647 3509 3647 2328 
Q 3647 1150 3233 529 
Q 2819 -91 2034 -91 
Q 1250 -91 836 529 
Q 422 1150 422 2328 
Q 422 3509 836 4129 
Q 1250 4750 2034 4750 
z
" transform="scale(0.015625)"/>
       </defs>
       <use xlink:href="#DejaVuSans-30"/>
      </g>
     </g>
    </g>
    <g id="xtick_5">
     <g id="line2d_5">
      <g>
       <use xlink:href="#m547458930a" x="270.117841" y="273.312" style="stroke: #000000; stroke-width: 0.8"/>
      </g>
     </g>
     <g id="text_5">
      <!-- 1 -->
      <g transform="translate(266.300341 289.430125) scale(0.12 -0.12)">
       <use xlink:href="#DejaVuSans-31"/>
      </g>
     </g>
    </g>
    <g id="xtick_6">
     <g id="line2d_6">
      <g>
       <use xlink:href="#m547458930a" x="324.226932" y="273.312" style="stroke: #000000; stroke-width: 0.8"/>
      </g>
     </g>
     <g id="text_6">
      <!-- 2 -->
      <g transform="translate(320.409432 289.430125) scale(0.12 -0.12)">
       <use xlink:href="#DejaVuSans-32"/>
      </g>
     </g>
    </g>
    <g id="xtick_7">
     <g id="line2d_7">
      <g>
       <use xlink:href="#m547458930a" x="378.336023" y="273.312" style="stroke: #000000; stroke-width: 0.8"/>
      </g>
     </g>
     <g id="text_7">
      <!-- 3 -->
      <g transform="translate(374.518523 289.430125) scale(0.12 -0.12)">
       <use xlink:href="#DejaVuSans-33"/>
      </g>
     </g>
    </g>
    <g id="text_8">
     <!-- Energy (eV) -->
     <g transform="translate(180.61625 305.043875) scale(0.12 -0.12)">
      <defs>
       <path id="DejaVuSans-45" d="M 628 4666 
L 3578 4666 
L 3578 4134 
L 1259 4134 
L 1259 2753 
L 3481 2753 
L 3481 2222 
L 1259 2222 
L 1259 531 
L 3634 531 
L 3634 0 
L 628 0 
L 628 4666 
z
" transform="scale(0.015625)"/>
       <path id="DejaVuSans-6e" d="M 3513 2113 
L 3513 0 
L 2938 0 
L 2938 2094 
Q 2938 2591 2744 2837 
Q 2550 3084 2163 3084 
Q 1697 3084 1428 2787 
Q 1159 2491 1159 1978 
L 1159 0 
L 581 0 
L 581 3500 
L 1159 3500 
L 1159 2956 
Q 1366 3272 1645 3428 
Q 1925 3584 2291 3584 
Q 2894 3584 3203 3211 
Q 3513 2838 3513 2113 
z
" transform="scale(0.015625)"/>
       <path id="DejaVuSans-65" d="M 3597 1894 
L 3597 1613 
L 953 1613 
Q 991 1019 1311 708 
Q 1631 397 2203 397 
Q 2534 397 2845 478 
Q 3156 559 3463 722 
L 3463 178 
Q 3153 47 2828 -22 
Q 2503 -91 2169 -91 
Q 1331 -91 842 396 
Q 353 884 353 1716 
Q 353 2575 817 3079 
Q 1281 3584 2069 3584 
Q 2775 3584 3186 3129 
Q 3597 2675 3597 1894 
z
M 3022 2063 
Q 3016 2534 2758 2815 
Q 2500 3097 2075 3097 
Q 1594 3097 1305 2825 
Q 1016 2553 972 2059 
L 3022 2063 
z
" transform="scale(0.015625)"/>
       <path id="DejaVuSans-72" d="M 2631 2963 
Q 2534 3019 2420 3045 
Q 2306 3072 2169 3072 
Q 1681 3072 1420 2755 
Q 1159 2438 1159 1844 
L 1159 0 
L 581 0 
L 581 3500 
L 1159 3500 
L 1159 2956 
Q 1341 3275 1631 3429 
Q 1922 3584 2338 3584 
Q 2397 3584 2469 3576 
Q 2541 3569 2628 3553 
L 2631 2963 
z
" transform="scale(0.015625)"/>
       <path id="DejaVuSans-67" d="M 2906 1791 
Q 2906 2416 2648 2759 
Q 2391 3103 1925 3103 
Q 1463 3103 1205 2759 
Q 947 2416 947 1791 
Q 947 1169 1205 825 
Q 1463 481 1925 481 
Q 2391 481 2648 825 
Q 2906 1169 2906 1791 
z
M 3481 434 
Q 3481 -459 3084 -895 
Q 2688 -1331 1869 -1331 
Q 1566 -1331 1297 -1286 
Q 1028 -1241 775 -1147 
L 775 -588 
Q 1028 -725 1275 -790 
Q 1522 -856 1778 -856 
Q 2344 -856 2625 -561 
Q 2906 -266 2906 331 
L 2906 616 
Q 2728 306 2450 153 
Q 2172 0 1784 0 
Q 1141 0 747 490 
Q 353 981 353 1791 
Q 353 2603 747 3093 
Q 1141 3584 1784 3584 
Q 2172 3584 2450 3431 
Q 2728 3278 2906 2969 
L 2906 3500 
L 3481 3500 
L 3481 434 
z
" transform="scale(0.015625)"/>
       <path id="DejaVuSans-79" d="M 2059 -325 
Q 1816 -950 1584 -1140 
Q 1353 -1331 966 -1331 
L 506 -1331 
L 506 -850 
L 844 -850 
Q 1081 -850 1212 -737 
Q 1344 -625 1503 -206 
L 1606 56 
L 191 3500 
L 800 3500 
L 1894 763 
L 2988 3500 
L 3597 3500 
L 2059 -325 
z
" transform="scale(0.015625)"/>
       <path id="DejaVuSans-20" transform="scale(0.015625)"/>
       <path id="DejaVuSans-28" d="M 1984 4856 
Q 1566 4138 1362 3434 
Q 1159 2731 1159 2009 
Q 1159 1288 1364 580 
Q 1569 -128 1984 -844 
L 1484 -844 
Q 1016 -109 783 600 
Q 550 1309 550 2009 
Q 550 2706 781 3412 
Q 1013 4119 1484 4856 
L 1984 4856 
z
" transform="scale(0.015625)"/>
       <path id="DejaVuSans-56" d="M 1831 0 
L 50 4666 
L 709 4666 
L 2188 738 
L 3669 4666 
L 4325 4666 
L 2547 0 
L 1831 0 
z
" transform="scale(0.015625)"/>
       <path id="DejaVuSans-29" d="M 513 4856 
L 1013 4856 
Q 1481 4119 1714 3412 
Q 1947 2706 1947 2009 
Q 1947 1309 1714 600 
Q 1481 -109 1013 -844 
L 513 -844 
Q 928 -128 1133 580 
Q 1338 1288 1338 2009 
Q 1338 2731 1133 3434 
Q 928 4138 513 4856 
z
" transform="scale(0.015625)"/>
      </defs>
      <use xlink:href="#DejaVuSans-45"/>
      <use xlink:href="#DejaVuSans-6e" x="63.183594"/>
      <use xlink:href="#DejaVuSans-65" x="126.5625"/>
      <use xlink:href="#DejaVuSans-72" x="188.085938"/>
      <use xlink:href="#DejaVuSans-67" x="227.449219"/>
      <use xlink:href="#DejaVuSans-79" x="290.925781"/>
      <use xlink:href="#DejaVuSans-20" x="350.105469"/>
      <use xlink:href="#DejaVuSans-28" x="381.892578"/>
      <use xlink:href="#DejaVuSans-65" x="420.90625"/>
      <use xlink:href="#DejaVuSans-56" x="482.429688"/>
      <use xlink:href="#DejaVuSans-29" x="550.837891"/>
     </g>
    </g>
   </g>
   <g id="matplotlib.axis_2">
    <g id="ytick_1">
     <g id="line2d_8">
      <defs>
       <path id="m0b9d4cd378" d="M 0 0 
L -3.5 0 
" style="stroke: #000000; stroke-width: 0.8"/>
      </defs>
      <g>
       <use xlink:href="#m0b9d4cd378" x="37.44875" y="261.21997" style="stroke: #000000; stroke-width: 0.8"/>
      </g>
     </g>
     <g id="text_9">
      <!-- 0 -->
      <g transform="translate(22.81375 265.779033) scale(0.12 -0.12)">
       <use xlink:href="#DejaVuSans-30"/>
      </g>
     </g>
    </g>
    <g id="ytick_2">
     <g id="line2d_9">
      <g>
       <use xlink:href="#m0b9d4cd378" x="37.44875" y="218.771937" style="stroke: #000000; stroke-width: 0.8"/>
      </g>
     </g>
     <g id="text_10">
      <!-- 1 -->
      <g transform="translate(22.81375 223.330999) scale(0.12 -0.12)">
       <use xlink:href="#DejaVuSans-31"/>
      </g>
     </g>
    </g>
    <g id="ytick_3">
     <g id="line2d_10">
      <g>
       <use xlink:href="#m0b9d4cd378" x="37.44875" y="176.323904" style="stroke: #000000; stroke-width: 0.8"/>
      </g>
     </g>
     <g id="text_11">
      <!-- 2 -->
      <g transform="translate(22.81375 180.882966) scale(0.12 -0.12)">
       <use xlink:href="#DejaVuSans-32"/>
      </g>
     </g>
    </g>
    <g id="ytick_4">
     <g id="line2d_11">
      <g>
       <use xlink:href="#m0b9d4cd378" x="37.44875" y="133.87587" style="stroke: #000000; stroke-width: 0.8"/>
      </g>
     </g>
     <g id="text_12">
      <!-- 3 -->
      <g transform="translate(22.81375 138.434933) scale(0.12 -0.12)">
       <use xlink:href="#DejaVuSans-33"/>
      </g>
     </g>
    </g>
    <g id="ytick_5">
     <g id="line2d_12">
      <g>
       <use xlink:href="#m0b9d4cd378" x="37.44875" y="91.427837" style="stroke: #000000; stroke-width: 0.8"/>
      </g>
     </g>
     <g id="text_13">
      <!-- 4 -->
      <g transform="translate(22.81375 95.986899) scale(0.12 -0.12)">
       <defs>
        <path id="DejaVuSans-34" d="M 2419 4116 
L 825 1625 
L 2419 1625 
L 2419 4116 
z
M 2253 4666 
L 3047 4666 
L 3047 1625 
L 3713 1625 
L 3713 1100 
L 3047 1100 
L 3047 0 
L 2419 0 
L 2419 1100 
L 313 1100 
L 313 1709 
L 2253 4666 
z
" transform="scale(0.015625)"/>
       </defs>
       <use xlink:href="#DejaVuSans-34"/>
      </g>
     </g>
    </g>
    <g id="ytick_6">
     <g id="line2d_13">
      <g>
       <use xlink:href="#m0b9d4cd378" x="37.44875" y="48.979804" style="stroke: #000000; stroke-width: 0.8"/>
      </g>
     </g>
     <g id="text_14">
      <!-- 5 -->
      <g transform="translate(22.81375 53.538866) scale(0.12 -0.12)">
       <defs>
        <path id="DejaVuSans-35" d="M 691 4666 
L 3169 4666 
L 3169 4134 
L 1269 4134 
L 1269 2991 
Q 1406 3038 1543 3061 
Q 1681 3084 1819 3084 
Q 2600 3084 3056 2656 
Q 3513 2228 3513 1497 
Q 3513 744 3044 326 
Q 2575 -91 1722 -91 
Q 1428 -91 1123 -41 
Q 819 9 494 109 
L 494 744 
Q 775 591 1075 516 
Q 1375 441 1709 441 
Q 2250 441 2565 725 
Q 2881 1009 2881 1497 
Q 2881 1984 2565 2268 
Q 2250 2553 1709 2553 
Q 1456 2553 1204 2497 
Q 953 2441 691 2322 
L 691 4666 
z
" transform="scale(0.015625)"/>
       </defs>
       <use xlink:href="#DejaVuSans-35"/>
      </g>
     </g>
    </g>
    <g id="text_15">
     <!-- DOS (1/eV) -->
     <g transform="translate(16.318125 173.631937) rotate(-90) scale(0.12 -0.12)">
      <defs>
       <path id="DejaVuSans-44" d="M 1259 4147 
L 1259 519 
L 2022 519 
Q 2988 519 3436 956 
Q 3884 1394 3884 2338 
Q 3884 3275 3436 3711 
Q 2988 4147 2022 4147 
L 1259 4147 
z
M 628 4666 
L 1925 4666 
Q 3281 4666 3915 4102 
Q 4550 3538 4550 2338 
Q 4550 1131 3912 565 
Q 3275 0 1925 0 
L 628 0 
L 628 4666 
z
" transform="scale(0.015625)"/>
       <path id="DejaVuSans-4f" d="M 2522 4238 
Q 1834 4238 1429 3725 
Q 1025 3213 1025 2328 
Q 1025 1447 1429 934 
Q 1834 422 2522 422 
Q 3209 422 3611 934 
Q 4013 1447 4013 2328 
Q 4013 3213 3611 3725 
Q 3209 4238 2522 4238 
z
M 2522 4750 
Q 3503 4750 4090 4092 
Q 4678 3434 4678 2328 
Q 4678 1225 4090 567 
Q 3503 -91 2522 -91 
Q 1538 -91 948 565 
Q 359 1222 359 2328 
Q 359 3434 948 4092 
Q 1538 4750 2522 4750 
z
" transform="scale(0.015625)"/>
       <path id="DejaVuSans-53" d="M 3425 4513 
L 3425 3897 
Q 3066 4069 2747 4153 
Q 2428 4238 2131 4238 
Q 1616 4238 1336 4038 
Q 1056 3838 1056 3469 
Q 1056 3159 1242 3001 
Q 1428 2844 1947 2747 
L 2328 2669 
Q 3034 2534 3370 2195 
Q 3706 1856 3706 1288 
Q 3706 609 3251 259 
Q 2797 -91 1919 -91 
Q 1588 -91 1214 -16 
Q 841 59 441 206 
L 441 856 
Q 825 641 1194 531 
Q 1563 422 1919 422 
Q 2459 422 2753 634 
Q 3047 847 3047 1241 
Q 3047 1584 2836 1778 
Q 2625 1972 2144 2069 
L 1759 2144 
Q 1053 2284 737 2584 
Q 422 2884 422 3419 
Q 422 4038 858 4394 
Q 1294 4750 2059 4750 
Q 2388 4750 2728 4690 
Q 3069 4631 3425 4513 
z
" transform="scale(0.015625)"/>
       <path id="DejaVuSans-2f" d="M 1625 4666 
L 2156 4666 
L 531 -594 
L 0 -594 
L 1625 4666 
z
" transform="scale(0.015625)"/>
      </defs>
      <use xlink:href="#DejaVuSans-44"/>
      <use xlink:href="#DejaVuSans-4f" x="77.001953"/>
      <use xlink:href="#DejaVuSans-53" x="155.712891"/>
      <use xlink:href="#DejaVuSans-20" x="219.189453"/>
      <use xlink:href="#DejaVuSans-28" x="250.976562"/>
      <use xlink:href="#DejaVuSans-31" x="289.990234"/>
      <use xlink:href="#DejaVuSans-2f" x="353.613281"/>
      <use xlink:href="#DejaVuSans-65" x="387.304688"/>
      <use xlink:href="#DejaVuSans-56" x="448.828125"/>
      <use xlink:href="#DejaVuSans-29" x="517.236328"/>
     </g>
    </g>
   </g>
   <g id="line2d_14">
    <path d="M 53.681477 261.166651 
L 59.092386 261.132923 
L 64.503295 261.058368 
L 69.914205 260.841851 
L 75.325114 259.686851 
L 80.736023 19.296 
L 86.146932 149.351967 
L 91.557841 183.146694 
L 96.96875 197.045262 
L 102.379659 204.925621 
L 107.790568 210.116941 
L 113.201477 213.848645 
L 118.612386 216.682835 
L 124.023295 218.912896 
L 129.434205 220.707143 
L 134.845114 222.169695 
L 140.256023 223.369259 
L 145.666932 224.353823 
L 151.077841 225.158578 
L 156.48875 225.810326 
L 161.899659 226.329997 
L 167.310568 226.734094 
L 172.721477 227.035508 
L 178.132386 227.243982 
L 183.543295 227.366356 
L 188.954205 227.406697 
L 194.365114 227.366356 
L 199.776023 227.243982 
L 205.186932 227.035508 
L 210.597841 226.734094 
L 216.00875 226.329997 
L 221.419659 225.810326 
L 226.830568 225.158578 
L 232.241477 224.353823 
L 237.652386 223.369259 
L 243.063295 222.169695 
L 248.474205 220.707143 
L 253.885114 218.912896 
L 259.296023 216.682835 
L 264.706932 213.848645 
L 270.117841 210.116941 
L 275.52875 204.925621 
L 280.939659 197.045262 
L 286.350568 183.146694 
L 291.761477 149.351967 
L 297.172386 19.296 
L 302.583295 259.686851 
L 307.994205 260.841851 
L 313.405114 261.058368 
L 318.816023 261.132923 
L 324.226932 261.166651 
L 329.637841 261.184517 
L 335.04875 261.195014 
L 340.459659 261.201648 
L 345.870568 261.206077 
L 351.281477 261.209162 
L 356.692386 261.211384 
L 362.103295 261.21303 
L 367.514205 261.214278 
L 372.925114 261.215242 
L 378.336023 261.216 
" clip-path="url(#pa6a18d00fc)" style="fill: none; stroke: #1f77b4; stroke-width: 1.5; stroke-linecap: square"/>
    <defs>
     <path id="mf055004624" d="M 0 1.5 
C 0.397805 1.5 0.77937 1.341951 1.06066 1.06066 
C 1.341951 0.77937 1.5 0.397805 1.5 0 
C 1.5 -0.397805 1.341951 -0.77937 1.06066 -1.06066 
C 0.77937 -1.341951 0.397805 -1.5 0 -1.5 
C -0.397805 -1.5 -0.77937 -1.341951 -1.06066 -1.06066 
C -1.341951 -0.77937 -1.5 -0.397805 -1.5 0 
C -1.5 0.397805 -1.341951 0.77937 -1.06066 1.06066 
C -0.77937 1.341951 -0.397805 1.5 0 1.5 
z
" style="stroke: #1f77b4"/>
    </defs>
    <g clip-path="url(#pa6a18d00fc)">
     <use xlink:href="#mf055004624" x="53.681477" y="261.166651" style="fill: #1f77b4; stroke: #1f77b4"/>
     <use xlink:href="#mf055004624" x="59.092386" y="261.132923" style="fill: #1f77b4; stroke: #1f77b4"/>
     <use xlink:href="#mf055004624" x="64.503295" y="261.058368" style="fill: #1f77b4; stroke: #1f77b4"/>
     <use xlink:href="#mf055004624" x="69.914205" y="260.841851" style="fill: #1f77b4; stroke: #1f77b4"/>
     <use xlink:href="#mf055004624" x="75.325114" y="259.686851" style="fill: #1f77b4; stroke: #1f77b4"/>
     <use xlink:href="#mf055004624" x="80.736023" y="19.296" style="fill: #1f77b4; stroke: #1f77b4"/>
     <use xlink:href="#mf055004624" x="86.146932" y="149.351967" style="fill: #1f77b4; stroke: #1f77b4"/>
     <use xlink:href="#mf055004624" x="91.557841" y="183.146694" style="fill: #1f77b4; stroke: #1f77b4"/>
     <use xlink:href="#mf055004624" x="96.96875" y="197.045262" style="fill: #1f77b4; stroke: #1f77b4"/>
     <use xlink:href="#mf055004624" x="102.379659" y="204.925621" style="fill: #1f77b4; stroke: #1f77b4"/>
     <use xlink:href="#mf055004624" x="107.790568" y="210.116941" style="fill: #1f77b4; stroke: #1f77b4"/>
     <use xlink:href="#mf055004624" x="113.201477" y="213.848645" style="fill: #1f77b4; stroke: #1f77b4"/>
     <use xlink:href="#mf055004624" x="118.612386" y="216.682835" style="fill: #1f77b4; stroke: #1f77b4"/>
     <use xlink:href="#mf055004624" x="124.023295" y="218.912896" style="fill: #1f77b4; stroke: #1f77b4"/>
     <use xlink:href="#mf055004624" x="129.434205" y="220.707143" style="fill: #1f77b4; stroke: #1f77b4"/>
     <use xlink:href="#mf055004624" x="134.845114" y="222.169695" style="fill: #1f77b4; stroke: #1f77b4"/>
     <use xlink:href="#mf055004624" x="140.256023" y="223.369259" style="fill: #1f77b4; stroke: #1f77b4"/>
     <use xlink:href="#mf055004624" x="145.666932" y="224.353823" style="fill: #1f77b4; stroke: #1f77b4"/>
     <use xlink:href="#mf055004624" x="151.077841" y="225.158578" style="fill: #1f77b4; stroke: #1f77b4"/>
     <use xlink:href="#mf055004624" x="156.48875" y="225.810326" style="fill: #1f77b4; stroke: #1f77b4"/>
     <use xlink:href="#mf055004624" x="161.899659" y="226.329997" style="fill: #1f77b4; stroke: #1f77b4"/>
     <use xlink:href="#mf055004624" x="167.310568" y="226.734094" style="fill: #1f77b4; stroke: #1f77b4"/>
     <use xlink:href="#mf055004624" x="172.721477" y="227.035508" style="fill: #1f77b4; stroke: #1f77b4"/>
     <use xlink:href="#mf055004624" x="178.132386" y="227.243982" style="fill: #1f77b4; stroke: #1f77b4"/>
     <use xlink:href="#mf055004624" x="183.543295" y="227.366356" style="fill: #1f77b4; stroke: #1f77b4"/>
     <use xlink:href="#mf055004624" x="188.954205" y="227.406697" style="fill: #1f77b4; stroke: #1f77b4"/>
     <use xlink:href="#mf055004624" x="194.365114" y="227.366356" style="fill: #1f77b4; stroke: #1f77b4"/>
     <use xlink:href="#mf055004624" x="199.776023" y="227.243982" style="fill: #1f77b4; stroke: #1f77b4"/>
     <use xlink:href="#mf055004624" x="205.186932" y="227.035508" style="fill: #1f77b4; stroke: #1f77b4"/>
     <use xlink:href="#mf055004624" x="210.597841" y="226.734094" style="fill: #1f77b4; stroke: #1f77b4"/>
     <use xlink:href="#mf055004624" x="216.00875" y="226.329997" style="fill: #1f77b4; stroke: #1f77b4"/>
     <use xlink:href="#mf055004624" x="221.419659" y="225.810326" style="fill: #1f77b4; stroke: #1f77b4"/>
     <use xlink:href="#mf055004624" x="226.830568" y="225.158578" style="fill: #1f77b4; stroke: #1f77b4"/>
     <use xlink:href="#mf055004624" x="232.241477" y="224.353823" style="fill: #1f77b4; stroke: #1f77b4"/>
     <use xlink:href="#mf055004624" x="237.652386" y="223.369259" style="fill: #1f77b4; stroke: #1f77b4"/>
     <use xlink:href="#mf055004624" x="243.063295" y="222.169695" style="fill: #1f77b4; stroke: #1f77b4"/>
     <use xlink:href="#mf055004624" x="248.474205" y="220.707143" style="fill: #1f77b4; stroke: #1f77b4"/>
     <use xlink:href="#mf055004624" x="253.885114" y="218.912896" style="fill: #1f77b4; stroke: #1f77b4"/>
     <use xlink:href="#mf055004624" x="259.296023" y="216.682835" style="fill: #1f77b4; stroke: #1f77b4"/>
     <use xlink:href="#mf055004624" x="264.706932" y="213.848645" style="fill: #1f77b4; stroke: #1f77b4"/>
     <use xlink:href="#mf055004624" x="270.117841" y="210.116941" style="fill: #1f77b4; stroke: #1f77b4"/>
     <use xlink:href="#mf055004624" x="275.52875" y="204.925621" style="fill: #1f77b4; stroke: #1f77b4"/>
     <use xlink:href="#mf055004624" x="280.939659" y="197.045262" style="fill: #1f77b4; stroke: #1f77b4"/>
     <use xlink:href="#mf055004624" x="286.350568" y="183.146694" style="fill: #1f77b4; stroke: #1f77b4"/>
     <use xlink:href="#mf055004624" x="291.761477" y="149.351967" style="fill: #1f77b4; stroke: #1f77b4"/>
     <use xlink:href="#mf055004624" x="297.172386" y="19.296" style="fill: #1f77b4; stroke: #1f77b4"/>
     <use xlink:href="#mf055004624" x="302.583295" y="259.686851" style="fill: #1f77b4; stroke: #1f77b4"/>
     <use xlink:href="#mf055004624" x="307.994205" y="260.841851" style="fill: #1f77b4; stroke: #1f77b4"/>
     <use xlink:href="#mf055004624" x="313.405114" y="261.058368" style="fill: #1f77b4; stroke: #1f77b4"/>
     <use xlink:href="#mf055004624" x="318.816023" y="261.132923" style="fill: #1f77b4; stroke: #1f77b4"/>
     <use xlink:href="#mf055004624" x="324.226932" y="261.166651" style="fill: #1f77b4; stroke: #1f77b4"/>
     <use xlink:href="#mf055004624" x="329.637841" y="261.184517" style="fill: #1f77b4; stroke: #1f77b4"/>
     <use xlink:href="#mf055004624" x="335.04875" y="261.195014" style="fill: #1f77b4; stroke: #1f77b4"/>
     <use xlink:href="#mf055004624" x="340.459659" y="261.201648" style="fill: #1f77b4; stroke: #1f77b4"/>
     <use xlink:href="#mf055004624" x="345.870568" y="261.206077" style="fill: #1f77b4; stroke: #1f77b4"/>
     <use xlink:href="#mf055004624" x="351.281477" y="261.209162" style="fill: #1f77b4; stroke: #1f77b4"/>
     <use xlink:href="#mf055004624" x="356.692386" y="261.211384" style="fill: #1f77b4; stroke: #1f77b4"/>
     <use xlink:href="#mf055004624" x="362.103295" y="261.21303" style="fill: #1f77b4; stroke: #1f77b4"/>
     <use xlink:href="#mf055004624" x="367.514205" y="261.214278" style="fill: #1f77b4; stroke: #1f77b4"/>
     <use xlink:href="#mf055004624" x="372.925114" y="261.215242" style="fill: #1f77b4; stroke: #1f77b4"/>
     <use xlink:href="#mf055004624" x="378.336023" y="261.216" style="fill: #1f77b4; stroke: #1f77b4"/>
    </g>
   </g>
   <g id="line2d_15">
    <path d="M 53.681477 261.216 
L 59.092386 261.215242 
L 64.503295 261.214278 
L 69.914205 261.21303 
L 75.325114 261.211384 
L 80.736023 261.209162 
L 86.146932 261.206077 
L 91.557841 261.201648 
L 96.96875 261.195014 
L 102.379659 261.184517 
L 107.790568 261.166651 
L 113.201477 261.132923 
L 118.612386 261.058368 
L 124.023295 260.841851 
L 129.434205 259.686851 
L 134.845114 19.296 
L 140.256023 149.351967 
L 145.666932 183.146694 
L 151.077841 197.045262 
L 156.48875 204.925621 
L 161.899659 210.116941 
L 167.310568 213.848645 
L 172.721477 216.682835 
L 178.132386 218.912896 
L 183.543295 220.707143 
L 188.954205 222.169695 
L 194.365114 223.369259 
L 199.776023 224.353823 
L 205.186932 225.158578 
L 210.597841 225.810326 
L 216.00875 226.329997 
L 221.419659 226.734094 
L 226.830568 227.035508 
L 232.241477 227.243982 
L 237.652386 227.366356 
L 243.063295 227.406697 
L 248.474205 227.366356 
L 253.885114 227.243982 
L 259.296023 227.035508 
L 264.706932 226.734094 
L 270.117841 226.329997 
L 275.52875 225.810326 
L 280.939659 225.158578 
L 286.350568 224.353823 
L 291.761477 223.369259 
L 297.172386 222.169695 
L 302.583295 220.707143 
L 307.994205 218.912896 
L 313.405114 216.682835 
L 318.816023 213.848645 
L 324.226932 210.116941 
L 329.637841 204.925621 
L 335.04875 197.045262 
L 340.459659 183.146694 
L 345.870568 149.351967 
L 351.281477 19.296 
L 356.692386 259.686851 
L 362.103295 260.841851 
L 367.514205 261.058368 
L 372.925114 261.132923 
L 378.336023 261.166651 
" clip-path="url(#pa6a18d00fc)" style="fill: none; stroke: #ff7f0e; stroke-width: 1.5; stroke-linecap: square"/>
    <defs>
     <path id="m29acaf5e28" d="M 0 1.5 
C 0.397805 1.5 0.77937 1.341951 1.06066 1.06066 
C 1.341951 0.77937 1.5 0.397805 1.5 0 
C 1.5 -0.397805 1.341951 -0.77937 1.06066 -1.06066 
C 0.77937 -1.341951 0.397805 -1.5 0 -1.5 
C -0.397805 -1.5 -0.77937 -1.341951 -1.06066 -1.06066 
C -1.341951 -0.77937 -1.5 -0.397805 -1.5 0 
C -1.5 0.397805 -1.341951 0.77937 -1.06066 1.06066 
C -0.77937 1.341951 -0.397805 1.5 0 1.5 
z
" style="stroke: #ff7f0e"/>
    </defs>
    <g clip-path="url(#pa6a18d00fc)">
     <use xlink:href="#m29acaf5e28" x="53.681477" y="261.216" style="fill: #ff7f0e; stroke: #ff7f0e"/>
     <use xlink:href="#m29acaf5e28" x="59.092386" y="261.215242" style="fill: #ff7f0e; stroke: #ff7f0e"/>
     <use xlink:href="#m29acaf5e28" x="64.503295" y="261.214278" style="fill: #ff7f0e; stroke: #ff7f0e"/>
     <use xlink:href="#m29acaf5e28" x="69.914205" y="261.21303" style="fill: #ff7f0e; stroke: #ff7f0e"/>
     <use xlink:href="#m29acaf5e28" x="75.325114" y="261.211384" style="fill: #ff7f0e; stroke: #ff7f0e"/>
     <use xlink:href="#m29acaf5e28" x="80.736023" y="261.209162" style="fill: #ff7f0e; stroke: #ff7f0e"/>
     <use xlink:href="#m29acaf5e28" x="86.146932" y="261.206077" style="fill: #ff7f0e; stroke: #ff7f0e"/>
     <use xlink:href="#m29acaf5e28" x="91.557841" y="261.201648" style="fill: #ff7f0e; stroke: #ff7f0e"/>
     <use xlink:href="#m29acaf5e28" x="96.96875" y="261.195014" style="fill: #ff7f0e; stroke: #ff7f0e"/>
     <use xlink:href="#m29acaf5e28" x="102.379659" y="261.184517" style="fill: #ff7f0e; stroke: #ff7f0e"/>
     <use xlink:href="#m29acaf5e28" x="107.790568" y="261.166651" style="fill: #ff7f0e; stroke: #ff7f0e"/>
     <use xlink:href="#m29acaf5e28" x="113.201477" y="261.132923" style="fill: #ff7f0e; stroke: #ff7f0e"/>
     <use xlink:href="#m29acaf5e28" x="118.612386" y="261.058368" style="fill: #ff7f0e; stroke: #ff7f0e"/>
     <use xlink:href="#m29acaf5e28" x="124.023295" y="260.841851" style="fill: #ff7f0e; stroke: #ff7f0e"/>
     <use xlink:href="#m29acaf5e28" x="129.434205" y="259.686851" style="fill: #ff7f0e; stroke: #ff7f0e"/>
     <use xlink:href="#m29acaf5e28" x="134.845114" y="19.296" style="fill: #ff7f0e; stroke: #ff7f0e"/>
     <use xlink:href="#m29acaf5e28" x="140.256023" y="149.351967" style="fill: #ff7f0e; stroke: #ff7f0e"/>
     <use xlink:href="#m29acaf5e28" x="145.666932" y="183.146694" style="fill: #ff7f0e; stroke: #ff7f0e"/>
     <use xlink:href="#m29acaf5e28" x="151.077841" y="197.045262" style="fill: #ff7f0e; stroke: #ff7f0e"/>
     <use xlink:href="#m29acaf5e28" x="156.48875" y="204.925621" style="fill: #ff7f0e; stroke: #ff7f0e"/>
     <use xlink:href="#m29acaf5e28" x="161.899659" y="210.116941" style="fill: #ff7f0e; stroke: #ff7f0e"/>
     <use xlink:href="#m29acaf5e28" x="167.310568" y="213.848645" style="fill: #ff7f0e; stroke: #ff7f0e"/>
     <use xlink:href="#m29acaf5e28" x="172.721477" y="216.682835" style="fill: #ff7f0e; stroke: #ff7f0e"/>
     <use xlink:href="#m29acaf5e28" x="178.132386" y="218.912896" style="fill: #ff7f0e; stroke: #ff7f0e"/>
     <use xlink:href="#m29acaf5e28" x="183.543295" y="220.707143" style="fill: #ff7f0e; stroke: #ff7f0e"/>
     <use xlink:href="#m29acaf5e28" x="188.954205" y="222.169695" style="fill: #ff7f0e; stroke: #ff7f0e"/>
     <use xlink:href="#m29acaf5e28" x="194.365114" y="223.369259" style="fill: #ff7f0e; stroke: #ff7f0e"/>
     <use xlink:href="#m29acaf5e28" x="199.776023" y="224.353823" style="fill: #ff7f0e; stroke: #ff7f0e"/>
     <use xlink:href="#m29acaf5e28" x="205.186932" y="225.158578" style="fill: #ff7f0e; stroke: #ff7f0e"/>
     <use xlink:href="#m29acaf5e28" x="210.597841" y="225.810326" style="fill: #ff7f0e; stroke: #ff7f0e"/>
     <use xlink:href="#m29acaf5e28" x="216.00875" y="226.329997" style="fill: #ff7f0e; stroke: #ff7f0e"/>
     <use xlink:href="#m29acaf5e28" x="221.419659" y="226.734094" style="fill: #ff7f0e; stroke: #ff7f0e"/>
     <use xlink:href="#m29acaf5e28" x="226.830568" y="227.035508" style="fill: #ff7f0e; stroke: #ff7f0e"/>
     <use xlink:href="#m29acaf5e28" x="232.241477" y="227.243982" style="fill: #ff7f0e; stroke: #ff7f0e"/>
     <use xlink:href="#m29acaf5e28" x="237.652386" y="227.366356" style="fill: #ff7f0e; stroke: #ff7f0e"/>
     <use xlink:href="#m29acaf5e28" x="243.063295" y="227.406697" style="fill: #ff7f0e; stroke: #ff7f0e"/>
     <use xlink:href="#m29acaf5e28" x="248.474205" y="227.366356" style="fill: #ff7f0e; stroke: #ff7f0e"/>
     <use xlink:href="#m29acaf5e28" x="253.885114" y="227.243982" style="fill: #ff7f0e; stroke: #ff7f0e"/>
     <use xlink:href="#m29acaf5e28" x="259.296023" y="227.035508" style="fill: #ff7f0e; stroke: #ff7f0e"/>
     <use xlink:href="#m29acaf5e28" x="264.706932" y="226.734094" style="fill: #ff7f0e; stroke: #ff7f0e"/>
     <use xlink:href="#m29acaf5e28" x="270.117841" y="226.329997" style="fill: #ff7f0e; stroke: #ff7f0e"/>
     <use xlink:href="#m29acaf5e28" x="275.52875" y="225.810326" style="fill: #ff7f0e; stroke: #ff7f0e"/>
     <use xlink:href="#m29acaf5e28" x="280.939659" y="225.158578" style="fill: #ff7f0e; stroke: #ff7f0e"/>
     <use xlink:href="#m29acaf5e28" x="286.350568" y="224.353823" style="fill: #ff7f0e; stroke: #ff7f0e"/>
     <use xlink:href="#m29acaf5e28" x="291.761477" y="223.369259" style="fill: #ff7f0e; stroke: #ff7f0e"/>
     <use xlink:href="#m29acaf5e28" x="297.172386" y="222.169695" style="fill: #ff7f0e; stroke: #ff7f0e"/>
     <use xlink:href="#m29acaf5e28" x="302.583295" y="220.707143" style="fill: #ff7f0e; stroke: #ff7f0e"/>
     <use xlink:href="#m29acaf5e28" x="307.994205" y="218.912896" style="fill: #ff7f0e; stroke: #ff7f0e"/>
     <use xlink:href="#m29acaf5e28" x="313.405114" y="216.682835" style="fill: #ff7f0e; stroke: #ff7f0e"/>
     <use xlink:href="#m29acaf5e28" x="318.816023" y="213.848645" style="fill: #ff7f0e; stroke: #ff7f0e"/>
     <use xlink:href="#m29acaf5e28" x="324.226932" y="210.116941" style="fill: #ff7f0e; stroke: #ff7f0e"/>
     <use xlink:href="#m29acaf5e28" x="329.637841" y="204.925621" style="fill: #ff7f0e; stroke: #ff7f0e"/>
     <use xlink:href="#m29acaf5e28" x="335.04875" y="197.045262" style="fill: #ff7f0e; stroke: #ff7f0e"/>
     <use xlink:href="#m29acaf5e28" x="340.459659" y="183.146694" style="fill: #ff7f0e; stroke: #ff7f0e"/>
     <use xlink:href="#m29acaf5e28" x="345.870568" y="149.351967" style="fill: #ff7f0e; stroke: #ff7f0e"/>
     <use xlink:href="#m29acaf5e28" x="351.281477" y="19.296" style="fill: #ff7f0e; stroke: #ff7f0e"/>
     <use xlink:href="#m29acaf5e28" x="356.692386" y="259.686851" style="fill: #ff7f0e; stroke: #ff7f0e"/>
     <use xlink:href="#m29acaf5e28" x="362.103295" y="260.841851" style="fill: #ff7f0e; stroke: #ff7f0e"/>
     <use xlink:href="#m29acaf5e28" x="367.514205" y="261.058368" style="fill: #ff7f0e; stroke: #ff7f0e"/>
     <use xlink:href="#m29acaf5e28" x="372.925114" y="261.132923" style="fill: #ff7f0e; stroke: #ff7f0e"/>
     <use xlink:href="#m29acaf5e28" x="378.336023" y="261.166651" style="fill: #ff7f0e; stroke: #ff7f0e"/>
    </g>
   </g>
   <g id="patch_3">
    <path d="M 37.44875 273.312 
L 37.44875 7.2 
" style="fill: none; stroke: #000000; stroke-width: 0.8; stroke-linejoin: miter; stroke-linecap: square"/>
   </g>
   <g id="patch_4">
    <path d="M 394.56875 273.312 
L 394.56875 7.2 
" style="fill: none; stroke: #000000; stroke-width: 0.8; stroke-linejoin: miter; stroke-linecap: square"/>
   </g>
   <g id="patch_5">
    <path d="M 37.44875 273.312 
L 394.56875 273.312 
" style="fill: none; stroke: #000000; stroke-width: 0.8; stroke-linejoin: miter; stroke-linecap: square"/>
   </g>
   <g id="patch_6">
    <path d="M 37.44875 7.2 
L 394.56875 7.2 
" style="fill: none; stroke: #000000; stroke-width: 0.8; stroke-linejoin: miter; stroke-linecap: square"/>
   </g>
   <g id="legend_1">
    <g id="patch_7">
     <path d="M 166.050313 267.312 
L 265.967188 267.312 
Q 268.367188 267.312 268.367188 264.912 
L 268.367188 230.8845 
Q 268.367188 228.4845 265.967188 228.4845 
L 166.050313 228.4845 
Q 163.650313 228.4845 163.650313 230.8845 
L 163.650313 264.912 
Q 163.650313 267.312 166.050313 267.312 
z
" style="fill: #ffffff; opacity: 0.8; stroke: #cccccc; stroke-linejoin: miter"/>
    </g>
    <g id="line2d_16">
     <path d="M 168.450313 238.202625 
L 180.450313 238.202625 
L 192.450313 238.202625 
" style="fill: none; stroke: #1f77b4; stroke-width: 1.5; stroke-linecap: square"/>
     <g>
      <use xlink:href="#mf055004624" x="180.450313" y="238.202625" style="fill: #1f77b4; stroke: #1f77b4"/>
     </g>
    </g>
    <g id="text_16">
     <!-- spin-up -->
     <g transform="translate(202.050313 242.402625) scale(0.12 -0.12)">
      <defs>
       <path id="DejaVuSans-73" d="M 2834 3397 
L 2834 2853 
Q 2591 2978 2328 3040 
Q 2066 3103 1784 3103 
Q 1356 3103 1142 2972 
Q 928 2841 928 2578 
Q 928 2378 1081 2264 
Q 1234 2150 1697 2047 
L 1894 2003 
Q 2506 1872 2764 1633 
Q 3022 1394 3022 966 
Q 3022 478 2636 193 
Q 2250 -91 1575 -91 
Q 1294 -91 989 -36 
Q 684 19 347 128 
L 347 722 
Q 666 556 975 473 
Q 1284 391 1588 391 
Q 1994 391 2212 530 
Q 2431 669 2431 922 
Q 2431 1156 2273 1281 
Q 2116 1406 1581 1522 
L 1381 1569 
Q 847 1681 609 1914 
Q 372 2147 372 2553 
Q 372 3047 722 3315 
Q 1072 3584 1716 3584 
Q 2034 3584 2315 3537 
Q 2597 3491 2834 3397 
z
" transform="scale(0.015625)"/>
       <path id="DejaVuSans-70" d="M 1159 525 
L 1159 -1331 
L 581 -1331 
L 581 3500 
L 1159 3500 
L 1159 2969 
Q 1341 3281 1617 3432 
Q 1894 3584 2278 3584 
Q 2916 3584 3314 3078 
Q 3713 2572 3713 1747 
Q 3713 922 3314 415 
Q 2916 -91 2278 -91 
Q 1894 -91 1617 61 
Q 1341 213 1159 525 
z
M 3116 1747 
Q 3116 2381 2855 2742 
Q 2594 3103 2138 3103 
Q 1681 3103 1420 2742 
Q 1159 2381 1159 1747 
Q 1159 1113 1420 752 
Q 1681 391 2138 391 
Q 2594 391 2855 752 
Q 3116 1113 3116 1747 
z
" transform="scale(0.015625)"/>
       <path id="DejaVuSans-69" d="M 603 3500 
L 1178 3500 
L 1178 0 
L 603 0 
L 603 3500 
z
M 603 4863 
L 1178 4863 
L 1178 4134 
L 603 4134 
L 603 4863 
z
" transform="scale(0.015625)"/>
       <path id="DejaVuSans-2d" d="M 313 2009 
L 1997 2009 
L 1997 1497 
L 313 1497 
L 313 2009 
z
" transform="scale(0.015625)"/>
       <path id="DejaVuSans-75" d="M 544 1381 
L 544 3500 
L 1119 3500 
L 1119 1403 
Q 1119 906 1312 657 
Q 1506 409 1894 409 
Q 2359 409 2629 706 
Q 2900 1003 2900 1516 
L 2900 3500 
L 3475 3500 
L 3475 0 
L 2900 0 
L 2900 538 
Q 2691 219 2414 64 
Q 2138 -91 1772 -91 
Q 1169 -91 856 284 
Q 544 659 544 1381 
z
M 1991 3584 
L 1991 3584 
z
" transform="scale(0.015625)"/>
      </defs>
      <use xlink:href="#DejaVuSans-73"/>
      <use xlink:href="#DejaVuSans-70" x="52.099609"/>
      <use xlink:href="#DejaVuSans-69" x="115.576172"/>
      <use xlink:href="#DejaVuSans-6e" x="143.359375"/>
      <use xlink:href="#DejaVuSans-2d" x="206.738281"/>
      <use xlink:href="#DejaVuSans-75" x="242.822266"/>
      <use xlink:href="#DejaVuSans-70" x="306.201172"/>
     </g>
    </g>
    <g id="line2d_17">
     <path d="M 168.450313 255.816375 
L 180.450313 255.816375 
L 192.450313 255.816375 
" style="fill: none; stroke: #ff7f0e; stroke-width: 1.5; stroke-linecap: square"/>
     <g>
      <use xlink:href="#m29acaf5e28" x="180.450313" y="255.816375" style="fill: #ff7f0e; stroke: #ff7f0e"/>
     </g>
    </g>
    <g id="text_17">
     <!-- spin-down -->
     <g transform="translate(202.050313 260.016375) scale(0.12 -0.12)">
      <defs>
       <path id="DejaVuSans-64" d="M 2906 2969 
L 2906 4863 
L 3481 4863 
L 3481 0 
L 2906 0 
L 2906 525 
Q 2725 213 2448 61 
Q 2172 -91 1784 -91 
Q 1150 -91 751 415 
Q 353 922 353 1747 
Q 353 2572 751 3078 
Q 1150 3584 1784 3584 
Q 2172 3584 2448 3432 
Q 2725 3281 2906 2969 
z
M 947 1747 
Q 947 1113 1208 752 
Q 1469 391 1925 391 
Q 2381 391 2643 752 
Q 2906 1113 2906 1747 
Q 2906 2381 2643 2742 
Q 2381 3103 1925 3103 
Q 1469 3103 1208 2742 
Q 947 2381 947 1747 
z
" transform="scale(0.015625)"/>
       <path id="DejaVuSans-6f" d="M 1959 3097 
Q 1497 3097 1228 2736 
Q 959 2375 959 1747 
Q 959 1119 1226 758 
Q 1494 397 1959 397 
Q 2419 397 2687 759 
Q 2956 1122 2956 1747 
Q 2956 2369 2687 2733 
Q 2419 3097 1959 3097 
z
M 1959 3584 
Q 2709 3584 3137 3096 
Q 3566 2609 3566 1747 
Q 3566 888 3137 398 
Q 2709 -91 1959 -91 
Q 1206 -91 779 398 
Q 353 888 353 1747 
Q 353 2609 779 3096 
Q 1206 3584 1959 3584 
z
" transform="scale(0.015625)"/>
       <path id="DejaVuSans-77" d="M 269 3500 
L 844 3500 
L 1563 769 
L 2278 3500 
L 2956 3500 
L 3675 769 
L 4391 3500 
L 4966 3500 
L 4050 0 
L 3372 0 
L 2619 2869 
L 1863 0 
L 1184 0 
L 269 3500 
z
" transform="scale(0.015625)"/>
      </defs>
      <use xlink:href="#DejaVuSans-73"/>
      <use xlink:href="#DejaVuSans-70" x="52.099609"/>
      <use xlink:href="#DejaVuSans-69" x="115.576172"/>
      <use xlink:href="#DejaVuSans-6e" x="143.359375"/>
      <use xlink:href="#DejaVuSans-2d" x="206.738281"/>
      <use xlink:href="#DejaVuSans-64" x="242.822266"/>
      <use xlink:href="#DejaVuSans-6f" x="306.298828"/>
      <use xlink:href="#DejaVuSans-77" x="367.480469"/>
      <use xlink:href="#DejaVuSans-6e" x="449.267578"/>
     </g>
    </g>
   </g>
  </g>
 </g>
 <defs>
  <clipPath id="pa6a18d00fc">
   <rect x="37.44875" y="7.2" width="357.12" height="266.112"/>
  </clipPath>
 </defs>
</svg>