<?xml version="1.0" encoding="utf-8" standalone="no"?>
<!DOCTYPE svg PUBLIC "-//W3C//DTD SVG 1.1//EN"
  "http://www.w3.org/Graphics/SVG/1.1/DTD/svg11.dtd">
<svg xmlns:xlink="http://www.w3.org/1999/xlink" width="428.4875pt" height="314.7395pt" viewBox="0 0 428.4875 314.7395" xmlns="http://www.w3.org/2000/svg" version="1.1">
 <metadata>
  <rdf:RDF xmlns:dc="http://purl.org/dc/elements/1.1/" xmlns:cc="http://creativecommons.org/ns#" xmlns:rdf="http://www.w3.org/1999/02/22-rdf-syntax-ns#">
   <cc:Work>
    <dc:type rdf:resource="http://purl.org/dc/dcmitype/StillImage"/>
    <dc:date>2024-08-15T20:26:34.270948</dc:date>
    <dc:format>image/svg+xml</dc:format>
    <dc:creator>
     <cc:Agent>
      <dc:title>Matplotlib v3.7.2, https://matplotlib.org/</dc:title>
     </cc:Agent>
    </dc:creator>
   </cc:Work>
  </rdf:RDF>
 </metadata>
 <defs>
  <style type="text/css">*{stroke-linejoin: round; stroke-linecap: butt}</style>
 </defs>
 <g id="figure_1">
  <g id="patch_1">
   <path d="M 0 314.7395 
L 428.4875 314.7395 
L 428.4875 0 
L 0 0 
z
" style="fill: #ffffff"/>
  </g>
  <g id="axes_1">
   <g id="patch_2">
    <path d="M 64.1675 273.312 
L 421.2875 273.312 
L 421.2875 7.2 
L 64.1675 7.2 
z
" style="fill: #ffffff"/>
   </g>
   <g id="matplotlib.axis_1">
    <g id="xtick_1">
     <g id="line2d_1">
      <defs>
       <path id="madd7aaa500" d="M 0 0 
L 0 3.5 
" style="stroke: #000000; stroke-width: 0.8"/>
      </defs>
      <g>
       <use xlink:href="#madd7aaa500" x="80.400227" y="273.312" style="stroke: #000000; stroke-width: 0.8"/>
      </g>
     </g>
     <g id="text_1">
      <!-- −4 -->
      <g transform="translate(71.554915 289.430125) scale(0.12 -0.12)">
       <defs>
        <path id="DejaVuSans-2212" d="M 678 2272 
L 4684 2272 
L 4684 1741 
L 678 1741 
L 678 2272 
z
" transform="scale(0.015625)"/>
        <path id="DejaVuSans-34" d="M 2419 4116 
L 825 1625 
L 2419 1625 
L 2419 4116 
z
M 2253 4666 
L 3047 4666 
L 3047 1625 
L 3713 1625 
L 3713 1100 
L 3047 1100 
L 3047 0 
L 2419 0 
L 2419 1100 
L 313 1100 
L 313 1709 
L 2253 4666 
z
" transform="scale(0.015625)"/>
       </defs>
       <use xlink:href="#DejaVuSans-2212"/>
       <use xlink:href="#DejaVuSans-34" x="83.789062"/>
      </g>
     </g>
    </g>
    <g id="xtick_2">
     <g id="line2d_2">
      <g>
       <use xlink:href="#madd7aaa500" x="145.331136" y="273.312" style="stroke: #000000; stroke-width: 0.8"/>
      </g>
     </g>
     <g id="text_2">
      <!-- −2 -->
      <g transform="translate(136.485824 289.430125) scale(0.12 -0.12)">
       <defs>
        <path id="DejaVuSans-32" d="M 1228 531 
L 3431 531 
L 3431 0 
L 469 0 
L 469 531 
Q 828 903 1448 1529 
Q 2069 2156 2228 2338 
Q 2531 2678 2651 2914 
Q 2772 3150 2772 3378 
Q 2772 3750 2511 3984 
Q 2250 4219 1831 4219 
Q 1534 4219 1204 4116 
Q 875 4013 500 3803 
L 500 4441 
Q 881 4594 1212 4672 
Q 1544 4750 1819 4750 
Q 2544 4750 2975 4387 
Q 3406 4025 3406 3419 
Q 3406 3131 3298 2873 
Q 3191 2616 2906 2266 
Q 2828 2175 2409 1742 
Q 1991 1309 1228 531 
z
" transform="scale(0.015625)"/>
       </defs>
       <use xlink:href="#DejaVuSans-2212"/>
       <use xlink:href="#DejaVuSans-32" x="83.789062"/>
      </g>
     </g>
    </g>
    <g id="xtick_3">
     <g id="line2d_3">
      <g>
       <use xlink:href="#madd7aaa500" x="210.262045" y="273.312" style="stroke: #000000; stroke-width: 0.8"/>
      </g>
     </g>
     <g id="text_3">
      <!-- 0 -->
      <g transform="translate(206.444545 289.430125) scale(0.12 -0.12)">
       <defs>
        <path id="DejaVuSans-30" d="M 2034 4250 
Q 1547 4250 1301 3770 
Q 1056 3291 1056 2328 
Q 1056 1369 1301 889 
Q 1547 409 2034 409 
Q 2525 409 2770 889 
Q 3016 1369 3016 2328 
Q 3016 3291 2770 3770 
Q 2525 4250 2034 4250 
z
M 2034 4750 
Q 2819 4750 3233 4129 
Q 3647 3509 3647 2328 
Q 3647 1150 3233 529 
Q 2819 -91 2034 -91 
Q 1250 -91 836 529 
Q 422 1150 422 2328 
Q 422 3509 836 4129 
Q 1250 4750 2034 4750 
z
" transform="scale(0.015625)"/>
       </defs>
       <use xlink:href="#DejaVuSans-30"/>
      </g>
     </g>
    </g>
    <g id="xtick_4">
     <g id="line2d_4">
      <g>
       <use xlink:href="#madd7aaa500" x="275.192955" y="273.312" style="stroke: #000000; stroke-width: 0.8"/>
      </g>
     </g>
     <g id="text_4">
      <!-- 2 -->
      <g transform="translate(271.375455 289.430125) scale(0.12 -0.12)">
       <use xlink:href="#DejaVuSans-32"/>
      </g>
     </g>
    </g>
    <g id="xtick_5">
     <g id="line2d_5">
      <g>
       <use xlink:href="#madd7aaa500" x="340.123864" y="273.312" style="stroke: #000000; stroke-width: 0.8"/>
      </g>
     </g>
     <g id="text_5">
      <!-- 4 -->
      <g transform="translate(336.306364 289.430125) scale(0.12 -0.12)">
       <use xlink:href="#DejaVuSans-34"/>
      </g>
     </g>
    </g>
    <g id="xtick_6">
     <g id="line2d_6">
      <g>
       <use xlink:href="#madd7aaa500" x="405.054773" y="273.312" style="stroke: #000000; stroke-width: 0.8"/>
      </g>
     </g>
     <g id="text_6">
      <!-- 6 -->
      <g transform="translate(401.237273 289.430125) scale(0.12 -0.12)">
       <defs>
        <path id="DejaVuSans-36" d="M 2113 2584 
Q 1688 2584 1439 2293 
Q 1191 2003 1191 1497 
Q 1191 994 1439 701 
Q 1688 409 2113 409 
Q 2538 409 2786 701 
Q 3034 994 3034 1497 
Q 3034 2003 2786 2293 
Q 2538 2584 2113 2584 
z
M 3366 4563 
L 3366 3988 
Q 3128 4100 2886 4159 
Q 2644 4219 2406 4219 
Q 1781 4219 1451 3797 
Q 1122 3375 1075 2522 
Q 1259 2794 1537 2939 
Q 1816 3084 2150 3084 
Q 2853 3084 3261 2657 
Q 3669 2231 3669 1497 
Q 3669 778 3244 343 
Q 2819 -91 2113 -91 
Q 1303 -91 875 529 
Q 447 1150 447 2328 
Q 447 3434 972 4092 
Q 1497 4750 2381 4750 
Q 2619 4750 2861 4703 
Q 3103 4656 3366 4563 
z
" transform="scale(0.015625)"/>
       </defs>
       <use xlink:href="#DejaVuSans-36"/>
      </g>
     </g>
    </g>
    <g id="text_7">
     <!-- Energy (eV) -->
     <g transform="translate(207.335 305.043875) scale(0.12 -0.12)">
      <defs>
       <path id="DejaVuSans-45" d="M 628 4666 
L 3578 4666 
L 3578 4134 
L 1259 4134 
L 1259 2753 
L 3481 2753 
L 3481 2222 
L 1259 2222 
L 1259 531 
L 3634 531 
L 3634 0 
L 628 0 
L 628 4666 
z
" transform="scale(0.015625)"/>
       <path id="DejaVuSans-6e" d="M 3513 2113 
L 3513 0 
L 2938 0 
L 2938 2094 
Q 2938 2591 2744 2837 
Q 2550 3084 2163 3084 
Q 1697 3084 1428 2787 
Q 1159 2491 1159 1978 
L 1159 0 
L 581 0 
L 581 3500 
L 1159 3500 
L 1159 2956 
Q 1366 3272 1645 3428 
Q 1925 3584 2291 3584 
Q 2894 3584 3203 3211 
Q 3513 2838 3513 2113 
z
" transform="scale(0.015625)"/>
       <path id="DejaVuSans-65" d="M 3597 1894 
L 3597 1613 
L 953 1613 
Q 991 1019 1311 708 
Q 1631 397 2203 397 
Q 2534 397 2845 478 
Q 3156 559 3463 722 
L 3463 178 
Q 3153 47 2828 -22 
Q 2503 -91 2169 -91 
Q 1331 -91 842 396 
Q 353 884 353 1716 
Q 353 2575 817 3079 
Q 1281 3584 2069 3584 
Q 2775 3584 3186 3129 
Q 3597 2675 3597 1894 
z
M 3022 2063 
Q 3016 2534 2758 2815 
Q 2500 3097 2075 3097 
Q 1594 3097 1305 2825 
Q 1016 2553 972 2059 
L 3022 2063 
z
" transform="scale(0.015625)"/>
       <path id="DejaVuSans-72" d="M 2631 2963 
Q 2534 3019 2420 3045 
Q 2306 3072 2169 3072 
Q 1681 3072 1420 2755 
Q 1159 2438 1159 1844 
L 1159 0 
L 581 0 
L 581 3500 
L 1159 3500 
L 1159 2956 
Q 1341 3275 1631 3429 
Q 1922 3584 2338 3584 
Q 2397 3584 2469 3576 
Q 2541 3569 2628 3553 
L 2631 2963 
z
" transform="scale(0.015625)"/>
       <path id="DejaVuSans-67" d="M 2906 1791 
Q 2906 2416 2648 2759 
Q 2391 3103 1925 3103 
Q 1463 3103 1205 2759 
Q 947 2416 947 1791 
Q 947 1169 1205 825 
Q 1463 481 1925 481 
Q 2391 481 2648 825 
Q 2906 1169 2906 1791 
z
M 3481 434 
Q 3481 -459 3084 -895 
Q 2688 -1331 1869 -1331 
Q 1566 -1331 1297 -1286 
Q 1028 -1241 775 -1147 
L 775 -588 
Q 1028 -725 1275 -790 
Q 1522 -856 1778 -856 
Q 2344 -856 2625 -561 
Q 2906 -266 2906 331 
L 2906 616 
Q 2728 306 2450 153 
Q 2172 0 1784 0 
Q 1141 0 747 490 
Q 353 981 353 1791 
Q 353 2603 747 3093 
Q 1141 3584 1784 3584 
Q 2172 3584 2450 3431 
Q 2728 3278 2906 2969 
L 2906 3500 
L 3481 3500 
L 3481 434 
z
" transform="scale(0.015625)"/>
       <path id="DejaVuSans-79" d="M 2059 -325 
Q 1816 -950 1584 -1140 
Q 1353 -1331 966 -1331 
L 506 -1331 
L 506 -850 
L 844 -850 
Q 1081 -850 1212 -737 
Q 1344 -625 1503 -206 
L 1606 56 
L 191 3500 
L 800 3500 
L 1894 763 
L 2988 3500 
L 3597 3500 
L 2059 -325 
z
" transform="scale(0.015625)"/>
       <path id="DejaVuSans-20" transform="scale(0.015625)"/>
       <path id="DejaVuSans-28" d="M 1984 4856 
Q 1566 4138 1362 3434 
Q 1159 2731 1159 2009 
Q 1159 1288 1364 580 
Q 1569 -128 1984 -844 
L 1484 -844 
Q 1016 -109 783 600 
Q 550 1309 550 2009 
Q 550 2706 781 3412 
Q 1013 4119 1484 4856 
L 1984 4856 
z
" transform="scale(0.015625)"/>
       <path id="DejaVuSans-56" d="M 1831 0 
L 50 4666 
L 709 4666 
L 2188 738 
L 3669 4666 
L 4325 4666 
L 2547 0 
L 1831 0 
z
" transform="scale(0.015625)"/>
       <path id="DejaVuSans-29" d="M 513 4856 
L 1013 4856 
Q 1481 4119 1714 3412 
Q 1947 2706 1947 2009 
Q 1947 1309 1714 600 
Q 1481 -109 1013 -844 
L 513 -844 
Q 928 -128 1133 580 
Q 1338 1288 1338 2009 
Q 1338 2731 1133 3434 
Q 928 4138 513 4856 
z
" transform="scale(0.015625)"/>
      </defs>
      <use xlink:href="#DejaVuSans-45"/>
      <use xlink:href="#DejaVuSans-6e" x="63.183594"/>
      <use xlink:href="#DejaVuSans-65" x="126.5625"/>
      <use xlink:href="#DejaVuSans-72" x="188.085938"/>
      <use xlink:href="#DejaVuSans-67" x="227.449219"/>
      <use xlink:href="#DejaVuSans-79" x="290.925781"/>
      <use xlink:href="#DejaVuSans-20" x="350.105469"/>
      <use xlink:href="#DejaVuSans-28" x="381.892578"/>
      <use xlink:href="#DejaVuSans-65" x="420.90625"/>
      <use xlink:href="#DejaVuSans-56" x="482.429688"/>
      <use xlink:href="#DejaVuSans-29" x="550.837891"/>
     </g>
    </g>
   </g>
   <g id="matplotlib.axis_2">
    <g id="ytick_1">
     <g id="line2d_7">
      <defs>
       <path id="m995ab23fa0" d="M 0 0 
L -3.5 0 
" style="stroke: #000000; stroke-width: 0.8"/>
      </defs>
      <g>
       <use xlink:href="#m995ab23fa0" x="64.1675" y="261.216" style="stroke: #000000; stroke-width: 0.8"/>
      </g>
     </g>
     <g id="text_8">
      <!-- 0.000 -->
      <g transform="translate(22.81375 265.775062) scale(0.12 -0.12)">
       <defs>
        <path id="DejaVuSans-2e" d="M 684 794 
L 1344 794 
L 1344 0 
L 684 0 
L 684 794 
z
" transform="scale(0.015625)"/>
       </defs>
       <use xlink:href="#DejaVuSans-30"/>
       <use xlink:href="#DejaVuSans-2e" x="63.623047"/>
       <use xlink:href="#DejaVuSans-30" x="95.410156"/>
       <use xlink:href="#DejaVuSans-30" x="159.033203"/>
       <use xlink:href="#DejaVuSans-30" x="222.65625"/>
      </g>
     </g>
    </g>
    <g id="ytick_2">
     <g id="line2d_8">
      <g>
       <use xlink:href="#m995ab23fa0" x="64.1675" y="213.448033" style="stroke: #000000; stroke-width: 0.8"/>
      </g>
     </g>
     <g id="text_9">
      <!-- 0.005 -->
      <g transform="translate(22.81375 218.007096) scale(0.12 -0.12)">
       <defs>
        <path id="DejaVuSans-35" d="M 691 4666 
L 3169 4666 
L 3169 4134 
L 1269 4134 
L 1269 2991 
Q 1406 3038 1543 3061 
Q 1681 3084 1819 3084 
Q 2600 3084 3056 2656 
Q 3513 2228 3513 1497 
Q 3513 744 3044 326 
Q 2575 -91 1722 -91 
Q 1428 -91 1123 -41 
Q 819 9 494 109 
L 494 744 
Q 775 591 1075 516 
Q 1375 441 1709 441 
Q 2250 441 2565 725 
Q 2881 1009 2881 1497 
Q 2881 1984 2565 2268 
Q 2250 2553 1709 2553 
Q 1456 2553 1204 2497 
Q 953 2441 691 2322 
L 691 4666 
z
" transform="scale(0.015625)"/>
       </defs>
       <use xlink:href="#DejaVuSans-30"/>
       <use xlink:href="#DejaVuSans-2e" x="63.623047"/>
       <use xlink:href="#DejaVuSans-30" x="95.410156"/>
       <use xlink:href="#DejaVuSans-30" x="159.033203"/>
       <use xlink:href="#DejaVuSans-35" x="222.65625"/>
      </g>
     </g>
    </g>
    <g id="ytick_3">
     <g id="line2d_9">
      <g>
       <use xlink:href="#m995ab23fa0" x="64.1675" y="165.680066" style="stroke: #000000; stroke-width: 0.8"/>
      </g>
     </g>
     <g id="text_10">
      <!-- 0.010 -->
      <g transform="translate(22.81375 170.239129) scale(0.12 -0.12)">
       <defs>
        <path id="DejaVuSans-31" d="M 794 531 
L 1825 531 
L 1825 4091 
L 703 3866 
L 703 4441 
L 1819 4666 
L 2450 4666 
L 2450 531 
L 3481 531 
L 3481 0 
L 794 0 
L 794 531 
z
" transform="scale(0.015625)"/>
       </defs>
       <use xlink:href="#DejaVuSans-30"/>
       <use xlink:href="#DejaVuSans-2e" x="63.623047"/>
       <use xlink:href="#DejaVuSans-30" x="95.410156"/>
       <use xlink:href="#DejaVuSans-31" x="159.033203"/>
       <use xlink:href="#DejaVuSans-30" x="222.65625"/>
      </g>
     </g>
    </g>
    <g id="ytick_4">
     <g id="line2d_10">
      <g>
       <use xlink:href="#m995ab23fa0" x="64.1675" y="117.912099" style="stroke: #000000; stroke-width: 0.8"/>
      </g>
     </g>
     <g id="text_11">
      <!-- 0.015 -->
      <g transform="translate(22.81375 122.471162) scale(0.12 -0.12)">
       <use xlink:href="#DejaVuSans-30"/>
       <use xlink:href="#DejaVuSans-2e" x="63.623047"/>
       <use xlink:href="#DejaVuSans-30" x="95.410156"/>
       <use xlink:href="#DejaVuSans-31" x="159.033203"/>
       <use xlink:href="#DejaVuSans-35" x="222.65625"/>
      </g>
     </g>
    </g>
    <g id="ytick_5">
     <g id="line2d_11">
      <g>
       <use xlink:href="#m995ab23fa0" x="64.1675" y="70.144132" style="stroke: #000000; stroke-width: 0.8"/>
      </g>
     </g>
     <g id="text_12">
      <!-- 0.020 -->
      <g transform="translate(22.81375 74.703195) scale(0.12 -0.12)">
       <use xlink:href="#DejaVuSans-30"/>
       <use xlink:href="#DejaVuSans-2e" x="63.623047"/>
       <use xlink:href="#DejaVuSans-30" x="95.410156"/>
       <use xlink:href="#DejaVuSans-32" x="159.033203"/>
       <use xlink:href="#DejaVuSans-30" x="222.65625"/>
      </g>
     </g>
    </g>
    <g id="ytick_6">
     <g id="line2d_12">
      <g>
       <use xlink:href="#m995ab23fa0" x="64.1675" y="22.376165" style="stroke: #000000; stroke-width: 0.8"/>
      </g>
     </g>
     <g id="text_13">
      <!-- 0.025 -->
      <g transform="translate(22.81375 26.935228) scale(0.12 -0.12)">
       <use xlink:href="#DejaVuSans-30"/>
       <use xlink:href="#DejaVuSans-2e" x="63.623047"/>
       <use xlink:href="#DejaVuSans-30" x="95.410156"/>
       <use xlink:href="#DejaVuSans-32" x="159.033203"/>
       <use xlink:href="#DejaVuSans-35" x="222.65625"/>
      </g>
     </g>
    </g>
    <g id="text_14">
     <!-- Transmission -->
     <g transform="translate(16.318125 179.010375) rotate(-90) scale(0.12 -0.12)">
      <defs>
       <path id="DejaVuSans-54" d="M -19 4666 
L 3928 4666 
L 3928 4134 
L 2272 4134 
L 2272 0 
L 1638 0 
L 1638 4134 
L -19 4134 
L -19 4666 
z
" transform="scale(0.015625)"/>
       <path id="DejaVuSans-61" d="M 2194 1759 
Q 1497 1759 1228 1600 
Q 959 1441 959 1056 
Q 959 750 1161 570 
Q 1363 391 1709 391 
Q 2188 391 2477 730 
Q 2766 1069 2766 1631 
L 2766 1759 
L 2194 1759 
z
M 3341 1997 
L 3341 0 
L 2766 0 
L 2766 531 
Q 2569 213 2275 61 
Q 1981 -91 1556 -91 
Q 1019 -91 701 211 
Q 384 513 384 1019 
Q 384 1609 779 1909 
Q 1175 2209 1959 2209 
L 2766 2209 
L 2766 2266 
Q 2766 2663 2505 2880 
Q 2244 3097 1772 3097 
Q 1472 3097 1187 3025 
Q 903 2953 641 2809 
L 641 3341 
Q 956 3463 1253 3523 
Q 1550 3584 1831 3584 
Q 2591 3584 2966 3190 
Q 3341 2797 3341 1997 
z
" transform="scale(0.015625)"/>
       <path id="DejaVuSans-73" d="M 2834 3397 
L 2834 2853 
Q 2591 2978 2328 3040 
Q 2066 3103 1784 3103 
Q 1356 3103 1142 2972 
Q 928 2841 928 2578 
Q 928 2378 1081 2264 
Q 1234 2150 1697 2047 
L 1894 2003 
Q 2506 1872 2764 1633 
Q 3022 1394 3022 966 
Q 3022 478 2636 193 
Q 2250 -91 1575 -91 
Q 1294 -91 989 -36 
Q 684 19 347 128 
L 347 722 
Q 666 556 975 473 
Q 1284 391 1588 391 
Q 1994 391 2212 530 
Q 2431 669 2431 922 
Q 2431 1156 2273 1281 
Q 2116 1406 1581 1522 
L 1381 1569 
Q 847 1681 609 1914 
Q 372 2147 372 2553 
Q 372 3047 722 3315 
Q 1072 3584 1716 3584 
Q 2034 3584 2315 3537 
Q 2597 3491 2834 3397 
z
" transform="scale(0.015625)"/>
       <path id="DejaVuSans-6d" d="M 3328 2828 
Q 3544 3216 3844 3400 
Q 4144 3584 4550 3584 
Q 5097 3584 5394 3201 
Q 5691 2819 5691 2113 
L 5691 0 
L 5113 0 
L 5113 2094 
Q 5113 2597 4934 2840 
Q 4756 3084 4391 3084 
Q 3944 3084 3684 2787 
Q 3425 2491 3425 1978 
L 3425 0 
L 2847 0 
L 2847 2094 
Q 2847 2600 2669 2842 
Q 2491 3084 2119 3084 
Q 1678 3084 1418 2786 
Q 1159 2488 1159 1978 
L 1159 0 
L 581 0 
L 581 3500 
L 1159 3500 
L 1159 2956 
Q 1356 3278 1631 3431 
Q 1906 3584 2284 3584 
Q 2666 3584 2933 3390 
Q 3200 3197 3328 2828 
z
" transform="scale(0.015625)"/>
       <path id="DejaVuSans-69" d="M 603 3500 
L 1178 3500 
L 1178 0 
L 603 0 
L 603 3500 
z
M 603 4863 
L 1178 4863 
L 1178 4134 
L 603 4134 
L 603 4863 
z
" transform="scale(0.015625)"/>
       <path id="DejaVuSans-6f" d="M 1959 3097 
Q 1497 3097 1228 2736 
Q 959 2375 959 1747 
Q 959 1119 1226 758 
Q 1494 397 1959 397 
Q 2419 397 2687 759 
Q 2956 1122 2956 1747 
Q 2956 2369 2687 2733 
Q 2419 3097 1959 3097 
z
M 1959 3584 
Q 2709 3584 3137 3096 
Q 3566 2609 3566 1747 
Q 3566 888 3137 398 
Q 2709 -91 1959 -91 
Q 1206 -91 779 398 
Q 353 888 353 1747 
Q 353 2609 779 3096 
Q 1206 3584 1959 3584 
z
" transform="scale(0.015625)"/>
      </defs>
      <use xlink:href="#DejaVuSans-54"/>
      <use xlink:href="#DejaVuSans-72" x="46.333984"/>
      <use xlink:href="#DejaVuSans-61" x="87.447266"/>
      <use xlink:href="#DejaVuSans-6e" x="148.726562"/>
      <use xlink:href="#DejaVuSans-73" x="212.105469"/>
      <use xlink:href="#DejaVuSans-6d" x="264.205078"/>
      <use xlink:href="#DejaVuSans-69" x="361.617188"/>
      <use xlink:href="#DejaVuSans-73" x="389.400391"/>
      <use xlink:href="#DejaVuSans-73" x="441.5"/>
      <use xlink:href="#DejaVuSans-69" x="493.599609"/>
      <use xlink:href="#DejaVuSans-6f" x="521.382812"/>
      <use xlink:href="#DejaVuSans-6e" x="582.564453"/>
     </g>
    </g>
   </g>
   <g id="line2d_13">
    <path d="M 80.400227 261.216 
L 83.646773 261.216 
L 86.893318 261.216 
L 90.139864 261.216 
L 93.386409 261.216 
L 96.632955 261.216 
L 99.8795 261.216 
L 103.126045 261.216 
L 106.372591 261.216 
L 109.619136 261.216 
L 112.865682 261.216 
L 116.112227 261.216 
L 119.358773 261.216 
L 122.605318 261.216 
L 125.851864 261.216 
L 129.098409 261.216 
L 132.344955 261.216 
L 135.5915 261.216 
L 138.838045 261.216 
L 142.084591 261.216 
L 145.331136 261.216 
L 148.577682 261.216 
L 151.824227 261.216 
L 155.070773 261.215992 
L 158.317318 259.389807 
L 161.563864 252.178951 
L 164.810409 243.444964 
L 168.056955 236.916841 
L 171.3035 233.720401 
L 174.550045 230.534856 
L 177.796591 225.439697 
L 181.043136 222.14811 
L 184.289682 208.008902 
L 187.536227 201.158594 
L 190.782773 196.709931 
L 194.029318 193.167597 
L 197.275864 189.106368 
L 200.522409 182.752476 
L 203.768955 170.130226 
L 207.0155 150.374924 
L 210.262045 110.929185 
L 213.508591 150.116401 
L 216.755136 152.480192 
L 220.001682 154.27054 
L 223.248227 156.001031 
L 226.494773 156.18988 
L 229.741318 144.377703 
L 232.987864 150.686839 
L 236.234409 160.621401 
L 239.480955 179.476047 
L 242.7275 200.926133 
L 245.974045 218.187657 
L 249.220591 231.131995 
L 252.467136 245.797586 
L 255.713682 260.034862 
L 258.960227 261.215968 
L 262.206773 261.216 
L 265.453318 261.216 
L 268.699864 261.216 
L 271.946409 261.216 
L 275.192955 261.216 
L 278.4395 261.216 
L 281.686045 261.216 
L 284.932591 261.216 
L 288.179136 261.216 
L 291.425682 261.216 
L 294.672227 261.216 
L 297.918773 261.216 
L 301.165318 261.216 
L 304.411864 261.216 
L 307.658409 261.216 
L 310.904955 261.216 
L 314.1515 261.216 
L 317.398045 261.216 
L 320.644591 261.216 
L 323.891136 261.216 
L 327.137682 261.216 
L 330.384227 261.216 
L 333.630773 261.216 
L 336.877318 261.216 
L 340.123864 261.216 
L 343.370409 261.216 
L 346.616955 261.216 
L 349.8635 261.216 
L 353.110045 261.216 
L 356.356591 261.216 
L 359.603136 261.216 
L 362.849682 261.216 
L 366.096227 261.216 
L 369.342773 261.216 
L 372.589318 261.216 
L 375.835864 261.216 
L 379.082409 261.216 
L 382.328955 261.216 
L 385.5755 261.216 
L 388.822045 261.216 
L 392.068591 261.216 
L 395.315136 261.216 
L 398.561682 261.216 
L 401.808227 261.216 
L 405.054773 261.216 
" clip-path="url(#pfcfa61c63c)" style="fill: none; stroke: #1f77b4; stroke-width: 1.5; stroke-linecap: square"/>
    <defs>
     <path id="m008e18c13f" d="M 0 1.5 
C 0.397805 1.5 0.77937 1.341951 1.06066 1.06066 
C 1.341951 0.77937 1.5 0.397805 1.5 0 
C 1.5 -0.397805 1.341951 -0.77937 1.06066 -1.06066 
C 0.77937 -1.341951 0.397805 -1.5 0 -1.5 
C -0.397805 -1.5 -0.77937 -1.341951 -1.06066 -1.06066 
C -1.341951 -0.77937 -1.5 -0.397805 -1.5 0 
C -1.5 0.397805 -1.341951 0.77937 -1.06066 1.06066 
C -0.77937 1.341951 -0.397805 1.5 0 1.5 
z
" style="stroke: #1f77b4"/>
    </defs>
    <g clip-path="url(#pfcfa61c63c)">
     <use xlink:href="#m008e18c13f" x="80.400227" y="261.216" style="fill: #1f77b4; stroke: #1f77b4"/>
     <use xlink:href="#m008e18c13f" x="83.646773" y="261.216" style="fill: #1f77b4; stroke: #1f77b4"/>
     <use xlink:href="#m008e18c13f" x="86.893318" y="261.216" style="fill: #1f77b4; stroke: #1f77b4"/>
     <use xlink:href="#m008e18c13f" x="90.139864" y="261.216" style="fill: #1f77b4; stroke: #1f77b4"/>
     <use xlink:href="#m008e18c13f" x="93.386409" y="261.216" style="fill: #1f77b4; stroke: #1f77b4"/>
     <use xlink:href="#m008e18c13f" x="96.632955" y="261.216" style="fill: #1f77b4; stroke: #1f77b4"/>
     <use xlink:href="#m008e18c13f" x="99.8795" y="261.216" style="fill: #1f77b4; stroke: #1f77b4"/>
     <use xlink:href="#m008e18c13f" x="103.126045" y="261.216" style="fill: #1f77b4; stroke: #1f77b4"/>
     <use xlink:href="#m008e18c13f" x="106.372591" y="261.216" style="fill: #1f77b4; stroke: #1f77b4"/>
     <use xlink:href="#m008e18c13f" x="109.619136" y="261.216" style="fill: #1f77b4; stroke: #1f77b4"/>
     <use xlink:href="#m008e18c13f" x="112.865682" y="261.216" style="fill: #1f77b4; stroke: #1f77b4"/>
     <use xlink:href="#m008e18c13f" x="116.112227" y="261.216" style="fill: #1f77b4; stroke: #1f77b4"/>
     <use xlink:href="#m008e18c13f" x="119.358773" y="261.216" style="fill: #1f77b4; stroke: #1f77b4"/>
     <use xlink:href="#m008e18c13f" x="122.605318" y="261.216" style="fill: #1f77b4; stroke: #1f77b4"/>
     <use xlink:href="#m008e18c13f" x="125.851864" y="261.216" style="fill: #1f77b4; stroke: #1f77b4"/>
     <use xlink:href="#m008e18c13f" x="129.098409" y="261.216" style="fill: #1f77b4; stroke: #1f77b4"/>
     <use xlink:href="#m008e18c13f" x="132.344955" y="261.216" style="fill: #1f77b4; stroke: #1f77b4"/>
     <use xlink:href="#m008e18c13f" x="135.5915" y="261.216" style="fill: #1f77b4; stroke: #1f77b4"/>
     <use xlink:href="#m008e18c13f" x="138.838045" y="261.216" style="fill: #1f77b4; stroke: #1f77b4"/>
     <use xlink:href="#m008e18c13f" x="142.084591" y="261.216" style="fill: #1f77b4; stroke: #1f77b4"/>
     <use xlink:href="#m008e18c13f" x="145.331136" y="261.216" style="fill: #1f77b4; stroke: #1f77b4"/>
     <use xlink:href="#m008e18c13f" x="148.577682" y="261.216" style="fill: #1f77b4; stroke: #1f77b4"/>
     <use xlink:href="#m008e18c13f" x="151.824227" y="261.216" style="fill: #1f77b4; stroke: #1f77b4"/>
     <use xlink:href="#m008e18c13f" x="155.070773" y="261.215992" style="fill: #1f77b4; stroke: #1f77b4"/>
     <use xlink:href="#m008e18c13f" x="158.317318" y="259.389807" style="fill: #1f77b4; stroke: #1f77b4"/>
     <use xlink:href="#m008e18c13f" x="161.563864" y="252.178951" style="fill: #1f77b4; stroke: #1f77b4"/>
     <use xlink:href="#m008e18c13f" x="164.810409" y="243.444964" style="fill: #1f77b4; stroke: #1f77b4"/>
     <use xlink:href="#m008e18c13f" x="168.056955" y="236.916841" style="fill: #1f77b4; stroke: #1f77b4"/>
     <use xlink:href="#m008e18c13f" x="171.3035" y="233.720401" style="fill: #1f77b4; stroke: #1f77b4"/>
     <use xlink:href="#m008e18c13f" x="174.550045" y="230.534856" style="fill: #1f77b4; stroke: #1f77b4"/>
     <use xlink:href="#m008e18c13f" x="177.796591" y="225.439697" style="fill: #1f77b4; stroke: #1f77b4"/>
     <use xlink:href="#m008e18c13f" x="181.043136" y="222.14811" style="fill: #1f77b4; stroke: #1f77b4"/>
     <use xlink:href="#m008e18c13f" x="184.289682" y="208.008902" style="fill: #1f77b4; stroke: #1f77b4"/>
     <use xlink:href="#m008e18c13f" x="187.536227" y="201.158594" style="fill: #1f77b4; stroke: #1f77b4"/>
     <use xlink:href="#m008e18c13f" x="190.782773" y="196.709931" style="fill: #1f77b4; stroke: #1f77b4"/>
     <use xlink:href="#m008e18c13f" x="194.029318" y="193.167597" style="fill: #1f77b4; stroke: #1f77b4"/>
     <use xlink:href="#m008e18c13f" x="197.275864" y="189.106368" style="fill: #1f77b4; stroke: #1f77b4"/>
     <use xlink:href="#m008e18c13f" x="200.522409" y="182.752476" style="fill: #1f77b4; stroke: #1f77b4"/>
     <use xlink:href="#m008e18c13f" x="203.768955" y="170.130226" style="fill: #1f77b4; stroke: #1f77b4"/>
     <use xlink:href="#m008e18c13f" x="207.0155" y="150.374924" style="fill: #1f77b4; stroke: #1f77b4"/>
     <use xlink:href="#m008e18c13f" x="210.262045" y="110.929185" style="fill: #1f77b4; stroke: #1f77b4"/>
     <use xlink:href="#m008e18c13f" x="213.508591" y="150.116401" style="fill: #1f77b4; stroke: #1f77b4"/>
     <use xlink:href="#m008e18c13f" x="216.755136" y="152.480192" style="fill: #1f77b4; stroke: #1f77b4"/>
     <use xlink:href="#m008e18c13f" x="220.001682" y="154.27054" style="fill: #1f77b4; stroke: #1f77b4"/>
     <use xlink:href="#m008e18c13f" x="223.248227" y="156.001031" style="fill: #1f77b4; stroke: #1f77b4"/>
     <use xlink:href="#m008e18c13f" x="226.494773" y="156.18988" style="fill: #1f77b4; stroke: #1f77b4"/>
     <use xlink:href="#m008e18c13f" x="229.741318" y="144.377703" style="fill: #1f77b4; stroke: #1f77b4"/>
     <use xlink:href="#m008e18c13f" x="232.987864" y="150.686839" style="fill: #1f77b4; stroke: #1f77b4"/>
     <use xlink:href="#m008e18c13f" x="236.234409" y="160.621401" style="fill: #1f77b4; stroke: #1f77b4"/>
     <use xlink:href="#m008e18c13f" x="239.480955" y="179.476047" style="fill: #1f77b4; stroke: #1f77b4"/>
     <use xlink:href="#m008e18c13f" x="242.7275" y="200.926133" style="fill: #1f77b4; stroke: #1f77b4"/>
     <use xlink:href="#m008e18c13f" x="245.974045" y="218.187657" style="fill: #1f77b4; stroke: #1f77b4"/>
     <use xlink:href="#m008e18c13f" x="249.220591" y="231.131995" style="fill: #1f77b4; stroke: #1f77b4"/>
     <use xlink:href="#m008e18c13f" x="252.467136" y="245.797586" style="fill: #1f77b4; stroke: #1f77b4"/>
     <use xlink:href="#m008e18c13f" x="255.713682" y="260.034862" style="fill: #1f77b4; stroke: #1f77b4"/>
     <use xlink:href="#m008e18c13f" x="258.960227" y="261.215968" style="fill: #1f77b4; stroke: #1f77b4"/>
     <use xlink:href="#m008e18c13f" x="262.206773" y="261.216" style="fill: #1f77b4; stroke: #1f77b4"/>
     <use xlink:href="#m008e18c13f" x="265.453318" y="261.216" style="fill: #1f77b4; stroke: #1f77b4"/>
     <use xlink:href="#m008e18c13f" x="268.699864" y="261.216" style="fill: #1f77b4; stroke: #1f77b4"/>
     <use xlink:href="#m008e18c13f" x="271.946409" y="261.216" style="fill: #1f77b4; stroke: #1f77b4"/>
     <use xlink:href="#m008e18c13f" x="275.192955" y="261.216" style="fill: #1f77b4; stroke: #1f77b4"/>
     <use xlink:href="#m008e18c13f" x="278.4395" y="261.216" style="fill: #1f77b4; stroke: #1f77b4"/>
     <use xlink:href="#m008e18c13f" x="281.686045" y="261.216" style="fill: #1f77b4; stroke: #1f77b4"/>
     <use xlink:href="#m008e18c13f" x="284.932591" y="261.216" style="fill: #1f77b4; stroke: #1f77b4"/>
     <use xlink:href="#m008e18c13f" x="288.179136" y="261.216" style="fill: #1f77b4; stroke: #1f77b4"/>
     <use xlink:href="#m008e18c13f" x="291.425682" y="261.216" style="fill: #1f77b4; stroke: #1f77b4"/>
     <use xlink:href="#m008e18c13f" x="294.672227" y="261.216" style="fill: #1f77b4; stroke: #1f77b4"/>
     <use xlink:href="#m008e18c13f" x="297.918773" y="261.216" style="fill: #1f77b4; stroke: #1f77b4"/>
     <use xlink:href="#m008e18c13f" x="301.165318" y="261.216" style="fill: #1f77b4; stroke: #1f77b4"/>
     <use xlink:href="#m008e18c13f" x="304.411864" y="261.216" style="fill: #1f77b4; stroke: #1f77b4"/>
     <use xlink:href="#m008e18c13f" x="307.658409" y="261.216" style="fill: #1f77b4; stroke: #1f77b4"/>
     <use xlink:href="#m008e18c13f" x="310.904955" y="261.216" style="fill: #1f77b4; stroke: #1f77b4"/>
     <use xlink:href="#m008e18c13f" x="314.1515" y="261.216" style="fill: #1f77b4; stroke: #1f77b4"/>
     <use xlink:href="#m008e18c13f" x="317.398045" y="261.216" style="fill: #1f77b4; stroke: #1f77b4"/>
     <use xlink:href="#m008e18c13f" x="320.644591" y="261.216" style="fill: #1f77b4; stroke: #1f77b4"/>
     <use xlink:href="#m008e18c13f" x="323.891136" y="261.216" style="fill: #1f77b4; stroke: #1f77b4"/>
     <use xlink:href="#m008e18c13f" x="327.137682" y="261.216" style="fill: #1f77b4; stroke: #1f77b4"/>
     <use xlink:href="#m008e18c13f" x="330.384227" y="261.216" style="fill: #1f77b4; stroke: #1f77b4"/>
     <use xlink:href="#m008e18c13f" x="333.630773" y="261.216" style="fill: #1f77b4; stroke: #1f77b4"/>
     <use xlink:href="#m008e18c13f" x="336.877318" y="261.216" style="fill: #1f77b4; stroke: #1f77b4"/>
     <use xlink:href="#m008e18c13f" x="340.123864" y="261.216" style="fill: #1f77b4; stroke: #1f77b4"/>
     <use xlink:href="#m008e18c13f" x="343.370409" y="261.216" style="fill: #1f77b4; stroke: #1f77b4"/>
     <use xlink:href="#m008e18c13f" x="346.616955" y="261.216" style="fill: #1f77b4; stroke: #1f77b4"/>
     <use xlink:href="#m008e18c13f" x="349.8635" y="261.216" style="fill: #1f77b4; stroke: #1f77b4"/>
     <use xlink:href="#m008e18c13f" x="353.110045" y="261.216" style="fill: #1f77b4; stroke: #1f77b4"/>
     <use xlink:href="#m008e18c13f" x="356.356591" y="261.216" style="fill: #1f77b4; stroke: #1f77b4"/>
     <use xlink:href="#m008e18c13f" x="359.603136" y="261.216" style="fill: #1f77b4; stroke: #1f77b4"/>
     <use xlink:href="#m008e18c13f" x="362.849682" y="261.216" style="fill: #1f77b4; stroke: #1f77b4"/>
     <use xlink:href="#m008e18c13f" x="366.096227" y="261.216" style="fill: #1f77b4; stroke: #1f77b4"/>
     <use xlink:href="#m008e18c13f" x="369.342773" y="261.216" style="fill: #1f77b4; stroke: #1f77b4"/>
     <use xlink:href="#m008e18c13f" x="372.589318" y="261.216" style="fill: #1f77b4; stroke: #1f77b4"/>
     <use xlink:href="#m008e18c13f" x="375.835864" y="261.216" style="fill: #1f77b4; stroke: #1f77b4"/>
     <use xlink:href="#m008e18c13f" x="379.082409" y="261.216" style="fill: #1f77b4; stroke: #1f77b4"/>
     <use xlink:href="#m008e18c13f" x="382.328955" y="261.216" style="fill: #1f77b4; stroke: #1f77b4"/>
     <use xlink:href="#m008e18c13f" x="385.5755" y="261.216" style="fill: #1f77b4; stroke: #1f77b4"/>
     <use xlink:href="#m008e18c13f" x="388.822045" y="261.216" style="fill: #1f77b4; stroke: #1f77b4"/>
     <use xlink:href="#m008e18c13f" x="392.068591" y="261.216" style="fill: #1f77b4; stroke: #1f77b4"/>
     <use xlink:href="#m008e18c13f" x="395.315136" y="261.216" style="fill: #1f77b4; stroke: #1f77b4"/>
     <use xlink:href="#m008e18c13f" x="398.561682" y="261.216" style="fill: #1f77b4; stroke: #1f77b4"/>
     <use xlink:href="#m008e18c13f" x="401.808227" y="261.216" style="fill: #1f77b4; stroke: #1f77b4"/>
     <use xlink:href="#m008e18c13f" x="405.054773" y="261.216" style="fill: #1f77b4; stroke: #1f77b4"/>
    </g>
   </g>
   <g id="line2d_14">
    <path d="M 80.400227 261.216 
L 83.646773 261.216 
L 86.893318 261.216 
L 90.139864 261.216 
L 93.386409 261.216 
L 96.632955 261.216 
L 99.8795 261.216 
L 103.126045 261.216 
L 106.372591 261.216 
L 109.619136 261.216 
L 112.865682 261.216 
L 116.112227 261.216 
L 119.358773 261.216 
L 122.605318 261.216 
L 125.851864 261.216 
L 129.098409 261.216 
L 132.344955 261.216 
L 135.5915 261.216 
L 138.838045 261.216 
L 142.084591 261.216 
L 145.331136 261.216 
L 148.577682 261.216 
L 151.824227 261.216 
L 155.070773 261.216 
L 158.317318 261.216 
L 161.563864 261.216 
L 164.810409 261.216 
L 168.056955 261.216 
L 171.3035 261.216 
L 174.550045 261.216 
L 177.796591 261.216 
L 181.043136 261.216 
L 184.289682 261.216 
L 187.536227 261.216 
L 190.782773 261.216 
L 194.029318 261.216 
L 197.275864 261.216 
L 200.522409 261.216 
L 203.768955 261.216 
L 207.0155 261.216 
L 210.262045 261.216 
L 213.508591 261.216 
L 216.755136 261.216 
L 220.001682 261.216 
L 223.248227 261.216 
L 226.494773 261.215999 
L 229.741318 261.214107 
L 232.987864 255.070933 
L 236.234409 246.233873 
L 239.480955 234.949967 
L 242.7275 227.88845 
L 245.974045 224.514904 
L 249.220591 220.344209 
L 252.467136 213.158041 
L 255.713682 203.558966 
L 258.960227 188.466876 
L 262.206773 184.081162 
L 265.453318 183.483291 
L 268.699864 185.958778 
L 271.946409 187.728663 
L 275.192955 185.764141 
L 278.4395 177.891022 
L 281.686045 161.91402 
L 284.932591 135.927414 
L 288.179136 101.393966 
L 291.425682 64.987387 
L 294.672227 39.079382 
L 297.918773 19.296 
L 301.165318 88.538831 
L 304.411864 121.265895 
L 307.658409 138.673973 
L 310.904955 148.529456 
L 314.1515 154.097315 
L 317.398045 147.590498 
L 320.644591 151.654818 
L 323.891136 162.419026 
L 327.137682 180.601943 
L 330.384227 200.105635 
L 333.630773 215.463757 
L 336.877318 225.911863 
L 340.123864 235.109259 
L 343.370409 249.445552 
L 346.616955 260.846059 
L 349.8635 261.215972 
L 353.110045 261.215999 
L 356.356591 261.216 
L 359.603136 261.216 
L 362.849682 261.216 
L 366.096227 261.216 
L 369.342773 261.216 
L 372.589318 261.216 
L 375.835864 261.216 
L 379.082409 261.216 
L 382.328955 261.216 
L 385.5755 261.216 
L 388.822045 261.216 
L 392.068591 261.216 
L 395.315136 261.216 
L 398.561682 261.216 
L 401.808227 261.216 
L 405.054773 261.216 
" clip-path="url(#pfcfa61c63c)" style="fill: none; stroke: #ff7f0e; stroke-width: 1.5; stroke-linecap: square"/>
    <defs>
     <path id="mf7a2c5bf9b" d="M 0 1.5 
C 0.397805 1.5 0.77937 1.341951 1.06066 1.06066 
C 1.341951 0.77937 1.5 0.397805 1.5 0 
C 1.5 -0.397805 1.341951 -0.77937 1.06066 -1.06066 
C 0.77937 -1.341951 0.397805 -1.5 0 -1.5 
C -0.397805 -1.5 -0.77937 -1.341951 -1.06066 -1.06066 
C -1.341951 -0.77937 -1.5 -0.397805 -1.5 0 
C -1.5 0.397805 -1.341951 0.77937 -1.06066 1.06066 
C -0.77937 1.341951 -0.397805 1.5 0 1.5 
z
" style="stroke: #ff7f0e"/>
    </defs>
    <g clip-path="url(#pfcfa61c63c)">
     <use xlink:href="#mf7a2c5bf9b" x="80.400227" y="261.216" style="fill: #ff7f0e; stroke: #ff7f0e"/>
     <use xlink:href="#mf7a2c5bf9b" x="83.646773" y="261.216" style="fill: #ff7f0e; stroke: #ff7f0e"/>
     <use xlink:href="#mf7a2c5bf9b" x="86.893318" y="261.216" style="fill: #ff7f0e; stroke: #ff7f0e"/>
     <use xlink:href="#mf7a2c5bf9b" x="90.139864" y="261.216" style="fill: #ff7f0e; stroke: #ff7f0e"/>
     <use xlink:href="#mf7a2c5bf9b" x="93.386409" y="261.216" style="fill: #ff7f0e; stroke: #ff7f0e"/>
     <use xlink:href="#mf7a2c5bf9b" x="96.632955" y="261.216" style="fill: #ff7f0e; stroke: #ff7f0e"/>
     <use xlink:href="#mf7a2c5bf9b" x="99.8795" y="261.216" style="fill: #ff7f0e; stroke: #ff7f0e"/>
     <use xlink:href="#mf7a2c5bf9b" x="103.126045" y="261.216" style="fill: #ff7f0e; stroke: #ff7f0e"/>
     <use xlink:href="#mf7a2c5bf9b" x="106.372591" y="261.216" style="fill: #ff7f0e; stroke: #ff7f0e"/>
     <use xlink:href="#mf7a2c5bf9b" x="109.619136" y="261.216" style="fill: #ff7f0e; stroke: #ff7f0e"/>
     <use xlink:href="#mf7a2c5bf9b" x="112.865682" y="261.216" style="fill: #ff7f0e; stroke: #ff7f0e"/>
     <use xlink:href="#mf7a2c5bf9b" x="116.112227" y="261.216" style="fill: #ff7f0e; stroke: #ff7f0e"/>
     <use xlink:href="#mf7a2c5bf9b" x="119.358773" y="261.216" style="fill: #ff7f0e; stroke: #ff7f0e"/>
     <use xlink:href="#mf7a2c5bf9b" x="122.605318" y="261.216" style="fill: #ff7f0e; stroke: #ff7f0e"/>
     <use xlink:href="#mf7a2c5bf9b" x="125.851864" y="261.216" style="fill: #ff7f0e; stroke: #ff7f0e"/>
     <use xlink:href="#mf7a2c5bf9b" x="129.098409" y="261.216" style="fill: #ff7f0e; stroke: #ff7f0e"/>
     <use xlink:href="#mf7a2c5bf9b" x="132.344955" y="261.216" style="fill: #ff7f0e; stroke: #ff7f0e"/>
     <use xlink:href="#mf7a2c5bf9b" x="135.5915" y="261.216" style="fill: #ff7f0e; stroke: #ff7f0e"/>
     <use xlink:href="#mf7a2c5bf9b" x="138.838045" y="261.216" style="fill: #ff7f0e; stroke: #ff7f0e"/>
     <use xlink:href="#mf7a2c5bf9b" x="142.084591" y="261.216" style="fill: #ff7f0e; stroke: #ff7f0e"/>
     <use xlink:href="#mf7a2c5bf9b" x="145.331136" y="261.216" style="fill: #ff7f0e; stroke: #ff7f0e"/>
     <use xlink:href="#mf7a2c5bf9b" x="148.577682" y="261.216" style="fill: #ff7f0e; stroke: #ff7f0e"/>
     <use xlink:href="#mf7a2c5bf9b" x="151.824227" y="261.216" style="fill: #ff7f0e; stroke: #ff7f0e"/>
     <use xlink:href="#mf7a2c5bf9b" x="155.070773" y="261.216" style="fill: #ff7f0e; stroke: #ff7f0e"/>
     <use xlink:href="#mf7a2c5bf9b" x="158.317318" y="261.216" style="fill: #ff7f0e; stroke: #ff7f0e"/>
     <use xlink:href="#mf7a2c5bf9b" x="161.563864" y="261.216" style="fill: #ff7f0e; stroke: #ff7f0e"/>
     <use xlink:href="#mf7a2c5bf9b" x="164.810409" y="261.216" style="fill: #ff7f0e; stroke: #ff7f0e"/>
     <use xlink:href="#mf7a2c5bf9b" x="168.056955" y="261.216" style="fill: #ff7f0e; stroke: #ff7f0e"/>
     <use xlink:href="#mf7a2c5bf9b" x="171.3035" y="261.216" style="fill: #ff7f0e; stroke: #ff7f0e"/>
     <use xlink:href="#mf7a2c5bf9b" x="174.550045" y="261.216" style="fill: #ff7f0e; stroke: #ff7f0e"/>
     <use xlink:href="#mf7a2c5bf9b" x="177.796591" y="261.216" style="fill: #ff7f0e; stroke: #ff7f0e"/>
     <use xlink:href="#mf7a2c5bf9b" x="181.043136" y="261.216" style="fill: #ff7f0e; stroke: #ff7f0e"/>
     <use xlink:href="#mf7a2c5bf9b" x="184.289682" y="261.216" style="fill: #ff7f0e; stroke: #ff7f0e"/>
     <use xlink:href="#mf7a2c5bf9b" x="187.536227" y="261.216" style="fill: #ff7f0e; stroke: #ff7f0e"/>
     <use xlink:href="#mf7a2c5bf9b" x="190.782773" y="261.216" style="fill: #ff7f0e; stroke: #ff7f0e"/>
     <use xlink:href="#mf7a2c5bf9b" x="194.029318" y="261.216" style="fill: #ff7f0e; stroke: #ff7f0e"/>
     <use xlink:href="#mf7a2c5bf9b" x="197.275864" y="261.216" style="fill: #ff7f0e; stroke: #ff7f0e"/>
     <use xlink:href="#mf7a2c5bf9b" x="200.522409" y="261.216" style="fill: #ff7f0e; stroke: #ff7f0e"/>
     <use xlink:href="#mf7a2c5bf9b" x="203.768955" y="261.216" style="fill: #ff7f0e; stroke: #ff7f0e"/>
     <use xlink:href="#mf7a2c5bf9b" x="207.0155" y="261.216" style="fill: #ff7f0e; stroke: #ff7f0e"/>
     <use xlink:href="#mf7a2c5bf9b" x="210.262045" y="261.216" style="fill: #ff7f0e; stroke: #ff7f0e"/>
     <use xlink:href="#mf7a2c5bf9b" x="213.508591" y="261.216" style="fill: #ff7f0e; stroke: #ff7f0e"/>
     <use xlink:href="#mf7a2c5bf9b" x="216.755136" y="261.216" style="fill: #ff7f0e; stroke: #ff7f0e"/>
     <use xlink:href="#mf7a2c5bf9b" x="220.001682" y="261.216" style="fill: #ff7f0e; stroke: #ff7f0e"/>
     <use xlink:href="#mf7a2c5bf9b" x="223.248227" y="261.216" style="fill: #ff7f0e; stroke: #ff7f0e"/>
     <use xlink:href="#mf7a2c5bf9b" x="226.494773" y="261.215999" style="fill: #ff7f0e; stroke: #ff7f0e"/>
     <use xlink:href="#mf7a2c5bf9b" x="229.741318" y="261.214107" style="fill: #ff7f0e; stroke: #ff7f0e"/>
     <use xlink:href="#mf7a2c5bf9b" x="232.987864" y="255.070933" style="fill: #ff7f0e; stroke: #ff7f0e"/>
     <use xlink:href="#mf7a2c5bf9b" x="236.234409" y="246.233873" style="fill: #ff7f0e; stroke: #ff7f0e"/>
     <use xlink:href="#mf7a2c5bf9b" x="239.480955" y="234.949967" style="fill: #ff7f0e; stroke: #ff7f0e"/>
     <use xlink:href="#mf7a2c5bf9b" x="242.7275" y="227.88845" style="fill: #ff7f0e; stroke: #ff7f0e"/>
     <use xlink:href="#mf7a2c5bf9b" x="245.974045" y="224.514904" style="fill: #ff7f0e; stroke: #ff7f0e"/>
     <use xlink:href="#mf7a2c5bf9b" x="249.220591" y="220.344209" style="fill: #ff7f0e; stroke: #ff7f0e"/>
     <use xlink:href="#mf7a2c5bf9b" x="252.467136" y="213.158041" style="fill: #ff7f0e; stroke: #ff7f0e"/>
     <use xlink:href="#mf7a2c5bf9b" x="255.713682" y="203.558966" style="fill: #ff7f0e; stroke: #ff7f0e"/>
     <use xlink:href="#mf7a2c5bf9b" x="258.960227" y="188.466876" style="fill: #ff7f0e; stroke: #ff7f0e"/>
     <use xlink:href="#mf7a2c5bf9b" x="262.206773" y="184.081162" style="fill: #ff7f0e; stroke: #ff7f0e"/>
     <use xlink:href="#mf7a2c5bf9b" x="265.453318" y="183.483291" style="fill: #ff7f0e; stroke: #ff7f0e"/>
     <use xlink:href="#mf7a2c5bf9b" x="268.699864" y="185.958778" style="fill: #ff7f0e; stroke: #ff7f0e"/>
     <use xlink:href="#mf7a2c5bf9b" x="271.946409" y="187.728663" style="fill: #ff7f0e; stroke: #ff7f0e"/>
     <use xlink:href="#mf7a2c5bf9b" x="275.192955" y="185.764141" style="fill: #ff7f0e; stroke: #ff7f0e"/>
     <use xlink:href="#mf7a2c5bf9b" x="278.4395" y="177.891022" style="fill: #ff7f0e; stroke: #ff7f0e"/>
     <use xlink:href="#mf7a2c5bf9b" x="281.686045" y="161.91402" style="fill: #ff7f0e; stroke: #ff7f0e"/>
     <use xlink:href="#mf7a2c5bf9b" x="284.932591" y="135.927414" style="fill: #ff7f0e; stroke: #ff7f0e"/>
     <use xlink:href="#mf7a2c5bf9b" x="288.179136" y="101.393966" style="fill: #ff7f0e; stroke: #ff7f0e"/>
     <use xlink:href="#mf7a2c5bf9b" x="291.425682" y="64.987387" style="fill: #ff7f0e; stroke: #ff7f0e"/>
     <use xlink:href="#mf7a2c5bf9b" x="294.672227" y="39.079382" style="fill: #ff7f0e; stroke: #ff7f0e"/>
     <use xlink:href="#mf7a2c5bf9b" x="297.918773" y="19.296" style="fill: #ff7f0e; stroke: #ff7f0e"/>
     <use xlink:href="#mf7a2c5bf9b" x="301.165318" y="88.538831" style="fill: #ff7f0e; stroke: #ff7f0e"/>
     <use xlink:href="#mf7a2c5bf9b" x="304.411864" y="121.265895" style="fill: #ff7f0e; stroke: #ff7f0e"/>
     <use xlink:href="#mf7a2c5bf9b" x="307.658409" y="138.673973" style="fill: #ff7f0e; stroke: #ff7f0e"/>
     <use xlink:href="#mf7a2c5bf9b" x="310.904955" y="148.529456" style="fill: #ff7f0e; stroke: #ff7f0e"/>
     <use xlink:href="#mf7a2c5bf9b" x="314.1515" y="154.097315" style="fill: #ff7f0e; stroke: #ff7f0e"/>
     <use xlink:href="#mf7a2c5bf9b" x="317.398045" y="147.590498" style="fill: #ff7f0e; stroke: #ff7f0e"/>
     <use xlink:href="#mf7a2c5bf9b" x="320.644591" y="151.654818" style="fill: #ff7f0e; stroke: #ff7f0e"/>
     <use xlink:href="#mf7a2c5bf9b" x="323.891136" y="162.419026" style="fill: #ff7f0e; stroke: #ff7f0e"/>
     <use xlink:href="#mf7a2c5bf9b" x="327.137682" y="180.601943" style="fill: #ff7f0e; stroke: #ff7f0e"/>
     <use xlink:href="#mf7a2c5bf9b" x="330.384227" y="200.105635" style="fill: #ff7f0e; stroke: #ff7f0e"/>
     <use xlink:href="#mf7a2c5bf9b" x="333.630773" y="215.463757" style="fill: #ff7f0e; stroke: #ff7f0e"/>
     <use xlink:href="#mf7a2c5bf9b" x="336.877318" y="225.911863" style="fill: #ff7f0e; stroke: #ff7f0e"/>
     <use xlink:href="#mf7a2c5bf9b" x="340.123864" y="235.109259" style="fill: #ff7f0e; stroke: #ff7f0e"/>
     <use xlink:href="#mf7a2c5bf9b" x="343.370409" y="249.445552" style="fill: #ff7f0e; stroke: #ff7f0e"/>
     <use xlink:href="#mf7a2c5bf9b" x="346.616955" y="260.846059" style="fill: #ff7f0e; stroke: #ff7f0e"/>
     <use xlink:href="#mf7a2c5bf9b" x="349.8635" y="261.215972" style="fill: #ff7f0e; stroke: #ff7f0e"/>
     <use xlink:href="#mf7a2c5bf9b" x="353.110045" y="261.215999" style="fill: #ff7f0e; stroke: #ff7f0e"/>
     <use xlink:href="#mf7a2c5bf9b" x="356.356591" y="261.216" style="fill: #ff7f0e; stroke: #ff7f0e"/>
     <use xlink:href="#mf7a2c5bf9b" x="359.603136" y="261.216" style="fill: #ff7f0e; stroke: #ff7f0e"/>
     <use xlink:href="#mf7a2c5bf9b" x="362.849682" y="261.216" style="fill: #ff7f0e; stroke: #ff7f0e"/>
     <use xlink:href="#mf7a2c5bf9b" x="366.096227" y="261.216" style="fill: #ff7f0e; stroke: #ff7f0e"/>
     <use xlink:href="#mf7a2c5bf9b" x="369.342773" y="261.216" style="fill: #ff7f0e; stroke: #ff7f0e"/>
     <use xlink:href="#mf7a2c5bf9b" x="372.589318" y="261.216" style="fill: #ff7f0e; stroke: #ff7f0e"/>
     <use xlink:href="#mf7a2c5bf9b" x="375.835864" y="261.216" style="fill: #ff7f0e; stroke: #ff7f0e"/>
     <use xlink:href="#mf7a2c5bf9b" x="379.082409" y="261.216" style="fill: #ff7f0e; stroke: #ff7f0e"/>
     <use xlink:href="#mf7a2c5bf9b" x="382.328955" y="261.216" style="fill: #ff7f0e; stroke: #ff7f0e"/>
     <use xlink:href="#mf7a2c5bf9b" x="385.5755" y="261.216" style="fill: #ff7f0e; stroke: #ff7f0e"/>
     <use xlink:href="#mf7a2c5bf9b" x="388.822045" y="261.216" style="fill: #ff7f0e; stroke: #ff7f0e"/>
     <use xlink:href="#mf7a2c5bf9b" x="392.068591" y="261.216" style="fill: #ff7f0e; stroke: #ff7f0e"/>
     <use xlink:href="#mf7a2c5bf9b" x="395.315136" y="261.216" style="fill: #ff7f0e; stroke: #ff7f0e"/>
     <use xlink:href="#mf7a2c5bf9b" x="398.561682" y="261.216" style="fill: #ff7f0e; stroke: #ff7f0e"/>
     <use xlink:href="#mf7a2c5bf9b" x="401.808227" y="261.216" style="fill: #ff7f0e; stroke: #ff7f0e"/>
     <use xlink:href="#mf7a2c5bf9b" x="405.054773" y="261.216" style="fill: #ff7f0e; stroke: #ff7f0e"/>
    </g>
   </g>
   <g id="patch_3">
    <path d="M 64.1675 273.312 
L 64.1675 7.2 
" style="fill: none; stroke: #000000; stroke-width: 0.8; stroke-linejoin: miter; stroke-linecap: square"/>
   </g>
   <g id="patch_4">
    <path d="M 421.2875 273.312 
L 421.2875 7.2 
" style="fill: none; stroke: #000000; stroke-width: 0.8; stroke-linejoin: miter; stroke-linecap: square"/>
   </g>
   <g id="patch_5">
    <path d="M 64.1675 273.312 
L 421.2875 273.312 
" style="fill: none; stroke: #000000; stroke-width: 0.8; stroke-linejoin: miter; stroke-linecap: square"/>
   </g>
   <g id="patch_6">
    <path d="M 64.1675 7.2 
L 421.2875 7.2 
" style="fill: none; stroke: #000000; stroke-width: 0.8; stroke-linejoin: miter; stroke-linecap: square"/>
   </g>
   <g id="legend_1">
    <g id="patch_7">
     <path d="M 312.970625 52.0275 
L 412.8875 52.0275 
Q 415.2875 52.0275 415.2875 49.6275 
L 415.2875 15.6 
Q 415.2875 13.2 412.8875 13.2 
L 312.970625 13.2 
Q 310.570625 13.2 310.570625 15.6 
L 310.570625 49.6275 
Q 310.570625 52.0275 312.970625 52.0275 
z
" style="fill: #ffffff; opacity: 0.8; stroke: #cccccc; stroke-linejoin: miter"/>
    </g>
    <g id="line2d_15">
     <path d="M 315.370625 22.918125 
L 327.370625 22.918125 
L 339.370625 22.918125 
" style="fill: none; stroke: #1f77b4; stroke-width: 1.5; stroke-linecap: square"/>
     <g>
      <use xlink:href="#m008e18c13f" x="327.370625" y="22.918125" style="fill: #1f77b4; stroke: #1f77b4"/>
     </g>
    </g>
    <g id="text_15">
     <!-- spin-up -->
     <g transform="translate(348.970625 27.118125) scale(0.12 -0.12)">
      <defs>
       <path id="DejaVuSans-70" d="M 1159 525 
L 1159 -1331 
L 581 -1331 
L 581 3500 
L 1159 3500 
L 1159 2969 
Q 1341 3281 1617 3432 
Q 1894 3584 2278 3584 
Q 2916 3584 3314 3078 
Q 3713 2572 3713 1747 
Q 3713 922 3314 415 
Q 2916 -91 2278 -91 
Q 1894 -91 1617 61 
Q 1341 213 1159 525 
z
M 3116 1747 
Q 3116 2381 2855 2742 
Q 2594 3103 2138 3103 
Q 1681 3103 1420 2742 
Q 1159 2381 1159 1747 
Q 1159 1113 1420 752 
Q 1681 391 2138 391 
Q 2594 391 2855 752 
Q 3116 1113 3116 1747 
z
" transform="scale(0.015625)"/>
       <path id="DejaVuSans-2d" d="M 313 2009 
L 1997 2009 
L 1997 1497 
L 313 1497 
L 313 2009 
z
" transform="scale(0.015625)"/>
       <path id="DejaVuSans-75" d="M 544 1381 
L 544 3500 
L 1119 3500 
L 1119 1403 
Q 1119 906 1312 657 
Q 1506 409 1894 409 
Q 2359 409 2629 706 
Q 2900 1003 2900 1516 
L 2900 3500 
L 3475 3500 
L 3475 0 
L 2900 0 
L 2900 538 
Q 2691 219 2414 64 
Q 2138 -91 1772 -91 
Q 1169 -91 856 284 
Q 544 659 544 1381 
z
M 1991 3584 
L 1991 3584 
z
" transform="scale(0.015625)"/>
      </defs>
      <use xlink:href="#DejaVuSans-73"/>
      <use xlink:href="#DejaVuSans-70" x="52.099609"/>
      <use xlink:href="#DejaVuSans-69" x="115.576172"/>
      <use xlink:href="#DejaVuSans-6e" x="143.359375"/>
      <use xlink:href="#DejaVuSans-2d" x="206.738281"/>
      <use xlink:href="#DejaVuSans-75" x="242.822266"/>
      <use xlink:href="#DejaVuSans-70" x="306.201172"/>
     </g>
    </g>
    <g id="line2d_16">
     <path d="M 315.370625 40.531875 
L 327.370625 40.531875 
L 339.370625 40.531875 
" style="fill: none; stroke: #ff7f0e; stroke-width: 1.5; stroke-linecap: square"/>
     <g>
      <use xlink:href="#mf7a2c5bf9b" x="327.370625" y="40.531875" style="fill: #ff7f0e; stroke: #ff7f0e"/>
     </g>
    </g>
    <g id="text_16">
     <!-- spin-down -->
     <g transform="translate(348.970625 44.731875) scale(0.12 -0.12)">
      <defs>
       <path id="DejaVuSans-64" d="M 2906 2969 
L 2906 4863 
L 3481 4863 
L 3481 0 
L 2906 0 
L 2906 525 
Q 2725 213 2448 61 
Q 2172 -91 1784 -91 
Q 1150 -91 751 415 
Q 353 922 353 1747 
Q 353 2572 751 3078 
Q 1150 3584 1784 3584 
Q 2172 3584 2448 3432 
Q 2725 3281 2906 2969 
z
M 947 1747 
Q 947 1113 1208 752 
Q 1469 391 1925 391 
Q 2381 391 2643 752 
Q 2906 1113 2906 1747 
Q 2906 2381 2643 2742 
Q 2381 3103 1925 3103 
Q 1469 3103 1208 2742 
Q 947 2381 947 1747 
z
" transform="scale(0.015625)"/>
       <path id="DejaVuSans-77" d="M 269 3500 
L 844 3500 
L 1563 769 
L 2278 3500 
L 2956 3500 
L 3675 769 
L 4391 3500 
L 4966 3500 
L 4050 0 
L 3372 0 
L 2619 2869 
L 1863 0 
L 1184 0 
L 269 3500 
z
" transform="scale(0.015625)"/>
      </defs>
      <use xlink:href="#DejaVuSans-73"/>
      <use xlink:href="#DejaVuSans-70" x="52.099609"/>
      <use xlink:href="#DejaVuSans-69" x="115.576172"/>
      <use xlink:href="#DejaVuSans-6e" x="143.359375"/>
      <use xlink:href="#DejaVuSans-2d" x="206.738281"/>
      <use xlink:href="#DejaVuSans-64" x="242.822266"/>
      <use xlink:href="#DejaVuSans-6f" x="306.298828"/>
      <use xlink:href="#DejaVuSans-77" x="367.480469"/>
      <use xlink:href="#DejaVuSans-6e" x="449.267578"/>
     </g>
    </g>
   </g>
  </g>
 </g>
 <defs>
  <clipPath id="pfcfa61c63c">
   <rect x="64.1675" y="7.2" width="357.12" height="266.112"/>
  </clipPath>
 </defs>
</svg>