<?xml version="1.0" encoding="utf-8" standalone="no"?>
<!DOCTYPE svg PUBLIC "-//W3C//DTD SVG 1.1//EN"
  "http://www.w3.org/Graphics/SVG/1.1/DTD/svg11.dtd">
<svg xmlns:xlink="http://www.w3.org/1999/xlink" width="413.2175pt" height="314.7395pt" viewBox="0 0 413.2175 314.7395" xmlns="http://www.w3.org/2000/svg" version="1.1">
 <metadata>
  <rdf:RDF xmlns:dc="http://purl.org/dc/elements/1.1/" xmlns:cc="http://creativecommons.org/ns#" xmlns:rdf="http://www.w3.org/1999/02/22-rdf-syntax-ns#">
   <cc:Work>
    <dc:type rdf:resource="http://purl.org/dc/dcmitype/StillImage"/>
    <dc:date>2024-08-15T21:53:04.171725</dc:date>
    <dc:format>image/svg+xml</dc:format>
    <dc:creator>
     <cc:Agent>
      <dc:title>Matplotlib v3.7.2, https://matplotlib.org/</dc:title>
     </cc:Agent>
    </dc:creator>
   </cc:Work>
  </rdf:RDF>
 </metadata>
 <defs>
  <style type="text/css">*{stroke-linejoin: round; stroke-linecap: butt}</style>
 </defs>
 <g id="figure_1">
  <g id="patch_1">
   <path d="M 0 314.7395 
L 413.2175 314.7395 
L 413.2175 0 
L 0 0 
z
" style="fill: #ffffff"/>
  </g>
  <g id="axes_1">
   <g id="patch_2">
    <path d="M 48.8975 273.312 
L 406.0175 273.312 
L 406.0175 7.2 
L 48.8975 7.2 
z
" style="fill: #ffffff"/>
   </g>
   <g id="matplotlib.axis_1">
    <g id="xtick_1">
     <g id="line2d_1">
      <defs>
       <path id="mb87b61cd31" d="M 0 0 
L 0 3.5 
" style="stroke: #000000; stroke-width: 0.8"/>
      </defs>
      <g>
       <use xlink:href="#mb87b61cd31" x="65.130227" y="273.312" style="stroke: #000000; stroke-width: 0.8"/>
      </g>
     </g>
     <g id="text_1">
      <!-- −4 -->
      <g transform="translate(56.284915 289.430125) scale(0.12 -0.12)">
       <defs>
        <path id="DejaVuSans-2212" d="M 678 2272 
L 4684 2272 
L 4684 1741 
L 678 1741 
L 678 2272 
z
" transform="scale(0.015625)"/>
        <path id="DejaVuSans-34" d="M 2419 4116 
L 825 1625 
L 2419 1625 
L 2419 4116 
z
M 2253 4666 
L 3047 4666 
L 3047 1625 
L 3713 1625 
L 3713 1100 
L 3047 1100 
L 3047 0 
L 2419 0 
L 2419 1100 
L 313 1100 
L 313 1709 
L 2253 4666 
z
" transform="scale(0.015625)"/>
       </defs>
       <use xlink:href="#DejaVuSans-2212"/>
       <use xlink:href="#DejaVuSans-34" x="83.789062"/>
      </g>
     </g>
    </g>
    <g id="xtick_2">
     <g id="line2d_2">
      <g>
       <use xlink:href="#mb87b61cd31" x="105.712045" y="273.312" style="stroke: #000000; stroke-width: 0.8"/>
      </g>
     </g>
     <g id="text_2">
      <!-- −3 -->
      <g transform="translate(96.866733 289.430125) scale(0.12 -0.12)">
       <defs>
        <path id="DejaVuSans-33" d="M 2597 2516 
Q 3050 2419 3304 2112 
Q 3559 1806 3559 1356 
Q 3559 666 3084 287 
Q 2609 -91 1734 -91 
Q 1441 -91 1130 -33 
Q 819 25 488 141 
L 488 750 
Q 750 597 1062 519 
Q 1375 441 1716 441 
Q 2309 441 2620 675 
Q 2931 909 2931 1356 
Q 2931 1769 2642 2001 
Q 2353 2234 1838 2234 
L 1294 2234 
L 1294 2753 
L 1863 2753 
Q 2328 2753 2575 2939 
Q 2822 3125 2822 3475 
Q 2822 3834 2567 4026 
Q 2313 4219 1838 4219 
Q 1578 4219 1281 4162 
Q 984 4106 628 3988 
L 628 4550 
Q 988 4650 1302 4700 
Q 1616 4750 1894 4750 
Q 2613 4750 3031 4423 
Q 3450 4097 3450 3541 
Q 3450 3153 3228 2886 
Q 3006 2619 2597 2516 
z
" transform="scale(0.015625)"/>
       </defs>
       <use xlink:href="#DejaVuSans-2212"/>
       <use xlink:href="#DejaVuSans-33" x="83.789062"/>
      </g>
     </g>
    </g>
    <g id="xtick_3">
     <g id="line2d_3">
      <g>
       <use xlink:href="#mb87b61cd31" x="146.293864" y="273.312" style="stroke: #000000; stroke-width: 0.8"/>
      </g>
     </g>
     <g id="text_3">
      <!-- −2 -->
      <g transform="translate(137.448551 289.430125) scale(0.12 -0.12)">
       <defs>
        <path id="DejaVuSans-32" d="M 1228 531 
L 3431 531 
L 3431 0 
L 469 0 
L 469 531 
Q 828 903 1448 1529 
Q 2069 2156 2228 2338 
Q 2531 2678 2651 2914 
Q 2772 3150 2772 3378 
Q 2772 3750 2511 3984 
Q 2250 4219 1831 4219 
Q 1534 4219 1204 4116 
Q 875 4013 500 3803 
L 500 4441 
Q 881 4594 1212 4672 
Q 1544 4750 1819 4750 
Q 2544 4750 2975 4387 
Q 3406 4025 3406 3419 
Q 3406 3131 3298 2873 
Q 3191 2616 2906 2266 
Q 2828 2175 2409 1742 
Q 1991 1309 1228 531 
z
" transform="scale(0.015625)"/>
       </defs>
       <use xlink:href="#DejaVuSans-2212"/>
       <use xlink:href="#DejaVuSans-32" x="83.789062"/>
      </g>
     </g>
    </g>
    <g id="xtick_4">
     <g id="line2d_4">
      <g>
       <use xlink:href="#mb87b61cd31" x="186.875682" y="273.312" style="stroke: #000000; stroke-width: 0.8"/>
      </g>
     </g>
     <g id="text_4">
      <!-- −1 -->
      <g transform="translate(178.030369 289.430125) scale(0.12 -0.12)">
       <defs>
        <path id="DejaVuSans-31" d="M 794 531 
L 1825 531 
L 1825 4091 
L 703 3866 
L 703 4441 
L 1819 4666 
L 2450 4666 
L 2450 531 
L 3481 531 
L 3481 0 
L 794 0 
L 794 531 
z
" transform="scale(0.015625)"/>
       </defs>
       <use xlink:href="#DejaVuSans-2212"/>
       <use xlink:href="#DejaVuSans-31" x="83.789062"/>
      </g>
     </g>
    </g>
    <g id="xtick_5">
     <g id="line2d_5">
      <g>
       <use xlink:href="#mb87b61cd31" x="227.4575" y="273.312" style="stroke: #000000; stroke-width: 0.8"/>
      </g>
     </g>
     <g id="text_5">
      <!-- 0 -->
      <g transform="translate(223.64 289.430125) scale(0.12 -0.12)">
       <defs>
        <path id="DejaVuSans-30" d="M 2034 4250 
Q 1547 4250 1301 3770 
Q 1056 3291 1056 2328 
Q 1056 1369 1301 889 
Q 1547 409 2034 409 
Q 2525 409 2770 889 
Q 3016 1369 3016 2328 
Q 3016 3291 2770 3770 
Q 2525 4250 2034 4250 
z
M 2034 4750 
Q 2819 4750 3233 4129 
Q 3647 3509 3647 2328 
Q 3647 1150 3233 529 
Q 2819 -91 2034 -91 
Q 1250 -91 836 529 
Q 422 1150 422 2328 
Q 422 3509 836 4129 
Q 1250 4750 2034 4750 
z
" transform="scale(0.015625)"/>
       </defs>
       <use xlink:href="#DejaVuSans-30"/>
      </g>
     </g>
    </g>
    <g id="xtick_6">
     <g id="line2d_6">
      <g>
       <use xlink:href="#mb87b61cd31" x="268.039318" y="273.312" style="stroke: #000000; stroke-width: 0.8"/>
      </g>
     </g>
     <g id="text_6">
      <!-- 1 -->
      <g transform="translate(264.221818 289.430125) scale(0.12 -0.12)">
       <use xlink:href="#DejaVuSans-31"/>
      </g>
     </g>
    </g>
    <g id="xtick_7">
     <g id="line2d_7">
      <g>
       <use xlink:href="#mb87b61cd31" x="308.621136" y="273.312" style="stroke: #000000; stroke-width: 0.8"/>
      </g>
     </g>
     <g id="text_7">
      <!-- 2 -->
      <g transform="translate(304.803636 289.430125) scale(0.12 -0.12)">
       <use xlink:href="#DejaVuSans-32"/>
      </g>
     </g>
    </g>
    <g id="xtick_8">
     <g id="line2d_8">
      <g>
       <use xlink:href="#mb87b61cd31" x="349.202955" y="273.312" style="stroke: #000000; stroke-width: 0.8"/>
      </g>
     </g>
     <g id="text_8">
      <!-- 3 -->
      <g transform="translate(345.385455 289.430125) scale(0.12 -0.12)">
       <use xlink:href="#DejaVuSans-33"/>
      </g>
     </g>
    </g>
    <g id="xtick_9">
     <g id="line2d_9">
      <g>
       <use xlink:href="#mb87b61cd31" x="389.784773" y="273.312" style="stroke: #000000; stroke-width: 0.8"/>
      </g>
     </g>
     <g id="text_9">
      <!-- 4 -->
      <g transform="translate(385.967273 289.430125) scale(0.12 -0.12)">
       <use xlink:href="#DejaVuSans-34"/>
      </g>
     </g>
    </g>
    <g id="text_10">
     <!-- Energy (eV) -->
     <g transform="translate(192.065 305.043875) scale(0.12 -0.12)">
      <defs>
       <path id="DejaVuSans-45" d="M 628 4666 
L 3578 4666 
L 3578 4134 
L 1259 4134 
L 1259 2753 
L 3481 2753 
L 3481 2222 
L 1259 2222 
L 1259 531 
L 3634 531 
L 3634 0 
L 628 0 
L 628 4666 
z
" transform="scale(0.015625)"/>
       <path id="DejaVuSans-6e" d="M 3513 2113 
L 3513 0 
L 2938 0 
L 2938 2094 
Q 2938 2591 2744 2837 
Q 2550 3084 2163 3084 
Q 1697 3084 1428 2787 
Q 1159 2491 1159 1978 
L 1159 0 
L 581 0 
L 581 3500 
L 1159 3500 
L 1159 2956 
Q 1366 3272 1645 3428 
Q 1925 3584 2291 3584 
Q 2894 3584 3203 3211 
Q 3513 2838 3513 2113 
z
" transform="scale(0.015625)"/>
       <path id="DejaVuSans-65" d="M 3597 1894 
L 3597 1613 
L 953 1613 
Q 991 1019 1311 708 
Q 1631 397 2203 397 
Q 2534 397 2845 478 
Q 3156 559 3463 722 
L 3463 178 
Q 3153 47 2828 -22 
Q 2503 -91 2169 -91 
Q 1331 -91 842 396 
Q 353 884 353 1716 
Q 353 2575 817 3079 
Q 1281 3584 2069 3584 
Q 2775 3584 3186 3129 
Q 3597 2675 3597 1894 
z
M 3022 2063 
Q 3016 2534 2758 2815 
Q 2500 3097 2075 3097 
Q 1594 3097 1305 2825 
Q 1016 2553 972 2059 
L 3022 2063 
z
" transform="scale(0.015625)"/>
       <path id="DejaVuSans-72" d="M 2631 2963 
Q 2534 3019 2420 3045 
Q 2306 3072 2169 3072 
Q 1681 3072 1420 2755 
Q 1159 2438 1159 1844 
L 1159 0 
L 581 0 
L 581 3500 
L 1159 3500 
L 1159 2956 
Q 1341 3275 1631 3429 
Q 1922 3584 2338 3584 
Q 2397 3584 2469 3576 
Q 2541 3569 2628 3553 
L 2631 2963 
z
" transform="scale(0.015625)"/>
       <path id="DejaVuSans-67" d="M 2906 1791 
Q 2906 2416 2648 2759 
Q 2391 3103 1925 3103 
Q 1463 3103 1205 2759 
Q 947 2416 947 1791 
Q 947 1169 1205 825 
Q 1463 481 1925 481 
Q 2391 481 2648 825 
Q 2906 1169 2906 1791 
z
M 3481 434 
Q 3481 -459 3084 -895 
Q 2688 -1331 1869 -1331 
Q 1566 -1331 1297 -1286 
Q 1028 -1241 775 -1147 
L 775 -588 
Q 1028 -725 1275 -790 
Q 1522 -856 1778 -856 
Q 2344 -856 2625 -561 
Q 2906 -266 2906 331 
L 2906 616 
Q 2728 306 2450 153 
Q 2172 0 1784 0 
Q 1141 0 747 490 
Q 353 981 353 1791 
Q 353 2603 747 3093 
Q 1141 3584 1784 3584 
Q 2172 3584 2450 3431 
Q 2728 3278 2906 2969 
L 2906 3500 
L 3481 3500 
L 3481 434 
z
" transform="scale(0.015625)"/>
       <path id="DejaVuSans-79" d="M 2059 -325 
Q 1816 -950 1584 -1140 
Q 1353 -1331 966 -1331 
L 506 -1331 
L 506 -850 
L 844 -850 
Q 1081 -850 1212 -737 
Q 1344 -625 1503 -206 
L 1606 56 
L 191 3500 
L 800 3500 
L 1894 763 
L 2988 3500 
L 3597 3500 
L 2059 -325 
z
" transform="scale(0.015625)"/>
       <path id="DejaVuSans-20" transform="scale(0.015625)"/>
       <path id="DejaVuSans-28" d="M 1984 4856 
Q 1566 4138 1362 3434 
Q 1159 2731 1159 2009 
Q 1159 1288 1364 580 
Q 1569 -128 1984 -844 
L 1484 -844 
Q 1016 -109 783 600 
Q 550 1309 550 2009 
Q 550 2706 781 3412 
Q 1013 4119 1484 4856 
L 1984 4856 
z
" transform="scale(0.015625)"/>
       <path id="DejaVuSans-56" d="M 1831 0 
L 50 4666 
L 709 4666 
L 2188 738 
L 3669 4666 
L 4325 4666 
L 2547 0 
L 1831 0 
z
" transform="scale(0.015625)"/>
       <path id="DejaVuSans-29" d="M 513 4856 
L 1013 4856 
Q 1481 4119 1714 3412 
Q 1947 2706 1947 2009 
Q 1947 1309 1714 600 
Q 1481 -109 1013 -844 
L 513 -844 
Q 928 -128 1133 580 
Q 1338 1288 1338 2009 
Q 1338 2731 1133 3434 
Q 928 4138 513 4856 
z
" transform="scale(0.015625)"/>
      </defs>
      <use xlink:href="#DejaVuSans-45"/>
      <use xlink:href="#DejaVuSans-6e" x="63.183594"/>
      <use xlink:href="#DejaVuSans-65" x="126.5625"/>
      <use xlink:href="#DejaVuSans-72" x="188.085938"/>
      <use xlink:href="#DejaVuSans-67" x="227.449219"/>
      <use xlink:href="#DejaVuSans-79" x="290.925781"/>
      <use xlink:href="#DejaVuSans-20" x="350.105469"/>
      <use xlink:href="#DejaVuSans-28" x="381.892578"/>
      <use xlink:href="#DejaVuSans-65" x="420.90625"/>
      <use xlink:href="#DejaVuSans-56" x="482.429688"/>
      <use xlink:href="#DejaVuSans-29" x="550.837891"/>
     </g>
    </g>
   </g>
   <g id="matplotlib.axis_2">
    <g id="ytick_1">
     <g id="line2d_10">
      <defs>
       <path id="m65f8e45d7e" d="M 0 0 
L -3.5 0 
" style="stroke: #000000; stroke-width: 0.8"/>
      </defs>
      <g>
       <use xlink:href="#m65f8e45d7e" x="48.8975" y="226.50009" style="stroke: #000000; stroke-width: 0.8"/>
      </g>
     </g>
     <g id="text_11">
      <!-- 0.5 -->
      <g transform="translate(22.81375 231.059153) scale(0.12 -0.12)">
       <defs>
        <path id="DejaVuSans-2e" d="M 684 794 
L 1344 794 
L 1344 0 
L 684 0 
L 684 794 
z
" transform="scale(0.015625)"/>
        <path id="DejaVuSans-35" d="M 691 4666 
L 3169 4666 
L 3169 4134 
L 1269 4134 
L 1269 2991 
Q 1406 3038 1543 3061 
Q 1681 3084 1819 3084 
Q 2600 3084 3056 2656 
Q 3513 2228 3513 1497 
Q 3513 744 3044 326 
Q 2575 -91 1722 -91 
Q 1428 -91 1123 -41 
Q 819 9 494 109 
L 494 744 
Q 775 591 1075 516 
Q 1375 441 1709 441 
Q 2250 441 2565 725 
Q 2881 1009 2881 1497 
Q 2881 1984 2565 2268 
Q 2250 2553 1709 2553 
Q 1456 2553 1204 2497 
Q 953 2441 691 2322 
L 691 4666 
z
" transform="scale(0.015625)"/>
       </defs>
       <use xlink:href="#DejaVuSans-30"/>
       <use xlink:href="#DejaVuSans-2e" x="63.623047"/>
       <use xlink:href="#DejaVuSans-35" x="95.410156"/>
      </g>
     </g>
    </g>
    <g id="ytick_2">
     <g id="line2d_11">
      <g>
       <use xlink:href="#m65f8e45d7e" x="48.8975" y="170.106895" style="stroke: #000000; stroke-width: 0.8"/>
      </g>
     </g>
     <g id="text_12">
      <!-- 1.0 -->
      <g transform="translate(22.81375 174.665958) scale(0.12 -0.12)">
       <use xlink:href="#DejaVuSans-31"/>
       <use xlink:href="#DejaVuSans-2e" x="63.623047"/>
       <use xlink:href="#DejaVuSans-30" x="95.410156"/>
      </g>
     </g>
    </g>
    <g id="ytick_3">
     <g id="line2d_12">
      <g>
       <use xlink:href="#m65f8e45d7e" x="48.8975" y="113.7137" style="stroke: #000000; stroke-width: 0.8"/>
      </g>
     </g>
     <g id="text_13">
      <!-- 1.5 -->
      <g transform="translate(22.81375 118.272762) scale(0.12 -0.12)">
       <use xlink:href="#DejaVuSans-31"/>
       <use xlink:href="#DejaVuSans-2e" x="63.623047"/>
       <use xlink:href="#DejaVuSans-35" x="95.410156"/>
      </g>
     </g>
    </g>
    <g id="ytick_4">
     <g id="line2d_13">
      <g>
       <use xlink:href="#m65f8e45d7e" x="48.8975" y="57.320505" style="stroke: #000000; stroke-width: 0.8"/>
      </g>
     </g>
     <g id="text_14">
      <!-- 2.0 -->
      <g transform="translate(22.81375 61.879567) scale(0.12 -0.12)">
       <use xlink:href="#DejaVuSans-32"/>
       <use xlink:href="#DejaVuSans-2e" x="63.623047"/>
       <use xlink:href="#DejaVuSans-30" x="95.410156"/>
      </g>
     </g>
    </g>
    <g id="text_15">
     <!-- DOS (1/eV) -->
     <g transform="translate(16.318125 173.631937) rotate(-90) scale(0.12 -0.12)">
      <defs>
       <path id="DejaVuSans-44" d="M 1259 4147 
L 1259 519 
L 2022 519 
Q 2988 519 3436 956 
Q 3884 1394 3884 2338 
Q 3884 3275 3436 3711 
Q 2988 4147 2022 4147 
L 1259 4147 
z
M 628 4666 
L 1925 4666 
Q 3281 4666 3915 4102 
Q 4550 3538 4550 2338 
Q 4550 1131 3912 565 
Q 3275 0 1925 0 
L 628 0 
L 628 4666 
z
" transform="scale(0.015625)"/>
       <path id="DejaVuSans-4f" d="M 2522 4238 
Q 1834 4238 1429 3725 
Q 1025 3213 1025 2328 
Q 1025 1447 1429 934 
Q 1834 422 2522 422 
Q 3209 422 3611 934 
Q 4013 1447 4013 2328 
Q 4013 3213 3611 3725 
Q 3209 4238 2522 4238 
z
M 2522 4750 
Q 3503 4750 4090 4092 
Q 4678 3434 4678 2328 
Q 4678 1225 4090 567 
Q 3503 -91 2522 -91 
Q 1538 -91 948 565 
Q 359 1222 359 2328 
Q 359 3434 948 4092 
Q 1538 4750 2522 4750 
z
" transform="scale(0.015625)"/>
       <path id="DejaVuSans-53" d="M 3425 4513 
L 3425 3897 
Q 3066 4069 2747 4153 
Q 2428 4238 2131 4238 
Q 1616 4238 1336 4038 
Q 1056 3838 1056 3469 
Q 1056 3159 1242 3001 
Q 1428 2844 1947 2747 
L 2328 2669 
Q 3034 2534 3370 2195 
Q 3706 1856 3706 1288 
Q 3706 609 3251 259 
Q 2797 -91 1919 -91 
Q 1588 -91 1214 -16 
Q 841 59 441 206 
L 441 856 
Q 825 641 1194 531 
Q 1563 422 1919 422 
Q 2459 422 2753 634 
Q 3047 847 3047 1241 
Q 3047 1584 2836 1778 
Q 2625 1972 2144 2069 
L 1759 2144 
Q 1053 2284 737 2584 
Q 422 2884 422 3419 
Q 422 4038 858 4394 
Q 1294 4750 2059 4750 
Q 2388 4750 2728 4690 
Q 3069 4631 3425 4513 
z
" transform="scale(0.015625)"/>
       <path id="DejaVuSans-2f" d="M 1625 4666 
L 2156 4666 
L 531 -594 
L 0 -594 
L 1625 4666 
z
" transform="scale(0.015625)"/>
      </defs>
      <use xlink:href="#DejaVuSans-44"/>
      <use xlink:href="#DejaVuSans-4f" x="77.001953"/>
      <use xlink:href="#DejaVuSans-53" x="155.712891"/>
      <use xlink:href="#DejaVuSans-20" x="219.189453"/>
      <use xlink:href="#DejaVuSans-28" x="250.976562"/>
      <use xlink:href="#DejaVuSans-31" x="289.990234"/>
      <use xlink:href="#DejaVuSans-2f" x="353.613281"/>
      <use xlink:href="#DejaVuSans-65" x="387.304688"/>
      <use xlink:href="#DejaVuSans-56" x="448.828125"/>
      <use xlink:href="#DejaVuSans-29" x="517.236328"/>
     </g>
    </g>
   </g>
   <g id="line2d_14">
    <path d="M 65.130227 23.92356 
L 69.188409 23.163589 
L 73.246591 26.403756 
L 77.304773 29.075328 
L 81.362955 26.162819 
L 85.421136 31.603072 
L 89.479318 31.395841 
L 93.5375 30.468405 
L 97.595682 37.89469 
L 101.653864 45.32392 
L 105.712045 90.083148 
L 109.770227 98.399943 
L 113.828409 91.931165 
L 117.886591 89.749528 
L 121.944773 72.03024 
L 126.002955 56.415233 
L 130.061136 20.526205 
L 134.119318 45.245945 
L 138.1775 92.533634 
L 142.235682 107.034139 
L 146.293864 126.136524 
L 150.352045 145.213657 
L 154.410227 150.122983 
L 158.468409 165.874506 
L 162.526591 173.1562 
L 166.584773 181.323473 
L 170.642955 191.285792 
L 174.701136 194.9399 
L 178.759318 204.285033 
L 182.8175 209.674148 
L 186.875682 215.049468 
L 190.933864 222.373117 
L 194.992045 225.994627 
L 199.050227 232.053829 
L 203.108409 237.230156 
L 207.166591 240.704661 
L 211.224773 246.528378 
L 215.282955 251.382284 
L 219.341136 254.876138 
L 223.399318 258.844157 
L 227.4575 261.216 
L 231.515682 258.522198 
L 235.573864 254.258332 
L 239.632045 250.315115 
L 243.690227 245.138723 
L 247.748409 238.597063 
L 251.806591 233.985472 
L 255.864773 228.054297 
L 259.922955 220.275439 
L 263.981136 215.487595 
L 268.039318 206.493924 
L 272.0975 197.482497 
L 276.155682 190.511448 
L 280.213864 174.608193 
L 284.272045 165.789692 
L 288.330227 147.885379 
L 292.388409 116.531302 
L 296.446591 87.281609 
L 300.504773 19.296 
L 304.562955 20.114025 
L 308.621136 62.252776 
L 312.679318 84.700627 
L 316.7375 100.919972 
L 320.795682 109.341125 
L 324.853864 120.127893 
L 328.912045 123.764631 
L 332.970227 132.38176 
L 337.028409 133.86899 
L 341.086591 141.199825 
L 345.144773 141.597517 
L 349.202955 148.048708 
L 353.261136 147.842408 
L 357.319318 153.673078 
L 361.3775 153.052929 
L 365.435682 158.460603 
L 369.493864 157.51546 
L 373.552045 162.639123 
L 377.610227 161.447706 
L 381.668409 166.344909 
L 385.726591 165.005607 
L 389.784773 169.591341 
" clip-path="url(#p6ec69659e0)" style="fill: none; stroke: #1f77b4; stroke-width: 1.5; stroke-linecap: square"/>
    <defs>
     <path id="m0102b83542" d="M 0 1.5 
C 0.397805 1.5 0.77937 1.341951 1.06066 1.06066 
C 1.341951 0.77937 1.5 0.397805 1.5 0 
C 1.5 -0.397805 1.341951 -0.77937 1.06066 -1.06066 
C 0.77937 -1.341951 0.397805 -1.5 0 -1.5 
C -0.397805 -1.5 -0.77937 -1.341951 -1.06066 -1.06066 
C -1.341951 -0.77937 -1.5 -0.397805 -1.5 0 
C -1.5 0.397805 -1.341951 0.77937 -1.06066 1.06066 
C -0.77937 1.341951 -0.397805 1.5 0 1.5 
z
" style="stroke: #1f77b4"/>
    </defs>
    <g clip-path="url(#p6ec69659e0)">
     <use xlink:href="#m0102b83542" x="65.130227" y="23.92356" style="fill: #1f77b4; stroke: #1f77b4"/>
     <use xlink:href="#m0102b83542" x="69.188409" y="23.163589" style="fill: #1f77b4; stroke: #1f77b4"/>
     <use xlink:href="#m0102b83542" x="73.246591" y="26.403756" style="fill: #1f77b4; stroke: #1f77b4"/>
     <use xlink:href="#m0102b83542" x="77.304773" y="29.075328" style="fill: #1f77b4; stroke: #1f77b4"/>
     <use xlink:href="#m0102b83542" x="81.362955" y="26.162819" style="fill: #1f77b4; stroke: #1f77b4"/>
     <use xlink:href="#m0102b83542" x="85.421136" y="31.603072" style="fill: #1f77b4; stroke: #1f77b4"/>
     <use xlink:href="#m0102b83542" x="89.479318" y="31.395841" style="fill: #1f77b4; stroke: #1f77b4"/>
     <use xlink:href="#m0102b83542" x="93.5375" y="30.468405" style="fill: #1f77b4; stroke: #1f77b4"/>
     <use xlink:href="#m0102b83542" x="97.595682" y="37.89469" style="fill: #1f77b4; stroke: #1f77b4"/>
     <use xlink:href="#m0102b83542" x="101.653864" y="45.32392" style="fill: #1f77b4; stroke: #1f77b4"/>
     <use xlink:href="#m0102b83542" x="105.712045" y="90.083148" style="fill: #1f77b4; stroke: #1f77b4"/>
     <use xlink:href="#m0102b83542" x="109.770227" y="98.399943" style="fill: #1f77b4; stroke: #1f77b4"/>
     <use xlink:href="#m0102b83542" x="113.828409" y="91.931165" style="fill: #1f77b4; stroke: #1f77b4"/>
     <use xlink:href="#m0102b83542" x="117.886591" y="89.749528" style="fill: #1f77b4; stroke: #1f77b4"/>
     <use xlink:href="#m0102b83542" x="121.944773" y="72.03024" style="fill: #1f77b4; stroke: #1f77b4"/>
     <use xlink:href="#m0102b83542" x="126.002955" y="56.415233" style="fill: #1f77b4; stroke: #1f77b4"/>
     <use xlink:href="#m0102b83542" x="130.061136" y="20.526205" style="fill: #1f77b4; stroke: #1f77b4"/>
     <use xlink:href="#m0102b83542" x="134.119318" y="45.245945" style="fill: #1f77b4; stroke: #1f77b4"/>
     <use xlink:href="#m0102b83542" x="138.1775" y="92.533634" style="fill: #1f77b4; stroke: #1f77b4"/>
     <use xlink:href="#m0102b83542" x="142.235682" y="107.034139" style="fill: #1f77b4; stroke: #1f77b4"/>
     <use xlink:href="#m0102b83542" x="146.293864" y="126.136524" style="fill: #1f77b4; stroke: #1f77b4"/>
     <use xlink:href="#m0102b83542" x="150.352045" y="145.213657" style="fill: #1f77b4; stroke: #1f77b4"/>
     <use xlink:href="#m0102b83542" x="154.410227" y="150.122983" style="fill: #1f77b4; stroke: #1f77b4"/>
     <use xlink:href="#m0102b83542" x="158.468409" y="165.874506" style="fill: #1f77b4; stroke: #1f77b4"/>
     <use xlink:href="#m0102b83542" x="162.526591" y="173.1562" style="fill: #1f77b4; stroke: #1f77b4"/>
     <use xlink:href="#m0102b83542" x="166.584773" y="181.323473" style="fill: #1f77b4; stroke: #1f77b4"/>
     <use xlink:href="#m0102b83542" x="170.642955" y="191.285792" style="fill: #1f77b4; stroke: #1f77b4"/>
     <use xlink:href="#m0102b83542" x="174.701136" y="194.9399" style="fill: #1f77b4; stroke: #1f77b4"/>
     <use xlink:href="#m0102b83542" x="178.759318" y="204.285033" style="fill: #1f77b4; stroke: #1f77b4"/>
     <use xlink:href="#m0102b83542" x="182.8175" y="209.674148" style="fill: #1f77b4; stroke: #1f77b4"/>
     <use xlink:href="#m0102b83542" x="186.875682" y="215.049468" style="fill: #1f77b4; stroke: #1f77b4"/>
     <use xlink:href="#m0102b83542" x="190.933864" y="222.373117" style="fill: #1f77b4; stroke: #1f77b4"/>
     <use xlink:href="#m0102b83542" x="194.992045" y="225.994627" style="fill: #1f77b4; stroke: #1f77b4"/>
     <use xlink:href="#m0102b83542" x="199.050227" y="232.053829" style="fill: #1f77b4; stroke: #1f77b4"/>
     <use xlink:href="#m0102b83542" x="203.108409" y="237.230156" style="fill: #1f77b4; stroke: #1f77b4"/>
     <use xlink:href="#m0102b83542" x="207.166591" y="240.704661" style="fill: #1f77b4; stroke: #1f77b4"/>
     <use xlink:href="#m0102b83542" x="211.224773" y="246.528378" style="fill: #1f77b4; stroke: #1f77b4"/>
     <use xlink:href="#m0102b83542" x="215.282955" y="251.382284" style="fill: #1f77b4; stroke: #1f77b4"/>
     <use xlink:href="#m0102b83542" x="219.341136" y="254.876138" style="fill: #1f77b4; stroke: #1f77b4"/>
     <use xlink:href="#m0102b83542" x="223.399318" y="258.844157" style="fill: #1f77b4; stroke: #1f77b4"/>
     <use xlink:href="#m0102b83542" x="227.4575" y="261.216" style="fill: #1f77b4; stroke: #1f77b4"/>
     <use xlink:href="#m0102b83542" x="231.515682" y="258.522198" style="fill: #1f77b4; stroke: #1f77b4"/>
     <use xlink:href="#m0102b83542" x="235.573864" y="254.258332" style="fill: #1f77b4; stroke: #1f77b4"/>
     <use xlink:href="#m0102b83542" x="239.632045" y="250.315115" style="fill: #1f77b4; stroke: #1f77b4"/>
     <use xlink:href="#m0102b83542" x="243.690227" y="245.138723" style="fill: #1f77b4; stroke: #1f77b4"/>
     <use xlink:href="#m0102b83542" x="247.748409" y="238.597063" style="fill: #1f77b4; stroke: #1f77b4"/>
     <use xlink:href="#m0102b83542" x="251.806591" y="233.985472" style="fill: #1f77b4; stroke: #1f77b4"/>
     <use xlink:href="#m0102b83542" x="255.864773" y="228.054297" style="fill: #1f77b4; stroke: #1f77b4"/>
     <use xlink:href="#m0102b83542" x="259.922955" y="220.275439" style="fill: #1f77b4; stroke: #1f77b4"/>
     <use xlink:href="#m0102b83542" x="263.981136" y="215.487595" style="fill: #1f77b4; stroke: #1f77b4"/>
     <use xlink:href="#m0102b83542" x="268.039318" y="206.493924" style="fill: #1f77b4; stroke: #1f77b4"/>
     <use xlink:href="#m0102b83542" x="272.0975" y="197.482497" style="fill: #1f77b4; stroke: #1f77b4"/>
     <use xlink:href="#m0102b83542" x="276.155682" y="190.511448" style="fill: #1f77b4; stroke: #1f77b4"/>
     <use xlink:href="#m0102b83542" x="280.213864" y="174.608193" style="fill: #1f77b4; stroke: #1f77b4"/>
     <use xlink:href="#m0102b83542" x="284.272045" y="165.789692" style="fill: #1f77b4; stroke: #1f77b4"/>
     <use xlink:href="#m0102b83542" x="288.330227" y="147.885379" style="fill: #1f77b4; stroke: #1f77b4"/>
     <use xlink:href="#m0102b83542" x="292.388409" y="116.531302" style="fill: #1f77b4; stroke: #1f77b4"/>
     <use xlink:href="#m0102b83542" x="296.446591" y="87.281609" style="fill: #1f77b4; stroke: #1f77b4"/>
     <use xlink:href="#m0102b83542" x="300.504773" y="19.296" style="fill: #1f77b4; stroke: #1f77b4"/>
     <use xlink:href="#m0102b83542" x="304.562955" y="20.114025" style="fill: #1f77b4; stroke: #1f77b4"/>
     <use xlink:href="#m0102b83542" x="308.621136" y="62.252776" style="fill: #1f77b4; stroke: #1f77b4"/>
     <use xlink:href="#m0102b83542" x="312.679318" y="84.700627" style="fill: #1f77b4; stroke: #1f77b4"/>
     <use xlink:href="#m0102b83542" x="316.7375" y="100.919972" style="fill: #1f77b4; stroke: #1f77b4"/>
     <use xlink:href="#m0102b83542" x="320.795682" y="109.341125" style="fill: #1f77b4; stroke: #1f77b4"/>
     <use xlink:href="#m0102b83542" x="324.853864" y="120.127893" style="fill: #1f77b4; stroke: #1f77b4"/>
     <use xlink:href="#m0102b83542" x="328.912045" y="123.764631" style="fill: #1f77b4; stroke: #1f77b4"/>
     <use xlink:href="#m0102b83542" x="332.970227" y="132.38176" style="fill: #1f77b4; stroke: #1f77b4"/>
     <use xlink:href="#m0102b83542" x="337.028409" y="133.86899" style="fill: #1f77b4; stroke: #1f77b4"/>
     <use xlink:href="#m0102b83542" x="341.086591" y="141.199825" style="fill: #1f77b4; stroke: #1f77b4"/>
     <use xlink:href="#m0102b83542" x="345.144773" y="141.597517" style="fill: #1f77b4; stroke: #1f77b4"/>
     <use xlink:href="#m0102b83542" x="349.202955" y="148.048708" style="fill: #1f77b4; stroke: #1f77b4"/>
     <use xlink:href="#m0102b83542" x="353.261136" y="147.842408" style="fill: #1f77b4; stroke: #1f77b4"/>
     <use xlink:href="#m0102b83542" x="357.319318" y="153.673078" style="fill: #1f77b4; stroke: #1f77b4"/>
     <use xlink:href="#m0102b83542" x="361.3775" y="153.052929" style="fill: #1f77b4; stroke: #1f77b4"/>
     <use xlink:href="#m0102b83542" x="365.435682" y="158.460603" style="fill: #1f77b4; stroke: #1f77b4"/>
     <use xlink:href="#m0102b83542" x="369.493864" y="157.51546" style="fill: #1f77b4; stroke: #1f77b4"/>
     <use xlink:href="#m0102b83542" x="373.552045" y="162.639123" style="fill: #1f77b4; stroke: #1f77b4"/>
     <use xlink:href="#m0102b83542" x="377.610227" y="161.447706" style="fill: #1f77b4; stroke: #1f77b4"/>
     <use xlink:href="#m0102b83542" x="381.668409" y="166.344909" style="fill: #1f77b4; stroke: #1f77b4"/>
     <use xlink:href="#m0102b83542" x="385.726591" y="165.005607" style="fill: #1f77b4; stroke: #1f77b4"/>
     <use xlink:href="#m0102b83542" x="389.784773" y="169.591341" style="fill: #1f77b4; stroke: #1f77b4"/>
    </g>
   </g>
   <g id="patch_3">
    <path d="M 48.8975 273.312 
L 48.8975 7.2 
" style="fill: none; stroke: #000000; stroke-width: 0.8; stroke-linejoin: miter; stroke-linecap: square"/>
   </g>
   <g id="patch_4">
    <path d="M 406.0175 273.312 
L 406.0175 7.2 
" style="fill: none; stroke: #000000; stroke-width: 0.8; stroke-linejoin: miter; stroke-linecap: square"/>
   </g>
   <g id="patch_5">
    <path d="M 48.8975 273.312 
L 406.0175 273.312 
" style="fill: none; stroke: #000000; stroke-width: 0.8; stroke-linejoin: miter; stroke-linecap: square"/>
   </g>
   <g id="patch_6">
    <path d="M 48.8975 7.2 
L 406.0175 7.2 
" style="fill: none; stroke: #000000; stroke-width: 0.8; stroke-linejoin: miter; stroke-linecap: square"/>
   </g>
  </g>
 </g>
 <defs>
  <clipPath id="p6ec69659e0">
   <rect x="48.8975" y="7.2" width="357.12" height="266.112"/>
  </clipPath>
 </defs>
</svg>