<?xml version="1.0" encoding="utf-8" standalone="no"?>
<!DOCTYPE svg PUBLIC "-//W3C//DTD SVG 1.1//EN"
  "http://www.w3.org/Graphics/SVG/1.1/DTD/svg11.dtd">
<svg xmlns:xlink="http://www.w3.org/1999/xlink" width="413.2175pt" height="314.7395pt" viewBox="0 0 413.2175 314.7395" xmlns="http://www.w3.org/2000/svg" version="1.1">
 <metadata>
  <rdf:RDF xmlns:dc="http://purl.org/dc/elements/1.1/" xmlns:cc="http://creativecommons.org/ns#" xmlns:rdf="http://www.w3.org/1999/02/22-rdf-syntax-ns#">
   <cc:Work>
    <dc:type rdf:resource="http://purl.org/dc/dcmitype/StillImage"/>
    <dc:date>2024-08-15T22:17:43.317791</dc:date>
    <dc:format>image/svg+xml</dc:format>
    <dc:creator>
     <cc:Agent>
      <dc:title>Matplotlib v3.7.2, https://matplotlib.org/</dc:title>
     </cc:Agent>
    </dc:creator>
   </cc:Work>
  </rdf:RDF>
 </metadata>
 <defs>
  <style type="text/css">*{stroke-linejoin: round; stroke-linecap: butt}</style>
 </defs>
 <g id="figure_1">
  <g id="patch_1">
   <path d="M 0 314.7395 
L 413.2175 314.7395 
L 413.2175 0 
L 0 0 
z
" style="fill: #ffffff"/>
  </g>
  <g id="axes_1">
   <g id="patch_2">
    <path d="M 48.8975 273.312 
L 406.0175 273.312 
L 406.0175 7.2 
L 48.8975 7.2 
z
" style="fill: #ffffff"/>
   </g>
   <g id="matplotlib.axis_1">
    <g id="xtick_1">
     <g id="line2d_1">
      <defs>
       <path id="m4cf992e5ff" d="M 0 0 
L 0 3.5 
" style="stroke: #000000; stroke-width: 0.8"/>
      </defs>
      <g>
       <use xlink:href="#m4cf992e5ff" x="65.130227" y="273.312" style="stroke: #000000; stroke-width: 0.8"/>
      </g>
     </g>
     <g id="text_1">
      <!-- −4 -->
      <g transform="translate(56.284915 289.430125) scale(0.12 -0.12)">
       <defs>
        <path id="DejaVuSans-2212" d="M 678 2272 
L 4684 2272 
L 4684 1741 
L 678 1741 
L 678 2272 
z
" transform="scale(0.015625)"/>
        <path id="DejaVuSans-34" d="M 2419 4116 
L 825 1625 
L 2419 1625 
L 2419 4116 
z
M 2253 4666 
L 3047 4666 
L 3047 1625 
L 3713 1625 
L 3713 1100 
L 3047 1100 
L 3047 0 
L 2419 0 
L 2419 1100 
L 313 1100 
L 313 1709 
L 2253 4666 
z
" transform="scale(0.015625)"/>
       </defs>
       <use xlink:href="#DejaVuSans-2212"/>
       <use xlink:href="#DejaVuSans-34" x="83.789062"/>
      </g>
     </g>
    </g>
    <g id="xtick_2">
     <g id="line2d_2">
      <g>
       <use xlink:href="#m4cf992e5ff" x="105.712045" y="273.312" style="stroke: #000000; stroke-width: 0.8"/>
      </g>
     </g>
     <g id="text_2">
      <!-- −3 -->
      <g transform="translate(96.866733 289.430125) scale(0.12 -0.12)">
       <defs>
        <path id="DejaVuSans-33" d="M 2597 2516 
Q 3050 2419 3304 2112 
Q 3559 1806 3559 1356 
Q 3559 666 3084 287 
Q 2609 -91 1734 -91 
Q 1441 -91 1130 -33 
Q 819 25 488 141 
L 488 750 
Q 750 597 1062 519 
Q 1375 441 1716 441 
Q 2309 441 2620 675 
Q 2931 909 2931 1356 
Q 2931 1769 2642 2001 
Q 2353 2234 1838 2234 
L 1294 2234 
L 1294 2753 
L 1863 2753 
Q 2328 2753 2575 2939 
Q 2822 3125 2822 3475 
Q 2822 3834 2567 4026 
Q 2313 4219 1838 4219 
Q 1578 4219 1281 4162 
Q 984 4106 628 3988 
L 628 4550 
Q 988 4650 1302 4700 
Q 1616 4750 1894 4750 
Q 2613 4750 3031 4423 
Q 3450 4097 3450 3541 
Q 3450 3153 3228 2886 
Q 3006 2619 2597 2516 
z
" transform="scale(0.015625)"/>
       </defs>
       <use xlink:href="#DejaVuSans-2212"/>
       <use xlink:href="#DejaVuSans-33" x="83.789062"/>
      </g>
     </g>
    </g>
    <g id="xtick_3">
     <g id="line2d_3">
      <g>
       <use xlink:href="#m4cf992e5ff" x="146.293864" y="273.312" style="stroke: #000000; stroke-width: 0.8"/>
      </g>
     </g>
     <g id="text_3">
      <!-- −2 -->
      <g transform="translate(137.448551 289.430125) scale(0.12 -0.12)">
       <defs>
        <path id="DejaVuSans-32" d="M 1228 531 
L 3431 531 
L 3431 0 
L 469 0 
L 469 531 
Q 828 903 1448 1529 
Q 2069 2156 2228 2338 
Q 2531 2678 2651 2914 
Q 2772 3150 2772 3378 
Q 2772 3750 2511 3984 
Q 2250 4219 1831 4219 
Q 1534 4219 1204 4116 
Q 875 4013 500 3803 
L 500 4441 
Q 881 4594 1212 4672 
Q 1544 4750 1819 4750 
Q 2544 4750 2975 4387 
Q 3406 4025 3406 3419 
Q 3406 3131 3298 2873 
Q 3191 2616 2906 2266 
Q 2828 2175 2409 1742 
Q 1991 1309 1228 531 
z
" transform="scale(0.015625)"/>
       </defs>
       <use xlink:href="#DejaVuSans-2212"/>
       <use xlink:href="#DejaVuSans-32" x="83.789062"/>
      </g>
     </g>
    </g>
    <g id="xtick_4">
     <g id="line2d_4">
      <g>
       <use xlink:href="#m4cf992e5ff" x="186.875682" y="273.312" style="stroke: #000000; stroke-width: 0.8"/>
      </g>
     </g>
     <g id="text_4">
      <!-- −1 -->
      <g transform="translate(178.030369 289.430125) scale(0.12 -0.12)">
       <defs>
        <path id="DejaVuSans-31" d="M 794 531 
L 1825 531 
L 1825 4091 
L 703 3866 
L 703 4441 
L 1819 4666 
L 2450 4666 
L 2450 531 
L 3481 531 
L 3481 0 
L 794 0 
L 794 531 
z
" transform="scale(0.015625)"/>
       </defs>
       <use xlink:href="#DejaVuSans-2212"/>
       <use xlink:href="#DejaVuSans-31" x="83.789062"/>
      </g>
     </g>
    </g>
    <g id="xtick_5">
     <g id="line2d_5">
      <g>
       <use xlink:href="#m4cf992e5ff" x="227.4575" y="273.312" style="stroke: #000000; stroke-width: 0.8"/>
      </g>
     </g>
     <g id="text_5">
      <!-- 0 -->
      <g transform="translate(223.64 289.430125) scale(0.12 -0.12)">
       <defs>
        <path id="DejaVuSans-30" d="M 2034 4250 
Q 1547 4250 1301 3770 
Q 1056 3291 1056 2328 
Q 1056 1369 1301 889 
Q 1547 409 2034 409 
Q 2525 409 2770 889 
Q 3016 1369 3016 2328 
Q 3016 3291 2770 3770 
Q 2525 4250 2034 4250 
z
M 2034 4750 
Q 2819 4750 3233 4129 
Q 3647 3509 3647 2328 
Q 3647 1150 3233 529 
Q 2819 -91 2034 -91 
Q 1250 -91 836 529 
Q 422 1150 422 2328 
Q 422 3509 836 4129 
Q 1250 4750 2034 4750 
z
" transform="scale(0.015625)"/>
       </defs>
       <use xlink:href="#DejaVuSans-30"/>
      </g>
     </g>
    </g>
    <g id="xtick_6">
     <g id="line2d_6">
      <g>
       <use xlink:href="#m4cf992e5ff" x="268.039318" y="273.312" style="stroke: #000000; stroke-width: 0.8"/>
      </g>
     </g>
     <g id="text_6">
      <!-- 1 -->
      <g transform="translate(264.221818 289.430125) scale(0.12 -0.12)">
       <use xlink:href="#DejaVuSans-31"/>
      </g>
     </g>
    </g>
    <g id="xtick_7">
     <g id="line2d_7">
      <g>
       <use xlink:href="#m4cf992e5ff" x="308.621136" y="273.312" style="stroke: #000000; stroke-width: 0.8"/>
      </g>
     </g>
     <g id="text_7">
      <!-- 2 -->
      <g transform="translate(304.803636 289.430125) scale(0.12 -0.12)">
       <use xlink:href="#DejaVuSans-32"/>
      </g>
     </g>
    </g>
    <g id="xtick_8">
     <g id="line2d_8">
      <g>
       <use xlink:href="#m4cf992e5ff" x="349.202955" y="273.312" style="stroke: #000000; stroke-width: 0.8"/>
      </g>
     </g>
     <g id="text_8">
      <!-- 3 -->
      <g transform="translate(345.385455 289.430125) scale(0.12 -0.12)">
       <use xlink:href="#DejaVuSans-33"/>
      </g>
     </g>
    </g>
    <g id="xtick_9">
     <g id="line2d_9">
      <g>
       <use xlink:href="#m4cf992e5ff" x="389.784773" y="273.312" style="stroke: #000000; stroke-width: 0.8"/>
      </g>
     </g>
     <g id="text_9">
      <!-- 4 -->
      <g transform="translate(385.967273 289.430125) scale(0.12 -0.12)">
       <use xlink:href="#DejaVuSans-34"/>
      </g>
     </g>
    </g>
    <g id="text_10">
     <!-- Energy (eV) -->
     <g transform="translate(192.065 305.043875) scale(0.12 -0.12)">
      <defs>
       <path id="DejaVuSans-45" d="M 628 4666 
L 3578 4666 
L 3578 4134 
L 1259 4134 
L 1259 2753 
L 3481 2753 
L 3481 2222 
L 1259 2222 
L 1259 531 
L 3634 531 
L 3634 0 
L 628 0 
L 628 4666 
z
" transform="scale(0.015625)"/>
       <path id="DejaVuSans-6e" d="M 3513 2113 
L 3513 0 
L 2938 0 
L 2938 2094 
Q 2938 2591 2744 2837 
Q 2550 3084 2163 3084 
Q 1697 3084 1428 2787 
Q 1159 2491 1159 1978 
L 1159 0 
L 581 0 
L 581 3500 
L 1159 3500 
L 1159 2956 
Q 1366 3272 1645 3428 
Q 1925 3584 2291 3584 
Q 2894 3584 3203 3211 
Q 3513 2838 3513 2113 
z
" transform="scale(0.015625)"/>
       <path id="DejaVuSans-65" d="M 3597 1894 
L 3597 1613 
L 953 1613 
Q 991 1019 1311 708 
Q 1631 397 2203 397 
Q 2534 397 2845 478 
Q 3156 559 3463 722 
L 3463 178 
Q 3153 47 2828 -22 
Q 2503 -91 2169 -91 
Q 1331 -91 842 396 
Q 353 884 353 1716 
Q 353 2575 817 3079 
Q 1281 3584 2069 3584 
Q 2775 3584 3186 3129 
Q 3597 2675 3597 1894 
z
M 3022 2063 
Q 3016 2534 2758 2815 
Q 2500 3097 2075 3097 
Q 1594 3097 1305 2825 
Q 1016 2553 972 2059 
L 3022 2063 
z
" transform="scale(0.015625)"/>
       <path id="DejaVuSans-72" d="M 2631 2963 
Q 2534 3019 2420 3045 
Q 2306 3072 2169 3072 
Q 1681 3072 1420 2755 
Q 1159 2438 1159 1844 
L 1159 0 
L 581 0 
L 581 3500 
L 1159 3500 
L 1159 2956 
Q 1341 3275 1631 3429 
Q 1922 3584 2338 3584 
Q 2397 3584 2469 3576 
Q 2541 3569 2628 3553 
L 2631 2963 
z
" transform="scale(0.015625)"/>
       <path id="DejaVuSans-67" d="M 2906 1791 
Q 2906 2416 2648 2759 
Q 2391 3103 1925 3103 
Q 1463 3103 1205 2759 
Q 947 2416 947 1791 
Q 947 1169 1205 825 
Q 1463 481 1925 481 
Q 2391 481 2648 825 
Q 2906 1169 2906 1791 
z
M 3481 434 
Q 3481 -459 3084 -895 
Q 2688 -1331 1869 -1331 
Q 1566 -1331 1297 -1286 
Q 1028 -1241 775 -1147 
L 775 -588 
Q 1028 -725 1275 -790 
Q 1522 -856 1778 -856 
Q 2344 -856 2625 -561 
Q 2906 -266 2906 331 
L 2906 616 
Q 2728 306 2450 153 
Q 2172 0 1784 0 
Q 1141 0 747 490 
Q 353 981 353 1791 
Q 353 2603 747 3093 
Q 1141 3584 1784 3584 
Q 2172 3584 2450 3431 
Q 2728 3278 2906 2969 
L 2906 3500 
L 3481 3500 
L 3481 434 
z
" transform="scale(0.015625)"/>
       <path id="DejaVuSans-79" d="M 2059 -325 
Q 1816 -950 1584 -1140 
Q 1353 -1331 966 -1331 
L 506 -1331 
L 506 -850 
L 844 -850 
Q 1081 -850 1212 -737 
Q 1344 -625 1503 -206 
L 1606 56 
L 191 3500 
L 800 3500 
L 1894 763 
L 2988 3500 
L 3597 3500 
L 2059 -325 
z
" transform="scale(0.015625)"/>
       <path id="DejaVuSans-20" transform="scale(0.015625)"/>
       <path id="DejaVuSans-28" d="M 1984 4856 
Q 1566 4138 1362 3434 
Q 1159 2731 1159 2009 
Q 1159 1288 1364 580 
Q 1569 -128 1984 -844 
L 1484 -844 
Q 1016 -109 783 600 
Q 550 1309 550 2009 
Q 550 2706 781 3412 
Q 1013 4119 1484 4856 
L 1984 4856 
z
" transform="scale(0.015625)"/>
       <path id="DejaVuSans-56" d="M 1831 0 
L 50 4666 
L 709 4666 
L 2188 738 
L 3669 4666 
L 4325 4666 
L 2547 0 
L 1831 0 
z
" transform="scale(0.015625)"/>
       <path id="DejaVuSans-29" d="M 513 4856 
L 1013 4856 
Q 1481 4119 1714 3412 
Q 1947 2706 1947 2009 
Q 1947 1309 1714 600 
Q 1481 -109 1013 -844 
L 513 -844 
Q 928 -128 1133 580 
Q 1338 1288 1338 2009 
Q 1338 2731 1133 3434 
Q 928 4138 513 4856 
z
" transform="scale(0.015625)"/>
      </defs>
      <use xlink:href="#DejaVuSans-45"/>
      <use xlink:href="#DejaVuSans-6e" x="63.183594"/>
      <use xlink:href="#DejaVuSans-65" x="126.5625"/>
      <use xlink:href="#DejaVuSans-72" x="188.085938"/>
      <use xlink:href="#DejaVuSans-67" x="227.449219"/>
      <use xlink:href="#DejaVuSans-79" x="290.925781"/>
      <use xlink:href="#DejaVuSans-20" x="350.105469"/>
      <use xlink:href="#DejaVuSans-28" x="381.892578"/>
      <use xlink:href="#DejaVuSans-65" x="420.90625"/>
      <use xlink:href="#DejaVuSans-56" x="482.429688"/>
      <use xlink:href="#DejaVuSans-29" x="550.837891"/>
     </g>
    </g>
   </g>
   <g id="matplotlib.axis_2">
    <g id="ytick_1">
     <g id="line2d_10">
      <defs>
       <path id="m790f8f83e4" d="M 0 0 
L -3.5 0 
" style="stroke: #000000; stroke-width: 0.8"/>
      </defs>
      <g>
       <use xlink:href="#m790f8f83e4" x="48.8975" y="264.142432" style="stroke: #000000; stroke-width: 0.8"/>
      </g>
     </g>
     <g id="text_11">
      <!-- 0.0 -->
      <g transform="translate(22.81375 268.701494) scale(0.12 -0.12)">
       <defs>
        <path id="DejaVuSans-2e" d="M 684 794 
L 1344 794 
L 1344 0 
L 684 0 
L 684 794 
z
" transform="scale(0.015625)"/>
       </defs>
       <use xlink:href="#DejaVuSans-30"/>
       <use xlink:href="#DejaVuSans-2e" x="63.623047"/>
       <use xlink:href="#DejaVuSans-30" x="95.410156"/>
      </g>
     </g>
    </g>
    <g id="ytick_2">
     <g id="line2d_11">
      <g>
       <use xlink:href="#m790f8f83e4" x="48.8975" y="209.61611" style="stroke: #000000; stroke-width: 0.8"/>
      </g>
     </g>
     <g id="text_12">
      <!-- 0.5 -->
      <g transform="translate(22.81375 214.175172) scale(0.12 -0.12)">
       <defs>
        <path id="DejaVuSans-35" d="M 691 4666 
L 3169 4666 
L 3169 4134 
L 1269 4134 
L 1269 2991 
Q 1406 3038 1543 3061 
Q 1681 3084 1819 3084 
Q 2600 3084 3056 2656 
Q 3513 2228 3513 1497 
Q 3513 744 3044 326 
Q 2575 -91 1722 -91 
Q 1428 -91 1123 -41 
Q 819 9 494 109 
L 494 744 
Q 775 591 1075 516 
Q 1375 441 1709 441 
Q 2250 441 2565 725 
Q 2881 1009 2881 1497 
Q 2881 1984 2565 2268 
Q 2250 2553 1709 2553 
Q 1456 2553 1204 2497 
Q 953 2441 691 2322 
L 691 4666 
z
" transform="scale(0.015625)"/>
       </defs>
       <use xlink:href="#DejaVuSans-30"/>
       <use xlink:href="#DejaVuSans-2e" x="63.623047"/>
       <use xlink:href="#DejaVuSans-35" x="95.410156"/>
      </g>
     </g>
    </g>
    <g id="ytick_3">
     <g id="line2d_12">
      <g>
       <use xlink:href="#m790f8f83e4" x="48.8975" y="155.089788" style="stroke: #000000; stroke-width: 0.8"/>
      </g>
     </g>
     <g id="text_13">
      <!-- 1.0 -->
      <g transform="translate(22.81375 159.64885) scale(0.12 -0.12)">
       <use xlink:href="#DejaVuSans-31"/>
       <use xlink:href="#DejaVuSans-2e" x="63.623047"/>
       <use xlink:href="#DejaVuSans-30" x="95.410156"/>
      </g>
     </g>
    </g>
    <g id="ytick_4">
     <g id="line2d_13">
      <g>
       <use xlink:href="#m790f8f83e4" x="48.8975" y="100.563466" style="stroke: #000000; stroke-width: 0.8"/>
      </g>
     </g>
     <g id="text_14">
      <!-- 1.5 -->
      <g transform="translate(22.81375 105.122528) scale(0.12 -0.12)">
       <use xlink:href="#DejaVuSans-31"/>
       <use xlink:href="#DejaVuSans-2e" x="63.623047"/>
       <use xlink:href="#DejaVuSans-35" x="95.410156"/>
      </g>
     </g>
    </g>
    <g id="ytick_5">
     <g id="line2d_14">
      <g>
       <use xlink:href="#m790f8f83e4" x="48.8975" y="46.037144" style="stroke: #000000; stroke-width: 0.8"/>
      </g>
     </g>
     <g id="text_15">
      <!-- 2.0 -->
      <g transform="translate(22.81375 50.596206) scale(0.12 -0.12)">
       <use xlink:href="#DejaVuSans-32"/>
       <use xlink:href="#DejaVuSans-2e" x="63.623047"/>
       <use xlink:href="#DejaVuSans-30" x="95.410156"/>
      </g>
     </g>
    </g>
    <g id="text_16">
     <!-- Transmission -->
     <g transform="translate(16.318125 179.010375) rotate(-90) scale(0.12 -0.12)">
      <defs>
       <path id="DejaVuSans-54" d="M -19 4666 
L 3928 4666 
L 3928 4134 
L 2272 4134 
L 2272 0 
L 1638 0 
L 1638 4134 
L -19 4134 
L -19 4666 
z
" transform="scale(0.015625)"/>
       <path id="DejaVuSans-61" d="M 2194 1759 
Q 1497 1759 1228 1600 
Q 959 1441 959 1056 
Q 959 750 1161 570 
Q 1363 391 1709 391 
Q 2188 391 2477 730 
Q 2766 1069 2766 1631 
L 2766 1759 
L 2194 1759 
z
M 3341 1997 
L 3341 0 
L 2766 0 
L 2766 531 
Q 2569 213 2275 61 
Q 1981 -91 1556 -91 
Q 1019 -91 701 211 
Q 384 513 384 1019 
Q 384 1609 779 1909 
Q 1175 2209 1959 2209 
L 2766 2209 
L 2766 2266 
Q 2766 2663 2505 2880 
Q 2244 3097 1772 3097 
Q 1472 3097 1187 3025 
Q 903 2953 641 2809 
L 641 3341 
Q 956 3463 1253 3523 
Q 1550 3584 1831 3584 
Q 2591 3584 2966 3190 
Q 3341 2797 3341 1997 
z
" transform="scale(0.015625)"/>
       <path id="DejaVuSans-73" d="M 2834 3397 
L 2834 2853 
Q 2591 2978 2328 3040 
Q 2066 3103 1784 3103 
Q 1356 3103 1142 2972 
Q 928 2841 928 2578 
Q 928 2378 1081 2264 
Q 1234 2150 1697 2047 
L 1894 2003 
Q 2506 1872 2764 1633 
Q 3022 1394 3022 966 
Q 3022 478 2636 193 
Q 2250 -91 1575 -91 
Q 1294 -91 989 -36 
Q 684 19 347 128 
L 347 722 
Q 666 556 975 473 
Q 1284 391 1588 391 
Q 1994 391 2212 530 
Q 2431 669 2431 922 
Q 2431 1156 2273 1281 
Q 2116 1406 1581 1522 
L 1381 1569 
Q 847 1681 609 1914 
Q 372 2147 372 2553 
Q 372 3047 722 3315 
Q 1072 3584 1716 3584 
Q 2034 3584 2315 3537 
Q 2597 3491 2834 3397 
z
" transform="scale(0.015625)"/>
       <path id="DejaVuSans-6d" d="M 3328 2828 
Q 3544 3216 3844 3400 
Q 4144 3584 4550 3584 
Q 5097 3584 5394 3201 
Q 5691 2819 5691 2113 
L 5691 0 
L 5113 0 
L 5113 2094 
Q 5113 2597 4934 2840 
Q 4756 3084 4391 3084 
Q 3944 3084 3684 2787 
Q 3425 2491 3425 1978 
L 3425 0 
L 2847 0 
L 2847 2094 
Q 2847 2600 2669 2842 
Q 2491 3084 2119 3084 
Q 1678 3084 1418 2786 
Q 1159 2488 1159 1978 
L 1159 0 
L 581 0 
L 581 3500 
L 1159 3500 
L 1159 2956 
Q 1356 3278 1631 3431 
Q 1906 3584 2284 3584 
Q 2666 3584 2933 3390 
Q 3200 3197 3328 2828 
z
" transform="scale(0.015625)"/>
       <path id="DejaVuSans-69" d="M 603 3500 
L 1178 3500 
L 1178 0 
L 603 0 
L 603 3500 
z
M 603 4863 
L 1178 4863 
L 1178 4134 
L 603 4134 
L 603 4863 
z
" transform="scale(0.015625)"/>
       <path id="DejaVuSans-6f" d="M 1959 3097 
Q 1497 3097 1228 2736 
Q 959 2375 959 1747 
Q 959 1119 1226 758 
Q 1494 397 1959 397 
Q 2419 397 2687 759 
Q 2956 1122 2956 1747 
Q 2956 2369 2687 2733 
Q 2419 3097 1959 3097 
z
M 1959 3584 
Q 2709 3584 3137 3096 
Q 3566 2609 3566 1747 
Q 3566 888 3137 398 
Q 2709 -91 1959 -91 
Q 1206 -91 779 398 
Q 353 888 353 1747 
Q 353 2609 779 3096 
Q 1206 3584 1959 3584 
z
" transform="scale(0.015625)"/>
      </defs>
      <use xlink:href="#DejaVuSans-54"/>
      <use xlink:href="#DejaVuSans-72" x="46.333984"/>
      <use xlink:href="#DejaVuSans-61" x="87.447266"/>
      <use xlink:href="#DejaVuSans-6e" x="148.726562"/>
      <use xlink:href="#DejaVuSans-73" x="212.105469"/>
      <use xlink:href="#DejaVuSans-6d" x="264.205078"/>
      <use xlink:href="#DejaVuSans-69" x="361.617188"/>
      <use xlink:href="#DejaVuSans-73" x="389.400391"/>
      <use xlink:href="#DejaVuSans-73" x="441.5"/>
      <use xlink:href="#DejaVuSans-69" x="493.599609"/>
      <use xlink:href="#DejaVuSans-6f" x="521.382812"/>
      <use xlink:href="#DejaVuSans-6e" x="582.564453"/>
     </g>
    </g>
   </g>
   <g id="line2d_15">
    <path d="M 65.130227 19.296 
L 69.188409 23.21449 
L 73.246591 27.984343 
L 77.304773 32.485049 
L 81.362955 37.737514 
L 85.421136 43.65939 
L 89.479318 50.120167 
L 93.5375 58.431463 
L 97.595682 68.244165 
L 101.653864 81.966539 
L 105.712045 92.420503 
L 109.770227 91.564652 
L 113.828409 90.812092 
L 117.886591 90.029186 
L 121.944773 90.285846 
L 126.002955 92.377295 
L 130.061136 100.738634 
L 134.119318 120.673389 
L 138.1775 133.731267 
L 142.235682 143.768461 
L 146.293864 152.18004 
L 150.352045 159.667871 
L 154.410227 166.832696 
L 158.468409 173.116545 
L 162.526591 179.716934 
L 166.584773 185.402383 
L 170.642955 191.376317 
L 174.701136 196.97045 
L 178.759318 202.32829 
L 182.8175 208.125498 
L 186.875682 213.007159 
L 190.933864 218.607137 
L 194.992045 223.883011 
L 199.050227 228.753084 
L 203.108409 234.218386 
L 207.166591 238.69207 
L 211.224773 243.534965 
L 215.282955 249.082019 
L 219.341136 253.608912 
L 223.399318 257.711415 
L 227.4575 261.216 
L 231.515682 257.633616 
L 235.573864 253.54324 
L 239.632045 248.911829 
L 243.690227 243.335518 
L 247.748409 238.226081 
L 251.806591 233.574703 
L 255.864773 228.070107 
L 259.922955 222.934879 
L 263.981136 217.537358 
L 268.039318 211.536337 
L 272.0975 205.955744 
L 276.155682 199.497493 
L 280.213864 193.054883 
L 284.272045 185.618358 
L 288.330227 177.054425 
L 292.388409 166.667917 
L 296.446591 152.246796 
L 300.504773 127.208793 
L 304.562955 90.304595 
L 308.621136 80.589739 
L 312.679318 77.016315 
L 316.7375 76.110045 
L 320.795682 75.584221 
L 324.853864 76.145185 
L 328.912045 76.591039 
L 332.970227 77.649272 
L 337.028409 78.60665 
L 341.086591 79.880754 
L 345.144773 81.129885 
L 349.202955 82.521503 
L 353.261136 83.942893 
L 357.319318 85.409828 
L 361.3775 86.931019 
L 365.435682 88.468545 
L 369.493864 90.024923 
L 373.552045 91.649088 
L 377.610227 93.186075 
L 381.668409 94.913938 
L 385.726591 96.311449 
L 389.784773 98.170466 
" clip-path="url(#p7f80563569)" style="fill: none; stroke: #1f77b4; stroke-width: 1.5; stroke-linecap: square"/>
    <defs>
     <path id="m1d82708c8f" d="M 0 1.5 
C 0.397805 1.5 0.77937 1.341951 1.06066 1.06066 
C 1.341951 0.77937 1.5 0.397805 1.5 0 
C 1.5 -0.397805 1.341951 -0.77937 1.06066 -1.06066 
C 0.77937 -1.341951 0.397805 -1.5 0 -1.5 
C -0.397805 -1.5 -0.77937 -1.341951 -1.06066 -1.06066 
C -1.341951 -0.77937 -1.5 -0.397805 -1.5 0 
C -1.5 0.397805 -1.341951 0.77937 -1.06066 1.06066 
C -0.77937 1.341951 -0.397805 1.5 0 1.5 
z
" style="stroke: #1f77b4"/>
    </defs>
    <g clip-path="url(#p7f80563569)">
     <use xlink:href="#m1d82708c8f" x="65.130227" y="19.296" style="fill: #1f77b4; stroke: #1f77b4"/>
     <use xlink:href="#m1d82708c8f" x="69.188409" y="23.21449" style="fill: #1f77b4; stroke: #1f77b4"/>
     <use xlink:href="#m1d82708c8f" x="73.246591" y="27.984343" style="fill: #1f77b4; stroke: #1f77b4"/>
     <use xlink:href="#m1d82708c8f" x="77.304773" y="32.485049" style="fill: #1f77b4; stroke: #1f77b4"/>
     <use xlink:href="#m1d82708c8f" x="81.362955" y="37.737514" style="fill: #1f77b4; stroke: #1f77b4"/>
     <use xlink:href="#m1d82708c8f" x="85.421136" y="43.65939" style="fill: #1f77b4; stroke: #1f77b4"/>
     <use xlink:href="#m1d82708c8f" x="89.479318" y="50.120167" style="fill: #1f77b4; stroke: #1f77b4"/>
     <use xlink:href="#m1d82708c8f" x="93.5375" y="58.431463" style="fill: #1f77b4; stroke: #1f77b4"/>
     <use xlink:href="#m1d82708c8f" x="97.595682" y="68.244165" style="fill: #1f77b4; stroke: #1f77b4"/>
     <use xlink:href="#m1d82708c8f" x="101.653864" y="81.966539" style="fill: #1f77b4; stroke: #1f77b4"/>
     <use xlink:href="#m1d82708c8f" x="105.712045" y="92.420503" style="fill: #1f77b4; stroke: #1f77b4"/>
     <use xlink:href="#m1d82708c8f" x="109.770227" y="91.564652" style="fill: #1f77b4; stroke: #1f77b4"/>
     <use xlink:href="#m1d82708c8f" x="113.828409" y="90.812092" style="fill: #1f77b4; stroke: #1f77b4"/>
     <use xlink:href="#m1d82708c8f" x="117.886591" y="90.029186" style="fill: #1f77b4; stroke: #1f77b4"/>
     <use xlink:href="#m1d82708c8f" x="121.944773" y="90.285846" style="fill: #1f77b4; stroke: #1f77b4"/>
     <use xlink:href="#m1d82708c8f" x="126.002955" y="92.377295" style="fill: #1f77b4; stroke: #1f77b4"/>
     <use xlink:href="#m1d82708c8f" x="130.061136" y="100.738634" style="fill: #1f77b4; stroke: #1f77b4"/>
     <use xlink:href="#m1d82708c8f" x="134.119318" y="120.673389" style="fill: #1f77b4; stroke: #1f77b4"/>
     <use xlink:href="#m1d82708c8f" x="138.1775" y="133.731267" style="fill: #1f77b4; stroke: #1f77b4"/>
     <use xlink:href="#m1d82708c8f" x="142.235682" y="143.768461" style="fill: #1f77b4; stroke: #1f77b4"/>
     <use xlink:href="#m1d82708c8f" x="146.293864" y="152.18004" style="fill: #1f77b4; stroke: #1f77b4"/>
     <use xlink:href="#m1d82708c8f" x="150.352045" y="159.667871" style="fill: #1f77b4; stroke: #1f77b4"/>
     <use xlink:href="#m1d82708c8f" x="154.410227" y="166.832696" style="fill: #1f77b4; stroke: #1f77b4"/>
     <use xlink:href="#m1d82708c8f" x="158.468409" y="173.116545" style="fill: #1f77b4; stroke: #1f77b4"/>
     <use xlink:href="#m1d82708c8f" x="162.526591" y="179.716934" style="fill: #1f77b4; stroke: #1f77b4"/>
     <use xlink:href="#m1d82708c8f" x="166.584773" y="185.402383" style="fill: #1f77b4; stroke: #1f77b4"/>
     <use xlink:href="#m1d82708c8f" x="170.642955" y="191.376317" style="fill: #1f77b4; stroke: #1f77b4"/>
     <use xlink:href="#m1d82708c8f" x="174.701136" y="196.97045" style="fill: #1f77b4; stroke: #1f77b4"/>
     <use xlink:href="#m1d82708c8f" x="178.759318" y="202.32829" style="fill: #1f77b4; stroke: #1f77b4"/>
     <use xlink:href="#m1d82708c8f" x="182.8175" y="208.125498" style="fill: #1f77b4; stroke: #1f77b4"/>
     <use xlink:href="#m1d82708c8f" x="186.875682" y="213.007159" style="fill: #1f77b4; stroke: #1f77b4"/>
     <use xlink:href="#m1d82708c8f" x="190.933864" y="218.607137" style="fill: #1f77b4; stroke: #1f77b4"/>
     <use xlink:href="#m1d82708c8f" x="194.992045" y="223.883011" style="fill: #1f77b4; stroke: #1f77b4"/>
     <use xlink:href="#m1d82708c8f" x="199.050227" y="228.753084" style="fill: #1f77b4; stroke: #1f77b4"/>
     <use xlink:href="#m1d82708c8f" x="203.108409" y="234.218386" style="fill: #1f77b4; stroke: #1f77b4"/>
     <use xlink:href="#m1d82708c8f" x="207.166591" y="238.69207" style="fill: #1f77b4; stroke: #1f77b4"/>
     <use xlink:href="#m1d82708c8f" x="211.224773" y="243.534965" style="fill: #1f77b4; stroke: #1f77b4"/>
     <use xlink:href="#m1d82708c8f" x="215.282955" y="249.082019" style="fill: #1f77b4; stroke: #1f77b4"/>
     <use xlink:href="#m1d82708c8f" x="219.341136" y="253.608912" style="fill: #1f77b4; stroke: #1f77b4"/>
     <use xlink:href="#m1d82708c8f" x="223.399318" y="257.711415" style="fill: #1f77b4; stroke: #1f77b4"/>
     <use xlink:href="#m1d82708c8f" x="227.4575" y="261.216" style="fill: #1f77b4; stroke: #1f77b4"/>
     <use xlink:href="#m1d82708c8f" x="231.515682" y="257.633616" style="fill: #1f77b4; stroke: #1f77b4"/>
     <use xlink:href="#m1d82708c8f" x="235.573864" y="253.54324" style="fill: #1f77b4; stroke: #1f77b4"/>
     <use xlink:href="#m1d82708c8f" x="239.632045" y="248.911829" style="fill: #1f77b4; stroke: #1f77b4"/>
     <use xlink:href="#m1d82708c8f" x="243.690227" y="243.335518" style="fill: #1f77b4; stroke: #1f77b4"/>
     <use xlink:href="#m1d82708c8f" x="247.748409" y="238.226081" style="fill: #1f77b4; stroke: #1f77b4"/>
     <use xlink:href="#m1d82708c8f" x="251.806591" y="233.574703" style="fill: #1f77b4; stroke: #1f77b4"/>
     <use xlink:href="#m1d82708c8f" x="255.864773" y="228.070107" style="fill: #1f77b4; stroke: #1f77b4"/>
     <use xlink:href="#m1d82708c8f" x="259.922955" y="222.934879" style="fill: #1f77b4; stroke: #1f77b4"/>
     <use xlink:href="#m1d82708c8f" x="263.981136" y="217.537358" style="fill: #1f77b4; stroke: #1f77b4"/>
     <use xlink:href="#m1d82708c8f" x="268.039318" y="211.536337" style="fill: #1f77b4; stroke: #1f77b4"/>
     <use xlink:href="#m1d82708c8f" x="272.0975" y="205.955744" style="fill: #1f77b4; stroke: #1f77b4"/>
     <use xlink:href="#m1d82708c8f" x="276.155682" y="199.497493" style="fill: #1f77b4; stroke: #1f77b4"/>
     <use xlink:href="#m1d82708c8f" x="280.213864" y="193.054883" style="fill: #1f77b4; stroke: #1f77b4"/>
     <use xlink:href="#m1d82708c8f" x="284.272045" y="185.618358" style="fill: #1f77b4; stroke: #1f77b4"/>
     <use xlink:href="#m1d82708c8f" x="288.330227" y="177.054425" style="fill: #1f77b4; stroke: #1f77b4"/>
     <use xlink:href="#m1d82708c8f" x="292.388409" y="166.667917" style="fill: #1f77b4; stroke: #1f77b4"/>
     <use xlink:href="#m1d82708c8f" x="296.446591" y="152.246796" style="fill: #1f77b4; stroke: #1f77b4"/>
     <use xlink:href="#m1d82708c8f" x="300.504773" y="127.208793" style="fill: #1f77b4; stroke: #1f77b4"/>
     <use xlink:href="#m1d82708c8f" x="304.562955" y="90.304595" style="fill: #1f77b4; stroke: #1f77b4"/>
     <use xlink:href="#m1d82708c8f" x="308.621136" y="80.589739" style="fill: #1f77b4; stroke: #1f77b4"/>
     <use xlink:href="#m1d82708c8f" x="312.679318" y="77.016315" style="fill: #1f77b4; stroke: #1f77b4"/>
     <use xlink:href="#m1d82708c8f" x="316.7375" y="76.110045" style="fill: #1f77b4; stroke: #1f77b4"/>
     <use xlink:href="#m1d82708c8f" x="320.795682" y="75.584221" style="fill: #1f77b4; stroke: #1f77b4"/>
     <use xlink:href="#m1d82708c8f" x="324.853864" y="76.145185" style="fill: #1f77b4; stroke: #1f77b4"/>
     <use xlink:href="#m1d82708c8f" x="328.912045" y="76.591039" style="fill: #1f77b4; stroke: #1f77b4"/>
     <use xlink:href="#m1d82708c8f" x="332.970227" y="77.649272" style="fill: #1f77b4; stroke: #1f77b4"/>
     <use xlink:href="#m1d82708c8f" x="337.028409" y="78.60665" style="fill: #1f77b4; stroke: #1f77b4"/>
     <use xlink:href="#m1d82708c8f" x="341.086591" y="79.880754" style="fill: #1f77b4; stroke: #1f77b4"/>
     <use xlink:href="#m1d82708c8f" x="345.144773" y="81.129885" style="fill: #1f77b4; stroke: #1f77b4"/>
     <use xlink:href="#m1d82708c8f" x="349.202955" y="82.521503" style="fill: #1f77b4; stroke: #1f77b4"/>
     <use xlink:href="#m1d82708c8f" x="353.261136" y="83.942893" style="fill: #1f77b4; stroke: #1f77b4"/>
     <use xlink:href="#m1d82708c8f" x="357.319318" y="85.409828" style="fill: #1f77b4; stroke: #1f77b4"/>
     <use xlink:href="#m1d82708c8f" x="361.3775" y="86.931019" style="fill: #1f77b4; stroke: #1f77b4"/>
     <use xlink:href="#m1d82708c8f" x="365.435682" y="88.468545" style="fill: #1f77b4; stroke: #1f77b4"/>
     <use xlink:href="#m1d82708c8f" x="369.493864" y="90.024923" style="fill: #1f77b4; stroke: #1f77b4"/>
     <use xlink:href="#m1d82708c8f" x="373.552045" y="91.649088" style="fill: #1f77b4; stroke: #1f77b4"/>
     <use xlink:href="#m1d82708c8f" x="377.610227" y="93.186075" style="fill: #1f77b4; stroke: #1f77b4"/>
     <use xlink:href="#m1d82708c8f" x="381.668409" y="94.913938" style="fill: #1f77b4; stroke: #1f77b4"/>
     <use xlink:href="#m1d82708c8f" x="385.726591" y="96.311449" style="fill: #1f77b4; stroke: #1f77b4"/>
     <use xlink:href="#m1d82708c8f" x="389.784773" y="98.170466" style="fill: #1f77b4; stroke: #1f77b4"/>
    </g>
   </g>
   <g id="patch_3">
    <path d="M 48.8975 273.312 
L 48.8975 7.2 
" style="fill: none; stroke: #000000; stroke-width: 0.8; stroke-linejoin: miter; stroke-linecap: square"/>
   </g>
   <g id="patch_4">
    <path d="M 406.0175 273.312 
L 406.0175 7.2 
" style="fill: none; stroke: #000000; stroke-width: 0.8; stroke-linejoin: miter; stroke-linecap: square"/>
   </g>
   <g id="patch_5">
    <path d="M 48.8975 273.312 
L 406.0175 273.312 
" style="fill: none; stroke: #000000; stroke-width: 0.8; stroke-linejoin: miter; stroke-linecap: square"/>
   </g>
   <g id="patch_6">
    <path d="M 48.8975 7.2 
L 406.0175 7.2 
" style="fill: none; stroke: #000000; stroke-width: 0.8; stroke-linejoin: miter; stroke-linecap: square"/>
   </g>
  </g>
 </g>
 <defs>
  <clipPath id="p7f80563569">
   <rect x="48.8975" y="7.2" width="357.12" height="266.112"/>
  </clipPath>
 </defs>
</svg>