<?xml version="1.0" encoding="utf-8" standalone="no"?>
<!DOCTYPE svg PUBLIC "-//W3C//DTD SVG 1.1//EN"
  "http://www.w3.org/Graphics/SVG/1.1/DTD/svg11.dtd">
<svg xmlns:xlink="http://www.w3.org/1999/xlink" width="409.40375pt" height="314.7395pt" viewBox="0 0 409.40375 314.7395" xmlns="http://www.w3.org/2000/svg" version="1.1">
 <metadata>
  <rdf:RDF xmlns:dc="http://purl.org/dc/elements/1.1/" xmlns:cc="http://creativecommons.org/ns#" xmlns:rdf="http://www.w3.org/1999/02/22-rdf-syntax-ns#">
   <cc:Work>
    <dc:type rdf:resource="http://purl.org/dc/dcmitype/StillImage"/>
    <dc:date>2024-08-15T20:26:22.933670</dc:date>
    <dc:format>image/svg+xml</dc:format>
    <dc:creator>
     <cc:Agent>
      <dc:title>Matplotlib v3.7.2, https://matplotlib.org/</dc:title>
     </cc:Agent>
    </dc:creator>
   </cc:Work>
  </rdf:RDF>
 </metadata>
 <defs>
  <style type="text/css">*{stroke-linejoin: round; stroke-linecap: butt}</style>
 </defs>
 <g id="figure_1">
  <g id="patch_1">
   <path d="M 0 314.7395 
L 409.40375 314.7395 
L 409.40375 0 
L 0 0 
z
" style="fill: #ffffff"/>
  </g>
  <g id="axes_1">
   <g id="patch_2">
    <path d="M 45.08375 273.312 
L 402.20375 273.312 
L 402.20375 7.2 
L 45.08375 7.2 
z
" style="fill: #ffffff"/>
   </g>
   <g id="matplotlib.axis_1">
    <g id="xtick_1">
     <g id="line2d_1">
      <defs>
       <path id="m0e06a310dc" d="M 0 0 
L 0 3.5 
" style="stroke: #000000; stroke-width: 0.8"/>
      </defs>
      <g>
       <use xlink:href="#m0e06a310dc" x="61.316477" y="273.312" style="stroke: #000000; stroke-width: 0.8"/>
      </g>
     </g>
     <g id="text_1">
      <!-- −4 -->
      <g transform="translate(52.471165 289.430125) scale(0.12 -0.12)">
       <defs>
        <path id="DejaVuSans-2212" d="M 678 2272 
L 4684 2272 
L 4684 1741 
L 678 1741 
L 678 2272 
z
" transform="scale(0.015625)"/>
        <path id="DejaVuSans-34" d="M 2419 4116 
L 825 1625 
L 2419 1625 
L 2419 4116 
z
M 2253 4666 
L 3047 4666 
L 3047 1625 
L 3713 1625 
L 3713 1100 
L 3047 1100 
L 3047 0 
L 2419 0 
L 2419 1100 
L 313 1100 
L 313 1709 
L 2253 4666 
z
" transform="scale(0.015625)"/>
       </defs>
       <use xlink:href="#DejaVuSans-2212"/>
       <use xlink:href="#DejaVuSans-34" x="83.789062"/>
      </g>
     </g>
    </g>
    <g id="xtick_2">
     <g id="line2d_2">
      <g>
       <use xlink:href="#m0e06a310dc" x="126.247386" y="273.312" style="stroke: #000000; stroke-width: 0.8"/>
      </g>
     </g>
     <g id="text_2">
      <!-- −2 -->
      <g transform="translate(117.402074 289.430125) scale(0.12 -0.12)">
       <defs>
        <path id="DejaVuSans-32" d="M 1228 531 
L 3431 531 
L 3431 0 
L 469 0 
L 469 531 
Q 828 903 1448 1529 
Q 2069 2156 2228 2338 
Q 2531 2678 2651 2914 
Q 2772 3150 2772 3378 
Q 2772 3750 2511 3984 
Q 2250 4219 1831 4219 
Q 1534 4219 1204 4116 
Q 875 4013 500 3803 
L 500 4441 
Q 881 4594 1212 4672 
Q 1544 4750 1819 4750 
Q 2544 4750 2975 4387 
Q 3406 4025 3406 3419 
Q 3406 3131 3298 2873 
Q 3191 2616 2906 2266 
Q 2828 2175 2409 1742 
Q 1991 1309 1228 531 
z
" transform="scale(0.015625)"/>
       </defs>
       <use xlink:href="#DejaVuSans-2212"/>
       <use xlink:href="#DejaVuSans-32" x="83.789062"/>
      </g>
     </g>
    </g>
    <g id="xtick_3">
     <g id="line2d_3">
      <g>
       <use xlink:href="#m0e06a310dc" x="191.178295" y="273.312" style="stroke: #000000; stroke-width: 0.8"/>
      </g>
     </g>
     <g id="text_3">
      <!-- 0 -->
      <g transform="translate(187.360795 289.430125) scale(0.12 -0.12)">
       <defs>
        <path id="DejaVuSans-30" d="M 2034 4250 
Q 1547 4250 1301 3770 
Q 1056 3291 1056 2328 
Q 1056 1369 1301 889 
Q 1547 409 2034 409 
Q 2525 409 2770 889 
Q 3016 1369 3016 2328 
Q 3016 3291 2770 3770 
Q 2525 4250 2034 4250 
z
M 2034 4750 
Q 2819 4750 3233 4129 
Q 3647 3509 3647 2328 
Q 3647 1150 3233 529 
Q 2819 -91 2034 -91 
Q 1250 -91 836 529 
Q 422 1150 422 2328 
Q 422 3509 836 4129 
Q 1250 4750 2034 4750 
z
" transform="scale(0.015625)"/>
       </defs>
       <use xlink:href="#DejaVuSans-30"/>
      </g>
     </g>
    </g>
    <g id="xtick_4">
     <g id="line2d_4">
      <g>
       <use xlink:href="#m0e06a310dc" x="256.109205" y="273.312" style="stroke: #000000; stroke-width: 0.8"/>
      </g>
     </g>
     <g id="text_4">
      <!-- 2 -->
      <g transform="translate(252.291705 289.430125) scale(0.12 -0.12)">
       <use xlink:href="#DejaVuSans-32"/>
      </g>
     </g>
    </g>
    <g id="xtick_5">
     <g id="line2d_5">
      <g>
       <use xlink:href="#m0e06a310dc" x="321.040114" y="273.312" style="stroke: #000000; stroke-width: 0.8"/>
      </g>
     </g>
     <g id="text_5">
      <!-- 4 -->
      <g transform="translate(317.222614 289.430125) scale(0.12 -0.12)">
       <use xlink:href="#DejaVuSans-34"/>
      </g>
     </g>
    </g>
    <g id="xtick_6">
     <g id="line2d_6">
      <g>
       <use xlink:href="#m0e06a310dc" x="385.971023" y="273.312" style="stroke: #000000; stroke-width: 0.8"/>
      </g>
     </g>
     <g id="text_6">
      <!-- 6 -->
      <g transform="translate(382.153523 289.430125) scale(0.12 -0.12)">
       <defs>
        <path id="DejaVuSans-36" d="M 2113 2584 
Q 1688 2584 1439 2293 
Q 1191 2003 1191 1497 
Q 1191 994 1439 701 
Q 1688 409 2113 409 
Q 2538 409 2786 701 
Q 3034 994 3034 1497 
Q 3034 2003 2786 2293 
Q 2538 2584 2113 2584 
z
M 3366 4563 
L 3366 3988 
Q 3128 4100 2886 4159 
Q 2644 4219 2406 4219 
Q 1781 4219 1451 3797 
Q 1122 3375 1075 2522 
Q 1259 2794 1537 2939 
Q 1816 3084 2150 3084 
Q 2853 3084 3261 2657 
Q 3669 2231 3669 1497 
Q 3669 778 3244 343 
Q 2819 -91 2113 -91 
Q 1303 -91 875 529 
Q 447 1150 447 2328 
Q 447 3434 972 4092 
Q 1497 4750 2381 4750 
Q 2619 4750 2861 4703 
Q 3103 4656 3366 4563 
z
" transform="scale(0.015625)"/>
       </defs>
       <use xlink:href="#DejaVuSans-36"/>
      </g>
     </g>
    </g>
    <g id="text_7">
     <!-- Energy (eV) -->
     <g transform="translate(188.25125 305.043875) scale(0.12 -0.12)">
      <defs>
       <path id="DejaVuSans-45" d="M 628 4666 
L 3578 4666 
L 3578 4134 
L 1259 4134 
L 1259 2753 
L 3481 2753 
L 3481 2222 
L 1259 2222 
L 1259 531 
L 3634 531 
L 3634 0 
L 628 0 
L 628 4666 
z
" transform="scale(0.015625)"/>
       <path id="DejaVuSans-6e" d="M 3513 2113 
L 3513 0 
L 2938 0 
L 2938 2094 
Q 2938 2591 2744 2837 
Q 2550 3084 2163 3084 
Q 1697 3084 1428 2787 
Q 1159 2491 1159 1978 
L 1159 0 
L 581 0 
L 581 3500 
L 1159 3500 
L 1159 2956 
Q 1366 3272 1645 3428 
Q 1925 3584 2291 3584 
Q 2894 3584 3203 3211 
Q 3513 2838 3513 2113 
z
" transform="scale(0.015625)"/>
       <path id="DejaVuSans-65" d="M 3597 1894 
L 3597 1613 
L 953 1613 
Q 991 1019 1311 708 
Q 1631 397 2203 397 
Q 2534 397 2845 478 
Q 3156 559 3463 722 
L 3463 178 
Q 3153 47 2828 -22 
Q 2503 -91 2169 -91 
Q 1331 -91 842 396 
Q 353 884 353 1716 
Q 353 2575 817 3079 
Q 1281 3584 2069 3584 
Q 2775 3584 3186 3129 
Q 3597 2675 3597 1894 
z
M 3022 2063 
Q 3016 2534 2758 2815 
Q 2500 3097 2075 3097 
Q 1594 3097 1305 2825 
Q 1016 2553 972 2059 
L 3022 2063 
z
" transform="scale(0.015625)"/>
       <path id="DejaVuSans-72" d="M 2631 2963 
Q 2534 3019 2420 3045 
Q 2306 3072 2169 3072 
Q 1681 3072 1420 2755 
Q 1159 2438 1159 1844 
L 1159 0 
L 581 0 
L 581 3500 
L 1159 3500 
L 1159 2956 
Q 1341 3275 1631 3429 
Q 1922 3584 2338 3584 
Q 2397 3584 2469 3576 
Q 2541 3569 2628 3553 
L 2631 2963 
z
" transform="scale(0.015625)"/>
       <path id="DejaVuSans-67" d="M 2906 1791 
Q 2906 2416 2648 2759 
Q 2391 3103 1925 3103 
Q 1463 3103 1205 2759 
Q 947 2416 947 1791 
Q 947 1169 1205 825 
Q 1463 481 1925 481 
Q 2391 481 2648 825 
Q 2906 1169 2906 1791 
z
M 3481 434 
Q 3481 -459 3084 -895 
Q 2688 -1331 1869 -1331 
Q 1566 -1331 1297 -1286 
Q 1028 -1241 775 -1147 
L 775 -588 
Q 1028 -725 1275 -790 
Q 1522 -856 1778 -856 
Q 2344 -856 2625 -561 
Q 2906 -266 2906 331 
L 2906 616 
Q 2728 306 2450 153 
Q 2172 0 1784 0 
Q 1141 0 747 490 
Q 353 981 353 1791 
Q 353 2603 747 3093 
Q 1141 3584 1784 3584 
Q 2172 3584 2450 3431 
Q 2728 3278 2906 2969 
L 2906 3500 
L 3481 3500 
L 3481 434 
z
" transform="scale(0.015625)"/>
       <path id="DejaVuSans-79" d="M 2059 -325 
Q 1816 -950 1584 -1140 
Q 1353 -1331 966 -1331 
L 506 -1331 
L 506 -850 
L 844 -850 
Q 1081 -850 1212 -737 
Q 1344 -625 1503 -206 
L 1606 56 
L 191 3500 
L 800 3500 
L 1894 763 
L 2988 3500 
L 3597 3500 
L 2059 -325 
z
" transform="scale(0.015625)"/>
       <path id="DejaVuSans-20" transform="scale(0.015625)"/>
       <path id="DejaVuSans-28" d="M 1984 4856 
Q 1566 4138 1362 3434 
Q 1159 2731 1159 2009 
Q 1159 1288 1364 580 
Q 1569 -128 1984 -844 
L 1484 -844 
Q 1016 -109 783 600 
Q 550 1309 550 2009 
Q 550 2706 781 3412 
Q 1013 4119 1484 4856 
L 1984 4856 
z
" transform="scale(0.015625)"/>
       <path id="DejaVuSans-56" d="M 1831 0 
L 50 4666 
L 709 4666 
L 2188 738 
L 3669 4666 
L 4325 4666 
L 2547 0 
L 1831 0 
z
" transform="scale(0.015625)"/>
       <path id="DejaVuSans-29" d="M 513 4856 
L 1013 4856 
Q 1481 4119 1714 3412 
Q 1947 2706 1947 2009 
Q 1947 1309 1714 600 
Q 1481 -109 1013 -844 
L 513 -844 
Q 928 -128 1133 580 
Q 1338 1288 1338 2009 
Q 1338 2731 1133 3434 
Q 928 4138 513 4856 
z
" transform="scale(0.015625)"/>
      </defs>
      <use xlink:href="#DejaVuSans-45"/>
      <use xlink:href="#DejaVuSans-6e" x="63.183594"/>
      <use xlink:href="#DejaVuSans-65" x="126.5625"/>
      <use xlink:href="#DejaVuSans-72" x="188.085938"/>
      <use xlink:href="#DejaVuSans-67" x="227.449219"/>
      <use xlink:href="#DejaVuSans-79" x="290.925781"/>
      <use xlink:href="#DejaVuSans-20" x="350.105469"/>
      <use xlink:href="#DejaVuSans-28" x="381.892578"/>
      <use xlink:href="#DejaVuSans-65" x="420.90625"/>
      <use xlink:href="#DejaVuSans-56" x="482.429688"/>
      <use xlink:href="#DejaVuSans-29" x="550.837891"/>
     </g>
    </g>
   </g>
   <g id="matplotlib.axis_2">
    <g id="ytick_1">
     <g id="line2d_7">
      <defs>
       <path id="mcdc7786677" d="M 0 0 
L -3.5 0 
" style="stroke: #000000; stroke-width: 0.8"/>
      </defs>
      <g>
       <use xlink:href="#mcdc7786677" x="45.08375" y="261.239994" style="stroke: #000000; stroke-width: 0.8"/>
      </g>
     </g>
     <g id="text_8">
      <!-- 0 -->
      <g transform="translate(30.44875 265.799057) scale(0.12 -0.12)">
       <use xlink:href="#DejaVuSans-30"/>
      </g>
     </g>
    </g>
    <g id="ytick_2">
     <g id="line2d_8">
      <g>
       <use xlink:href="#mcdc7786677" x="45.08375" y="223.787342" style="stroke: #000000; stroke-width: 0.8"/>
      </g>
     </g>
     <g id="text_9">
      <!-- 10 -->
      <g transform="translate(22.81375 228.346405) scale(0.12 -0.12)">
       <defs>
        <path id="DejaVuSans-31" d="M 794 531 
L 1825 531 
L 1825 4091 
L 703 3866 
L 703 4441 
L 1819 4666 
L 2450 4666 
L 2450 531 
L 3481 531 
L 3481 0 
L 794 0 
L 794 531 
z
" transform="scale(0.015625)"/>
       </defs>
       <use xlink:href="#DejaVuSans-31"/>
       <use xlink:href="#DejaVuSans-30" x="63.623047"/>
      </g>
     </g>
    </g>
    <g id="ytick_3">
     <g id="line2d_9">
      <g>
       <use xlink:href="#mcdc7786677" x="45.08375" y="186.334691" style="stroke: #000000; stroke-width: 0.8"/>
      </g>
     </g>
     <g id="text_10">
      <!-- 20 -->
      <g transform="translate(22.81375 190.893753) scale(0.12 -0.12)">
       <use xlink:href="#DejaVuSans-32"/>
       <use xlink:href="#DejaVuSans-30" x="63.623047"/>
      </g>
     </g>
    </g>
    <g id="ytick_4">
     <g id="line2d_10">
      <g>
       <use xlink:href="#mcdc7786677" x="45.08375" y="148.882039" style="stroke: #000000; stroke-width: 0.8"/>
      </g>
     </g>
     <g id="text_11">
      <!-- 30 -->
      <g transform="translate(22.81375 153.441101) scale(0.12 -0.12)">
       <defs>
        <path id="DejaVuSans-33" d="M 2597 2516 
Q 3050 2419 3304 2112 
Q 3559 1806 3559 1356 
Q 3559 666 3084 287 
Q 2609 -91 1734 -91 
Q 1441 -91 1130 -33 
Q 819 25 488 141 
L 488 750 
Q 750 597 1062 519 
Q 1375 441 1716 441 
Q 2309 441 2620 675 
Q 2931 909 2931 1356 
Q 2931 1769 2642 2001 
Q 2353 2234 1838 2234 
L 1294 2234 
L 1294 2753 
L 1863 2753 
Q 2328 2753 2575 2939 
Q 2822 3125 2822 3475 
Q 2822 3834 2567 4026 
Q 2313 4219 1838 4219 
Q 1578 4219 1281 4162 
Q 984 4106 628 3988 
L 628 4550 
Q 988 4650 1302 4700 
Q 1616 4750 1894 4750 
Q 2613 4750 3031 4423 
Q 3450 4097 3450 3541 
Q 3450 3153 3228 2886 
Q 3006 2619 2597 2516 
z
" transform="scale(0.015625)"/>
       </defs>
       <use xlink:href="#DejaVuSans-33"/>
       <use xlink:href="#DejaVuSans-30" x="63.623047"/>
      </g>
     </g>
    </g>
    <g id="ytick_5">
     <g id="line2d_11">
      <g>
       <use xlink:href="#mcdc7786677" x="45.08375" y="111.429387" style="stroke: #000000; stroke-width: 0.8"/>
      </g>
     </g>
     <g id="text_12">
      <!-- 40 -->
      <g transform="translate(22.81375 115.98845) scale(0.12 -0.12)">
       <use xlink:href="#DejaVuSans-34"/>
       <use xlink:href="#DejaVuSans-30" x="63.623047"/>
      </g>
     </g>
    </g>
    <g id="ytick_6">
     <g id="line2d_12">
      <g>
       <use xlink:href="#mcdc7786677" x="45.08375" y="73.976736" style="stroke: #000000; stroke-width: 0.8"/>
      </g>
     </g>
     <g id="text_13">
      <!-- 50 -->
      <g transform="translate(22.81375 78.535798) scale(0.12 -0.12)">
       <defs>
        <path id="DejaVuSans-35" d="M 691 4666 
L 3169 4666 
L 3169 4134 
L 1269 4134 
L 1269 2991 
Q 1406 3038 1543 3061 
Q 1681 3084 1819 3084 
Q 2600 3084 3056 2656 
Q 3513 2228 3513 1497 
Q 3513 744 3044 326 
Q 2575 -91 1722 -91 
Q 1428 -91 1123 -41 
Q 819 9 494 109 
L 494 744 
Q 775 591 1075 516 
Q 1375 441 1709 441 
Q 2250 441 2565 725 
Q 2881 1009 2881 1497 
Q 2881 1984 2565 2268 
Q 2250 2553 1709 2553 
Q 1456 2553 1204 2497 
Q 953 2441 691 2322 
L 691 4666 
z
" transform="scale(0.015625)"/>
       </defs>
       <use xlink:href="#DejaVuSans-35"/>
       <use xlink:href="#DejaVuSans-30" x="63.623047"/>
      </g>
     </g>
    </g>
    <g id="ytick_7">
     <g id="line2d_13">
      <g>
       <use xlink:href="#mcdc7786677" x="45.08375" y="36.524084" style="stroke: #000000; stroke-width: 0.8"/>
      </g>
     </g>
     <g id="text_14">
      <!-- 60 -->
      <g transform="translate(22.81375 41.083146) scale(0.12 -0.12)">
       <use xlink:href="#DejaVuSans-36"/>
       <use xlink:href="#DejaVuSans-30" x="63.623047"/>
      </g>
     </g>
    </g>
    <g id="text_15">
     <!-- DOS (1/eV) -->
     <g transform="translate(16.318125 173.631937) rotate(-90) scale(0.12 -0.12)">
      <defs>
       <path id="DejaVuSans-44" d="M 1259 4147 
L 1259 519 
L 2022 519 
Q 2988 519 3436 956 
Q 3884 1394 3884 2338 
Q 3884 3275 3436 3711 
Q 2988 4147 2022 4147 
L 1259 4147 
z
M 628 4666 
L 1925 4666 
Q 3281 4666 3915 4102 
Q 4550 3538 4550 2338 
Q 4550 1131 3912 565 
Q 3275 0 1925 0 
L 628 0 
L 628 4666 
z
" transform="scale(0.015625)"/>
       <path id="DejaVuSans-4f" d="M 2522 4238 
Q 1834 4238 1429 3725 
Q 1025 3213 1025 2328 
Q 1025 1447 1429 934 
Q 1834 422 2522 422 
Q 3209 422 3611 934 
Q 4013 1447 4013 2328 
Q 4013 3213 3611 3725 
Q 3209 4238 2522 4238 
z
M 2522 4750 
Q 3503 4750 4090 4092 
Q 4678 3434 4678 2328 
Q 4678 1225 4090 567 
Q 3503 -91 2522 -91 
Q 1538 -91 948 565 
Q 359 1222 359 2328 
Q 359 3434 948 4092 
Q 1538 4750 2522 4750 
z
" transform="scale(0.015625)"/>
       <path id="DejaVuSans-53" d="M 3425 4513 
L 3425 3897 
Q 3066 4069 2747 4153 
Q 2428 4238 2131 4238 
Q 1616 4238 1336 4038 
Q 1056 3838 1056 3469 
Q 1056 3159 1242 3001 
Q 1428 2844 1947 2747 
L 2328 2669 
Q 3034 2534 3370 2195 
Q 3706 1856 3706 1288 
Q 3706 609 3251 259 
Q 2797 -91 1919 -91 
Q 1588 -91 1214 -16 
Q 841 59 441 206 
L 441 856 
Q 825 641 1194 531 
Q 1563 422 1919 422 
Q 2459 422 2753 634 
Q 3047 847 3047 1241 
Q 3047 1584 2836 1778 
Q 2625 1972 2144 2069 
L 1759 2144 
Q 1053 2284 737 2584 
Q 422 2884 422 3419 
Q 422 4038 858 4394 
Q 1294 4750 2059 4750 
Q 2388 4750 2728 4690 
Q 3069 4631 3425 4513 
z
" transform="scale(0.015625)"/>
       <path id="DejaVuSans-2f" d="M 1625 4666 
L 2156 4666 
L 531 -594 
L 0 -594 
L 1625 4666 
z
" transform="scale(0.015625)"/>
      </defs>
      <use xlink:href="#DejaVuSans-44"/>
      <use xlink:href="#DejaVuSans-4f" x="77.001953"/>
      <use xlink:href="#DejaVuSans-53" x="155.712891"/>
      <use xlink:href="#DejaVuSans-20" x="219.189453"/>
      <use xlink:href="#DejaVuSans-28" x="250.976562"/>
      <use xlink:href="#DejaVuSans-31" x="289.990234"/>
      <use xlink:href="#DejaVuSans-2f" x="353.613281"/>
      <use xlink:href="#DejaVuSans-65" x="387.304688"/>
      <use xlink:href="#DejaVuSans-56" x="448.828125"/>
      <use xlink:href="#DejaVuSans-29" x="517.236328"/>
     </g>
    </g>
   </g>
   <g id="line2d_14">
    <path d="M 61.316477 261.197784 
L 64.563023 261.196121 
L 67.809568 261.194249 
L 71.056114 261.192144 
L 74.302659 261.189774 
L 77.549205 261.187105 
L 80.79575 261.18409 
L 84.042295 261.180675 
L 87.288841 261.176791 
L 90.535386 261.172351 
L 93.781932 261.167244 
L 97.028477 261.161325 
L 100.275023 261.154403 
L 103.521568 261.146217 
L 106.768114 261.136404 
L 110.014659 261.124436 
L 113.261205 261.109518 
L 116.50775 261.090381 
L 119.754295 261.064861 
L 123.000841 261.028912 
L 126.247386 260.973977 
L 129.493932 260.878342 
L 132.740477 260.667792 
L 135.987023 259.866967 
L 139.233568 220.77539 
L 142.480114 233.591188 
L 145.726659 243.219765 
L 148.973205 244.956398 
L 152.21975 245.401135 
L 155.466295 246.686436 
L 158.712841 248.25555 
L 161.959386 249.702488 
L 165.205932 248.656101 
L 168.452477 246.270551 
L 171.699023 221.212445 
L 174.945568 107.561074 
L 178.192114 159.011381 
L 181.438659 168.909926 
L 184.685205 171.564889 
L 187.93175 159.255136 
L 191.178295 104.005335 
L 194.424841 30.027043 
L 197.671386 242.195701 
L 200.917932 247.516386 
L 204.164477 249.143973 
L 207.411023 249.9918 
L 210.657568 249.360631 
L 213.904114 248.398287 
L 217.150659 246.725745 
L 220.397205 245.90268 
L 223.64375 246.539861 
L 226.890295 246.965476 
L 230.136841 242.926478 
L 233.383386 231.1561 
L 236.629932 237.376872 
L 239.876477 260.078981 
L 243.123023 260.741853 
L 246.369568 260.923081 
L 249.616114 261.006353 
L 252.862659 261.054262 
L 256.109205 261.08556 
L 259.35575 261.107729 
L 262.602295 261.124324 
L 265.848841 261.137248 
L 269.095386 261.147618 
L 272.341932 261.156128 
L 275.588477 261.16324 
L 278.835023 261.169269 
L 282.081568 261.174442 
L 285.328114 261.178923 
L 288.574659 261.182839 
L 291.821205 261.186285 
L 295.06775 261.189335 
L 298.314295 261.19205 
L 301.560841 261.194476 
L 304.807386 261.196655 
L 308.053932 261.198617 
L 311.300477 261.200389 
L 314.547023 261.201994 
L 317.793568 261.203451 
L 321.040114 261.204776 
L 324.286659 261.205983 
L 327.533205 261.207083 
L 330.77975 261.208087 
L 334.026295 261.209004 
L 337.272841 261.209841 
L 340.519386 261.210606 
L 343.765932 261.211303 
L 347.012477 261.211939 
L 350.259023 261.212518 
L 353.505568 261.213044 
L 356.752114 261.213521 
L 359.998659 261.213951 
L 363.245205 261.214338 
L 366.49175 261.214683 
L 369.738295 261.21499 
L 372.984841 261.21526 
L 376.231386 261.215495 
L 379.477932 261.215695 
L 382.724477 261.215863 
L 385.971023 261.216 
" clip-path="url(#p3fa57f5919)" style="fill: none; stroke: #1f77b4; stroke-width: 1.5; stroke-linecap: square"/>
    <defs>
     <path id="m918900fec3" d="M 0 1.5 
C 0.397805 1.5 0.77937 1.341951 1.06066 1.06066 
C 1.341951 0.77937 1.5 0.397805 1.5 0 
C 1.5 -0.397805 1.341951 -0.77937 1.06066 -1.06066 
C 0.77937 -1.341951 0.397805 -1.5 0 -1.5 
C -0.397805 -1.5 -0.77937 -1.341951 -1.06066 -1.06066 
C -1.341951 -0.77937 -1.5 -0.397805 -1.5 0 
C -1.5 0.397805 -1.341951 0.77937 -1.06066 1.06066 
C -0.77937 1.341951 -0.397805 1.5 0 1.5 
z
" style="stroke: #1f77b4"/>
    </defs>
    <g clip-path="url(#p3fa57f5919)">
     <use xlink:href="#m918900fec3" x="61.316477" y="261.197784" style="fill: #1f77b4; stroke: #1f77b4"/>
     <use xlink:href="#m918900fec3" x="64.563023" y="261.196121" style="fill: #1f77b4; stroke: #1f77b4"/>
     <use xlink:href="#m918900fec3" x="67.809568" y="261.194249" style="fill: #1f77b4; stroke: #1f77b4"/>
     <use xlink:href="#m918900fec3" x="71.056114" y="261.192144" style="fill: #1f77b4; stroke: #1f77b4"/>
     <use xlink:href="#m918900fec3" x="74.302659" y="261.189774" style="fill: #1f77b4; stroke: #1f77b4"/>
     <use xlink:href="#m918900fec3" x="77.549205" y="261.187105" style="fill: #1f77b4; stroke: #1f77b4"/>
     <use xlink:href="#m918900fec3" x="80.79575" y="261.18409" style="fill: #1f77b4; stroke: #1f77b4"/>
     <use xlink:href="#m918900fec3" x="84.042295" y="261.180675" style="fill: #1f77b4; stroke: #1f77b4"/>
     <use xlink:href="#m918900fec3" x="87.288841" y="261.176791" style="fill: #1f77b4; stroke: #1f77b4"/>
     <use xlink:href="#m918900fec3" x="90.535386" y="261.172351" style="fill: #1f77b4; stroke: #1f77b4"/>
     <use xlink:href="#m918900fec3" x="93.781932" y="261.167244" style="fill: #1f77b4; stroke: #1f77b4"/>
     <use xlink:href="#m918900fec3" x="97.028477" y="261.161325" style="fill: #1f77b4; stroke: #1f77b4"/>
     <use xlink:href="#m918900fec3" x="100.275023" y="261.154403" style="fill: #1f77b4; stroke: #1f77b4"/>
     <use xlink:href="#m918900fec3" x="103.521568" y="261.146217" style="fill: #1f77b4; stroke: #1f77b4"/>
     <use xlink:href="#m918900fec3" x="106.768114" y="261.136404" style="fill: #1f77b4; stroke: #1f77b4"/>
     <use xlink:href="#m918900fec3" x="110.014659" y="261.124436" style="fill: #1f77b4; stroke: #1f77b4"/>
     <use xlink:href="#m918900fec3" x="113.261205" y="261.109518" style="fill: #1f77b4; stroke: #1f77b4"/>
     <use xlink:href="#m918900fec3" x="116.50775" y="261.090381" style="fill: #1f77b4; stroke: #1f77b4"/>
     <use xlink:href="#m918900fec3" x="119.754295" y="261.064861" style="fill: #1f77b4; stroke: #1f77b4"/>
     <use xlink:href="#m918900fec3" x="123.000841" y="261.028912" style="fill: #1f77b4; stroke: #1f77b4"/>
     <use xlink:href="#m918900fec3" x="126.247386" y="260.973977" style="fill: #1f77b4; stroke: #1f77b4"/>
     <use xlink:href="#m918900fec3" x="129.493932" y="260.878342" style="fill: #1f77b4; stroke: #1f77b4"/>
     <use xlink:href="#m918900fec3" x="132.740477" y="260.667792" style="fill: #1f77b4; stroke: #1f77b4"/>
     <use xlink:href="#m918900fec3" x="135.987023" y="259.866967" style="fill: #1f77b4; stroke: #1f77b4"/>
     <use xlink:href="#m918900fec3" x="139.233568" y="220.77539" style="fill: #1f77b4; stroke: #1f77b4"/>
     <use xlink:href="#m918900fec3" x="142.480114" y="233.591188" style="fill: #1f77b4; stroke: #1f77b4"/>
     <use xlink:href="#m918900fec3" x="145.726659" y="243.219765" style="fill: #1f77b4; stroke: #1f77b4"/>
     <use xlink:href="#m918900fec3" x="148.973205" y="244.956398" style="fill: #1f77b4; stroke: #1f77b4"/>
     <use xlink:href="#m918900fec3" x="152.21975" y="245.401135" style="fill: #1f77b4; stroke: #1f77b4"/>
     <use xlink:href="#m918900fec3" x="155.466295" y="246.686436" style="fill: #1f77b4; stroke: #1f77b4"/>
     <use xlink:href="#m918900fec3" x="158.712841" y="248.25555" style="fill: #1f77b4; stroke: #1f77b4"/>
     <use xlink:href="#m918900fec3" x="161.959386" y="249.702488" style="fill: #1f77b4; stroke: #1f77b4"/>
     <use xlink:href="#m918900fec3" x="165.205932" y="248.656101" style="fill: #1f77b4; stroke: #1f77b4"/>
     <use xlink:href="#m918900fec3" x="168.452477" y="246.270551" style="fill: #1f77b4; stroke: #1f77b4"/>
     <use xlink:href="#m918900fec3" x="171.699023" y="221.212445" style="fill: #1f77b4; stroke: #1f77b4"/>
     <use xlink:href="#m918900fec3" x="174.945568" y="107.561074" style="fill: #1f77b4; stroke: #1f77b4"/>
     <use xlink:href="#m918900fec3" x="178.192114" y="159.011381" style="fill: #1f77b4; stroke: #1f77b4"/>
     <use xlink:href="#m918900fec3" x="181.438659" y="168.909926" style="fill: #1f77b4; stroke: #1f77b4"/>
     <use xlink:href="#m918900fec3" x="184.685205" y="171.564889" style="fill: #1f77b4; stroke: #1f77b4"/>
     <use xlink:href="#m918900fec3" x="187.93175" y="159.255136" style="fill: #1f77b4; stroke: #1f77b4"/>
     <use xlink:href="#m918900fec3" x="191.178295" y="104.005335" style="fill: #1f77b4; stroke: #1f77b4"/>
     <use xlink:href="#m918900fec3" x="194.424841" y="30.027043" style="fill: #1f77b4; stroke: #1f77b4"/>
     <use xlink:href="#m918900fec3" x="197.671386" y="242.195701" style="fill: #1f77b4; stroke: #1f77b4"/>
     <use xlink:href="#m918900fec3" x="200.917932" y="247.516386" style="fill: #1f77b4; stroke: #1f77b4"/>
     <use xlink:href="#m918900fec3" x="204.164477" y="249.143973" style="fill: #1f77b4; stroke: #1f77b4"/>
     <use xlink:href="#m918900fec3" x="207.411023" y="249.9918" style="fill: #1f77b4; stroke: #1f77b4"/>
     <use xlink:href="#m918900fec3" x="210.657568" y="249.360631" style="fill: #1f77b4; stroke: #1f77b4"/>
     <use xlink:href="#m918900fec3" x="213.904114" y="248.398287" style="fill: #1f77b4; stroke: #1f77b4"/>
     <use xlink:href="#m918900fec3" x="217.150659" y="246.725745" style="fill: #1f77b4; stroke: #1f77b4"/>
     <use xlink:href="#m918900fec3" x="220.397205" y="245.90268" style="fill: #1f77b4; stroke: #1f77b4"/>
     <use xlink:href="#m918900fec3" x="223.64375" y="246.539861" style="fill: #1f77b4; stroke: #1f77b4"/>
     <use xlink:href="#m918900fec3" x="226.890295" y="246.965476" style="fill: #1f77b4; stroke: #1f77b4"/>
     <use xlink:href="#m918900fec3" x="230.136841" y="242.926478" style="fill: #1f77b4; stroke: #1f77b4"/>
     <use xlink:href="#m918900fec3" x="233.383386" y="231.1561" style="fill: #1f77b4; stroke: #1f77b4"/>
     <use xlink:href="#m918900fec3" x="236.629932" y="237.376872" style="fill: #1f77b4; stroke: #1f77b4"/>
     <use xlink:href="#m918900fec3" x="239.876477" y="260.078981" style="fill: #1f77b4; stroke: #1f77b4"/>
     <use xlink:href="#m918900fec3" x="243.123023" y="260.741853" style="fill: #1f77b4; stroke: #1f77b4"/>
     <use xlink:href="#m918900fec3" x="246.369568" y="260.923081" style="fill: #1f77b4; stroke: #1f77b4"/>
     <use xlink:href="#m918900fec3" x="249.616114" y="261.006353" style="fill: #1f77b4; stroke: #1f77b4"/>
     <use xlink:href="#m918900fec3" x="252.862659" y="261.054262" style="fill: #1f77b4; stroke: #1f77b4"/>
     <use xlink:href="#m918900fec3" x="256.109205" y="261.08556" style="fill: #1f77b4; stroke: #1f77b4"/>
     <use xlink:href="#m918900fec3" x="259.35575" y="261.107729" style="fill: #1f77b4; stroke: #1f77b4"/>
     <use xlink:href="#m918900fec3" x="262.602295" y="261.124324" style="fill: #1f77b4; stroke: #1f77b4"/>
     <use xlink:href="#m918900fec3" x="265.848841" y="261.137248" style="fill: #1f77b4; stroke: #1f77b4"/>
     <use xlink:href="#m918900fec3" x="269.095386" y="261.147618" style="fill: #1f77b4; stroke: #1f77b4"/>
     <use xlink:href="#m918900fec3" x="272.341932" y="261.156128" style="fill: #1f77b4; stroke: #1f77b4"/>
     <use xlink:href="#m918900fec3" x="275.588477" y="261.16324" style="fill: #1f77b4; stroke: #1f77b4"/>
     <use xlink:href="#m918900fec3" x="278.835023" y="261.169269" style="fill: #1f77b4; stroke: #1f77b4"/>
     <use xlink:href="#m918900fec3" x="282.081568" y="261.174442" style="fill: #1f77b4; stroke: #1f77b4"/>
     <use xlink:href="#m918900fec3" x="285.328114" y="261.178923" style="fill: #1f77b4; stroke: #1f77b4"/>
     <use xlink:href="#m918900fec3" x="288.574659" y="261.182839" style="fill: #1f77b4; stroke: #1f77b4"/>
     <use xlink:href="#m918900fec3" x="291.821205" y="261.186285" style="fill: #1f77b4; stroke: #1f77b4"/>
     <use xlink:href="#m918900fec3" x="295.06775" y="261.189335" style="fill: #1f77b4; stroke: #1f77b4"/>
     <use xlink:href="#m918900fec3" x="298.314295" y="261.19205" style="fill: #1f77b4; stroke: #1f77b4"/>
     <use xlink:href="#m918900fec3" x="301.560841" y="261.194476" style="fill: #1f77b4; stroke: #1f77b4"/>
     <use xlink:href="#m918900fec3" x="304.807386" y="261.196655" style="fill: #1f77b4; stroke: #1f77b4"/>
     <use xlink:href="#m918900fec3" x="308.053932" y="261.198617" style="fill: #1f77b4; stroke: #1f77b4"/>
     <use xlink:href="#m918900fec3" x="311.300477" y="261.200389" style="fill: #1f77b4; stroke: #1f77b4"/>
     <use xlink:href="#m918900fec3" x="314.547023" y="261.201994" style="fill: #1f77b4; stroke: #1f77b4"/>
     <use xlink:href="#m918900fec3" x="317.793568" y="261.203451" style="fill: #1f77b4; stroke: #1f77b4"/>
     <use xlink:href="#m918900fec3" x="321.040114" y="261.204776" style="fill: #1f77b4; stroke: #1f77b4"/>
     <use xlink:href="#m918900fec3" x="324.286659" y="261.205983" style="fill: #1f77b4; stroke: #1f77b4"/>
     <use xlink:href="#m918900fec3" x="327.533205" y="261.207083" style="fill: #1f77b4; stroke: #1f77b4"/>
     <use xlink:href="#m918900fec3" x="330.77975" y="261.208087" style="fill: #1f77b4; stroke: #1f77b4"/>
     <use xlink:href="#m918900fec3" x="334.026295" y="261.209004" style="fill: #1f77b4; stroke: #1f77b4"/>
     <use xlink:href="#m918900fec3" x="337.272841" y="261.209841" style="fill: #1f77b4; stroke: #1f77b4"/>
     <use xlink:href="#m918900fec3" x="340.519386" y="261.210606" style="fill: #1f77b4; stroke: #1f77b4"/>
     <use xlink:href="#m918900fec3" x="343.765932" y="261.211303" style="fill: #1f77b4; stroke: #1f77b4"/>
     <use xlink:href="#m918900fec3" x="347.012477" y="261.211939" style="fill: #1f77b4; stroke: #1f77b4"/>
     <use xlink:href="#m918900fec3" x="350.259023" y="261.212518" style="fill: #1f77b4; stroke: #1f77b4"/>
     <use xlink:href="#m918900fec3" x="353.505568" y="261.213044" style="fill: #1f77b4; stroke: #1f77b4"/>
     <use xlink:href="#m918900fec3" x="356.752114" y="261.213521" style="fill: #1f77b4; stroke: #1f77b4"/>
     <use xlink:href="#m918900fec3" x="359.998659" y="261.213951" style="fill: #1f77b4; stroke: #1f77b4"/>
     <use xlink:href="#m918900fec3" x="363.245205" y="261.214338" style="fill: #1f77b4; stroke: #1f77b4"/>
     <use xlink:href="#m918900fec3" x="366.49175" y="261.214683" style="fill: #1f77b4; stroke: #1f77b4"/>
     <use xlink:href="#m918900fec3" x="369.738295" y="261.21499" style="fill: #1f77b4; stroke: #1f77b4"/>
     <use xlink:href="#m918900fec3" x="372.984841" y="261.21526" style="fill: #1f77b4; stroke: #1f77b4"/>
     <use xlink:href="#m918900fec3" x="376.231386" y="261.215495" style="fill: #1f77b4; stroke: #1f77b4"/>
     <use xlink:href="#m918900fec3" x="379.477932" y="261.215695" style="fill: #1f77b4; stroke: #1f77b4"/>
     <use xlink:href="#m918900fec3" x="382.724477" y="261.215863" style="fill: #1f77b4; stroke: #1f77b4"/>
     <use xlink:href="#m918900fec3" x="385.971023" y="261.216" style="fill: #1f77b4; stroke: #1f77b4"/>
    </g>
   </g>
   <g id="line2d_15">
    <path d="M 61.316477 261.178577 
L 64.563023 261.183619 
L 67.809568 261.187742 
L 71.056114 261.191137 
L 74.302659 261.193946 
L 77.549205 261.196275 
L 80.79575 261.198204 
L 84.042295 261.199797 
L 87.288841 261.201102 
L 90.535386 261.202157 
L 93.781932 261.202993 
L 97.028477 261.203634 
L 100.275023 261.204097 
L 103.521568 261.204399 
L 106.768114 261.204549 
L 110.014659 261.204555 
L 113.261205 261.204425 
L 116.50775 261.20416 
L 119.754295 261.203761 
L 123.000841 261.203229 
L 126.247386 261.202559 
L 129.493932 261.201748 
L 132.740477 261.200786 
L 135.987023 261.199665 
L 139.233568 261.198371 
L 142.480114 261.196889 
L 145.726659 261.1952 
L 148.973205 261.193277 
L 152.21975 261.191091 
L 155.466295 261.188603 
L 158.712841 261.185767 
L 161.959386 261.18252 
L 165.205932 261.178788 
L 168.452477 261.174468 
L 171.699023 261.169427 
L 174.945568 261.163485 
L 178.192114 261.15639 
L 181.438659 261.14778 
L 184.685205 261.137113 
L 187.93175 261.123537 
L 191.178295 261.105632 
L 194.424841 261.08083 
L 197.671386 261.043983 
L 200.917932 260.98312 
L 204.164477 260.863252 
L 207.411023 260.52908 
L 210.657568 257.489854 
L 213.904114 229.106166 
L 217.150659 240.800186 
L 220.397205 245.952783 
L 223.64375 247.206552 
L 226.890295 247.697327 
L 230.136841 248.510949 
L 233.383386 249.528543 
L 236.629932 250.438065 
L 239.876477 250.550236 
L 243.123023 250.70955 
L 246.369568 250.376316 
L 249.616114 249.501264 
L 252.862659 245.114304 
L 256.109205 19.296 
L 259.35575 159.27144 
L 262.602295 182.081495 
L 265.848841 179.586938 
L 269.095386 190.395768 
L 272.341932 179.905027 
L 275.588477 181.979673 
L 278.835023 138.948625 
L 282.081568 138.263084 
L 285.328114 236.380269 
L 288.574659 249.847838 
L 291.821205 251.629821 
L 295.06775 251.938528 
L 298.314295 250.943721 
L 301.560841 249.730214 
L 304.807386 248.680773 
L 308.053932 248.556598 
L 311.300477 249.315743 
L 314.547023 249.859597 
L 317.793568 248.17037 
L 321.040114 241.645658 
L 324.286659 233.233574 
L 327.533205 248.613697 
L 330.77975 260.418875 
L 334.026295 260.842712 
L 337.272841 260.976109 
L 340.519386 261.040774 
L 343.765932 261.079044 
L 347.012477 261.104478 
L 350.259023 261.122702 
L 353.505568 261.136456 
L 356.752114 261.147234 
L 359.998659 261.155921 
L 363.245205 261.163077 
L 366.49175 261.169073 
L 369.738295 261.174166 
L 372.984841 261.178542 
L 376.231386 261.182336 
L 379.477932 261.18565 
L 382.724477 261.188565 
L 385.971023 261.191141 
" clip-path="url(#p3fa57f5919)" style="fill: none; stroke: #ff7f0e; stroke-width: 1.5; stroke-linecap: square"/>
    <defs>
     <path id="m0a45f2bb12" d="M 0 1.5 
C 0.397805 1.5 0.77937 1.341951 1.06066 1.06066 
C 1.341951 0.77937 1.5 0.397805 1.5 0 
C 1.5 -0.397805 1.341951 -0.77937 1.06066 -1.06066 
C 0.77937 -1.341951 0.397805 -1.5 0 -1.5 
C -0.397805 -1.5 -0.77937 -1.341951 -1.06066 -1.06066 
C -1.341951 -0.77937 -1.5 -0.397805 -1.5 0 
C -1.5 0.397805 -1.341951 0.77937 -1.06066 1.06066 
C -0.77937 1.341951 -0.397805 1.5 0 1.5 
z
" style="stroke: #ff7f0e"/>
    </defs>
    <g clip-path="url(#p3fa57f5919)">
     <use xlink:href="#m0a45f2bb12" x="61.316477" y="261.178577" style="fill: #ff7f0e; stroke: #ff7f0e"/>
     <use xlink:href="#m0a45f2bb12" x="64.563023" y="261.183619" style="fill: #ff7f0e; stroke: #ff7f0e"/>
     <use xlink:href="#m0a45f2bb12" x="67.809568" y="261.187742" style="fill: #ff7f0e; stroke: #ff7f0e"/>
     <use xlink:href="#m0a45f2bb12" x="71.056114" y="261.191137" style="fill: #ff7f0e; stroke: #ff7f0e"/>
     <use xlink:href="#m0a45f2bb12" x="74.302659" y="261.193946" style="fill: #ff7f0e; stroke: #ff7f0e"/>
     <use xlink:href="#m0a45f2bb12" x="77.549205" y="261.196275" style="fill: #ff7f0e; stroke: #ff7f0e"/>
     <use xlink:href="#m0a45f2bb12" x="80.79575" y="261.198204" style="fill: #ff7f0e; stroke: #ff7f0e"/>
     <use xlink:href="#m0a45f2bb12" x="84.042295" y="261.199797" style="fill: #ff7f0e; stroke: #ff7f0e"/>
     <use xlink:href="#m0a45f2bb12" x="87.288841" y="261.201102" style="fill: #ff7f0e; stroke: #ff7f0e"/>
     <use xlink:href="#m0a45f2bb12" x="90.535386" y="261.202157" style="fill: #ff7f0e; stroke: #ff7f0e"/>
     <use xlink:href="#m0a45f2bb12" x="93.781932" y="261.202993" style="fill: #ff7f0e; stroke: #ff7f0e"/>
     <use xlink:href="#m0a45f2bb12" x="97.028477" y="261.203634" style="fill: #ff7f0e; stroke: #ff7f0e"/>
     <use xlink:href="#m0a45f2bb12" x="100.275023" y="261.204097" style="fill: #ff7f0e; stroke: #ff7f0e"/>
     <use xlink:href="#m0a45f2bb12" x="103.521568" y="261.204399" style="fill: #ff7f0e; stroke: #ff7f0e"/>
     <use xlink:href="#m0a45f2bb12" x="106.768114" y="261.204549" style="fill: #ff7f0e; stroke: #ff7f0e"/>
     <use xlink:href="#m0a45f2bb12" x="110.014659" y="261.204555" style="fill: #ff7f0e; stroke: #ff7f0e"/>
     <use xlink:href="#m0a45f2bb12" x="113.261205" y="261.204425" style="fill: #ff7f0e; stroke: #ff7f0e"/>
     <use xlink:href="#m0a45f2bb12" x="116.50775" y="261.20416" style="fill: #ff7f0e; stroke: #ff7f0e"/>
     <use xlink:href="#m0a45f2bb12" x="119.754295" y="261.203761" style="fill: #ff7f0e; stroke: #ff7f0e"/>
     <use xlink:href="#m0a45f2bb12" x="123.000841" y="261.203229" style="fill: #ff7f0e; stroke: #ff7f0e"/>
     <use xlink:href="#m0a45f2bb12" x="126.247386" y="261.202559" style="fill: #ff7f0e; stroke: #ff7f0e"/>
     <use xlink:href="#m0a45f2bb12" x="129.493932" y="261.201748" style="fill: #ff7f0e; stroke: #ff7f0e"/>
     <use xlink:href="#m0a45f2bb12" x="132.740477" y="261.200786" style="fill: #ff7f0e; stroke: #ff7f0e"/>
     <use xlink:href="#m0a45f2bb12" x="135.987023" y="261.199665" style="fill: #ff7f0e; stroke: #ff7f0e"/>
     <use xlink:href="#m0a45f2bb12" x="139.233568" y="261.198371" style="fill: #ff7f0e; stroke: #ff7f0e"/>
     <use xlink:href="#m0a45f2bb12" x="142.480114" y="261.196889" style="fill: #ff7f0e; stroke: #ff7f0e"/>
     <use xlink:href="#m0a45f2bb12" x="145.726659" y="261.1952" style="fill: #ff7f0e; stroke: #ff7f0e"/>
     <use xlink:href="#m0a45f2bb12" x="148.973205" y="261.193277" style="fill: #ff7f0e; stroke: #ff7f0e"/>
     <use xlink:href="#m0a45f2bb12" x="152.21975" y="261.191091" style="fill: #ff7f0e; stroke: #ff7f0e"/>
     <use xlink:href="#m0a45f2bb12" x="155.466295" y="261.188603" style="fill: #ff7f0e; stroke: #ff7f0e"/>
     <use xlink:href="#m0a45f2bb12" x="158.712841" y="261.185767" style="fill: #ff7f0e; stroke: #ff7f0e"/>
     <use xlink:href="#m0a45f2bb12" x="161.959386" y="261.18252" style="fill: #ff7f0e; stroke: #ff7f0e"/>
     <use xlink:href="#m0a45f2bb12" x="165.205932" y="261.178788" style="fill: #ff7f0e; stroke: #ff7f0e"/>
     <use xlink:href="#m0a45f2bb12" x="168.452477" y="261.174468" style="fill: #ff7f0e; stroke: #ff7f0e"/>
     <use xlink:href="#m0a45f2bb12" x="171.699023" y="261.169427" style="fill: #ff7f0e; stroke: #ff7f0e"/>
     <use xlink:href="#m0a45f2bb12" x="174.945568" y="261.163485" style="fill: #ff7f0e; stroke: #ff7f0e"/>
     <use xlink:href="#m0a45f2bb12" x="178.192114" y="261.15639" style="fill: #ff7f0e; stroke: #ff7f0e"/>
     <use xlink:href="#m0a45f2bb12" x="181.438659" y="261.14778" style="fill: #ff7f0e; stroke: #ff7f0e"/>
     <use xlink:href="#m0a45f2bb12" x="184.685205" y="261.137113" style="fill: #ff7f0e; stroke: #ff7f0e"/>
     <use xlink:href="#m0a45f2bb12" x="187.93175" y="261.123537" style="fill: #ff7f0e; stroke: #ff7f0e"/>
     <use xlink:href="#m0a45f2bb12" x="191.178295" y="261.105632" style="fill: #ff7f0e; stroke: #ff7f0e"/>
     <use xlink:href="#m0a45f2bb12" x="194.424841" y="261.08083" style="fill: #ff7f0e; stroke: #ff7f0e"/>
     <use xlink:href="#m0a45f2bb12" x="197.671386" y="261.043983" style="fill: #ff7f0e; stroke: #ff7f0e"/>
     <use xlink:href="#m0a45f2bb12" x="200.917932" y="260.98312" style="fill: #ff7f0e; stroke: #ff7f0e"/>
     <use xlink:href="#m0a45f2bb12" x="204.164477" y="260.863252" style="fill: #ff7f0e; stroke: #ff7f0e"/>
     <use xlink:href="#m0a45f2bb12" x="207.411023" y="260.52908" style="fill: #ff7f0e; stroke: #ff7f0e"/>
     <use xlink:href="#m0a45f2bb12" x="210.657568" y="257.489854" style="fill: #ff7f0e; stroke: #ff7f0e"/>
     <use xlink:href="#m0a45f2bb12" x="213.904114" y="229.106166" style="fill: #ff7f0e; stroke: #ff7f0e"/>
     <use xlink:href="#m0a45f2bb12" x="217.150659" y="240.800186" style="fill: #ff7f0e; stroke: #ff7f0e"/>
     <use xlink:href="#m0a45f2bb12" x="220.397205" y="245.952783" style="fill: #ff7f0e; stroke: #ff7f0e"/>
     <use xlink:href="#m0a45f2bb12" x="223.64375" y="247.206552" style="fill: #ff7f0e; stroke: #ff7f0e"/>
     <use xlink:href="#m0a45f2bb12" x="226.890295" y="247.697327" style="fill: #ff7f0e; stroke: #ff7f0e"/>
     <use xlink:href="#m0a45f2bb12" x="230.136841" y="248.510949" style="fill: #ff7f0e; stroke: #ff7f0e"/>
     <use xlink:href="#m0a45f2bb12" x="233.383386" y="249.528543" style="fill: #ff7f0e; stroke: #ff7f0e"/>
     <use xlink:href="#m0a45f2bb12" x="236.629932" y="250.438065" style="fill: #ff7f0e; stroke: #ff7f0e"/>
     <use xlink:href="#m0a45f2bb12" x="239.876477" y="250.550236" style="fill: #ff7f0e; stroke: #ff7f0e"/>
     <use xlink:href="#m0a45f2bb12" x="243.123023" y="250.70955" style="fill: #ff7f0e; stroke: #ff7f0e"/>
     <use xlink:href="#m0a45f2bb12" x="246.369568" y="250.376316" style="fill: #ff7f0e; stroke: #ff7f0e"/>
     <use xlink:href="#m0a45f2bb12" x="249.616114" y="249.501264" style="fill: #ff7f0e; stroke: #ff7f0e"/>
     <use xlink:href="#m0a45f2bb12" x="252.862659" y="245.114304" style="fill: #ff7f0e; stroke: #ff7f0e"/>
     <use xlink:href="#m0a45f2bb12" x="256.109205" y="19.296" style="fill: #ff7f0e; stroke: #ff7f0e"/>
     <use xlink:href="#m0a45f2bb12" x="259.35575" y="159.27144" style="fill: #ff7f0e; stroke: #ff7f0e"/>
     <use xlink:href="#m0a45f2bb12" x="262.602295" y="182.081495" style="fill: #ff7f0e; stroke: #ff7f0e"/>
     <use xlink:href="#m0a45f2bb12" x="265.848841" y="179.586938" style="fill: #ff7f0e; stroke: #ff7f0e"/>
     <use xlink:href="#m0a45f2bb12" x="269.095386" y="190.395768" style="fill: #ff7f0e; stroke: #ff7f0e"/>
     <use xlink:href="#m0a45f2bb12" x="272.341932" y="179.905027" style="fill: #ff7f0e; stroke: #ff7f0e"/>
     <use xlink:href="#m0a45f2bb12" x="275.588477" y="181.979673" style="fill: #ff7f0e; stroke: #ff7f0e"/>
     <use xlink:href="#m0a45f2bb12" x="278.835023" y="138.948625" style="fill: #ff7f0e; stroke: #ff7f0e"/>
     <use xlink:href="#m0a45f2bb12" x="282.081568" y="138.263084" style="fill: #ff7f0e; stroke: #ff7f0e"/>
     <use xlink:href="#m0a45f2bb12" x="285.328114" y="236.380269" style="fill: #ff7f0e; stroke: #ff7f0e"/>
     <use xlink:href="#m0a45f2bb12" x="288.574659" y="249.847838" style="fill: #ff7f0e; stroke: #ff7f0e"/>
     <use xlink:href="#m0a45f2bb12" x="291.821205" y="251.629821" style="fill: #ff7f0e; stroke: #ff7f0e"/>
     <use xlink:href="#m0a45f2bb12" x="295.06775" y="251.938528" style="fill: #ff7f0e; stroke: #ff7f0e"/>
     <use xlink:href="#m0a45f2bb12" x="298.314295" y="250.943721" style="fill: #ff7f0e; stroke: #ff7f0e"/>
     <use xlink:href="#m0a45f2bb12" x="301.560841" y="249.730214" style="fill: #ff7f0e; stroke: #ff7f0e"/>
     <use xlink:href="#m0a45f2bb12" x="304.807386" y="248.680773" style="fill: #ff7f0e; stroke: #ff7f0e"/>
     <use xlink:href="#m0a45f2bb12" x="308.053932" y="248.556598" style="fill: #ff7f0e; stroke: #ff7f0e"/>
     <use xlink:href="#m0a45f2bb12" x="311.300477" y="249.315743" style="fill: #ff7f0e; stroke: #ff7f0e"/>
     <use xlink:href="#m0a45f2bb12" x="314.547023" y="249.859597" style="fill: #ff7f0e; stroke: #ff7f0e"/>
     <use xlink:href="#m0a45f2bb12" x="317.793568" y="248.17037" style="fill: #ff7f0e; stroke: #ff7f0e"/>
     <use xlink:href="#m0a45f2bb12" x="321.040114" y="241.645658" style="fill: #ff7f0e; stroke: #ff7f0e"/>
     <use xlink:href="#m0a45f2bb12" x="324.286659" y="233.233574" style="fill: #ff7f0e; stroke: #ff7f0e"/>
     <use xlink:href="#m0a45f2bb12" x="327.533205" y="248.613697" style="fill: #ff7f0e; stroke: #ff7f0e"/>
     <use xlink:href="#m0a45f2bb12" x="330.77975" y="260.418875" style="fill: #ff7f0e; stroke: #ff7f0e"/>
     <use xlink:href="#m0a45f2bb12" x="334.026295" y="260.842712" style="fill: #ff7f0e; stroke: #ff7f0e"/>
     <use xlink:href="#m0a45f2bb12" x="337.272841" y="260.976109" style="fill: #ff7f0e; stroke: #ff7f0e"/>
     <use xlink:href="#m0a45f2bb12" x="340.519386" y="261.040774" style="fill: #ff7f0e; stroke: #ff7f0e"/>
     <use xlink:href="#m0a45f2bb12" x="343.765932" y="261.079044" style="fill: #ff7f0e; stroke: #ff7f0e"/>
     <use xlink:href="#m0a45f2bb12" x="347.012477" y="261.104478" style="fill: #ff7f0e; stroke: #ff7f0e"/>
     <use xlink:href="#m0a45f2bb12" x="350.259023" y="261.122702" style="fill: #ff7f0e; stroke: #ff7f0e"/>
     <use xlink:href="#m0a45f2bb12" x="353.505568" y="261.136456" style="fill: #ff7f0e; stroke: #ff7f0e"/>
     <use xlink:href="#m0a45f2bb12" x="356.752114" y="261.147234" style="fill: #ff7f0e; stroke: #ff7f0e"/>
     <use xlink:href="#m0a45f2bb12" x="359.998659" y="261.155921" style="fill: #ff7f0e; stroke: #ff7f0e"/>
     <use xlink:href="#m0a45f2bb12" x="363.245205" y="261.163077" style="fill: #ff7f0e; stroke: #ff7f0e"/>
     <use xlink:href="#m0a45f2bb12" x="366.49175" y="261.169073" style="fill: #ff7f0e; stroke: #ff7f0e"/>
     <use xlink:href="#m0a45f2bb12" x="369.738295" y="261.174166" style="fill: #ff7f0e; stroke: #ff7f0e"/>
     <use xlink:href="#m0a45f2bb12" x="372.984841" y="261.178542" style="fill: #ff7f0e; stroke: #ff7f0e"/>
     <use xlink:href="#m0a45f2bb12" x="376.231386" y="261.182336" style="fill: #ff7f0e; stroke: #ff7f0e"/>
     <use xlink:href="#m0a45f2bb12" x="379.477932" y="261.18565" style="fill: #ff7f0e; stroke: #ff7f0e"/>
     <use xlink:href="#m0a45f2bb12" x="382.724477" y="261.188565" style="fill: #ff7f0e; stroke: #ff7f0e"/>
     <use xlink:href="#m0a45f2bb12" x="385.971023" y="261.191141" style="fill: #ff7f0e; stroke: #ff7f0e"/>
    </g>
   </g>
   <g id="patch_3">
    <path d="M 45.08375 273.312 
L 45.08375 7.2 
" style="fill: none; stroke: #000000; stroke-width: 0.8; stroke-linejoin: miter; stroke-linecap: square"/>
   </g>
   <g id="patch_4">
    <path d="M 402.20375 273.312 
L 402.20375 7.2 
" style="fill: none; stroke: #000000; stroke-width: 0.8; stroke-linejoin: miter; stroke-linecap: square"/>
   </g>
   <g id="patch_5">
    <path d="M 45.08375 273.312 
L 402.20375 273.312 
" style="fill: none; stroke: #000000; stroke-width: 0.8; stroke-linejoin: miter; stroke-linecap: square"/>
   </g>
   <g id="patch_6">
    <path d="M 45.08375 7.2 
L 402.20375 7.2 
" style="fill: none; stroke: #000000; stroke-width: 0.8; stroke-linejoin: miter; stroke-linecap: square"/>
   </g>
   <g id="legend_1">
    <g id="patch_7">
     <path d="M 293.886875 52.0275 
L 393.80375 52.0275 
Q 396.20375 52.0275 396.20375 49.6275 
L 396.20375 15.6 
Q 396.20375 13.2 393.80375 13.2 
L 293.886875 13.2 
Q 291.486875 13.2 291.486875 15.6 
L 291.486875 49.6275 
Q 291.486875 52.0275 293.886875 52.0275 
z
" style="fill: #ffffff; opacity: 0.8; stroke: #cccccc; stroke-linejoin: miter"/>
    </g>
    <g id="line2d_16">
     <path d="M 296.286875 22.918125 
L 308.286875 22.918125 
L 320.286875 22.918125 
" style="fill: none; stroke: #1f77b4; stroke-width: 1.5; stroke-linecap: square"/>
     <g>
      <use xlink:href="#m918900fec3" x="308.286875" y="22.918125" style="fill: #1f77b4; stroke: #1f77b4"/>
     </g>
    </g>
    <g id="text_16">
     <!-- spin-up -->
     <g transform="translate(329.886875 27.118125) scale(0.12 -0.12)">
      <defs>
       <path id="DejaVuSans-73" d="M 2834 3397 
L 2834 2853 
Q 2591 2978 2328 3040 
Q 2066 3103 1784 3103 
Q 1356 3103 1142 2972 
Q 928 2841 928 2578 
Q 928 2378 1081 2264 
Q 1234 2150 1697 2047 
L 1894 2003 
Q 2506 1872 2764 1633 
Q 3022 1394 3022 966 
Q 3022 478 2636 193 
Q 2250 -91 1575 -91 
Q 1294 -91 989 -36 
Q 684 19 347 128 
L 347 722 
Q 666 556 975 473 
Q 1284 391 1588 391 
Q 1994 391 2212 530 
Q 2431 669 2431 922 
Q 2431 1156 2273 1281 
Q 2116 1406 1581 1522 
L 1381 1569 
Q 847 1681 609 1914 
Q 372 2147 372 2553 
Q 372 3047 722 3315 
Q 1072 3584 1716 3584 
Q 2034 3584 2315 3537 
Q 2597 3491 2834 3397 
z
" transform="scale(0.015625)"/>
       <path id="DejaVuSans-70" d="M 1159 525 
L 1159 -1331 
L 581 -1331 
L 581 3500 
L 1159 3500 
L 1159 2969 
Q 1341 3281 1617 3432 
Q 1894 3584 2278 3584 
Q 2916 3584 3314 3078 
Q 3713 2572 3713 1747 
Q 3713 922 3314 415 
Q 2916 -91 2278 -91 
Q 1894 -91 1617 61 
Q 1341 213 1159 525 
z
M 3116 1747 
Q 3116 2381 2855 2742 
Q 2594 3103 2138 3103 
Q 1681 3103 1420 2742 
Q 1159 2381 1159 1747 
Q 1159 1113 1420 752 
Q 1681 391 2138 391 
Q 2594 391 2855 752 
Q 3116 1113 3116 1747 
z
" transform="scale(0.015625)"/>
       <path id="DejaVuSans-69" d="M 603 3500 
L 1178 3500 
L 1178 0 
L 603 0 
L 603 3500 
z
M 603 4863 
L 1178 4863 
L 1178 4134 
L 603 4134 
L 603 4863 
z
" transform="scale(0.015625)"/>
       <path id="DejaVuSans-2d" d="M 313 2009 
L 1997 2009 
L 1997 1497 
L 313 1497 
L 313 2009 
z
" transform="scale(0.015625)"/>
       <path id="DejaVuSans-75" d="M 544 1381 
L 544 3500 
L 1119 3500 
L 1119 1403 
Q 1119 906 1312 657 
Q 1506 409 1894 409 
Q 2359 409 2629 706 
Q 2900 1003 2900 1516 
L 2900 3500 
L 3475 3500 
L 3475 0 
L 2900 0 
L 2900 538 
Q 2691 219 2414 64 
Q 2138 -91 1772 -91 
Q 1169 -91 856 284 
Q 544 659 544 1381 
z
M 1991 3584 
L 1991 3584 
z
" transform="scale(0.015625)"/>
      </defs>
      <use xlink:href="#DejaVuSans-73"/>
      <use xlink:href="#DejaVuSans-70" x="52.099609"/>
      <use xlink:href="#DejaVuSans-69" x="115.576172"/>
      <use xlink:href="#DejaVuSans-6e" x="143.359375"/>
      <use xlink:href="#DejaVuSans-2d" x="206.738281"/>
      <use xlink:href="#DejaVuSans-75" x="242.822266"/>
      <use xlink:href="#DejaVuSans-70" x="306.201172"/>
     </g>
    </g>
    <g id="line2d_17">
     <path d="M 296.286875 40.531875 
L 308.286875 40.531875 
L 320.286875 40.531875 
" style="fill: none; stroke: #ff7f0e; stroke-width: 1.5; stroke-linecap: square"/>
     <g>
      <use xlink:href="#m0a45f2bb12" x="308.286875" y="40.531875" style="fill: #ff7f0e; stroke: #ff7f0e"/>
     </g>
    </g>
    <g id="text_17">
     <!-- spin-down -->
     <g transform="translate(329.886875 44.731875) scale(0.12 -0.12)">
      <defs>
       <path id="DejaVuSans-64" d="M 2906 2969 
L 2906 4863 
L 3481 4863 
L 3481 0 
L 2906 0 
L 2906 525 
Q 2725 213 2448 61 
Q 2172 -91 1784 -91 
Q 1150 -91 751 415 
Q 353 922 353 1747 
Q 353 2572 751 3078 
Q 1150 3584 1784 3584 
Q 2172 3584 2448 3432 
Q 2725 3281 2906 2969 
z
M 947 1747 
Q 947 1113 1208 752 
Q 1469 391 1925 391 
Q 2381 391 2643 752 
Q 2906 1113 2906 1747 
Q 2906 2381 2643 2742 
Q 2381 3103 1925 3103 
Q 1469 3103 1208 2742 
Q 947 2381 947 1747 
z
" transform="scale(0.015625)"/>
       <path id="DejaVuSans-6f" d="M 1959 3097 
Q 1497 3097 1228 2736 
Q 959 2375 959 1747 
Q 959 1119 1226 758 
Q 1494 397 1959 397 
Q 2419 397 2687 759 
Q 2956 1122 2956 1747 
Q 2956 2369 2687 2733 
Q 2419 3097 1959 3097 
z
M 1959 3584 
Q 2709 3584 3137 3096 
Q 3566 2609 3566 1747 
Q 3566 888 3137 398 
Q 2709 -91 1959 -91 
Q 1206 -91 779 398 
Q 353 888 353 1747 
Q 353 2609 779 3096 
Q 1206 3584 1959 3584 
z
" transform="scale(0.015625)"/>
       <path id="DejaVuSans-77" d="M 269 3500 
L 844 3500 
L 1563 769 
L 2278 3500 
L 2956 3500 
L 3675 769 
L 4391 3500 
L 4966 3500 
L 4050 0 
L 3372 0 
L 2619 2869 
L 1863 0 
L 1184 0 
L 269 3500 
z
" transform="scale(0.015625)"/>
      </defs>
      <use xlink:href="#DejaVuSans-73"/>
      <use xlink:href="#DejaVuSans-70" x="52.099609"/>
      <use xlink:href="#DejaVuSans-69" x="115.576172"/>
      <use xlink:href="#DejaVuSans-6e" x="143.359375"/>
      <use xlink:href="#DejaVuSans-2d" x="206.738281"/>
      <use xlink:href="#DejaVuSans-64" x="242.822266"/>
      <use xlink:href="#DejaVuSans-6f" x="306.298828"/>
      <use xlink:href="#DejaVuSans-77" x="367.480469"/>
      <use xlink:href="#DejaVuSans-6e" x="449.267578"/>
     </g>
    </g>
   </g>
  </g>
 </g>
 <defs>
  <clipPath id="p3fa57f5919">
   <rect x="45.08375" y="7.2" width="357.12" height="266.112"/>
  </clipPath>
 </defs>
</svg>