<?xml version="1.0" encoding="utf-8" standalone="no"?>
<!DOCTYPE svg PUBLIC "-//W3C//DTD SVG 1.1//EN"
  "http://www.w3.org/Graphics/SVG/1.1/DTD/svg11.dtd">
<svg xmlns:xlink="http://www.w3.org/1999/xlink" width="423.273125pt" height="314.7395pt" viewBox="0 0 423.273125 314.7395" xmlns="http://www.w3.org/2000/svg" version="1.1">
 <metadata>
  <rdf:RDF xmlns:dc="http://purl.org/dc/elements/1.1/" xmlns:cc="http://creativecommons.org/ns#" xmlns:rdf="http://www.w3.org/1999/02/22-rdf-syntax-ns#">
   <cc:Work>
    <dc:type rdf:resource="http://purl.org/dc/dcmitype/StillImage"/>
    <dc:date>2024-08-14T21:12:50.501011</dc:date>
    <dc:format>image/svg+xml</dc:format>
    <dc:creator>
     <cc:Agent>
      <dc:title>Matplotlib v3.7.2, https://matplotlib.org/</dc:title>
     </cc:Agent>
    </dc:creator>
   </cc:Work>
  </rdf:RDF>
 </metadata>
 <defs>
  <style type="text/css">*{stroke-linejoin: round; stroke-linecap: butt}</style>
 </defs>
 <g id="figure_1">
  <g id="patch_1">
   <path d="M 0 314.7395 
L 423.273125 314.7395 
L 423.273125 0 
L 0 0 
z
" style="fill: #ffffff"/>
  </g>
  <g id="axes_1">
   <g id="patch_2">
    <path d="M 58.953125 273.312 
L 416.073125 273.312 
L 416.073125 7.2 
L 58.953125 7.2 
z
" style="fill: #ffffff"/>
   </g>
   <g id="matplotlib.axis_1">
    <g id="xtick_1">
     <g id="line2d_1">
      <defs>
       <path id="m125da1755c" d="M 0 0 
L 0 3.5 
" style="stroke: #000000; stroke-width: 0.8"/>
      </defs>
      <g>
       <use xlink:href="#m125da1755c" x="75.185852" y="273.312" style="stroke: #000000; stroke-width: 0.8"/>
      </g>
     </g>
     <g id="text_1">
      <!-- −10.0 -->
      <g transform="translate(56.798665 289.430125) scale(0.12 -0.12)">
       <defs>
        <path id="DejaVuSans-2212" d="M 678 2272 
L 4684 2272 
L 4684 1741 
L 678 1741 
L 678 2272 
z
" transform="scale(0.015625)"/>
        <path id="DejaVuSans-31" d="M 794 531 
L 1825 531 
L 1825 4091 
L 703 3866 
L 703 4441 
L 1819 4666 
L 2450 4666 
L 2450 531 
L 3481 531 
L 3481 0 
L 794 0 
L 794 531 
z
" transform="scale(0.015625)"/>
        <path id="DejaVuSans-30" d="M 2034 4250 
Q 1547 4250 1301 3770 
Q 1056 3291 1056 2328 
Q 1056 1369 1301 889 
Q 1547 409 2034 409 
Q 2525 409 2770 889 
Q 3016 1369 3016 2328 
Q 3016 3291 2770 3770 
Q 2525 4250 2034 4250 
z
M 2034 4750 
Q 2819 4750 3233 4129 
Q 3647 3509 3647 2328 
Q 3647 1150 3233 529 
Q 2819 -91 2034 -91 
Q 1250 -91 836 529 
Q 422 1150 422 2328 
Q 422 3509 836 4129 
Q 1250 4750 2034 4750 
z
" transform="scale(0.015625)"/>
        <path id="DejaVuSans-2e" d="M 684 794 
L 1344 794 
L 1344 0 
L 684 0 
L 684 794 
z
" transform="scale(0.015625)"/>
       </defs>
       <use xlink:href="#DejaVuSans-2212"/>
       <use xlink:href="#DejaVuSans-31" x="83.789062"/>
       <use xlink:href="#DejaVuSans-30" x="147.412109"/>
       <use xlink:href="#DejaVuSans-2e" x="211.035156"/>
       <use xlink:href="#DejaVuSans-30" x="242.822266"/>
      </g>
     </g>
    </g>
    <g id="xtick_2">
     <g id="line2d_2">
      <g>
       <use xlink:href="#m125da1755c" x="115.76767" y="273.312" style="stroke: #000000; stroke-width: 0.8"/>
      </g>
     </g>
     <g id="text_2">
      <!-- −7.5 -->
      <g transform="translate(101.197983 289.430125) scale(0.12 -0.12)">
       <defs>
        <path id="DejaVuSans-37" d="M 525 4666 
L 3525 4666 
L 3525 4397 
L 1831 0 
L 1172 0 
L 2766 4134 
L 525 4134 
L 525 4666 
z
" transform="scale(0.015625)"/>
        <path id="DejaVuSans-35" d="M 691 4666 
L 3169 4666 
L 3169 4134 
L 1269 4134 
L 1269 2991 
Q 1406 3038 1543 3061 
Q 1681 3084 1819 3084 
Q 2600 3084 3056 2656 
Q 3513 2228 3513 1497 
Q 3513 744 3044 326 
Q 2575 -91 1722 -91 
Q 1428 -91 1123 -41 
Q 819 9 494 109 
L 494 744 
Q 775 591 1075 516 
Q 1375 441 1709 441 
Q 2250 441 2565 725 
Q 2881 1009 2881 1497 
Q 2881 1984 2565 2268 
Q 2250 2553 1709 2553 
Q 1456 2553 1204 2497 
Q 953 2441 691 2322 
L 691 4666 
z
" transform="scale(0.015625)"/>
       </defs>
       <use xlink:href="#DejaVuSans-2212"/>
       <use xlink:href="#DejaVuSans-37" x="83.789062"/>
       <use xlink:href="#DejaVuSans-2e" x="147.412109"/>
       <use xlink:href="#DejaVuSans-35" x="179.199219"/>
      </g>
     </g>
    </g>
    <g id="xtick_3">
     <g id="line2d_3">
      <g>
       <use xlink:href="#m125da1755c" x="156.349489" y="273.312" style="stroke: #000000; stroke-width: 0.8"/>
      </g>
     </g>
     <g id="text_3">
      <!-- −5.0 -->
      <g transform="translate(141.779801 289.430125) scale(0.12 -0.12)">
       <use xlink:href="#DejaVuSans-2212"/>
       <use xlink:href="#DejaVuSans-35" x="83.789062"/>
       <use xlink:href="#DejaVuSans-2e" x="147.412109"/>
       <use xlink:href="#DejaVuSans-30" x="179.199219"/>
      </g>
     </g>
    </g>
    <g id="xtick_4">
     <g id="line2d_4">
      <g>
       <use xlink:href="#m125da1755c" x="196.931307" y="273.312" style="stroke: #000000; stroke-width: 0.8"/>
      </g>
     </g>
     <g id="text_4">
      <!-- −2.5 -->
      <g transform="translate(182.361619 289.430125) scale(0.12 -0.12)">
       <defs>
        <path id="DejaVuSans-32" d="M 1228 531 
L 3431 531 
L 3431 0 
L 469 0 
L 469 531 
Q 828 903 1448 1529 
Q 2069 2156 2228 2338 
Q 2531 2678 2651 2914 
Q 2772 3150 2772 3378 
Q 2772 3750 2511 3984 
Q 2250 4219 1831 4219 
Q 1534 4219 1204 4116 
Q 875 4013 500 3803 
L 500 4441 
Q 881 4594 1212 4672 
Q 1544 4750 1819 4750 
Q 2544 4750 2975 4387 
Q 3406 4025 3406 3419 
Q 3406 3131 3298 2873 
Q 3191 2616 2906 2266 
Q 2828 2175 2409 1742 
Q 1991 1309 1228 531 
z
" transform="scale(0.015625)"/>
       </defs>
       <use xlink:href="#DejaVuSans-2212"/>
       <use xlink:href="#DejaVuSans-32" x="83.789062"/>
       <use xlink:href="#DejaVuSans-2e" x="147.412109"/>
       <use xlink:href="#DejaVuSans-35" x="179.199219"/>
      </g>
     </g>
    </g>
    <g id="xtick_5">
     <g id="line2d_5">
      <g>
       <use xlink:href="#m125da1755c" x="237.513125" y="273.312" style="stroke: #000000; stroke-width: 0.8"/>
      </g>
     </g>
     <g id="text_5">
      <!-- 0.0 -->
      <g transform="translate(227.97125 289.430125) scale(0.12 -0.12)">
       <use xlink:href="#DejaVuSans-30"/>
       <use xlink:href="#DejaVuSans-2e" x="63.623047"/>
       <use xlink:href="#DejaVuSans-30" x="95.410156"/>
      </g>
     </g>
    </g>
    <g id="xtick_6">
     <g id="line2d_6">
      <g>
       <use xlink:href="#m125da1755c" x="278.094943" y="273.312" style="stroke: #000000; stroke-width: 0.8"/>
      </g>
     </g>
     <g id="text_6">
      <!-- 2.5 -->
      <g transform="translate(268.553068 289.430125) scale(0.12 -0.12)">
       <use xlink:href="#DejaVuSans-32"/>
       <use xlink:href="#DejaVuSans-2e" x="63.623047"/>
       <use xlink:href="#DejaVuSans-35" x="95.410156"/>
      </g>
     </g>
    </g>
    <g id="xtick_7">
     <g id="line2d_7">
      <g>
       <use xlink:href="#m125da1755c" x="318.676761" y="273.312" style="stroke: #000000; stroke-width: 0.8"/>
      </g>
     </g>
     <g id="text_7">
      <!-- 5.0 -->
      <g transform="translate(309.134886 289.430125) scale(0.12 -0.12)">
       <use xlink:href="#DejaVuSans-35"/>
       <use xlink:href="#DejaVuSans-2e" x="63.623047"/>
       <use xlink:href="#DejaVuSans-30" x="95.410156"/>
      </g>
     </g>
    </g>
    <g id="xtick_8">
     <g id="line2d_8">
      <g>
       <use xlink:href="#m125da1755c" x="359.25858" y="273.312" style="stroke: #000000; stroke-width: 0.8"/>
      </g>
     </g>
     <g id="text_8">
      <!-- 7.5 -->
      <g transform="translate(349.716705 289.430125) scale(0.12 -0.12)">
       <use xlink:href="#DejaVuSans-37"/>
       <use xlink:href="#DejaVuSans-2e" x="63.623047"/>
       <use xlink:href="#DejaVuSans-35" x="95.410156"/>
      </g>
     </g>
    </g>
    <g id="xtick_9">
     <g id="line2d_9">
      <g>
       <use xlink:href="#m125da1755c" x="399.840398" y="273.312" style="stroke: #000000; stroke-width: 0.8"/>
      </g>
     </g>
     <g id="text_9">
      <!-- 10.0 -->
      <g transform="translate(386.481023 289.430125) scale(0.12 -0.12)">
       <use xlink:href="#DejaVuSans-31"/>
       <use xlink:href="#DejaVuSans-30" x="63.623047"/>
       <use xlink:href="#DejaVuSans-2e" x="127.246094"/>
       <use xlink:href="#DejaVuSans-30" x="159.033203"/>
      </g>
     </g>
    </g>
    <g id="text_10">
     <!-- Energy (eV) -->
     <g transform="translate(202.120625 305.043875) scale(0.12 -0.12)">
      <defs>
       <path id="DejaVuSans-45" d="M 628 4666 
L 3578 4666 
L 3578 4134 
L 1259 4134 
L 1259 2753 
L 3481 2753 
L 3481 2222 
L 1259 2222 
L 1259 531 
L 3634 531 
L 3634 0 
L 628 0 
L 628 4666 
z
" transform="scale(0.015625)"/>
       <path id="DejaVuSans-6e" d="M 3513 2113 
L 3513 0 
L 2938 0 
L 2938 2094 
Q 2938 2591 2744 2837 
Q 2550 3084 2163 3084 
Q 1697 3084 1428 2787 
Q 1159 2491 1159 1978 
L 1159 0 
L 581 0 
L 581 3500 
L 1159 3500 
L 1159 2956 
Q 1366 3272 1645 3428 
Q 1925 3584 2291 3584 
Q 2894 3584 3203 3211 
Q 3513 2838 3513 2113 
z
" transform="scale(0.015625)"/>
       <path id="DejaVuSans-65" d="M 3597 1894 
L 3597 1613 
L 953 1613 
Q 991 1019 1311 708 
Q 1631 397 2203 397 
Q 2534 397 2845 478 
Q 3156 559 3463 722 
L 3463 178 
Q 3153 47 2828 -22 
Q 2503 -91 2169 -91 
Q 1331 -91 842 396 
Q 353 884 353 1716 
Q 353 2575 817 3079 
Q 1281 3584 2069 3584 
Q 2775 3584 3186 3129 
Q 3597 2675 3597 1894 
z
M 3022 2063 
Q 3016 2534 2758 2815 
Q 2500 3097 2075 3097 
Q 1594 3097 1305 2825 
Q 1016 2553 972 2059 
L 3022 2063 
z
" transform="scale(0.015625)"/>
       <path id="DejaVuSans-72" d="M 2631 2963 
Q 2534 3019 2420 3045 
Q 2306 3072 2169 3072 
Q 1681 3072 1420 2755 
Q 1159 2438 1159 1844 
L 1159 0 
L 581 0 
L 581 3500 
L 1159 3500 
L 1159 2956 
Q 1341 3275 1631 3429 
Q 1922 3584 2338 3584 
Q 2397 3584 2469 3576 
Q 2541 3569 2628 3553 
L 2631 2963 
z
" transform="scale(0.015625)"/>
       <path id="DejaVuSans-67" d="M 2906 1791 
Q 2906 2416 2648 2759 
Q 2391 3103 1925 3103 
Q 1463 3103 1205 2759 
Q 947 2416 947 1791 
Q 947 1169 1205 825 
Q 1463 481 1925 481 
Q 2391 481 2648 825 
Q 2906 1169 2906 1791 
z
M 3481 434 
Q 3481 -459 3084 -895 
Q 2688 -1331 1869 -1331 
Q 1566 -1331 1297 -1286 
Q 1028 -1241 775 -1147 
L 775 -588 
Q 1028 -725 1275 -790 
Q 1522 -856 1778 -856 
Q 2344 -856 2625 -561 
Q 2906 -266 2906 331 
L 2906 616 
Q 2728 306 2450 153 
Q 2172 0 1784 0 
Q 1141 0 747 490 
Q 353 981 353 1791 
Q 353 2603 747 3093 
Q 1141 3584 1784 3584 
Q 2172 3584 2450 3431 
Q 2728 3278 2906 2969 
L 2906 3500 
L 3481 3500 
L 3481 434 
z
" transform="scale(0.015625)"/>
       <path id="DejaVuSans-79" d="M 2059 -325 
Q 1816 -950 1584 -1140 
Q 1353 -1331 966 -1331 
L 506 -1331 
L 506 -850 
L 844 -850 
Q 1081 -850 1212 -737 
Q 1344 -625 1503 -206 
L 1606 56 
L 191 3500 
L 800 3500 
L 1894 763 
L 2988 3500 
L 3597 3500 
L 2059 -325 
z
" transform="scale(0.015625)"/>
       <path id="DejaVuSans-20" transform="scale(0.015625)"/>
       <path id="DejaVuSans-28" d="M 1984 4856 
Q 1566 4138 1362 3434 
Q 1159 2731 1159 2009 
Q 1159 1288 1364 580 
Q 1569 -128 1984 -844 
L 1484 -844 
Q 1016 -109 783 600 
Q 550 1309 550 2009 
Q 550 2706 781 3412 
Q 1013 4119 1484 4856 
L 1984 4856 
z
" transform="scale(0.015625)"/>
       <path id="DejaVuSans-56" d="M 1831 0 
L 50 4666 
L 709 4666 
L 2188 738 
L 3669 4666 
L 4325 4666 
L 2547 0 
L 1831 0 
z
" transform="scale(0.015625)"/>
       <path id="DejaVuSans-29" d="M 513 4856 
L 1013 4856 
Q 1481 4119 1714 3412 
Q 1947 2706 1947 2009 
Q 1947 1309 1714 600 
Q 1481 -109 1013 -844 
L 513 -844 
Q 928 -128 1133 580 
Q 1338 1288 1338 2009 
Q 1338 2731 1133 3434 
Q 928 4138 513 4856 
z
" transform="scale(0.015625)"/>
      </defs>
      <use xlink:href="#DejaVuSans-45"/>
      <use xlink:href="#DejaVuSans-6e" x="63.183594"/>
      <use xlink:href="#DejaVuSans-65" x="126.5625"/>
      <use xlink:href="#DejaVuSans-72" x="188.085938"/>
      <use xlink:href="#DejaVuSans-67" x="227.449219"/>
      <use xlink:href="#DejaVuSans-79" x="290.925781"/>
      <use xlink:href="#DejaVuSans-20" x="350.105469"/>
      <use xlink:href="#DejaVuSans-28" x="381.892578"/>
      <use xlink:href="#DejaVuSans-65" x="420.90625"/>
      <use xlink:href="#DejaVuSans-56" x="482.429688"/>
      <use xlink:href="#DejaVuSans-29" x="550.837891"/>
     </g>
    </g>
   </g>
   <g id="matplotlib.axis_2">
    <g id="ytick_1">
     <g id="line2d_10">
      <defs>
       <path id="mf190cde822" d="M 0 0 
L -3.5 0 
" style="stroke: #000000; stroke-width: 0.8"/>
      </defs>
      <g>
       <use xlink:href="#mf190cde822" x="58.953125" y="258.930496" style="stroke: #000000; stroke-width: 0.8"/>
      </g>
     </g>
     <g id="text_11">
      <!-- −0.6 -->
      <g transform="translate(22.81375 263.489558) scale(0.12 -0.12)">
       <defs>
        <path id="DejaVuSans-36" d="M 2113 2584 
Q 1688 2584 1439 2293 
Q 1191 2003 1191 1497 
Q 1191 994 1439 701 
Q 1688 409 2113 409 
Q 2538 409 2786 701 
Q 3034 994 3034 1497 
Q 3034 2003 2786 2293 
Q 2538 2584 2113 2584 
z
M 3366 4563 
L 3366 3988 
Q 3128 4100 2886 4159 
Q 2644 4219 2406 4219 
Q 1781 4219 1451 3797 
Q 1122 3375 1075 2522 
Q 1259 2794 1537 2939 
Q 1816 3084 2150 3084 
Q 2853 3084 3261 2657 
Q 3669 2231 3669 1497 
Q 3669 778 3244 343 
Q 2819 -91 2113 -91 
Q 1303 -91 875 529 
Q 447 1150 447 2328 
Q 447 3434 972 4092 
Q 1497 4750 2381 4750 
Q 2619 4750 2861 4703 
Q 3103 4656 3366 4563 
z
" transform="scale(0.015625)"/>
       </defs>
       <use xlink:href="#DejaVuSans-2212"/>
       <use xlink:href="#DejaVuSans-30" x="83.789062"/>
       <use xlink:href="#DejaVuSans-2e" x="147.412109"/>
       <use xlink:href="#DejaVuSans-36" x="179.199219"/>
      </g>
     </g>
    </g>
    <g id="ytick_2">
     <g id="line2d_11">
      <g>
       <use xlink:href="#mf190cde822" x="58.953125" y="219.372331" style="stroke: #000000; stroke-width: 0.8"/>
      </g>
     </g>
     <g id="text_12">
      <!-- −0.4 -->
      <g transform="translate(22.81375 223.931393) scale(0.12 -0.12)">
       <defs>
        <path id="DejaVuSans-34" d="M 2419 4116 
L 825 1625 
L 2419 1625 
L 2419 4116 
z
M 2253 4666 
L 3047 4666 
L 3047 1625 
L 3713 1625 
L 3713 1100 
L 3047 1100 
L 3047 0 
L 2419 0 
L 2419 1100 
L 313 1100 
L 313 1709 
L 2253 4666 
z
" transform="scale(0.015625)"/>
       </defs>
       <use xlink:href="#DejaVuSans-2212"/>
       <use xlink:href="#DejaVuSans-30" x="83.789062"/>
       <use xlink:href="#DejaVuSans-2e" x="147.412109"/>
       <use xlink:href="#DejaVuSans-34" x="179.199219"/>
      </g>
     </g>
    </g>
    <g id="ytick_3">
     <g id="line2d_12">
      <g>
       <use xlink:href="#mf190cde822" x="58.953125" y="179.814165" style="stroke: #000000; stroke-width: 0.8"/>
      </g>
     </g>
     <g id="text_13">
      <!-- −0.2 -->
      <g transform="translate(22.81375 184.373228) scale(0.12 -0.12)">
       <use xlink:href="#DejaVuSans-2212"/>
       <use xlink:href="#DejaVuSans-30" x="83.789062"/>
       <use xlink:href="#DejaVuSans-2e" x="147.412109"/>
       <use xlink:href="#DejaVuSans-32" x="179.199219"/>
      </g>
     </g>
    </g>
    <g id="ytick_4">
     <g id="line2d_13">
      <g>
       <use xlink:href="#mf190cde822" x="58.953125" y="140.256" style="stroke: #000000; stroke-width: 0.8"/>
      </g>
     </g>
     <g id="text_14">
      <!-- 0.0 -->
      <g transform="translate(32.869375 144.815062) scale(0.12 -0.12)">
       <use xlink:href="#DejaVuSans-30"/>
       <use xlink:href="#DejaVuSans-2e" x="63.623047"/>
       <use xlink:href="#DejaVuSans-30" x="95.410156"/>
      </g>
     </g>
    </g>
    <g id="ytick_5">
     <g id="line2d_14">
      <g>
       <use xlink:href="#mf190cde822" x="58.953125" y="100.697835" style="stroke: #000000; stroke-width: 0.8"/>
      </g>
     </g>
     <g id="text_15">
      <!-- 0.2 -->
      <g transform="translate(32.869375 105.256897) scale(0.12 -0.12)">
       <use xlink:href="#DejaVuSans-30"/>
       <use xlink:href="#DejaVuSans-2e" x="63.623047"/>
       <use xlink:href="#DejaVuSans-32" x="95.410156"/>
      </g>
     </g>
    </g>
    <g id="ytick_6">
     <g id="line2d_15">
      <g>
       <use xlink:href="#mf190cde822" x="58.953125" y="61.139669" style="stroke: #000000; stroke-width: 0.8"/>
      </g>
     </g>
     <g id="text_16">
      <!-- 0.4 -->
      <g transform="translate(32.869375 65.698732) scale(0.12 -0.12)">
       <use xlink:href="#DejaVuSans-30"/>
       <use xlink:href="#DejaVuSans-2e" x="63.623047"/>
       <use xlink:href="#DejaVuSans-34" x="95.410156"/>
      </g>
     </g>
    </g>
    <g id="ytick_7">
     <g id="line2d_16">
      <g>
       <use xlink:href="#mf190cde822" x="58.953125" y="21.581504" style="stroke: #000000; stroke-width: 0.8"/>
      </g>
     </g>
     <g id="text_17">
      <!-- 0.6 -->
      <g transform="translate(32.869375 26.140567) scale(0.12 -0.12)">
       <use xlink:href="#DejaVuSans-30"/>
       <use xlink:href="#DejaVuSans-2e" x="63.623047"/>
       <use xlink:href="#DejaVuSans-36" x="95.410156"/>
      </g>
     </g>
    </g>
    <g id="text_18">
     <!-- DOS (1/eV) -->
     <g transform="translate(16.318125 173.631937) rotate(-90) scale(0.12 -0.12)">
      <defs>
       <path id="DejaVuSans-44" d="M 1259 4147 
L 1259 519 
L 2022 519 
Q 2988 519 3436 956 
Q 3884 1394 3884 2338 
Q 3884 3275 3436 3711 
Q 2988 4147 2022 4147 
L 1259 4147 
z
M 628 4666 
L 1925 4666 
Q 3281 4666 3915 4102 
Q 4550 3538 4550 2338 
Q 4550 1131 3912 565 
Q 3275 0 1925 0 
L 628 0 
L 628 4666 
z
" transform="scale(0.015625)"/>
       <path id="DejaVuSans-4f" d="M 2522 4238 
Q 1834 4238 1429 3725 
Q 1025 3213 1025 2328 
Q 1025 1447 1429 934 
Q 1834 422 2522 422 
Q 3209 422 3611 934 
Q 4013 1447 4013 2328 
Q 4013 3213 3611 3725 
Q 3209 4238 2522 4238 
z
M 2522 4750 
Q 3503 4750 4090 4092 
Q 4678 3434 4678 2328 
Q 4678 1225 4090 567 
Q 3503 -91 2522 -91 
Q 1538 -91 948 565 
Q 359 1222 359 2328 
Q 359 3434 948 4092 
Q 1538 4750 2522 4750 
z
" transform="scale(0.015625)"/>
       <path id="DejaVuSans-53" d="M 3425 4513 
L 3425 3897 
Q 3066 4069 2747 4153 
Q 2428 4238 2131 4238 
Q 1616 4238 1336 4038 
Q 1056 3838 1056 3469 
Q 1056 3159 1242 3001 
Q 1428 2844 1947 2747 
L 2328 2669 
Q 3034 2534 3370 2195 
Q 3706 1856 3706 1288 
Q 3706 609 3251 259 
Q 2797 -91 1919 -91 
Q 1588 -91 1214 -16 
Q 841 59 441 206 
L 441 856 
Q 825 641 1194 531 
Q 1563 422 1919 422 
Q 2459 422 2753 634 
Q 3047 847 3047 1241 
Q 3047 1584 2836 1778 
Q 2625 1972 2144 2069 
L 1759 2144 
Q 1053 2284 737 2584 
Q 422 2884 422 3419 
Q 422 4038 858 4394 
Q 1294 4750 2059 4750 
Q 2388 4750 2728 4690 
Q 3069 4631 3425 4513 
z
" transform="scale(0.015625)"/>
       <path id="DejaVuSans-2f" d="M 1625 4666 
L 2156 4666 
L 531 -594 
L 0 -594 
L 1625 4666 
z
" transform="scale(0.015625)"/>
      </defs>
      <use xlink:href="#DejaVuSans-44"/>
      <use xlink:href="#DejaVuSans-4f" x="77.001953"/>
      <use xlink:href="#DejaVuSans-53" x="155.712891"/>
      <use xlink:href="#DejaVuSans-20" x="219.189453"/>
      <use xlink:href="#DejaVuSans-28" x="250.976562"/>
      <use xlink:href="#DejaVuSans-31" x="289.990234"/>
      <use xlink:href="#DejaVuSans-2f" x="353.613281"/>
      <use xlink:href="#DejaVuSans-65" x="387.304688"/>
      <use xlink:href="#DejaVuSans-56" x="448.828125"/>
      <use xlink:href="#DejaVuSans-29" x="517.236328"/>
     </g>
    </g>
   </g>
   <g id="line2d_17">
    <path d="M 75.185852 140.190899 
L 78.432398 140.17363 
L 81.678943 140.148665 
L 84.925489 140.110514 
L 88.172034 140.047508 
L 91.41858 139.930542 
L 94.665125 139.665627 
L 97.91167 138.745553 
L 101.158216 123.447678 
L 104.404761 103.174957 
L 107.651307 101.165237 
L 110.897852 100.202645 
L 114.144398 99.461176 
L 117.390943 98.840263 
L 120.637489 98.142579 
L 123.884034 97.498846 
L 127.13058 96.820881 
L 130.377125 96.165505 
L 133.62367 95.585648 
L 136.870216 94.654167 
L 140.116761 94.021424 
L 143.363307 92.944732 
L 146.609852 92.25621 
L 149.856398 91.093234 
L 153.102943 89.940264 
L 156.349489 88.975993 
L 159.596034 87.555109 
L 162.84258 85.903558 
L 166.089125 84.443612 
L 169.33567 82.48762 
L 172.582216 80.043257 
L 175.828761 77.459249 
L 179.075307 73.80175 
L 182.321852 69.030876 
L 185.568398 62.011644 
L 188.814943 49.222109 
L 192.061489 19.296 
L 195.308034 56.655403 
L 198.55458 74.243342 
L 201.801125 85.360056 
L 205.04767 93.77439 
L 208.294216 100.580361 
L 211.540761 106.481714 
L 214.787307 111.655642 
L 218.033852 116.238792 
L 221.280398 120.734655 
L 224.526943 124.67248 
L 227.773489 128.523526 
L 231.020034 132.238213 
L 234.26658 135.525168 
L 237.513125 137.830607 
L 240.75967 135.525168 
L 244.006216 132.238213 
L 247.252761 128.523526 
L 250.499307 124.67248 
L 253.745852 120.734655 
L 256.992398 116.238792 
L 260.238943 111.655642 
L 263.485489 106.481714 
L 266.732034 100.580361 
L 269.97858 93.77439 
L 273.225125 85.360056 
L 276.47167 74.243342 
L 279.718216 56.655403 
L 282.964761 19.296 
L 286.211307 49.222109 
L 289.457852 62.011644 
L 292.704398 69.030876 
L 295.950943 73.80175 
L 299.197489 77.459249 
L 302.444034 80.043257 
L 305.69058 82.48762 
L 308.937125 84.443612 
L 312.18367 85.903558 
L 315.430216 87.555109 
L 318.676761 88.975993 
L 321.923307 89.940264 
L 325.169852 91.093234 
L 328.416398 92.25621 
L 331.662943 92.944732 
L 334.909489 94.021424 
L 338.156034 94.654167 
L 341.40258 95.585648 
L 344.649125 96.165505 
L 347.89567 96.820881 
L 351.142216 97.498846 
L 354.388761 98.142579 
L 357.635307 98.840263 
L 360.881852 99.461176 
L 364.128398 100.202645 
L 367.374943 101.165237 
L 370.621489 103.174957 
L 373.868034 123.447678 
L 377.11458 138.745553 
L 380.361125 139.665627 
L 383.60767 139.930542 
L 386.854216 140.047508 
L 390.100761 140.110514 
L 393.347307 140.148665 
L 396.593852 140.17363 
L 399.840398 140.190899 
" clip-path="url(#p39726979b6)" style="fill: none; stroke: #1f77b4; stroke-width: 1.5; stroke-linecap: square"/>
    <defs>
     <path id="m33b939e44e" d="M 0 1.5 
C 0.397805 1.5 0.77937 1.341951 1.06066 1.06066 
C 1.341951 0.77937 1.5 0.397805 1.5 0 
C 1.5 -0.397805 1.341951 -0.77937 1.06066 -1.06066 
C 0.77937 -1.341951 0.397805 -1.5 0 -1.5 
C -0.397805 -1.5 -0.77937 -1.341951 -1.06066 -1.06066 
C -1.341951 -0.77937 -1.5 -0.397805 -1.5 0 
C -1.5 0.397805 -1.341951 0.77937 -1.06066 1.06066 
C -0.77937 1.341951 -0.397805 1.5 0 1.5 
z
" style="stroke: #1f77b4"/>
    </defs>
    <g clip-path="url(#p39726979b6)">
     <use xlink:href="#m33b939e44e" x="75.185852" y="140.190899" style="fill: #1f77b4; stroke: #1f77b4"/>
     <use xlink:href="#m33b939e44e" x="78.432398" y="140.17363" style="fill: #1f77b4; stroke: #1f77b4"/>
     <use xlink:href="#m33b939e44e" x="81.678943" y="140.148665" style="fill: #1f77b4; stroke: #1f77b4"/>
     <use xlink:href="#m33b939e44e" x="84.925489" y="140.110514" style="fill: #1f77b4; stroke: #1f77b4"/>
     <use xlink:href="#m33b939e44e" x="88.172034" y="140.047508" style="fill: #1f77b4; stroke: #1f77b4"/>
     <use xlink:href="#m33b939e44e" x="91.41858" y="139.930542" style="fill: #1f77b4; stroke: #1f77b4"/>
     <use xlink:href="#m33b939e44e" x="94.665125" y="139.665627" style="fill: #1f77b4; stroke: #1f77b4"/>
     <use xlink:href="#m33b939e44e" x="97.91167" y="138.745553" style="fill: #1f77b4; stroke: #1f77b4"/>
     <use xlink:href="#m33b939e44e" x="101.158216" y="123.447678" style="fill: #1f77b4; stroke: #1f77b4"/>
     <use xlink:href="#m33b939e44e" x="104.404761" y="103.174957" style="fill: #1f77b4; stroke: #1f77b4"/>
     <use xlink:href="#m33b939e44e" x="107.651307" y="101.165237" style="fill: #1f77b4; stroke: #1f77b4"/>
     <use xlink:href="#m33b939e44e" x="110.897852" y="100.202645" style="fill: #1f77b4; stroke: #1f77b4"/>
     <use xlink:href="#m33b939e44e" x="114.144398" y="99.461176" style="fill: #1f77b4; stroke: #1f77b4"/>
     <use xlink:href="#m33b939e44e" x="117.390943" y="98.840263" style="fill: #1f77b4; stroke: #1f77b4"/>
     <use xlink:href="#m33b939e44e" x="120.637489" y="98.142579" style="fill: #1f77b4; stroke: #1f77b4"/>
     <use xlink:href="#m33b939e44e" x="123.884034" y="97.498846" style="fill: #1f77b4; stroke: #1f77b4"/>
     <use xlink:href="#m33b939e44e" x="127.13058" y="96.820881" style="fill: #1f77b4; stroke: #1f77b4"/>
     <use xlink:href="#m33b939e44e" x="130.377125" y="96.165505" style="fill: #1f77b4; stroke: #1f77b4"/>
     <use xlink:href="#m33b939e44e" x="133.62367" y="95.585648" style="fill: #1f77b4; stroke: #1f77b4"/>
     <use xlink:href="#m33b939e44e" x="136.870216" y="94.654167" style="fill: #1f77b4; stroke: #1f77b4"/>
     <use xlink:href="#m33b939e44e" x="140.116761" y="94.021424" style="fill: #1f77b4; stroke: #1f77b4"/>
     <use xlink:href="#m33b939e44e" x="143.363307" y="92.944732" style="fill: #1f77b4; stroke: #1f77b4"/>
     <use xlink:href="#m33b939e44e" x="146.609852" y="92.25621" style="fill: #1f77b4; stroke: #1f77b4"/>
     <use xlink:href="#m33b939e44e" x="149.856398" y="91.093234" style="fill: #1f77b4; stroke: #1f77b4"/>
     <use xlink:href="#m33b939e44e" x="153.102943" y="89.940264" style="fill: #1f77b4; stroke: #1f77b4"/>
     <use xlink:href="#m33b939e44e" x="156.349489" y="88.975993" style="fill: #1f77b4; stroke: #1f77b4"/>
     <use xlink:href="#m33b939e44e" x="159.596034" y="87.555109" style="fill: #1f77b4; stroke: #1f77b4"/>
     <use xlink:href="#m33b939e44e" x="162.84258" y="85.903558" style="fill: #1f77b4; stroke: #1f77b4"/>
     <use xlink:href="#m33b939e44e" x="166.089125" y="84.443612" style="fill: #1f77b4; stroke: #1f77b4"/>
     <use xlink:href="#m33b939e44e" x="169.33567" y="82.48762" style="fill: #1f77b4; stroke: #1f77b4"/>
     <use xlink:href="#m33b939e44e" x="172.582216" y="80.043257" style="fill: #1f77b4; stroke: #1f77b4"/>
     <use xlink:href="#m33b939e44e" x="175.828761" y="77.459249" style="fill: #1f77b4; stroke: #1f77b4"/>
     <use xlink:href="#m33b939e44e" x="179.075307" y="73.80175" style="fill: #1f77b4; stroke: #1f77b4"/>
     <use xlink:href="#m33b939e44e" x="182.321852" y="69.030876" style="fill: #1f77b4; stroke: #1f77b4"/>
     <use xlink:href="#m33b939e44e" x="185.568398" y="62.011644" style="fill: #1f77b4; stroke: #1f77b4"/>
     <use xlink:href="#m33b939e44e" x="188.814943" y="49.222109" style="fill: #1f77b4; stroke: #1f77b4"/>
     <use xlink:href="#m33b939e44e" x="192.061489" y="19.296" style="fill: #1f77b4; stroke: #1f77b4"/>
     <use xlink:href="#m33b939e44e" x="195.308034" y="56.655403" style="fill: #1f77b4; stroke: #1f77b4"/>
     <use xlink:href="#m33b939e44e" x="198.55458" y="74.243342" style="fill: #1f77b4; stroke: #1f77b4"/>
     <use xlink:href="#m33b939e44e" x="201.801125" y="85.360056" style="fill: #1f77b4; stroke: #1f77b4"/>
     <use xlink:href="#m33b939e44e" x="205.04767" y="93.77439" style="fill: #1f77b4; stroke: #1f77b4"/>
     <use xlink:href="#m33b939e44e" x="208.294216" y="100.580361" style="fill: #1f77b4; stroke: #1f77b4"/>
     <use xlink:href="#m33b939e44e" x="211.540761" y="106.481714" style="fill: #1f77b4; stroke: #1f77b4"/>
     <use xlink:href="#m33b939e44e" x="214.787307" y="111.655642" style="fill: #1f77b4; stroke: #1f77b4"/>
     <use xlink:href="#m33b939e44e" x="218.033852" y="116.238792" style="fill: #1f77b4; stroke: #1f77b4"/>
     <use xlink:href="#m33b939e44e" x="221.280398" y="120.734655" style="fill: #1f77b4; stroke: #1f77b4"/>
     <use xlink:href="#m33b939e44e" x="224.526943" y="124.67248" style="fill: #1f77b4; stroke: #1f77b4"/>
     <use xlink:href="#m33b939e44e" x="227.773489" y="128.523526" style="fill: #1f77b4; stroke: #1f77b4"/>
     <use xlink:href="#m33b939e44e" x="231.020034" y="132.238213" style="fill: #1f77b4; stroke: #1f77b4"/>
     <use xlink:href="#m33b939e44e" x="234.26658" y="135.525168" style="fill: #1f77b4; stroke: #1f77b4"/>
     <use xlink:href="#m33b939e44e" x="237.513125" y="137.830607" style="fill: #1f77b4; stroke: #1f77b4"/>
     <use xlink:href="#m33b939e44e" x="240.75967" y="135.525168" style="fill: #1f77b4; stroke: #1f77b4"/>
     <use xlink:href="#m33b939e44e" x="244.006216" y="132.238213" style="fill: #1f77b4; stroke: #1f77b4"/>
     <use xlink:href="#m33b939e44e" x="247.252761" y="128.523526" style="fill: #1f77b4; stroke: #1f77b4"/>
     <use xlink:href="#m33b939e44e" x="250.499307" y="124.67248" style="fill: #1f77b4; stroke: #1f77b4"/>
     <use xlink:href="#m33b939e44e" x="253.745852" y="120.734655" style="fill: #1f77b4; stroke: #1f77b4"/>
     <use xlink:href="#m33b939e44e" x="256.992398" y="116.238792" style="fill: #1f77b4; stroke: #1f77b4"/>
     <use xlink:href="#m33b939e44e" x="260.238943" y="111.655642" style="fill: #1f77b4; stroke: #1f77b4"/>
     <use xlink:href="#m33b939e44e" x="263.485489" y="106.481714" style="fill: #1f77b4; stroke: #1f77b4"/>
     <use xlink:href="#m33b939e44e" x="266.732034" y="100.580361" style="fill: #1f77b4; stroke: #1f77b4"/>
     <use xlink:href="#m33b939e44e" x="269.97858" y="93.77439" style="fill: #1f77b4; stroke: #1f77b4"/>
     <use xlink:href="#m33b939e44e" x="273.225125" y="85.360056" style="fill: #1f77b4; stroke: #1f77b4"/>
     <use xlink:href="#m33b939e44e" x="276.47167" y="74.243342" style="fill: #1f77b4; stroke: #1f77b4"/>
     <use xlink:href="#m33b939e44e" x="279.718216" y="56.655403" style="fill: #1f77b4; stroke: #1f77b4"/>
     <use xlink:href="#m33b939e44e" x="282.964761" y="19.296" style="fill: #1f77b4; stroke: #1f77b4"/>
     <use xlink:href="#m33b939e44e" x="286.211307" y="49.222109" style="fill: #1f77b4; stroke: #1f77b4"/>
     <use xlink:href="#m33b939e44e" x="289.457852" y="62.011644" style="fill: #1f77b4; stroke: #1f77b4"/>
     <use xlink:href="#m33b939e44e" x="292.704398" y="69.030876" style="fill: #1f77b4; stroke: #1f77b4"/>
     <use xlink:href="#m33b939e44e" x="295.950943" y="73.80175" style="fill: #1f77b4; stroke: #1f77b4"/>
     <use xlink:href="#m33b939e44e" x="299.197489" y="77.459249" style="fill: #1f77b4; stroke: #1f77b4"/>
     <use xlink:href="#m33b939e44e" x="302.444034" y="80.043257" style="fill: #1f77b4; stroke: #1f77b4"/>
     <use xlink:href="#m33b939e44e" x="305.69058" y="82.48762" style="fill: #1f77b4; stroke: #1f77b4"/>
     <use xlink:href="#m33b939e44e" x="308.937125" y="84.443612" style="fill: #1f77b4; stroke: #1f77b4"/>
     <use xlink:href="#m33b939e44e" x="312.18367" y="85.903558" style="fill: #1f77b4; stroke: #1f77b4"/>
     <use xlink:href="#m33b939e44e" x="315.430216" y="87.555109" style="fill: #1f77b4; stroke: #1f77b4"/>
     <use xlink:href="#m33b939e44e" x="318.676761" y="88.975993" style="fill: #1f77b4; stroke: #1f77b4"/>
     <use xlink:href="#m33b939e44e" x="321.923307" y="89.940264" style="fill: #1f77b4; stroke: #1f77b4"/>
     <use xlink:href="#m33b939e44e" x="325.169852" y="91.093234" style="fill: #1f77b4; stroke: #1f77b4"/>
     <use xlink:href="#m33b939e44e" x="328.416398" y="92.25621" style="fill: #1f77b4; stroke: #1f77b4"/>
     <use xlink:href="#m33b939e44e" x="331.662943" y="92.944732" style="fill: #1f77b4; stroke: #1f77b4"/>
     <use xlink:href="#m33b939e44e" x="334.909489" y="94.021424" style="fill: #1f77b4; stroke: #1f77b4"/>
     <use xlink:href="#m33b939e44e" x="338.156034" y="94.654167" style="fill: #1f77b4; stroke: #1f77b4"/>
     <use xlink:href="#m33b939e44e" x="341.40258" y="95.585648" style="fill: #1f77b4; stroke: #1f77b4"/>
     <use xlink:href="#m33b939e44e" x="344.649125" y="96.165505" style="fill: #1f77b4; stroke: #1f77b4"/>
     <use xlink:href="#m33b939e44e" x="347.89567" y="96.820881" style="fill: #1f77b4; stroke: #1f77b4"/>
     <use xlink:href="#m33b939e44e" x="351.142216" y="97.498846" style="fill: #1f77b4; stroke: #1f77b4"/>
     <use xlink:href="#m33b939e44e" x="354.388761" y="98.142579" style="fill: #1f77b4; stroke: #1f77b4"/>
     <use xlink:href="#m33b939e44e" x="357.635307" y="98.840263" style="fill: #1f77b4; stroke: #1f77b4"/>
     <use xlink:href="#m33b939e44e" x="360.881852" y="99.461176" style="fill: #1f77b4; stroke: #1f77b4"/>
     <use xlink:href="#m33b939e44e" x="364.128398" y="100.202645" style="fill: #1f77b4; stroke: #1f77b4"/>
     <use xlink:href="#m33b939e44e" x="367.374943" y="101.165237" style="fill: #1f77b4; stroke: #1f77b4"/>
     <use xlink:href="#m33b939e44e" x="370.621489" y="103.174957" style="fill: #1f77b4; stroke: #1f77b4"/>
     <use xlink:href="#m33b939e44e" x="373.868034" y="123.447678" style="fill: #1f77b4; stroke: #1f77b4"/>
     <use xlink:href="#m33b939e44e" x="377.11458" y="138.745553" style="fill: #1f77b4; stroke: #1f77b4"/>
     <use xlink:href="#m33b939e44e" x="380.361125" y="139.665627" style="fill: #1f77b4; stroke: #1f77b4"/>
     <use xlink:href="#m33b939e44e" x="383.60767" y="139.930542" style="fill: #1f77b4; stroke: #1f77b4"/>
     <use xlink:href="#m33b939e44e" x="386.854216" y="140.047508" style="fill: #1f77b4; stroke: #1f77b4"/>
     <use xlink:href="#m33b939e44e" x="390.100761" y="140.110514" style="fill: #1f77b4; stroke: #1f77b4"/>
     <use xlink:href="#m33b939e44e" x="393.347307" y="140.148665" style="fill: #1f77b4; stroke: #1f77b4"/>
     <use xlink:href="#m33b939e44e" x="396.593852" y="140.17363" style="fill: #1f77b4; stroke: #1f77b4"/>
     <use xlink:href="#m33b939e44e" x="399.840398" y="140.190899" style="fill: #1f77b4; stroke: #1f77b4"/>
    </g>
   </g>
   <g id="line2d_18">
    <path d="M 75.185852 140.321101 
L 78.432398 140.33837 
L 81.678943 140.363335 
L 84.925489 140.401486 
L 88.172034 140.464492 
L 91.41858 140.581458 
L 94.665125 140.846373 
L 97.91167 141.766447 
L 101.158216 157.064322 
L 104.404761 177.337043 
L 107.651307 179.346763 
L 110.897852 180.309355 
L 114.144398 181.050824 
L 117.390943 181.671737 
L 120.637489 182.369421 
L 123.884034 183.013154 
L 127.13058 183.691119 
L 130.377125 184.346495 
L 133.62367 184.926352 
L 136.870216 185.857833 
L 140.116761 186.490576 
L 143.363307 187.567268 
L 146.609852 188.25579 
L 149.856398 189.418766 
L 153.102943 190.571736 
L 156.349489 191.536007 
L 159.596034 192.956891 
L 162.84258 194.608442 
L 166.089125 196.068388 
L 169.33567 198.02438 
L 172.582216 200.468743 
L 175.828761 203.052751 
L 179.075307 206.71025 
L 182.321852 211.481124 
L 185.568398 218.500356 
L 188.814943 231.289891 
L 192.061489 261.216 
L 195.308034 223.856597 
L 198.55458 206.268658 
L 201.801125 195.151944 
L 205.04767 186.73761 
L 208.294216 179.931639 
L 211.540761 174.030286 
L 214.787307 168.856358 
L 218.033852 164.273208 
L 221.280398 159.777345 
L 224.526943 155.83952 
L 227.773489 151.988474 
L 231.020034 148.273787 
L 234.26658 144.986832 
L 237.513125 142.681393 
L 240.75967 144.986832 
L 244.006216 148.273787 
L 247.252761 151.988474 
L 250.499307 155.83952 
L 253.745852 159.777345 
L 256.992398 164.273208 
L 260.238943 168.856358 
L 263.485489 174.030286 
L 266.732034 179.931639 
L 269.97858 186.73761 
L 273.225125 195.151944 
L 276.47167 206.268658 
L 279.718216 223.856597 
L 282.964761 261.216 
L 286.211307 231.289891 
L 289.457852 218.500356 
L 292.704398 211.481124 
L 295.950943 206.71025 
L 299.197489 203.052751 
L 302.444034 200.468743 
L 305.69058 198.02438 
L 308.937125 196.068388 
L 312.18367 194.608442 
L 315.430216 192.956891 
L 318.676761 191.536007 
L 321.923307 190.571736 
L 325.169852 189.418766 
L 328.416398 188.25579 
L 331.662943 187.567268 
L 334.909489 186.490576 
L 338.156034 185.857833 
L 341.40258 184.926352 
L 344.649125 184.346495 
L 347.89567 183.691119 
L 351.142216 183.013154 
L 354.388761 182.369421 
L 357.635307 181.671737 
L 360.881852 181.050824 
L 364.128398 180.309355 
L 367.374943 179.346763 
L 370.621489 177.337043 
L 373.868034 157.064322 
L 377.11458 141.766447 
L 380.361125 140.846373 
L 383.60767 140.581458 
L 386.854216 140.464492 
L 390.100761 140.401486 
L 393.347307 140.363335 
L 396.593852 140.33837 
L 399.840398 140.321101 
" clip-path="url(#p39726979b6)" style="fill: none; stroke: #ff7f0e; stroke-width: 1.5; stroke-linecap: square"/>
    <defs>
     <path id="m61df7bbe15" d="M 0 1.5 
C 0.397805 1.5 0.77937 1.341951 1.06066 1.06066 
C 1.341951 0.77937 1.5 0.397805 1.5 0 
C 1.5 -0.397805 1.341951 -0.77937 1.06066 -1.06066 
C 0.77937 -1.341951 0.397805 -1.5 0 -1.5 
C -0.397805 -1.5 -0.77937 -1.341951 -1.06066 -1.06066 
C -1.341951 -0.77937 -1.5 -0.397805 -1.5 0 
C -1.5 0.397805 -1.341951 0.77937 -1.06066 1.06066 
C -0.77937 1.341951 -0.397805 1.5 0 1.5 
z
" style="stroke: #ff7f0e"/>
    </defs>
    <g clip-path="url(#p39726979b6)">
     <use xlink:href="#m61df7bbe15" x="75.185852" y="140.321101" style="fill: #ff7f0e; stroke: #ff7f0e"/>
     <use xlink:href="#m61df7bbe15" x="78.432398" y="140.33837" style="fill: #ff7f0e; stroke: #ff7f0e"/>
     <use xlink:href="#m61df7bbe15" x="81.678943" y="140.363335" style="fill: #ff7f0e; stroke: #ff7f0e"/>
     <use xlink:href="#m61df7bbe15" x="84.925489" y="140.401486" style="fill: #ff7f0e; stroke: #ff7f0e"/>
     <use xlink:href="#m61df7bbe15" x="88.172034" y="140.464492" style="fill: #ff7f0e; stroke: #ff7f0e"/>
     <use xlink:href="#m61df7bbe15" x="91.41858" y="140.581458" style="fill: #ff7f0e; stroke: #ff7f0e"/>
     <use xlink:href="#m61df7bbe15" x="94.665125" y="140.846373" style="fill: #ff7f0e; stroke: #ff7f0e"/>
     <use xlink:href="#m61df7bbe15" x="97.91167" y="141.766447" style="fill: #ff7f0e; stroke: #ff7f0e"/>
     <use xlink:href="#m61df7bbe15" x="101.158216" y="157.064322" style="fill: #ff7f0e; stroke: #ff7f0e"/>
     <use xlink:href="#m61df7bbe15" x="104.404761" y="177.337043" style="fill: #ff7f0e; stroke: #ff7f0e"/>
     <use xlink:href="#m61df7bbe15" x="107.651307" y="179.346763" style="fill: #ff7f0e; stroke: #ff7f0e"/>
     <use xlink:href="#m61df7bbe15" x="110.897852" y="180.309355" style="fill: #ff7f0e; stroke: #ff7f0e"/>
     <use xlink:href="#m61df7bbe15" x="114.144398" y="181.050824" style="fill: #ff7f0e; stroke: #ff7f0e"/>
     <use xlink:href="#m61df7bbe15" x="117.390943" y="181.671737" style="fill: #ff7f0e; stroke: #ff7f0e"/>
     <use xlink:href="#m61df7bbe15" x="120.637489" y="182.369421" style="fill: #ff7f0e; stroke: #ff7f0e"/>
     <use xlink:href="#m61df7bbe15" x="123.884034" y="183.013154" style="fill: #ff7f0e; stroke: #ff7f0e"/>
     <use xlink:href="#m61df7bbe15" x="127.13058" y="183.691119" style="fill: #ff7f0e; stroke: #ff7f0e"/>
     <use xlink:href="#m61df7bbe15" x="130.377125" y="184.346495" style="fill: #ff7f0e; stroke: #ff7f0e"/>
     <use xlink:href="#m61df7bbe15" x="133.62367" y="184.926352" style="fill: #ff7f0e; stroke: #ff7f0e"/>
     <use xlink:href="#m61df7bbe15" x="136.870216" y="185.857833" style="fill: #ff7f0e; stroke: #ff7f0e"/>
     <use xlink:href="#m61df7bbe15" x="140.116761" y="186.490576" style="fill: #ff7f0e; stroke: #ff7f0e"/>
     <use xlink:href="#m61df7bbe15" x="143.363307" y="187.567268" style="fill: #ff7f0e; stroke: #ff7f0e"/>
     <use xlink:href="#m61df7bbe15" x="146.609852" y="188.25579" style="fill: #ff7f0e; stroke: #ff7f0e"/>
     <use xlink:href="#m61df7bbe15" x="149.856398" y="189.418766" style="fill: #ff7f0e; stroke: #ff7f0e"/>
     <use xlink:href="#m61df7bbe15" x="153.102943" y="190.571736" style="fill: #ff7f0e; stroke: #ff7f0e"/>
     <use xlink:href="#m61df7bbe15" x="156.349489" y="191.536007" style="fill: #ff7f0e; stroke: #ff7f0e"/>
     <use xlink:href="#m61df7bbe15" x="159.596034" y="192.956891" style="fill: #ff7f0e; stroke: #ff7f0e"/>
     <use xlink:href="#m61df7bbe15" x="162.84258" y="194.608442" style="fill: #ff7f0e; stroke: #ff7f0e"/>
     <use xlink:href="#m61df7bbe15" x="166.089125" y="196.068388" style="fill: #ff7f0e; stroke: #ff7f0e"/>
     <use xlink:href="#m61df7bbe15" x="169.33567" y="198.02438" style="fill: #ff7f0e; stroke: #ff7f0e"/>
     <use xlink:href="#m61df7bbe15" x="172.582216" y="200.468743" style="fill: #ff7f0e; stroke: #ff7f0e"/>
     <use xlink:href="#m61df7bbe15" x="175.828761" y="203.052751" style="fill: #ff7f0e; stroke: #ff7f0e"/>
     <use xlink:href="#m61df7bbe15" x="179.075307" y="206.71025" style="fill: #ff7f0e; stroke: #ff7f0e"/>
     <use xlink:href="#m61df7bbe15" x="182.321852" y="211.481124" style="fill: #ff7f0e; stroke: #ff7f0e"/>
     <use xlink:href="#m61df7bbe15" x="185.568398" y="218.500356" style="fill: #ff7f0e; stroke: #ff7f0e"/>
     <use xlink:href="#m61df7bbe15" x="188.814943" y="231.289891" style="fill: #ff7f0e; stroke: #ff7f0e"/>
     <use xlink:href="#m61df7bbe15" x="192.061489" y="261.216" style="fill: #ff7f0e; stroke: #ff7f0e"/>
     <use xlink:href="#m61df7bbe15" x="195.308034" y="223.856597" style="fill: #ff7f0e; stroke: #ff7f0e"/>
     <use xlink:href="#m61df7bbe15" x="198.55458" y="206.268658" style="fill: #ff7f0e; stroke: #ff7f0e"/>
     <use xlink:href="#m61df7bbe15" x="201.801125" y="195.151944" style="fill: #ff7f0e; stroke: #ff7f0e"/>
     <use xlink:href="#m61df7bbe15" x="205.04767" y="186.73761" style="fill: #ff7f0e; stroke: #ff7f0e"/>
     <use xlink:href="#m61df7bbe15" x="208.294216" y="179.931639" style="fill: #ff7f0e; stroke: #ff7f0e"/>
     <use xlink:href="#m61df7bbe15" x="211.540761" y="174.030286" style="fill: #ff7f0e; stroke: #ff7f0e"/>
     <use xlink:href="#m61df7bbe15" x="214.787307" y="168.856358" style="fill: #ff7f0e; stroke: #ff7f0e"/>
     <use xlink:href="#m61df7bbe15" x="218.033852" y="164.273208" style="fill: #ff7f0e; stroke: #ff7f0e"/>
     <use xlink:href="#m61df7bbe15" x="221.280398" y="159.777345" style="fill: #ff7f0e; stroke: #ff7f0e"/>
     <use xlink:href="#m61df7bbe15" x="224.526943" y="155.83952" style="fill: #ff7f0e; stroke: #ff7f0e"/>
     <use xlink:href="#m61df7bbe15" x="227.773489" y="151.988474" style="fill: #ff7f0e; stroke: #ff7f0e"/>
     <use xlink:href="#m61df7bbe15" x="231.020034" y="148.273787" style="fill: #ff7f0e; stroke: #ff7f0e"/>
     <use xlink:href="#m61df7bbe15" x="234.26658" y="144.986832" style="fill: #ff7f0e; stroke: #ff7f0e"/>
     <use xlink:href="#m61df7bbe15" x="237.513125" y="142.681393" style="fill: #ff7f0e; stroke: #ff7f0e"/>
     <use xlink:href="#m61df7bbe15" x="240.75967" y="144.986832" style="fill: #ff7f0e; stroke: #ff7f0e"/>
     <use xlink:href="#m61df7bbe15" x="244.006216" y="148.273787" style="fill: #ff7f0e; stroke: #ff7f0e"/>
     <use xlink:href="#m61df7bbe15" x="247.252761" y="151.988474" style="fill: #ff7f0e; stroke: #ff7f0e"/>
     <use xlink:href="#m61df7bbe15" x="250.499307" y="155.83952" style="fill: #ff7f0e; stroke: #ff7f0e"/>
     <use xlink:href="#m61df7bbe15" x="253.745852" y="159.777345" style="fill: #ff7f0e; stroke: #ff7f0e"/>
     <use xlink:href="#m61df7bbe15" x="256.992398" y="164.273208" style="fill: #ff7f0e; stroke: #ff7f0e"/>
     <use xlink:href="#m61df7bbe15" x="260.238943" y="168.856358" style="fill: #ff7f0e; stroke: #ff7f0e"/>
     <use xlink:href="#m61df7bbe15" x="263.485489" y="174.030286" style="fill: #ff7f0e; stroke: #ff7f0e"/>
     <use xlink:href="#m61df7bbe15" x="266.732034" y="179.931639" style="fill: #ff7f0e; stroke: #ff7f0e"/>
     <use xlink:href="#m61df7bbe15" x="269.97858" y="186.73761" style="fill: #ff7f0e; stroke: #ff7f0e"/>
     <use xlink:href="#m61df7bbe15" x="273.225125" y="195.151944" style="fill: #ff7f0e; stroke: #ff7f0e"/>
     <use xlink:href="#m61df7bbe15" x="276.47167" y="206.268658" style="fill: #ff7f0e; stroke: #ff7f0e"/>
     <use xlink:href="#m61df7bbe15" x="279.718216" y="223.856597" style="fill: #ff7f0e; stroke: #ff7f0e"/>
     <use xlink:href="#m61df7bbe15" x="282.964761" y="261.216" style="fill: #ff7f0e; stroke: #ff7f0e"/>
     <use xlink:href="#m61df7bbe15" x="286.211307" y="231.289891" style="fill: #ff7f0e; stroke: #ff7f0e"/>
     <use xlink:href="#m61df7bbe15" x="289.457852" y="218.500356" style="fill: #ff7f0e; stroke: #ff7f0e"/>
     <use xlink:href="#m61df7bbe15" x="292.704398" y="211.481124" style="fill: #ff7f0e; stroke: #ff7f0e"/>
     <use xlink:href="#m61df7bbe15" x="295.950943" y="206.71025" style="fill: #ff7f0e; stroke: #ff7f0e"/>
     <use xlink:href="#m61df7bbe15" x="299.197489" y="203.052751" style="fill: #ff7f0e; stroke: #ff7f0e"/>
     <use xlink:href="#m61df7bbe15" x="302.444034" y="200.468743" style="fill: #ff7f0e; stroke: #ff7f0e"/>
     <use xlink:href="#m61df7bbe15" x="305.69058" y="198.02438" style="fill: #ff7f0e; stroke: #ff7f0e"/>
     <use xlink:href="#m61df7bbe15" x="308.937125" y="196.068388" style="fill: #ff7f0e; stroke: #ff7f0e"/>
     <use xlink:href="#m61df7bbe15" x="312.18367" y="194.608442" style="fill: #ff7f0e; stroke: #ff7f0e"/>
     <use xlink:href="#m61df7bbe15" x="315.430216" y="192.956891" style="fill: #ff7f0e; stroke: #ff7f0e"/>
     <use xlink:href="#m61df7bbe15" x="318.676761" y="191.536007" style="fill: #ff7f0e; stroke: #ff7f0e"/>
     <use xlink:href="#m61df7bbe15" x="321.923307" y="190.571736" style="fill: #ff7f0e; stroke: #ff7f0e"/>
     <use xlink:href="#m61df7bbe15" x="325.169852" y="189.418766" style="fill: #ff7f0e; stroke: #ff7f0e"/>
     <use xlink:href="#m61df7bbe15" x="328.416398" y="188.25579" style="fill: #ff7f0e; stroke: #ff7f0e"/>
     <use xlink:href="#m61df7bbe15" x="331.662943" y="187.567268" style="fill: #ff7f0e; stroke: #ff7f0e"/>
     <use xlink:href="#m61df7bbe15" x="334.909489" y="186.490576" style="fill: #ff7f0e; stroke: #ff7f0e"/>
     <use xlink:href="#m61df7bbe15" x="338.156034" y="185.857833" style="fill: #ff7f0e; stroke: #ff7f0e"/>
     <use xlink:href="#m61df7bbe15" x="341.40258" y="184.926352" style="fill: #ff7f0e; stroke: #ff7f0e"/>
     <use xlink:href="#m61df7bbe15" x="344.649125" y="184.346495" style="fill: #ff7f0e; stroke: #ff7f0e"/>
     <use xlink:href="#m61df7bbe15" x="347.89567" y="183.691119" style="fill: #ff7f0e; stroke: #ff7f0e"/>
     <use xlink:href="#m61df7bbe15" x="351.142216" y="183.013154" style="fill: #ff7f0e; stroke: #ff7f0e"/>
     <use xlink:href="#m61df7bbe15" x="354.388761" y="182.369421" style="fill: #ff7f0e; stroke: #ff7f0e"/>
     <use xlink:href="#m61df7bbe15" x="357.635307" y="181.671737" style="fill: #ff7f0e; stroke: #ff7f0e"/>
     <use xlink:href="#m61df7bbe15" x="360.881852" y="181.050824" style="fill: #ff7f0e; stroke: #ff7f0e"/>
     <use xlink:href="#m61df7bbe15" x="364.128398" y="180.309355" style="fill: #ff7f0e; stroke: #ff7f0e"/>
     <use xlink:href="#m61df7bbe15" x="367.374943" y="179.346763" style="fill: #ff7f0e; stroke: #ff7f0e"/>
     <use xlink:href="#m61df7bbe15" x="370.621489" y="177.337043" style="fill: #ff7f0e; stroke: #ff7f0e"/>
     <use xlink:href="#m61df7bbe15" x="373.868034" y="157.064322" style="fill: #ff7f0e; stroke: #ff7f0e"/>
     <use xlink:href="#m61df7bbe15" x="377.11458" y="141.766447" style="fill: #ff7f0e; stroke: #ff7f0e"/>
     <use xlink:href="#m61df7bbe15" x="380.361125" y="140.846373" style="fill: #ff7f0e; stroke: #ff7f0e"/>
     <use xlink:href="#m61df7bbe15" x="383.60767" y="140.581458" style="fill: #ff7f0e; stroke: #ff7f0e"/>
     <use xlink:href="#m61df7bbe15" x="386.854216" y="140.464492" style="fill: #ff7f0e; stroke: #ff7f0e"/>
     <use xlink:href="#m61df7bbe15" x="390.100761" y="140.401486" style="fill: #ff7f0e; stroke: #ff7f0e"/>
     <use xlink:href="#m61df7bbe15" x="393.347307" y="140.363335" style="fill: #ff7f0e; stroke: #ff7f0e"/>
     <use xlink:href="#m61df7bbe15" x="396.593852" y="140.33837" style="fill: #ff7f0e; stroke: #ff7f0e"/>
     <use xlink:href="#m61df7bbe15" x="399.840398" y="140.321101" style="fill: #ff7f0e; stroke: #ff7f0e"/>
    </g>
   </g>
   <g id="patch_3">
    <path d="M 58.953125 273.312 
L 58.953125 7.2 
" style="fill: none; stroke: #000000; stroke-width: 0.8; stroke-linejoin: miter; stroke-linecap: square"/>
   </g>
   <g id="patch_4">
    <path d="M 416.073125 273.312 
L 416.073125 7.2 
" style="fill: none; stroke: #000000; stroke-width: 0.8; stroke-linejoin: miter; stroke-linecap: square"/>
   </g>
   <g id="patch_5">
    <path d="M 58.953125 273.312 
L 416.073125 273.312 
" style="fill: none; stroke: #000000; stroke-width: 0.8; stroke-linejoin: miter; stroke-linecap: square"/>
   </g>
   <g id="patch_6">
    <path d="M 58.953125 7.2 
L 416.073125 7.2 
" style="fill: none; stroke: #000000; stroke-width: 0.8; stroke-linejoin: miter; stroke-linecap: square"/>
   </g>
   <g id="legend_1">
    <g id="patch_7">
     <path d="M 307.75625 52.0275 
L 407.673125 52.0275 
Q 410.073125 52.0275 410.073125 49.6275 
L 410.073125 15.6 
Q 410.073125 13.2 407.673125 13.2 
L 307.75625 13.2 
Q 305.35625 13.2 305.35625 15.6 
L 305.35625 49.6275 
Q 305.35625 52.0275 307.75625 52.0275 
z
" style="fill: #ffffff; opacity: 0.8; stroke: #cccccc; stroke-linejoin: miter"/>
    </g>
    <g id="line2d_19">
     <path d="M 310.15625 22.918125 
L 322.15625 22.918125 
L 334.15625 22.918125 
" style="fill: none; stroke: #1f77b4; stroke-width: 1.5; stroke-linecap: square"/>
     <g>
      <use xlink:href="#m33b939e44e" x="322.15625" y="22.918125" style="fill: #1f77b4; stroke: #1f77b4"/>
     </g>
    </g>
    <g id="text_19">
     <!-- spin-up -->
     <g transform="translate(343.75625 27.118125) scale(0.12 -0.12)">
      <defs>
       <path id="DejaVuSans-73" d="M 2834 3397 
L 2834 2853 
Q 2591 2978 2328 3040 
Q 2066 3103 1784 3103 
Q 1356 3103 1142 2972 
Q 928 2841 928 2578 
Q 928 2378 1081 2264 
Q 1234 2150 1697 2047 
L 1894 2003 
Q 2506 1872 2764 1633 
Q 3022 1394 3022 966 
Q 3022 478 2636 193 
Q 2250 -91 1575 -91 
Q 1294 -91 989 -36 
Q 684 19 347 128 
L 347 722 
Q 666 556 975 473 
Q 1284 391 1588 391 
Q 1994 391 2212 530 
Q 2431 669 2431 922 
Q 2431 1156 2273 1281 
Q 2116 1406 1581 1522 
L 1381 1569 
Q 847 1681 609 1914 
Q 372 2147 372 2553 
Q 372 3047 722 3315 
Q 1072 3584 1716 3584 
Q 2034 3584 2315 3537 
Q 2597 3491 2834 3397 
z
" transform="scale(0.015625)"/>
       <path id="DejaVuSans-70" d="M 1159 525 
L 1159 -1331 
L 581 -1331 
L 581 3500 
L 1159 3500 
L 1159 2969 
Q 1341 3281 1617 3432 
Q 1894 3584 2278 3584 
Q 2916 3584 3314 3078 
Q 3713 2572 3713 1747 
Q 3713 922 3314 415 
Q 2916 -91 2278 -91 
Q 1894 -91 1617 61 
Q 1341 213 1159 525 
z
M 3116 1747 
Q 3116 2381 2855 2742 
Q 2594 3103 2138 3103 
Q 1681 3103 1420 2742 
Q 1159 2381 1159 1747 
Q 1159 1113 1420 752 
Q 1681 391 2138 391 
Q 2594 391 2855 752 
Q 3116 1113 3116 1747 
z
" transform="scale(0.015625)"/>
       <path id="DejaVuSans-69" d="M 603 3500 
L 1178 3500 
L 1178 0 
L 603 0 
L 603 3500 
z
M 603 4863 
L 1178 4863 
L 1178 4134 
L 603 4134 
L 603 4863 
z
" transform="scale(0.015625)"/>
       <path id="DejaVuSans-2d" d="M 313 2009 
L 1997 2009 
L 1997 1497 
L 313 1497 
L 313 2009 
z
" transform="scale(0.015625)"/>
       <path id="DejaVuSans-75" d="M 544 1381 
L 544 3500 
L 1119 3500 
L 1119 1403 
Q 1119 906 1312 657 
Q 1506 409 1894 409 
Q 2359 409 2629 706 
Q 2900 1003 2900 1516 
L 2900 3500 
L 3475 3500 
L 3475 0 
L 2900 0 
L 2900 538 
Q 2691 219 2414 64 
Q 2138 -91 1772 -91 
Q 1169 -91 856 284 
Q 544 659 544 1381 
z
M 1991 3584 
L 1991 3584 
z
" transform="scale(0.015625)"/>
      </defs>
      <use xlink:href="#DejaVuSans-73"/>
      <use xlink:href="#DejaVuSans-70" x="52.099609"/>
      <use xlink:href="#DejaVuSans-69" x="115.576172"/>
      <use xlink:href="#DejaVuSans-6e" x="143.359375"/>
      <use xlink:href="#DejaVuSans-2d" x="206.738281"/>
      <use xlink:href="#DejaVuSans-75" x="242.822266"/>
      <use xlink:href="#DejaVuSans-70" x="306.201172"/>
     </g>
    </g>
    <g id="line2d_20">
     <path d="M 310.15625 40.531875 
L 322.15625 40.531875 
L 334.15625 40.531875 
" style="fill: none; stroke: #ff7f0e; stroke-width: 1.5; stroke-linecap: square"/>
     <g>
      <use xlink:href="#m61df7bbe15" x="322.15625" y="40.531875" style="fill: #ff7f0e; stroke: #ff7f0e"/>
     </g>
    </g>
    <g id="text_20">
     <!-- spin-down -->
     <g transform="translate(343.75625 44.731875) scale(0.12 -0.12)">
      <defs>
       <path id="DejaVuSans-64" d="M 2906 2969 
L 2906 4863 
L 3481 4863 
L 3481 0 
L 2906 0 
L 2906 525 
Q 2725 213 2448 61 
Q 2172 -91 1784 -91 
Q 1150 -91 751 415 
Q 353 922 353 1747 
Q 353 2572 751 3078 
Q 1150 3584 1784 3584 
Q 2172 3584 2448 3432 
Q 2725 3281 2906 2969 
z
M 947 1747 
Q 947 1113 1208 752 
Q 1469 391 1925 391 
Q 2381 391 2643 752 
Q 2906 1113 2906 1747 
Q 2906 2381 2643 2742 
Q 2381 3103 1925 3103 
Q 1469 3103 1208 2742 
Q 947 2381 947 1747 
z
" transform="scale(0.015625)"/>
       <path id="DejaVuSans-6f" d="M 1959 3097 
Q 1497 3097 1228 2736 
Q 959 2375 959 1747 
Q 959 1119 1226 758 
Q 1494 397 1959 397 
Q 2419 397 2687 759 
Q 2956 1122 2956 1747 
Q 2956 2369 2687 2733 
Q 2419 3097 1959 3097 
z
M 1959 3584 
Q 2709 3584 3137 3096 
Q 3566 2609 3566 1747 
Q 3566 888 3137 398 
Q 2709 -91 1959 -91 
Q 1206 -91 779 398 
Q 353 888 353 1747 
Q 353 2609 779 3096 
Q 1206 3584 1959 3584 
z
" transform="scale(0.015625)"/>
       <path id="DejaVuSans-77" d="M 269 3500 
L 844 3500 
L 1563 769 
L 2278 3500 
L 2956 3500 
L 3675 769 
L 4391 3500 
L 4966 3500 
L 4050 0 
L 3372 0 
L 2619 2869 
L 1863 0 
L 1184 0 
L 269 3500 
z
" transform="scale(0.015625)"/>
      </defs>
      <use xlink:href="#DejaVuSans-73"/>
      <use xlink:href="#DejaVuSans-70" x="52.099609"/>
      <use xlink:href="#DejaVuSans-69" x="115.576172"/>
      <use xlink:href="#DejaVuSans-6e" x="143.359375"/>
      <use xlink:href="#DejaVuSans-2d" x="206.738281"/>
      <use xlink:href="#DejaVuSans-64" x="242.822266"/>
      <use xlink:href="#DejaVuSans-6f" x="306.298828"/>
      <use xlink:href="#DejaVuSans-77" x="367.480469"/>
      <use xlink:href="#DejaVuSans-6e" x="449.267578"/>
     </g>
    </g>
   </g>
  </g>
 </g>
 <defs>
  <clipPath id="p39726979b6">
   <rect x="58.953125" y="7.2" width="357.12" height="266.112"/>
  </clipPath>
 </defs>
</svg>