<?xml version="1.0" encoding="utf-8" standalone="no"?>
<!DOCTYPE svg PUBLIC "-//W3C//DTD SVG 1.1//EN"
  "http://www.w3.org/Graphics/SVG/1.1/DTD/svg11.dtd">
<svg xmlns:xlink="http://www.w3.org/1999/xlink" width="430.908125pt" height="314.7395pt" viewBox="0 0 430.908125 314.7395" xmlns="http://www.w3.org/2000/svg" version="1.1">
 <metadata>
  <rdf:RDF xmlns:dc="http://purl.org/dc/elements/1.1/" xmlns:cc="http://creativecommons.org/ns#" xmlns:rdf="http://www.w3.org/1999/02/22-rdf-syntax-ns#">
   <cc:Work>
    <dc:type rdf:resource="http://purl.org/dc/dcmitype/StillImage"/>
    <dc:date>2024-08-15T20:38:55.445654</dc:date>
    <dc:format>image/svg+xml</dc:format>
    <dc:creator>
     <cc:Agent>
      <dc:title>Matplotlib v3.7.2, https://matplotlib.org/</dc:title>
     </cc:Agent>
    </dc:creator>
   </cc:Work>
  </rdf:RDF>
 </metadata>
 <defs>
  <style type="text/css">*{stroke-linejoin: round; stroke-linecap: butt}</style>
 </defs>
 <g id="figure_1">
  <g id="patch_1">
   <path d="M 0 314.7395 
L 430.908125 314.7395 
L 430.908125 0 
L 0 0 
z
" style="fill: #ffffff"/>
  </g>
  <g id="axes_1">
   <g id="patch_2">
    <path d="M 66.588125 273.312 
L 423.708125 273.312 
L 423.708125 7.2 
L 66.588125 7.2 
z
" style="fill: #ffffff"/>
   </g>
   <g id="matplotlib.axis_1">
    <g id="xtick_1">
     <g id="line2d_1">
      <defs>
       <path id="mf8cdcfd60a" d="M 0 0 
L 0 3.5 
" style="stroke: #000000; stroke-width: 0.8"/>
      </defs>
      <g>
       <use xlink:href="#mf8cdcfd60a" x="112.334902" y="273.312" style="stroke: #000000; stroke-width: 0.8"/>
      </g>
     </g>
     <g id="text_1">
      <!-- 5 -->
      <g transform="translate(108.517402 289.430125) scale(0.12 -0.12)">
       <defs>
        <path id="DejaVuSans-35" d="M 691 4666 
L 3169 4666 
L 3169 4134 
L 1269 4134 
L 1269 2991 
Q 1406 3038 1543 3061 
Q 1681 3084 1819 3084 
Q 2600 3084 3056 2656 
Q 3513 2228 3513 1497 
Q 3513 744 3044 326 
Q 2575 -91 1722 -91 
Q 1428 -91 1123 -41 
Q 819 9 494 109 
L 494 744 
Q 775 591 1075 516 
Q 1375 441 1709 441 
Q 2250 441 2565 725 
Q 2881 1009 2881 1497 
Q 2881 1984 2565 2268 
Q 2250 2553 1709 2553 
Q 1456 2553 1204 2497 
Q 953 2441 691 2322 
L 691 4666 
z
" transform="scale(0.015625)"/>
       </defs>
       <use xlink:href="#DejaVuSans-35"/>
      </g>
     </g>
    </g>
    <g id="xtick_2">
     <g id="line2d_2">
      <g>
       <use xlink:href="#mf8cdcfd60a" x="186.120026" y="273.312" style="stroke: #000000; stroke-width: 0.8"/>
      </g>
     </g>
     <g id="text_2">
      <!-- 10 -->
      <g transform="translate(178.485026 289.430125) scale(0.12 -0.12)">
       <defs>
        <path id="DejaVuSans-31" d="M 794 531 
L 1825 531 
L 1825 4091 
L 703 3866 
L 703 4441 
L 1819 4666 
L 2450 4666 
L 2450 531 
L 3481 531 
L 3481 0 
L 794 0 
L 794 531 
z
" transform="scale(0.015625)"/>
        <path id="DejaVuSans-30" d="M 2034 4250 
Q 1547 4250 1301 3770 
Q 1056 3291 1056 2328 
Q 1056 1369 1301 889 
Q 1547 409 2034 409 
Q 2525 409 2770 889 
Q 3016 1369 3016 2328 
Q 3016 3291 2770 3770 
Q 2525 4250 2034 4250 
z
M 2034 4750 
Q 2819 4750 3233 4129 
Q 3647 3509 3647 2328 
Q 3647 1150 3233 529 
Q 2819 -91 2034 -91 
Q 1250 -91 836 529 
Q 422 1150 422 2328 
Q 422 3509 836 4129 
Q 1250 4750 2034 4750 
z
" transform="scale(0.015625)"/>
       </defs>
       <use xlink:href="#DejaVuSans-31"/>
       <use xlink:href="#DejaVuSans-30" x="63.623047"/>
      </g>
     </g>
    </g>
    <g id="xtick_3">
     <g id="line2d_3">
      <g>
       <use xlink:href="#mf8cdcfd60a" x="259.90515" y="273.312" style="stroke: #000000; stroke-width: 0.8"/>
      </g>
     </g>
     <g id="text_3">
      <!-- 15 -->
      <g transform="translate(252.27015 289.430125) scale(0.12 -0.12)">
       <use xlink:href="#DejaVuSans-31"/>
       <use xlink:href="#DejaVuSans-35" x="63.623047"/>
      </g>
     </g>
    </g>
    <g id="xtick_4">
     <g id="line2d_4">
      <g>
       <use xlink:href="#mf8cdcfd60a" x="333.690274" y="273.312" style="stroke: #000000; stroke-width: 0.8"/>
      </g>
     </g>
     <g id="text_4">
      <!-- 20 -->
      <g transform="translate(326.055274 289.430125) scale(0.12 -0.12)">
       <defs>
        <path id="DejaVuSans-32" d="M 1228 531 
L 3431 531 
L 3431 0 
L 469 0 
L 469 531 
Q 828 903 1448 1529 
Q 2069 2156 2228 2338 
Q 2531 2678 2651 2914 
Q 2772 3150 2772 3378 
Q 2772 3750 2511 3984 
Q 2250 4219 1831 4219 
Q 1534 4219 1204 4116 
Q 875 4013 500 3803 
L 500 4441 
Q 881 4594 1212 4672 
Q 1544 4750 1819 4750 
Q 2544 4750 2975 4387 
Q 3406 4025 3406 3419 
Q 3406 3131 3298 2873 
Q 3191 2616 2906 2266 
Q 2828 2175 2409 1742 
Q 1991 1309 1228 531 
z
" transform="scale(0.015625)"/>
       </defs>
       <use xlink:href="#DejaVuSans-32"/>
       <use xlink:href="#DejaVuSans-30" x="63.623047"/>
      </g>
     </g>
    </g>
    <g id="xtick_5">
     <g id="line2d_5">
      <g>
       <use xlink:href="#mf8cdcfd60a" x="407.475398" y="273.312" style="stroke: #000000; stroke-width: 0.8"/>
      </g>
     </g>
     <g id="text_5">
      <!-- 25 -->
      <g transform="translate(399.840398 289.430125) scale(0.12 -0.12)">
       <use xlink:href="#DejaVuSans-32"/>
       <use xlink:href="#DejaVuSans-35" x="63.623047"/>
      </g>
     </g>
    </g>
    <g id="text_6">
     <!-- Interface (#) -->
     <g transform="translate(206.668438 305.043875) scale(0.12 -0.12)">
      <defs>
       <path id="DejaVuSans-49" d="M 628 4666 
L 1259 4666 
L 1259 0 
L 628 0 
L 628 4666 
z
" transform="scale(0.015625)"/>
       <path id="DejaVuSans-6e" d="M 3513 2113 
L 3513 0 
L 2938 0 
L 2938 2094 
Q 2938 2591 2744 2837 
Q 2550 3084 2163 3084 
Q 1697 3084 1428 2787 
Q 1159 2491 1159 1978 
L 1159 0 
L 581 0 
L 581 3500 
L 1159 3500 
L 1159 2956 
Q 1366 3272 1645 3428 
Q 1925 3584 2291 3584 
Q 2894 3584 3203 3211 
Q 3513 2838 3513 2113 
z
" transform="scale(0.015625)"/>
       <path id="DejaVuSans-74" d="M 1172 4494 
L 1172 3500 
L 2356 3500 
L 2356 3053 
L 1172 3053 
L 1172 1153 
Q 1172 725 1289 603 
Q 1406 481 1766 481 
L 2356 481 
L 2356 0 
L 1766 0 
Q 1100 0 847 248 
Q 594 497 594 1153 
L 594 3053 
L 172 3053 
L 172 3500 
L 594 3500 
L 594 4494 
L 1172 4494 
z
" transform="scale(0.015625)"/>
       <path id="DejaVuSans-65" d="M 3597 1894 
L 3597 1613 
L 953 1613 
Q 991 1019 1311 708 
Q 1631 397 2203 397 
Q 2534 397 2845 478 
Q 3156 559 3463 722 
L 3463 178 
Q 3153 47 2828 -22 
Q 2503 -91 2169 -91 
Q 1331 -91 842 396 
Q 353 884 353 1716 
Q 353 2575 817 3079 
Q 1281 3584 2069 3584 
Q 2775 3584 3186 3129 
Q 3597 2675 3597 1894 
z
M 3022 2063 
Q 3016 2534 2758 2815 
Q 2500 3097 2075 3097 
Q 1594 3097 1305 2825 
Q 1016 2553 972 2059 
L 3022 2063 
z
" transform="scale(0.015625)"/>
       <path id="DejaVuSans-72" d="M 2631 2963 
Q 2534 3019 2420 3045 
Q 2306 3072 2169 3072 
Q 1681 3072 1420 2755 
Q 1159 2438 1159 1844 
L 1159 0 
L 581 0 
L 581 3500 
L 1159 3500 
L 1159 2956 
Q 1341 3275 1631 3429 
Q 1922 3584 2338 3584 
Q 2397 3584 2469 3576 
Q 2541 3569 2628 3553 
L 2631 2963 
z
" transform="scale(0.015625)"/>
       <path id="DejaVuSans-66" d="M 2375 4863 
L 2375 4384 
L 1825 4384 
Q 1516 4384 1395 4259 
Q 1275 4134 1275 3809 
L 1275 3500 
L 2222 3500 
L 2222 3053 
L 1275 3053 
L 1275 0 
L 697 0 
L 697 3053 
L 147 3053 
L 147 3500 
L 697 3500 
L 697 3744 
Q 697 4328 969 4595 
Q 1241 4863 1831 4863 
L 2375 4863 
z
" transform="scale(0.015625)"/>
       <path id="DejaVuSans-61" d="M 2194 1759 
Q 1497 1759 1228 1600 
Q 959 1441 959 1056 
Q 959 750 1161 570 
Q 1363 391 1709 391 
Q 2188 391 2477 730 
Q 2766 1069 2766 1631 
L 2766 1759 
L 2194 1759 
z
M 3341 1997 
L 3341 0 
L 2766 0 
L 2766 531 
Q 2569 213 2275 61 
Q 1981 -91 1556 -91 
Q 1019 -91 701 211 
Q 384 513 384 1019 
Q 384 1609 779 1909 
Q 1175 2209 1959 2209 
L 2766 2209 
L 2766 2266 
Q 2766 2663 2505 2880 
Q 2244 3097 1772 3097 
Q 1472 3097 1187 3025 
Q 903 2953 641 2809 
L 641 3341 
Q 956 3463 1253 3523 
Q 1550 3584 1831 3584 
Q 2591 3584 2966 3190 
Q 3341 2797 3341 1997 
z
" transform="scale(0.015625)"/>
       <path id="DejaVuSans-63" d="M 3122 3366 
L 3122 2828 
Q 2878 2963 2633 3030 
Q 2388 3097 2138 3097 
Q 1578 3097 1268 2742 
Q 959 2388 959 1747 
Q 959 1106 1268 751 
Q 1578 397 2138 397 
Q 2388 397 2633 464 
Q 2878 531 3122 666 
L 3122 134 
Q 2881 22 2623 -34 
Q 2366 -91 2075 -91 
Q 1284 -91 818 406 
Q 353 903 353 1747 
Q 353 2603 823 3093 
Q 1294 3584 2113 3584 
Q 2378 3584 2631 3529 
Q 2884 3475 3122 3366 
z
" transform="scale(0.015625)"/>
       <path id="DejaVuSans-20" transform="scale(0.015625)"/>
       <path id="DejaVuSans-28" d="M 1984 4856 
Q 1566 4138 1362 3434 
Q 1159 2731 1159 2009 
Q 1159 1288 1364 580 
Q 1569 -128 1984 -844 
L 1484 -844 
Q 1016 -109 783 600 
Q 550 1309 550 2009 
Q 550 2706 781 3412 
Q 1013 4119 1484 4856 
L 1984 4856 
z
" transform="scale(0.015625)"/>
       <path id="DejaVuSans-23" d="M 3272 2816 
L 2363 2816 
L 2100 1772 
L 3016 1772 
L 3272 2816 
z
M 2803 4594 
L 2478 3297 
L 3391 3297 
L 3719 4594 
L 4219 4594 
L 3897 3297 
L 4872 3297 
L 4872 2816 
L 3775 2816 
L 3519 1772 
L 4513 1772 
L 4513 1294 
L 3397 1294 
L 3072 0 
L 2572 0 
L 2894 1294 
L 1978 1294 
L 1656 0 
L 1153 0 
L 1478 1294 
L 494 1294 
L 494 1772 
L 1594 1772 
L 1856 2816 
L 850 2816 
L 850 3297 
L 1978 3297 
L 2297 4594 
L 2803 4594 
z
" transform="scale(0.015625)"/>
       <path id="DejaVuSans-29" d="M 513 4856 
L 1013 4856 
Q 1481 4119 1714 3412 
Q 1947 2706 1947 2009 
Q 1947 1309 1714 600 
Q 1481 -109 1013 -844 
L 513 -844 
Q 928 -128 1133 580 
Q 1338 1288 1338 2009 
Q 1338 2731 1133 3434 
Q 928 4138 513 4856 
z
" transform="scale(0.015625)"/>
      </defs>
      <use xlink:href="#DejaVuSans-49"/>
      <use xlink:href="#DejaVuSans-6e" x="29.492188"/>
      <use xlink:href="#DejaVuSans-74" x="92.871094"/>
      <use xlink:href="#DejaVuSans-65" x="132.080078"/>
      <use xlink:href="#DejaVuSans-72" x="193.603516"/>
      <use xlink:href="#DejaVuSans-66" x="234.716797"/>
      <use xlink:href="#DejaVuSans-61" x="269.921875"/>
      <use xlink:href="#DejaVuSans-63" x="331.201172"/>
      <use xlink:href="#DejaVuSans-65" x="386.181641"/>
      <use xlink:href="#DejaVuSans-20" x="447.705078"/>
      <use xlink:href="#DejaVuSans-28" x="479.492188"/>
      <use xlink:href="#DejaVuSans-23" x="518.505859"/>
      <use xlink:href="#DejaVuSans-29" x="602.294922"/>
     </g>
    </g>
   </g>
   <g id="matplotlib.axis_2">
    <g id="ytick_1">
     <g id="line2d_6">
      <defs>
       <path id="mc1f8b6e8e5" d="M 0 0 
L -3.5 0 
" style="stroke: #000000; stroke-width: 0.8"/>
      </defs>
      <g>
       <use xlink:href="#mc1f8b6e8e5" x="66.588125" y="243.379185" style="stroke: #000000; stroke-width: 0.8"/>
      </g>
     </g>
     <g id="text_7">
      <!-- −0.15 -->
      <g transform="translate(22.81375 247.938247) scale(0.12 -0.12)">
       <defs>
        <path id="DejaVuSans-2212" d="M 678 2272 
L 4684 2272 
L 4684 1741 
L 678 1741 
L 678 2272 
z
" transform="scale(0.015625)"/>
        <path id="DejaVuSans-2e" d="M 684 794 
L 1344 794 
L 1344 0 
L 684 0 
L 684 794 
z
" transform="scale(0.015625)"/>
       </defs>
       <use xlink:href="#DejaVuSans-2212"/>
       <use xlink:href="#DejaVuSans-30" x="83.789062"/>
       <use xlink:href="#DejaVuSans-2e" x="147.412109"/>
       <use xlink:href="#DejaVuSans-31" x="179.199219"/>
       <use xlink:href="#DejaVuSans-35" x="242.822266"/>
      </g>
     </g>
    </g>
    <g id="ytick_2">
     <g id="line2d_7">
      <g>
       <use xlink:href="#mc1f8b6e8e5" x="66.588125" y="191.367478" style="stroke: #000000; stroke-width: 0.8"/>
      </g>
     </g>
     <g id="text_8">
      <!-- −0.10 -->
      <g transform="translate(22.81375 195.92654) scale(0.12 -0.12)">
       <use xlink:href="#DejaVuSans-2212"/>
       <use xlink:href="#DejaVuSans-30" x="83.789062"/>
       <use xlink:href="#DejaVuSans-2e" x="147.412109"/>
       <use xlink:href="#DejaVuSans-31" x="179.199219"/>
       <use xlink:href="#DejaVuSans-30" x="242.822266"/>
      </g>
     </g>
    </g>
    <g id="ytick_3">
     <g id="line2d_8">
      <g>
       <use xlink:href="#mc1f8b6e8e5" x="66.588125" y="139.355771" style="stroke: #000000; stroke-width: 0.8"/>
      </g>
     </g>
     <g id="text_9">
      <!-- −0.05 -->
      <g transform="translate(22.81375 143.914833) scale(0.12 -0.12)">
       <use xlink:href="#DejaVuSans-2212"/>
       <use xlink:href="#DejaVuSans-30" x="83.789062"/>
       <use xlink:href="#DejaVuSans-2e" x="147.412109"/>
       <use xlink:href="#DejaVuSans-30" x="179.199219"/>
       <use xlink:href="#DejaVuSans-35" x="242.822266"/>
      </g>
     </g>
    </g>
    <g id="ytick_4">
     <g id="line2d_9">
      <g>
       <use xlink:href="#mc1f8b6e8e5" x="66.588125" y="87.344064" style="stroke: #000000; stroke-width: 0.8"/>
      </g>
     </g>
     <g id="text_10">
      <!-- 0.00 -->
      <g transform="translate(32.869375 91.903126) scale(0.12 -0.12)">
       <use xlink:href="#DejaVuSans-30"/>
       <use xlink:href="#DejaVuSans-2e" x="63.623047"/>
       <use xlink:href="#DejaVuSans-30" x="95.410156"/>
       <use xlink:href="#DejaVuSans-30" x="159.033203"/>
      </g>
     </g>
    </g>
    <g id="ytick_5">
     <g id="line2d_10">
      <g>
       <use xlink:href="#mc1f8b6e8e5" x="66.588125" y="35.332356" style="stroke: #000000; stroke-width: 0.8"/>
      </g>
     </g>
     <g id="text_11">
      <!-- 0.05 -->
      <g transform="translate(32.869375 39.891419) scale(0.12 -0.12)">
       <use xlink:href="#DejaVuSans-30"/>
       <use xlink:href="#DejaVuSans-2e" x="63.623047"/>
       <use xlink:href="#DejaVuSans-30" x="95.410156"/>
       <use xlink:href="#DejaVuSans-35" x="159.033203"/>
      </g>
     </g>
    </g>
    <g id="text_12">
     <!-- Interfacial spin current (meV) -->
     <g transform="translate(16.318125 228.526312) rotate(-90) scale(0.12 -0.12)">
      <defs>
       <path id="DejaVuSans-69" d="M 603 3500 
L 1178 3500 
L 1178 0 
L 603 0 
L 603 3500 
z
M 603 4863 
L 1178 4863 
L 1178 4134 
L 603 4134 
L 603 4863 
z
" transform="scale(0.015625)"/>
       <path id="DejaVuSans-6c" d="M 603 4863 
L 1178 4863 
L 1178 0 
L 603 0 
L 603 4863 
z
" transform="scale(0.015625)"/>
       <path id="DejaVuSans-73" d="M 2834 3397 
L 2834 2853 
Q 2591 2978 2328 3040 
Q 2066 3103 1784 3103 
Q 1356 3103 1142 2972 
Q 928 2841 928 2578 
Q 928 2378 1081 2264 
Q 1234 2150 1697 2047 
L 1894 2003 
Q 2506 1872 2764 1633 
Q 3022 1394 3022 966 
Q 3022 478 2636 193 
Q 2250 -91 1575 -91 
Q 1294 -91 989 -36 
Q 684 19 347 128 
L 347 722 
Q 666 556 975 473 
Q 1284 391 1588 391 
Q 1994 391 2212 530 
Q 2431 669 2431 922 
Q 2431 1156 2273 1281 
Q 2116 1406 1581 1522 
L 1381 1569 
Q 847 1681 609 1914 
Q 372 2147 372 2553 
Q 372 3047 722 3315 
Q 1072 3584 1716 3584 
Q 2034 3584 2315 3537 
Q 2597 3491 2834 3397 
z
" transform="scale(0.015625)"/>
       <path id="DejaVuSans-70" d="M 1159 525 
L 1159 -1331 
L 581 -1331 
L 581 3500 
L 1159 3500 
L 1159 2969 
Q 1341 3281 1617 3432 
Q 1894 3584 2278 3584 
Q 2916 3584 3314 3078 
Q 3713 2572 3713 1747 
Q 3713 922 3314 415 
Q 2916 -91 2278 -91 
Q 1894 -91 1617 61 
Q 1341 213 1159 525 
z
M 3116 1747 
Q 3116 2381 2855 2742 
Q 2594 3103 2138 3103 
Q 1681 3103 1420 2742 
Q 1159 2381 1159 1747 
Q 1159 1113 1420 752 
Q 1681 391 2138 391 
Q 2594 391 2855 752 
Q 3116 1113 3116 1747 
z
" transform="scale(0.015625)"/>
       <path id="DejaVuSans-75" d="M 544 1381 
L 544 3500 
L 1119 3500 
L 1119 1403 
Q 1119 906 1312 657 
Q 1506 409 1894 409 
Q 2359 409 2629 706 
Q 2900 1003 2900 1516 
L 2900 3500 
L 3475 3500 
L 3475 0 
L 2900 0 
L 2900 538 
Q 2691 219 2414 64 
Q 2138 -91 1772 -91 
Q 1169 -91 856 284 
Q 544 659 544 1381 
z
M 1991 3584 
L 1991 3584 
z
" transform="scale(0.015625)"/>
       <path id="DejaVuSans-6d" d="M 3328 2828 
Q 3544 3216 3844 3400 
Q 4144 3584 4550 3584 
Q 5097 3584 5394 3201 
Q 5691 2819 5691 2113 
L 5691 0 
L 5113 0 
L 5113 2094 
Q 5113 2597 4934 2840 
Q 4756 3084 4391 3084 
Q 3944 3084 3684 2787 
Q 3425 2491 3425 1978 
L 3425 0 
L 2847 0 
L 2847 2094 
Q 2847 2600 2669 2842 
Q 2491 3084 2119 3084 
Q 1678 3084 1418 2786 
Q 1159 2488 1159 1978 
L 1159 0 
L 581 0 
L 581 3500 
L 1159 3500 
L 1159 2956 
Q 1356 3278 1631 3431 
Q 1906 3584 2284 3584 
Q 2666 3584 2933 3390 
Q 3200 3197 3328 2828 
z
" transform="scale(0.015625)"/>
       <path id="DejaVuSans-56" d="M 1831 0 
L 50 4666 
L 709 4666 
L 2188 738 
L 3669 4666 
L 4325 4666 
L 2547 0 
L 1831 0 
z
" transform="scale(0.015625)"/>
      </defs>
      <use xlink:href="#DejaVuSans-49"/>
      <use xlink:href="#DejaVuSans-6e" x="29.492188"/>
      <use xlink:href="#DejaVuSans-74" x="92.871094"/>
      <use xlink:href="#DejaVuSans-65" x="132.080078"/>
      <use xlink:href="#DejaVuSans-72" x="193.603516"/>
      <use xlink:href="#DejaVuSans-66" x="234.716797"/>
      <use xlink:href="#DejaVuSans-61" x="269.921875"/>
      <use xlink:href="#DejaVuSans-63" x="331.201172"/>
      <use xlink:href="#DejaVuSans-69" x="386.181641"/>
      <use xlink:href="#DejaVuSans-61" x="413.964844"/>
      <use xlink:href="#DejaVuSans-6c" x="475.244141"/>
      <use xlink:href="#DejaVuSans-20" x="503.027344"/>
      <use xlink:href="#DejaVuSans-73" x="534.814453"/>
      <use xlink:href="#DejaVuSans-70" x="586.914062"/>
      <use xlink:href="#DejaVuSans-69" x="650.390625"/>
      <use xlink:href="#DejaVuSans-6e" x="678.173828"/>
      <use xlink:href="#DejaVuSans-20" x="741.552734"/>
      <use xlink:href="#DejaVuSans-63" x="773.339844"/>
      <use xlink:href="#DejaVuSans-75" x="828.320312"/>
      <use xlink:href="#DejaVuSans-72" x="891.699219"/>
      <use xlink:href="#DejaVuSans-72" x="931.0625"/>
      <use xlink:href="#DejaVuSans-65" x="969.925781"/>
      <use xlink:href="#DejaVuSans-6e" x="1031.449219"/>
      <use xlink:href="#DejaVuSans-74" x="1094.828125"/>
      <use xlink:href="#DejaVuSans-20" x="1134.037109"/>
      <use xlink:href="#DejaVuSans-28" x="1165.824219"/>
      <use xlink:href="#DejaVuSans-6d" x="1204.837891"/>
      <use xlink:href="#DejaVuSans-65" x="1302.25"/>
      <use xlink:href="#DejaVuSans-56" x="1363.773438"/>
      <use xlink:href="#DejaVuSans-29" x="1432.181641"/>
     </g>
    </g>
   </g>
   <g id="line2d_11">
    <path d="M 82.820852 87.357703 
L 97.577877 87.321122 
L 112.334902 87.287167 
L 127.091927 87.549866 
L 141.848951 87.452548 
L 156.605976 85.689952 
L 171.363001 87.995095 
L 186.120026 93.660163 
L 200.877051 84.95537 
L 215.634075 62.147238 
L 230.3911 94.829771 
L 245.148125 167.031541 
L 259.90515 167.285974 
L 274.662175 167.292483 
L 289.419199 167.293695 
L 304.176224 167.294076 
L 318.933249 167.294184 
L 333.690274 167.293354 
L 348.447299 167.295924 
L 363.204323 167.299781 
L 377.961348 167.259677 
L 392.718373 167.365832 
L 407.475398 165.498245 
" clip-path="url(#pfd9c558811)" style="fill: none; stroke: #1f77b4; stroke-width: 1.5; stroke-linecap: square"/>
    <defs>
     <path id="m047c1d9659" d="M 0 1.5 
C 0.397805 1.5 0.77937 1.341951 1.06066 1.06066 
C 1.341951 0.77937 1.5 0.397805 1.5 0 
C 1.5 -0.397805 1.341951 -0.77937 1.06066 -1.06066 
C 0.77937 -1.341951 0.397805 -1.5 0 -1.5 
C -0.397805 -1.5 -0.77937 -1.341951 -1.06066 -1.06066 
C -1.341951 -0.77937 -1.5 -0.397805 -1.5 0 
C -1.5 0.397805 -1.341951 0.77937 -1.06066 1.06066 
C -0.77937 1.341951 -0.397805 1.5 0 1.5 
z
" style="stroke: #1f77b4"/>
    </defs>
    <g clip-path="url(#pfd9c558811)">
     <use xlink:href="#m047c1d9659" x="82.820852" y="87.357703" style="fill: #1f77b4; stroke: #1f77b4"/>
     <use xlink:href="#m047c1d9659" x="97.577877" y="87.321122" style="fill: #1f77b4; stroke: #1f77b4"/>
     <use xlink:href="#m047c1d9659" x="112.334902" y="87.287167" style="fill: #1f77b4; stroke: #1f77b4"/>
     <use xlink:href="#m047c1d9659" x="127.091927" y="87.549866" style="fill: #1f77b4; stroke: #1f77b4"/>
     <use xlink:href="#m047c1d9659" x="141.848951" y="87.452548" style="fill: #1f77b4; stroke: #1f77b4"/>
     <use xlink:href="#m047c1d9659" x="156.605976" y="85.689952" style="fill: #1f77b4; stroke: #1f77b4"/>
     <use xlink:href="#m047c1d9659" x="171.363001" y="87.995095" style="fill: #1f77b4; stroke: #1f77b4"/>
     <use xlink:href="#m047c1d9659" x="186.120026" y="93.660163" style="fill: #1f77b4; stroke: #1f77b4"/>
     <use xlink:href="#m047c1d9659" x="200.877051" y="84.95537" style="fill: #1f77b4; stroke: #1f77b4"/>
     <use xlink:href="#m047c1d9659" x="215.634075" y="62.147238" style="fill: #1f77b4; stroke: #1f77b4"/>
     <use xlink:href="#m047c1d9659" x="230.3911" y="94.829771" style="fill: #1f77b4; stroke: #1f77b4"/>
     <use xlink:href="#m047c1d9659" x="245.148125" y="167.031541" style="fill: #1f77b4; stroke: #1f77b4"/>
     <use xlink:href="#m047c1d9659" x="259.90515" y="167.285974" style="fill: #1f77b4; stroke: #1f77b4"/>
     <use xlink:href="#m047c1d9659" x="274.662175" y="167.292483" style="fill: #1f77b4; stroke: #1f77b4"/>
     <use xlink:href="#m047c1d9659" x="289.419199" y="167.293695" style="fill: #1f77b4; stroke: #1f77b4"/>
     <use xlink:href="#m047c1d9659" x="304.176224" y="167.294076" style="fill: #1f77b4; stroke: #1f77b4"/>
     <use xlink:href="#m047c1d9659" x="318.933249" y="167.294184" style="fill: #1f77b4; stroke: #1f77b4"/>
     <use xlink:href="#m047c1d9659" x="333.690274" y="167.293354" style="fill: #1f77b4; stroke: #1f77b4"/>
     <use xlink:href="#m047c1d9659" x="348.447299" y="167.295924" style="fill: #1f77b4; stroke: #1f77b4"/>
     <use xlink:href="#m047c1d9659" x="363.204323" y="167.299781" style="fill: #1f77b4; stroke: #1f77b4"/>
     <use xlink:href="#m047c1d9659" x="377.961348" y="167.259677" style="fill: #1f77b4; stroke: #1f77b4"/>
     <use xlink:href="#m047c1d9659" x="392.718373" y="167.365832" style="fill: #1f77b4; stroke: #1f77b4"/>
     <use xlink:href="#m047c1d9659" x="407.475398" y="165.498245" style="fill: #1f77b4; stroke: #1f77b4"/>
    </g>
   </g>
   <g id="line2d_12">
    <path d="M 82.820852 87.358518 
L 97.577877 87.282348 
L 112.334902 87.298368 
L 127.091927 87.828613 
L 141.848951 87.101371 
L 156.605976 83.739981 
L 171.363001 89.991719 
L 186.120026 103.042168 
L 200.877051 79.313415 
L 215.634075 19.296 
L 230.3911 93.550415 
L 245.148125 261.216 
L 259.90515 98.91134 
L 274.662175 19.975501 
L 289.419199 74.272712 
L 304.176224 102.638585 
L 318.933249 90.866868 
L 333.690274 83.957413 
L 348.447299 86.721173 
L 363.204323 87.891582 
L 377.961348 87.33641 
L 392.718373 87.264092 
L 407.475398 87.355476 
" clip-path="url(#pfd9c558811)" style="fill: none; stroke: #ff7f0e; stroke-width: 1.5; stroke-linecap: square"/>
    <defs>
     <path id="mf14342ea8a" d="M 0 1.5 
C 0.397805 1.5 0.77937 1.341951 1.06066 1.06066 
C 1.341951 0.77937 1.5 0.397805 1.5 0 
C 1.5 -0.397805 1.341951 -0.77937 1.06066 -1.06066 
C 0.77937 -1.341951 0.397805 -1.5 0 -1.5 
C -0.397805 -1.5 -0.77937 -1.341951 -1.06066 -1.06066 
C -1.341951 -0.77937 -1.5 -0.397805 -1.5 0 
C -1.5 0.397805 -1.341951 0.77937 -1.06066 1.06066 
C -0.77937 1.341951 -0.397805 1.5 0 1.5 
z
" style="stroke: #ff7f0e"/>
    </defs>
    <g clip-path="url(#pfd9c558811)">
     <use xlink:href="#mf14342ea8a" x="82.820852" y="87.358518" style="fill: #ff7f0e; stroke: #ff7f0e"/>
     <use xlink:href="#mf14342ea8a" x="97.577877" y="87.282348" style="fill: #ff7f0e; stroke: #ff7f0e"/>
     <use xlink:href="#mf14342ea8a" x="112.334902" y="87.298368" style="fill: #ff7f0e; stroke: #ff7f0e"/>
     <use xlink:href="#mf14342ea8a" x="127.091927" y="87.828613" style="fill: #ff7f0e; stroke: #ff7f0e"/>
     <use xlink:href="#mf14342ea8a" x="141.848951" y="87.101371" style="fill: #ff7f0e; stroke: #ff7f0e"/>
     <use xlink:href="#mf14342ea8a" x="156.605976" y="83.739981" style="fill: #ff7f0e; stroke: #ff7f0e"/>
     <use xlink:href="#mf14342ea8a" x="171.363001" y="89.991719" style="fill: #ff7f0e; stroke: #ff7f0e"/>
     <use xlink:href="#mf14342ea8a" x="186.120026" y="103.042168" style="fill: #ff7f0e; stroke: #ff7f0e"/>
     <use xlink:href="#mf14342ea8a" x="200.877051" y="79.313415" style="fill: #ff7f0e; stroke: #ff7f0e"/>
     <use xlink:href="#mf14342ea8a" x="215.634075" y="19.296" style="fill: #ff7f0e; stroke: #ff7f0e"/>
     <use xlink:href="#mf14342ea8a" x="230.3911" y="93.550415" style="fill: #ff7f0e; stroke: #ff7f0e"/>
     <use xlink:href="#mf14342ea8a" x="245.148125" y="261.216" style="fill: #ff7f0e; stroke: #ff7f0e"/>
     <use xlink:href="#mf14342ea8a" x="259.90515" y="98.91134" style="fill: #ff7f0e; stroke: #ff7f0e"/>
     <use xlink:href="#mf14342ea8a" x="274.662175" y="19.975501" style="fill: #ff7f0e; stroke: #ff7f0e"/>
     <use xlink:href="#mf14342ea8a" x="289.419199" y="74.272712" style="fill: #ff7f0e; stroke: #ff7f0e"/>
     <use xlink:href="#mf14342ea8a" x="304.176224" y="102.638585" style="fill: #ff7f0e; stroke: #ff7f0e"/>
     <use xlink:href="#mf14342ea8a" x="318.933249" y="90.866868" style="fill: #ff7f0e; stroke: #ff7f0e"/>
     <use xlink:href="#mf14342ea8a" x="333.690274" y="83.957413" style="fill: #ff7f0e; stroke: #ff7f0e"/>
     <use xlink:href="#mf14342ea8a" x="348.447299" y="86.721173" style="fill: #ff7f0e; stroke: #ff7f0e"/>
     <use xlink:href="#mf14342ea8a" x="363.204323" y="87.891582" style="fill: #ff7f0e; stroke: #ff7f0e"/>
     <use xlink:href="#mf14342ea8a" x="377.961348" y="87.33641" style="fill: #ff7f0e; stroke: #ff7f0e"/>
     <use xlink:href="#mf14342ea8a" x="392.718373" y="87.264092" style="fill: #ff7f0e; stroke: #ff7f0e"/>
     <use xlink:href="#mf14342ea8a" x="407.475398" y="87.355476" style="fill: #ff7f0e; stroke: #ff7f0e"/>
    </g>
   </g>
   <g id="line2d_13">
    <path d="M 82.820852 168.733092 
L 97.577877 167.436553 
L 112.334902 167.252165 
L 127.091927 167.294216 
L 141.848951 167.295395 
L 156.605976 167.293777 
L 171.363001 167.29416 
L 186.120026 167.294064 
L 200.877051 167.293834 
L 215.634075 167.292592 
L 230.3911 167.287673 
L 245.148125 167.028201 
L 259.90515 96.099833 
L 274.662175 63.374124 
L 289.419199 83.673271 
L 304.176224 93.086147 
L 318.933249 88.192152 
L 333.690274 85.933714 
L 348.447299 87.292457 
L 363.204323 87.552184 
L 377.961348 87.317429 
L 392.718373 87.314347 
L 407.475398 87.352241 
" clip-path="url(#pfd9c558811)" style="fill: none; stroke: #2ca02c; stroke-width: 1.5; stroke-linecap: square"/>
    <defs>
     <path id="ma3228dbd8a" d="M 0 1.5 
C 0.397805 1.5 0.77937 1.341951 1.06066 1.06066 
C 1.341951 0.77937 1.5 0.397805 1.5 0 
C 1.5 -0.397805 1.341951 -0.77937 1.06066 -1.06066 
C 0.77937 -1.341951 0.397805 -1.5 0 -1.5 
C -0.397805 -1.5 -0.77937 -1.341951 -1.06066 -1.06066 
C -1.341951 -0.77937 -1.5 -0.397805 -1.5 0 
C -1.5 0.397805 -1.341951 0.77937 -1.06066 1.06066 
C -0.77937 1.341951 -0.397805 1.5 0 1.5 
z
" style="stroke: #2ca02c"/>
    </defs>
    <g clip-path="url(#pfd9c558811)">
     <use xlink:href="#ma3228dbd8a" x="82.820852" y="168.733092" style="fill: #2ca02c; stroke: #2ca02c"/>
     <use xlink:href="#ma3228dbd8a" x="97.577877" y="167.436553" style="fill: #2ca02c; stroke: #2ca02c"/>
     <use xlink:href="#ma3228dbd8a" x="112.334902" y="167.252165" style="fill: #2ca02c; stroke: #2ca02c"/>
     <use xlink:href="#ma3228dbd8a" x="127.091927" y="167.294216" style="fill: #2ca02c; stroke: #2ca02c"/>
     <use xlink:href="#ma3228dbd8a" x="141.848951" y="167.295395" style="fill: #2ca02c; stroke: #2ca02c"/>
     <use xlink:href="#ma3228dbd8a" x="156.605976" y="167.293777" style="fill: #2ca02c; stroke: #2ca02c"/>
     <use xlink:href="#ma3228dbd8a" x="171.363001" y="167.29416" style="fill: #2ca02c; stroke: #2ca02c"/>
     <use xlink:href="#ma3228dbd8a" x="186.120026" y="167.294064" style="fill: #2ca02c; stroke: #2ca02c"/>
     <use xlink:href="#ma3228dbd8a" x="200.877051" y="167.293834" style="fill: #2ca02c; stroke: #2ca02c"/>
     <use xlink:href="#ma3228dbd8a" x="215.634075" y="167.292592" style="fill: #2ca02c; stroke: #2ca02c"/>
     <use xlink:href="#ma3228dbd8a" x="230.3911" y="167.287673" style="fill: #2ca02c; stroke: #2ca02c"/>
     <use xlink:href="#ma3228dbd8a" x="245.148125" y="167.028201" style="fill: #2ca02c; stroke: #2ca02c"/>
     <use xlink:href="#ma3228dbd8a" x="259.90515" y="96.099833" style="fill: #2ca02c; stroke: #2ca02c"/>
     <use xlink:href="#ma3228dbd8a" x="274.662175" y="63.374124" style="fill: #2ca02c; stroke: #2ca02c"/>
     <use xlink:href="#ma3228dbd8a" x="289.419199" y="83.673271" style="fill: #2ca02c; stroke: #2ca02c"/>
     <use xlink:href="#ma3228dbd8a" x="304.176224" y="93.086147" style="fill: #2ca02c; stroke: #2ca02c"/>
     <use xlink:href="#ma3228dbd8a" x="318.933249" y="88.192152" style="fill: #2ca02c; stroke: #2ca02c"/>
     <use xlink:href="#ma3228dbd8a" x="333.690274" y="85.933714" style="fill: #2ca02c; stroke: #2ca02c"/>
     <use xlink:href="#ma3228dbd8a" x="348.447299" y="87.292457" style="fill: #2ca02c; stroke: #2ca02c"/>
     <use xlink:href="#ma3228dbd8a" x="363.204323" y="87.552184" style="fill: #2ca02c; stroke: #2ca02c"/>
     <use xlink:href="#ma3228dbd8a" x="377.961348" y="87.317429" style="fill: #2ca02c; stroke: #2ca02c"/>
     <use xlink:href="#ma3228dbd8a" x="392.718373" y="87.314347" style="fill: #2ca02c; stroke: #2ca02c"/>
     <use xlink:href="#ma3228dbd8a" x="407.475398" y="87.352241" style="fill: #2ca02c; stroke: #2ca02c"/>
    </g>
   </g>
   <g id="line2d_14">
    <path d="M 82.820852 169.456723 
L 97.577877 167.464531 
L 112.334902 167.253198 
L 127.091927 167.294249 
L 141.848951 167.295396 
L 156.605976 167.293776 
L 171.363001 167.294174 
L 186.120026 167.294106 
L 200.877051 167.294109 
L 215.634075 167.294111 
L 230.3911 167.29411 
L 245.148125 167.294111 
L 259.90515 167.294111 
L 274.662175 167.294112 
L 289.419199 167.294101 
L 304.176224 167.294134 
L 318.933249 167.294201 
L 333.690274 167.293353 
L 348.447299 167.295924 
L 363.204323 167.299765 
L 377.961348 167.258968 
L 392.718373 167.344092 
L 407.475398 164.898393 
" clip-path="url(#pfd9c558811)" style="fill: none; stroke: #d62728; stroke-width: 1.5; stroke-linecap: square"/>
    <defs>
     <path id="m4e98ab35af" d="M 0 1.5 
C 0.397805 1.5 0.77937 1.341951 1.06066 1.06066 
C 1.341951 0.77937 1.5 0.397805 1.5 0 
C 1.5 -0.397805 1.341951 -0.77937 1.06066 -1.06066 
C 0.77937 -1.341951 0.397805 -1.5 0 -1.5 
C -0.397805 -1.5 -0.77937 -1.341951 -1.06066 -1.06066 
C -1.341951 -0.77937 -1.5 -0.397805 -1.5 0 
C -1.5 0.397805 -1.341951 0.77937 -1.06066 1.06066 
C -0.77937 1.341951 -0.397805 1.5 0 1.5 
z
" style="stroke: #d62728"/>
    </defs>
    <g clip-path="url(#pfd9c558811)">
     <use xlink:href="#m4e98ab35af" x="82.820852" y="169.456723" style="fill: #d62728; stroke: #d62728"/>
     <use xlink:href="#m4e98ab35af" x="97.577877" y="167.464531" style="fill: #d62728; stroke: #d62728"/>
     <use xlink:href="#m4e98ab35af" x="112.334902" y="167.253198" style="fill: #d62728; stroke: #d62728"/>
     <use xlink:href="#m4e98ab35af" x="127.091927" y="167.294249" style="fill: #d62728; stroke: #d62728"/>
     <use xlink:href="#m4e98ab35af" x="141.848951" y="167.295396" style="fill: #d62728; stroke: #d62728"/>
     <use xlink:href="#m4e98ab35af" x="156.605976" y="167.293776" style="fill: #d62728; stroke: #d62728"/>
     <use xlink:href="#m4e98ab35af" x="171.363001" y="167.294174" style="fill: #d62728; stroke: #d62728"/>
     <use xlink:href="#m4e98ab35af" x="186.120026" y="167.294106" style="fill: #d62728; stroke: #d62728"/>
     <use xlink:href="#m4e98ab35af" x="200.877051" y="167.294109" style="fill: #d62728; stroke: #d62728"/>
     <use xlink:href="#m4e98ab35af" x="215.634075" y="167.294111" style="fill: #d62728; stroke: #d62728"/>
     <use xlink:href="#m4e98ab35af" x="230.3911" y="167.29411" style="fill: #d62728; stroke: #d62728"/>
     <use xlink:href="#m4e98ab35af" x="245.148125" y="167.294111" style="fill: #d62728; stroke: #d62728"/>
     <use xlink:href="#m4e98ab35af" x="259.90515" y="167.294111" style="fill: #d62728; stroke: #d62728"/>
     <use xlink:href="#m4e98ab35af" x="274.662175" y="167.294112" style="fill: #d62728; stroke: #d62728"/>
     <use xlink:href="#m4e98ab35af" x="289.419199" y="167.294101" style="fill: #d62728; stroke: #d62728"/>
     <use xlink:href="#m4e98ab35af" x="304.176224" y="167.294134" style="fill: #d62728; stroke: #d62728"/>
     <use xlink:href="#m4e98ab35af" x="318.933249" y="167.294201" style="fill: #d62728; stroke: #d62728"/>
     <use xlink:href="#m4e98ab35af" x="333.690274" y="167.293353" style="fill: #d62728; stroke: #d62728"/>
     <use xlink:href="#m4e98ab35af" x="348.447299" y="167.295924" style="fill: #d62728; stroke: #d62728"/>
     <use xlink:href="#m4e98ab35af" x="363.204323" y="167.299765" style="fill: #d62728; stroke: #d62728"/>
     <use xlink:href="#m4e98ab35af" x="377.961348" y="167.258968" style="fill: #d62728; stroke: #d62728"/>
     <use xlink:href="#m4e98ab35af" x="392.718373" y="167.344092" style="fill: #d62728; stroke: #d62728"/>
     <use xlink:href="#m4e98ab35af" x="407.475398" y="164.898393" style="fill: #d62728; stroke: #d62728"/>
    </g>
   </g>
   <g id="patch_3">
    <path d="M 66.588125 273.312 
L 66.588125 7.2 
" style="fill: none; stroke: #000000; stroke-width: 0.8; stroke-linejoin: miter; stroke-linecap: square"/>
   </g>
   <g id="patch_4">
    <path d="M 423.708125 273.312 
L 423.708125 7.2 
" style="fill: none; stroke: #000000; stroke-width: 0.8; stroke-linejoin: miter; stroke-linecap: square"/>
   </g>
   <g id="patch_5">
    <path d="M 66.588125 273.312 
L 423.708125 273.312 
" style="fill: none; stroke: #000000; stroke-width: 0.8; stroke-linejoin: miter; stroke-linecap: square"/>
   </g>
   <g id="patch_6">
    <path d="M 66.588125 7.2 
L 423.708125 7.2 
" style="fill: none; stroke: #000000; stroke-width: 0.8; stroke-linejoin: miter; stroke-linecap: square"/>
   </g>
   <g id="legend_1">
    <g id="patch_7">
     <path d="M 359.826875 87.255 
L 415.308125 87.255 
Q 417.708125 87.255 417.708125 84.855 
L 417.708125 15.6 
Q 417.708125 13.2 415.308125 13.2 
L 359.826875 13.2 
Q 357.426875 13.2 357.426875 15.6 
L 357.426875 84.855 
Q 357.426875 87.255 359.826875 87.255 
z
" style="fill: #ffffff; opacity: 0.8; stroke: #cccccc; stroke-linejoin: miter"/>
    </g>
    <g id="line2d_15">
     <path d="M 362.226875 22.918125 
L 374.226875 22.918125 
L 386.226875 22.918125 
" style="fill: none; stroke: #1f77b4; stroke-width: 1.5; stroke-linecap: square"/>
     <g>
      <use xlink:href="#m047c1d9659" x="374.226875" y="22.918125" style="fill: #1f77b4; stroke: #1f77b4"/>
     </g>
    </g>
    <g id="text_13">
     <!-- Qx -->
     <g transform="translate(395.826875 27.118125) scale(0.12 -0.12)">
      <defs>
       <path id="DejaVuSans-51" d="M 2522 4238 
Q 1834 4238 1429 3725 
Q 1025 3213 1025 2328 
Q 1025 1447 1429 934 
Q 1834 422 2522 422 
Q 3209 422 3611 934 
Q 4013 1447 4013 2328 
Q 4013 3213 3611 3725 
Q 3209 4238 2522 4238 
z
M 3406 84 
L 4238 -825 
L 3475 -825 
L 2784 -78 
Q 2681 -84 2626 -87 
Q 2572 -91 2522 -91 
Q 1538 -91 948 567 
Q 359 1225 359 2328 
Q 359 3434 948 4092 
Q 1538 4750 2522 4750 
Q 3503 4750 4090 4092 
Q 4678 3434 4678 2328 
Q 4678 1516 4351 937 
Q 4025 359 3406 84 
z
" transform="scale(0.015625)"/>
       <path id="DejaVuSans-78" d="M 3513 3500 
L 2247 1797 
L 3578 0 
L 2900 0 
L 1881 1375 
L 863 0 
L 184 0 
L 1544 1831 
L 300 3500 
L 978 3500 
L 1906 2253 
L 2834 3500 
L 3513 3500 
z
" transform="scale(0.015625)"/>
      </defs>
      <use xlink:href="#DejaVuSans-51"/>
      <use xlink:href="#DejaVuSans-78" x="78.710938"/>
     </g>
    </g>
    <g id="line2d_16">
     <path d="M 362.226875 40.531875 
L 374.226875 40.531875 
L 386.226875 40.531875 
" style="fill: none; stroke: #ff7f0e; stroke-width: 1.5; stroke-linecap: square"/>
     <g>
      <use xlink:href="#mf14342ea8a" x="374.226875" y="40.531875" style="fill: #ff7f0e; stroke: #ff7f0e"/>
     </g>
    </g>
    <g id="text_14">
     <!-- Qy -->
     <g transform="translate(395.826875 44.731875) scale(0.12 -0.12)">
      <defs>
       <path id="DejaVuSans-79" d="M 2059 -325 
Q 1816 -950 1584 -1140 
Q 1353 -1331 966 -1331 
L 506 -1331 
L 506 -850 
L 844 -850 
Q 1081 -850 1212 -737 
Q 1344 -625 1503 -206 
L 1606 56 
L 191 3500 
L 800 3500 
L 1894 763 
L 2988 3500 
L 3597 3500 
L 2059 -325 
z
" transform="scale(0.015625)"/>
      </defs>
      <use xlink:href="#DejaVuSans-51"/>
      <use xlink:href="#DejaVuSans-79" x="78.710938"/>
     </g>
    </g>
    <g id="line2d_17">
     <path d="M 362.226875 58.145625 
L 374.226875 58.145625 
L 386.226875 58.145625 
" style="fill: none; stroke: #2ca02c; stroke-width: 1.5; stroke-linecap: square"/>
     <g>
      <use xlink:href="#ma3228dbd8a" x="374.226875" y="58.145625" style="fill: #2ca02c; stroke: #2ca02c"/>
     </g>
    </g>
    <g id="text_15">
     <!-- Qz -->
     <g transform="translate(395.826875 62.345625) scale(0.12 -0.12)">
      <defs>
       <path id="DejaVuSans-7a" d="M 353 3500 
L 3084 3500 
L 3084 2975 
L 922 459 
L 3084 459 
L 3084 0 
L 275 0 
L 275 525 
L 2438 3041 
L 353 3041 
L 353 3500 
z
" transform="scale(0.015625)"/>
      </defs>
      <use xlink:href="#DejaVuSans-51"/>
      <use xlink:href="#DejaVuSans-7a" x="78.710938"/>
     </g>
    </g>
    <g id="line2d_18">
     <path d="M 362.226875 75.759375 
L 374.226875 75.759375 
L 386.226875 75.759375 
" style="fill: none; stroke: #d62728; stroke-width: 1.5; stroke-linecap: square"/>
     <g>
      <use xlink:href="#m4e98ab35af" x="374.226875" y="75.759375" style="fill: #d62728; stroke: #d62728"/>
     </g>
    </g>
    <g id="text_16">
     <!-- Q0 -->
     <g transform="translate(395.826875 79.959375) scale(0.12 -0.12)">
      <use xlink:href="#DejaVuSans-51"/>
      <use xlink:href="#DejaVuSans-30" x="78.710938"/>
     </g>
    </g>
   </g>
  </g>
 </g>
 <defs>
  <clipPath id="pfd9c558811">
   <rect x="66.588125" y="7.2" width="357.12" height="266.112"/>
  </clipPath>
 </defs>
</svg>