<?xml version="1.0" encoding="utf-8" standalone="no"?>
<!DOCTYPE svg PUBLIC "-//W3C//DTD SVG 1.1//EN"
  "http://www.w3.org/Graphics/SVG/1.1/DTD/svg11.dtd">
<svg xmlns:xlink="http://www.w3.org/1999/xlink" width="423.273125pt" height="314.7395pt" viewBox="0 0 423.273125 314.7395" xmlns="http://www.w3.org/2000/svg" version="1.1">
 <metadata>
  <rdf:RDF xmlns:dc="http://purl.org/dc/elements/1.1/" xmlns:cc="http://creativecommons.org/ns#" xmlns:rdf="http://www.w3.org/1999/02/22-rdf-syntax-ns#">
   <cc:Work>
    <dc:type rdf:resource="http://purl.org/dc/dcmitype/StillImage"/>
    <dc:date>2024-08-14T21:13:07.728368</dc:date>
    <dc:format>image/svg+xml</dc:format>
    <dc:creator>
     <cc:Agent>
      <dc:title>Matplotlib v3.7.2, https://matplotlib.org/</dc:title>
     </cc:Agent>
    </dc:creator>
   </cc:Work>
  </rdf:RDF>
 </metadata>
 <defs>
  <style type="text/css">*{stroke-linejoin: round; stroke-linecap: butt}</style>
 </defs>
 <g id="figure_1">
  <g id="patch_1">
   <path d="M 0 314.7395 
L 423.273125 314.7395 
L 423.273125 0 
L 0 0 
z
" style="fill: #ffffff"/>
  </g>
  <g id="axes_1">
   <g id="patch_2">
    <path d="M 58.953125 273.312 
L 416.073125 273.312 
L 416.073125 7.2 
L 58.953125 7.2 
z
" style="fill: #ffffff"/>
   </g>
   <g id="matplotlib.axis_1">
    <g id="xtick_1">
     <g id="line2d_1">
      <defs>
       <path id="m0705084547" d="M 0 0 
L 0 3.5 
" style="stroke: #000000; stroke-width: 0.8"/>
      </defs>
      <g>
       <use xlink:href="#m0705084547" x="75.185852" y="273.312" style="stroke: #000000; stroke-width: 0.8"/>
      </g>
     </g>
     <g id="text_1">
      <!-- −10.0 -->
      <g transform="translate(56.798665 289.430125) scale(0.12 -0.12)">
       <defs>
        <path id="DejaVuSans-2212" d="M 678 2272 
L 4684 2272 
L 4684 1741 
L 678 1741 
L 678 2272 
z
" transform="scale(0.015625)"/>
        <path id="DejaVuSans-31" d="M 794 531 
L 1825 531 
L 1825 4091 
L 703 3866 
L 703 4441 
L 1819 4666 
L 2450 4666 
L 2450 531 
L 3481 531 
L 3481 0 
L 794 0 
L 794 531 
z
" transform="scale(0.015625)"/>
        <path id="DejaVuSans-30" d="M 2034 4250 
Q 1547 4250 1301 3770 
Q 1056 3291 1056 2328 
Q 1056 1369 1301 889 
Q 1547 409 2034 409 
Q 2525 409 2770 889 
Q 3016 1369 3016 2328 
Q 3016 3291 2770 3770 
Q 2525 4250 2034 4250 
z
M 2034 4750 
Q 2819 4750 3233 4129 
Q 3647 3509 3647 2328 
Q 3647 1150 3233 529 
Q 2819 -91 2034 -91 
Q 1250 -91 836 529 
Q 422 1150 422 2328 
Q 422 3509 836 4129 
Q 1250 4750 2034 4750 
z
" transform="scale(0.015625)"/>
        <path id="DejaVuSans-2e" d="M 684 794 
L 1344 794 
L 1344 0 
L 684 0 
L 684 794 
z
" transform="scale(0.015625)"/>
       </defs>
       <use xlink:href="#DejaVuSans-2212"/>
       <use xlink:href="#DejaVuSans-31" x="83.789062"/>
       <use xlink:href="#DejaVuSans-30" x="147.412109"/>
       <use xlink:href="#DejaVuSans-2e" x="211.035156"/>
       <use xlink:href="#DejaVuSans-30" x="242.822266"/>
      </g>
     </g>
    </g>
    <g id="xtick_2">
     <g id="line2d_2">
      <g>
       <use xlink:href="#m0705084547" x="115.76767" y="273.312" style="stroke: #000000; stroke-width: 0.8"/>
      </g>
     </g>
     <g id="text_2">
      <!-- −7.5 -->
      <g transform="translate(101.197983 289.430125) scale(0.12 -0.12)">
       <defs>
        <path id="DejaVuSans-37" d="M 525 4666 
L 3525 4666 
L 3525 4397 
L 1831 0 
L 1172 0 
L 2766 4134 
L 525 4134 
L 525 4666 
z
" transform="scale(0.015625)"/>
        <path id="DejaVuSans-35" d="M 691 4666 
L 3169 4666 
L 3169 4134 
L 1269 4134 
L 1269 2991 
Q 1406 3038 1543 3061 
Q 1681 3084 1819 3084 
Q 2600 3084 3056 2656 
Q 3513 2228 3513 1497 
Q 3513 744 3044 326 
Q 2575 -91 1722 -91 
Q 1428 -91 1123 -41 
Q 819 9 494 109 
L 494 744 
Q 775 591 1075 516 
Q 1375 441 1709 441 
Q 2250 441 2565 725 
Q 2881 1009 2881 1497 
Q 2881 1984 2565 2268 
Q 2250 2553 1709 2553 
Q 1456 2553 1204 2497 
Q 953 2441 691 2322 
L 691 4666 
z
" transform="scale(0.015625)"/>
       </defs>
       <use xlink:href="#DejaVuSans-2212"/>
       <use xlink:href="#DejaVuSans-37" x="83.789062"/>
       <use xlink:href="#DejaVuSans-2e" x="147.412109"/>
       <use xlink:href="#DejaVuSans-35" x="179.199219"/>
      </g>
     </g>
    </g>
    <g id="xtick_3">
     <g id="line2d_3">
      <g>
       <use xlink:href="#m0705084547" x="156.349489" y="273.312" style="stroke: #000000; stroke-width: 0.8"/>
      </g>
     </g>
     <g id="text_3">
      <!-- −5.0 -->
      <g transform="translate(141.779801 289.430125) scale(0.12 -0.12)">
       <use xlink:href="#DejaVuSans-2212"/>
       <use xlink:href="#DejaVuSans-35" x="83.789062"/>
       <use xlink:href="#DejaVuSans-2e" x="147.412109"/>
       <use xlink:href="#DejaVuSans-30" x="179.199219"/>
      </g>
     </g>
    </g>
    <g id="xtick_4">
     <g id="line2d_4">
      <g>
       <use xlink:href="#m0705084547" x="196.931307" y="273.312" style="stroke: #000000; stroke-width: 0.8"/>
      </g>
     </g>
     <g id="text_4">
      <!-- −2.5 -->
      <g transform="translate(182.361619 289.430125) scale(0.12 -0.12)">
       <defs>
        <path id="DejaVuSans-32" d="M 1228 531 
L 3431 531 
L 3431 0 
L 469 0 
L 469 531 
Q 828 903 1448 1529 
Q 2069 2156 2228 2338 
Q 2531 2678 2651 2914 
Q 2772 3150 2772 3378 
Q 2772 3750 2511 3984 
Q 2250 4219 1831 4219 
Q 1534 4219 1204 4116 
Q 875 4013 500 3803 
L 500 4441 
Q 881 4594 1212 4672 
Q 1544 4750 1819 4750 
Q 2544 4750 2975 4387 
Q 3406 4025 3406 3419 
Q 3406 3131 3298 2873 
Q 3191 2616 2906 2266 
Q 2828 2175 2409 1742 
Q 1991 1309 1228 531 
z
" transform="scale(0.015625)"/>
       </defs>
       <use xlink:href="#DejaVuSans-2212"/>
       <use xlink:href="#DejaVuSans-32" x="83.789062"/>
       <use xlink:href="#DejaVuSans-2e" x="147.412109"/>
       <use xlink:href="#DejaVuSans-35" x="179.199219"/>
      </g>
     </g>
    </g>
    <g id="xtick_5">
     <g id="line2d_5">
      <g>
       <use xlink:href="#m0705084547" x="237.513125" y="273.312" style="stroke: #000000; stroke-width: 0.8"/>
      </g>
     </g>
     <g id="text_5">
      <!-- 0.0 -->
      <g transform="translate(227.97125 289.430125) scale(0.12 -0.12)">
       <use xlink:href="#DejaVuSans-30"/>
       <use xlink:href="#DejaVuSans-2e" x="63.623047"/>
       <use xlink:href="#DejaVuSans-30" x="95.410156"/>
      </g>
     </g>
    </g>
    <g id="xtick_6">
     <g id="line2d_6">
      <g>
       <use xlink:href="#m0705084547" x="278.094943" y="273.312" style="stroke: #000000; stroke-width: 0.8"/>
      </g>
     </g>
     <g id="text_6">
      <!-- 2.5 -->
      <g transform="translate(268.553068 289.430125) scale(0.12 -0.12)">
       <use xlink:href="#DejaVuSans-32"/>
       <use xlink:href="#DejaVuSans-2e" x="63.623047"/>
       <use xlink:href="#DejaVuSans-35" x="95.410156"/>
      </g>
     </g>
    </g>
    <g id="xtick_7">
     <g id="line2d_7">
      <g>
       <use xlink:href="#m0705084547" x="318.676761" y="273.312" style="stroke: #000000; stroke-width: 0.8"/>
      </g>
     </g>
     <g id="text_7">
      <!-- 5.0 -->
      <g transform="translate(309.134886 289.430125) scale(0.12 -0.12)">
       <use xlink:href="#DejaVuSans-35"/>
       <use xlink:href="#DejaVuSans-2e" x="63.623047"/>
       <use xlink:href="#DejaVuSans-30" x="95.410156"/>
      </g>
     </g>
    </g>
    <g id="xtick_8">
     <g id="line2d_8">
      <g>
       <use xlink:href="#m0705084547" x="359.25858" y="273.312" style="stroke: #000000; stroke-width: 0.8"/>
      </g>
     </g>
     <g id="text_8">
      <!-- 7.5 -->
      <g transform="translate(349.716705 289.430125) scale(0.12 -0.12)">
       <use xlink:href="#DejaVuSans-37"/>
       <use xlink:href="#DejaVuSans-2e" x="63.623047"/>
       <use xlink:href="#DejaVuSans-35" x="95.410156"/>
      </g>
     </g>
    </g>
    <g id="xtick_9">
     <g id="line2d_9">
      <g>
       <use xlink:href="#m0705084547" x="399.840398" y="273.312" style="stroke: #000000; stroke-width: 0.8"/>
      </g>
     </g>
     <g id="text_9">
      <!-- 10.0 -->
      <g transform="translate(386.481023 289.430125) scale(0.12 -0.12)">
       <use xlink:href="#DejaVuSans-31"/>
       <use xlink:href="#DejaVuSans-30" x="63.623047"/>
       <use xlink:href="#DejaVuSans-2e" x="127.246094"/>
       <use xlink:href="#DejaVuSans-30" x="159.033203"/>
      </g>
     </g>
    </g>
    <g id="text_10">
     <!-- Energy (eV) -->
     <g transform="translate(202.120625 305.043875) scale(0.12 -0.12)">
      <defs>
       <path id="DejaVuSans-45" d="M 628 4666 
L 3578 4666 
L 3578 4134 
L 1259 4134 
L 1259 2753 
L 3481 2753 
L 3481 2222 
L 1259 2222 
L 1259 531 
L 3634 531 
L 3634 0 
L 628 0 
L 628 4666 
z
" transform="scale(0.015625)"/>
       <path id="DejaVuSans-6e" d="M 3513 2113 
L 3513 0 
L 2938 0 
L 2938 2094 
Q 2938 2591 2744 2837 
Q 2550 3084 2163 3084 
Q 1697 3084 1428 2787 
Q 1159 2491 1159 1978 
L 1159 0 
L 581 0 
L 581 3500 
L 1159 3500 
L 1159 2956 
Q 1366 3272 1645 3428 
Q 1925 3584 2291 3584 
Q 2894 3584 3203 3211 
Q 3513 2838 3513 2113 
z
" transform="scale(0.015625)"/>
       <path id="DejaVuSans-65" d="M 3597 1894 
L 3597 1613 
L 953 1613 
Q 991 1019 1311 708 
Q 1631 397 2203 397 
Q 2534 397 2845 478 
Q 3156 559 3463 722 
L 3463 178 
Q 3153 47 2828 -22 
Q 2503 -91 2169 -91 
Q 1331 -91 842 396 
Q 353 884 353 1716 
Q 353 2575 817 3079 
Q 1281 3584 2069 3584 
Q 2775 3584 3186 3129 
Q 3597 2675 3597 1894 
z
M 3022 2063 
Q 3016 2534 2758 2815 
Q 2500 3097 2075 3097 
Q 1594 3097 1305 2825 
Q 1016 2553 972 2059 
L 3022 2063 
z
" transform="scale(0.015625)"/>
       <path id="DejaVuSans-72" d="M 2631 2963 
Q 2534 3019 2420 3045 
Q 2306 3072 2169 3072 
Q 1681 3072 1420 2755 
Q 1159 2438 1159 1844 
L 1159 0 
L 581 0 
L 581 3500 
L 1159 3500 
L 1159 2956 
Q 1341 3275 1631 3429 
Q 1922 3584 2338 3584 
Q 2397 3584 2469 3576 
Q 2541 3569 2628 3553 
L 2631 2963 
z
" transform="scale(0.015625)"/>
       <path id="DejaVuSans-67" d="M 2906 1791 
Q 2906 2416 2648 2759 
Q 2391 3103 1925 3103 
Q 1463 3103 1205 2759 
Q 947 2416 947 1791 
Q 947 1169 1205 825 
Q 1463 481 1925 481 
Q 2391 481 2648 825 
Q 2906 1169 2906 1791 
z
M 3481 434 
Q 3481 -459 3084 -895 
Q 2688 -1331 1869 -1331 
Q 1566 -1331 1297 -1286 
Q 1028 -1241 775 -1147 
L 775 -588 
Q 1028 -725 1275 -790 
Q 1522 -856 1778 -856 
Q 2344 -856 2625 -561 
Q 2906 -266 2906 331 
L 2906 616 
Q 2728 306 2450 153 
Q 2172 0 1784 0 
Q 1141 0 747 490 
Q 353 981 353 1791 
Q 353 2603 747 3093 
Q 1141 3584 1784 3584 
Q 2172 3584 2450 3431 
Q 2728 3278 2906 2969 
L 2906 3500 
L 3481 3500 
L 3481 434 
z
" transform="scale(0.015625)"/>
       <path id="DejaVuSans-79" d="M 2059 -325 
Q 1816 -950 1584 -1140 
Q 1353 -1331 966 -1331 
L 506 -1331 
L 506 -850 
L 844 -850 
Q 1081 -850 1212 -737 
Q 1344 -625 1503 -206 
L 1606 56 
L 191 3500 
L 800 3500 
L 1894 763 
L 2988 3500 
L 3597 3500 
L 2059 -325 
z
" transform="scale(0.015625)"/>
       <path id="DejaVuSans-20" transform="scale(0.015625)"/>
       <path id="DejaVuSans-28" d="M 1984 4856 
Q 1566 4138 1362 3434 
Q 1159 2731 1159 2009 
Q 1159 1288 1364 580 
Q 1569 -128 1984 -844 
L 1484 -844 
Q 1016 -109 783 600 
Q 550 1309 550 2009 
Q 550 2706 781 3412 
Q 1013 4119 1484 4856 
L 1984 4856 
z
" transform="scale(0.015625)"/>
       <path id="DejaVuSans-56" d="M 1831 0 
L 50 4666 
L 709 4666 
L 2188 738 
L 3669 4666 
L 4325 4666 
L 2547 0 
L 1831 0 
z
" transform="scale(0.015625)"/>
       <path id="DejaVuSans-29" d="M 513 4856 
L 1013 4856 
Q 1481 4119 1714 3412 
Q 1947 2706 1947 2009 
Q 1947 1309 1714 600 
Q 1481 -109 1013 -844 
L 513 -844 
Q 928 -128 1133 580 
Q 1338 1288 1338 2009 
Q 1338 2731 1133 3434 
Q 928 4138 513 4856 
z
" transform="scale(0.015625)"/>
      </defs>
      <use xlink:href="#DejaVuSans-45"/>
      <use xlink:href="#DejaVuSans-6e" x="63.183594"/>
      <use xlink:href="#DejaVuSans-65" x="126.5625"/>
      <use xlink:href="#DejaVuSans-72" x="188.085938"/>
      <use xlink:href="#DejaVuSans-67" x="227.449219"/>
      <use xlink:href="#DejaVuSans-79" x="290.925781"/>
      <use xlink:href="#DejaVuSans-20" x="350.105469"/>
      <use xlink:href="#DejaVuSans-28" x="381.892578"/>
      <use xlink:href="#DejaVuSans-65" x="420.90625"/>
      <use xlink:href="#DejaVuSans-56" x="482.429688"/>
      <use xlink:href="#DejaVuSans-29" x="550.837891"/>
     </g>
    </g>
   </g>
   <g id="matplotlib.axis_2">
    <g id="ytick_1">
     <g id="line2d_10">
      <defs>
       <path id="m1f29c47733" d="M 0 0 
L -3.5 0 
" style="stroke: #000000; stroke-width: 0.8"/>
      </defs>
      <g>
       <use xlink:href="#m1f29c47733" x="58.953125" y="261.569407" style="stroke: #000000; stroke-width: 0.8"/>
      </g>
     </g>
     <g id="text_11">
      <!-- −2.0 -->
      <g transform="translate(22.81375 266.12847) scale(0.12 -0.12)">
       <use xlink:href="#DejaVuSans-2212"/>
       <use xlink:href="#DejaVuSans-32" x="83.789062"/>
       <use xlink:href="#DejaVuSans-2e" x="147.412109"/>
       <use xlink:href="#DejaVuSans-30" x="179.199219"/>
      </g>
     </g>
    </g>
    <g id="ytick_2">
     <g id="line2d_11">
      <g>
       <use xlink:href="#m1f29c47733" x="58.953125" y="231.241056" style="stroke: #000000; stroke-width: 0.8"/>
      </g>
     </g>
     <g id="text_12">
      <!-- −1.5 -->
      <g transform="translate(22.81375 235.800118) scale(0.12 -0.12)">
       <use xlink:href="#DejaVuSans-2212"/>
       <use xlink:href="#DejaVuSans-31" x="83.789062"/>
       <use xlink:href="#DejaVuSans-2e" x="147.412109"/>
       <use xlink:href="#DejaVuSans-35" x="179.199219"/>
      </g>
     </g>
    </g>
    <g id="ytick_3">
     <g id="line2d_12">
      <g>
       <use xlink:href="#m1f29c47733" x="58.953125" y="200.912704" style="stroke: #000000; stroke-width: 0.8"/>
      </g>
     </g>
     <g id="text_13">
      <!-- −1.0 -->
      <g transform="translate(22.81375 205.471766) scale(0.12 -0.12)">
       <use xlink:href="#DejaVuSans-2212"/>
       <use xlink:href="#DejaVuSans-31" x="83.789062"/>
       <use xlink:href="#DejaVuSans-2e" x="147.412109"/>
       <use xlink:href="#DejaVuSans-30" x="179.199219"/>
      </g>
     </g>
    </g>
    <g id="ytick_4">
     <g id="line2d_13">
      <g>
       <use xlink:href="#m1f29c47733" x="58.953125" y="170.584352" style="stroke: #000000; stroke-width: 0.8"/>
      </g>
     </g>
     <g id="text_14">
      <!-- −0.5 -->
      <g transform="translate(22.81375 175.143414) scale(0.12 -0.12)">
       <use xlink:href="#DejaVuSans-2212"/>
       <use xlink:href="#DejaVuSans-30" x="83.789062"/>
       <use xlink:href="#DejaVuSans-2e" x="147.412109"/>
       <use xlink:href="#DejaVuSans-35" x="179.199219"/>
      </g>
     </g>
    </g>
    <g id="ytick_5">
     <g id="line2d_14">
      <g>
       <use xlink:href="#m1f29c47733" x="58.953125" y="140.256" style="stroke: #000000; stroke-width: 0.8"/>
      </g>
     </g>
     <g id="text_15">
      <!-- 0.0 -->
      <g transform="translate(32.869375 144.815062) scale(0.12 -0.12)">
       <use xlink:href="#DejaVuSans-30"/>
       <use xlink:href="#DejaVuSans-2e" x="63.623047"/>
       <use xlink:href="#DejaVuSans-30" x="95.410156"/>
      </g>
     </g>
    </g>
    <g id="ytick_6">
     <g id="line2d_15">
      <g>
       <use xlink:href="#m1f29c47733" x="58.953125" y="109.927648" style="stroke: #000000; stroke-width: 0.8"/>
      </g>
     </g>
     <g id="text_16">
      <!-- 0.5 -->
      <g transform="translate(32.869375 114.486711) scale(0.12 -0.12)">
       <use xlink:href="#DejaVuSans-30"/>
       <use xlink:href="#DejaVuSans-2e" x="63.623047"/>
       <use xlink:href="#DejaVuSans-35" x="95.410156"/>
      </g>
     </g>
    </g>
    <g id="ytick_7">
     <g id="line2d_16">
      <g>
       <use xlink:href="#m1f29c47733" x="58.953125" y="79.599296" style="stroke: #000000; stroke-width: 0.8"/>
      </g>
     </g>
     <g id="text_17">
      <!-- 1.0 -->
      <g transform="translate(32.869375 84.158359) scale(0.12 -0.12)">
       <use xlink:href="#DejaVuSans-31"/>
       <use xlink:href="#DejaVuSans-2e" x="63.623047"/>
       <use xlink:href="#DejaVuSans-30" x="95.410156"/>
      </g>
     </g>
    </g>
    <g id="ytick_8">
     <g id="line2d_17">
      <g>
       <use xlink:href="#m1f29c47733" x="58.953125" y="49.270944" style="stroke: #000000; stroke-width: 0.8"/>
      </g>
     </g>
     <g id="text_18">
      <!-- 1.5 -->
      <g transform="translate(32.869375 53.830007) scale(0.12 -0.12)">
       <use xlink:href="#DejaVuSans-31"/>
       <use xlink:href="#DejaVuSans-2e" x="63.623047"/>
       <use xlink:href="#DejaVuSans-35" x="95.410156"/>
      </g>
     </g>
    </g>
    <g id="ytick_9">
     <g id="line2d_18">
      <g>
       <use xlink:href="#m1f29c47733" x="58.953125" y="18.942593" style="stroke: #000000; stroke-width: 0.8"/>
      </g>
     </g>
     <g id="text_19">
      <!-- 2.0 -->
      <g transform="translate(32.869375 23.501655) scale(0.12 -0.12)">
       <use xlink:href="#DejaVuSans-32"/>
       <use xlink:href="#DejaVuSans-2e" x="63.623047"/>
       <use xlink:href="#DejaVuSans-30" x="95.410156"/>
      </g>
     </g>
    </g>
    <g id="text_20">
     <!-- Transmission -->
     <g transform="translate(16.318125 179.010375) rotate(-90) scale(0.12 -0.12)">
      <defs>
       <path id="DejaVuSans-54" d="M -19 4666 
L 3928 4666 
L 3928 4134 
L 2272 4134 
L 2272 0 
L 1638 0 
L 1638 4134 
L -19 4134 
L -19 4666 
z
" transform="scale(0.015625)"/>
       <path id="DejaVuSans-61" d="M 2194 1759 
Q 1497 1759 1228 1600 
Q 959 1441 959 1056 
Q 959 750 1161 570 
Q 1363 391 1709 391 
Q 2188 391 2477 730 
Q 2766 1069 2766 1631 
L 2766 1759 
L 2194 1759 
z
M 3341 1997 
L 3341 0 
L 2766 0 
L 2766 531 
Q 2569 213 2275 61 
Q 1981 -91 1556 -91 
Q 1019 -91 701 211 
Q 384 513 384 1019 
Q 384 1609 779 1909 
Q 1175 2209 1959 2209 
L 2766 2209 
L 2766 2266 
Q 2766 2663 2505 2880 
Q 2244 3097 1772 3097 
Q 1472 3097 1187 3025 
Q 903 2953 641 2809 
L 641 3341 
Q 956 3463 1253 3523 
Q 1550 3584 1831 3584 
Q 2591 3584 2966 3190 
Q 3341 2797 3341 1997 
z
" transform="scale(0.015625)"/>
       <path id="DejaVuSans-73" d="M 2834 3397 
L 2834 2853 
Q 2591 2978 2328 3040 
Q 2066 3103 1784 3103 
Q 1356 3103 1142 2972 
Q 928 2841 928 2578 
Q 928 2378 1081 2264 
Q 1234 2150 1697 2047 
L 1894 2003 
Q 2506 1872 2764 1633 
Q 3022 1394 3022 966 
Q 3022 478 2636 193 
Q 2250 -91 1575 -91 
Q 1294 -91 989 -36 
Q 684 19 347 128 
L 347 722 
Q 666 556 975 473 
Q 1284 391 1588 391 
Q 1994 391 2212 530 
Q 2431 669 2431 922 
Q 2431 1156 2273 1281 
Q 2116 1406 1581 1522 
L 1381 1569 
Q 847 1681 609 1914 
Q 372 2147 372 2553 
Q 372 3047 722 3315 
Q 1072 3584 1716 3584 
Q 2034 3584 2315 3537 
Q 2597 3491 2834 3397 
z
" transform="scale(0.015625)"/>
       <path id="DejaVuSans-6d" d="M 3328 2828 
Q 3544 3216 3844 3400 
Q 4144 3584 4550 3584 
Q 5097 3584 5394 3201 
Q 5691 2819 5691 2113 
L 5691 0 
L 5113 0 
L 5113 2094 
Q 5113 2597 4934 2840 
Q 4756 3084 4391 3084 
Q 3944 3084 3684 2787 
Q 3425 2491 3425 1978 
L 3425 0 
L 2847 0 
L 2847 2094 
Q 2847 2600 2669 2842 
Q 2491 3084 2119 3084 
Q 1678 3084 1418 2786 
Q 1159 2488 1159 1978 
L 1159 0 
L 581 0 
L 581 3500 
L 1159 3500 
L 1159 2956 
Q 1356 3278 1631 3431 
Q 1906 3584 2284 3584 
Q 2666 3584 2933 3390 
Q 3200 3197 3328 2828 
z
" transform="scale(0.015625)"/>
       <path id="DejaVuSans-69" d="M 603 3500 
L 1178 3500 
L 1178 0 
L 603 0 
L 603 3500 
z
M 603 4863 
L 1178 4863 
L 1178 4134 
L 603 4134 
L 603 4863 
z
" transform="scale(0.015625)"/>
       <path id="DejaVuSans-6f" d="M 1959 3097 
Q 1497 3097 1228 2736 
Q 959 2375 959 1747 
Q 959 1119 1226 758 
Q 1494 397 1959 397 
Q 2419 397 2687 759 
Q 2956 1122 2956 1747 
Q 2956 2369 2687 2733 
Q 2419 3097 1959 3097 
z
M 1959 3584 
Q 2709 3584 3137 3096 
Q 3566 2609 3566 1747 
Q 3566 888 3137 398 
Q 2709 -91 1959 -91 
Q 1206 -91 779 398 
Q 353 888 353 1747 
Q 353 2609 779 3096 
Q 1206 3584 1959 3584 
z
" transform="scale(0.015625)"/>
      </defs>
      <use xlink:href="#DejaVuSans-54"/>
      <use xlink:href="#DejaVuSans-72" x="46.333984"/>
      <use xlink:href="#DejaVuSans-61" x="87.447266"/>
      <use xlink:href="#DejaVuSans-6e" x="148.726562"/>
      <use xlink:href="#DejaVuSans-73" x="212.105469"/>
      <use xlink:href="#DejaVuSans-6d" x="264.205078"/>
      <use xlink:href="#DejaVuSans-69" x="361.617188"/>
      <use xlink:href="#DejaVuSans-73" x="389.400391"/>
      <use xlink:href="#DejaVuSans-73" x="441.5"/>
      <use xlink:href="#DejaVuSans-69" x="493.599609"/>
      <use xlink:href="#DejaVuSans-6f" x="521.382812"/>
      <use xlink:href="#DejaVuSans-6e" x="582.564453"/>
     </g>
    </g>
   </g>
   <g id="line2d_19">
    <path d="M 75.185852 140.256 
L 78.432398 140.256 
L 81.678943 140.256 
L 84.925489 140.256 
L 88.172034 140.256 
L 91.41858 140.256 
L 94.665125 140.256 
L 97.91167 140.256 
L 101.158216 139.954598 
L 104.404761 122.839012 
L 107.651307 114.431929 
L 110.897852 108.431649 
L 114.144398 103.621812 
L 117.390943 100.018367 
L 120.637489 95.213923 
L 123.884034 91.610533 
L 127.13058 88.007169 
L 130.377125 84.406045 
L 133.62367 82.001539 
L 136.870216 78.398179 
L 140.116761 75.995921 
L 143.363307 72.392567 
L 146.609852 69.990313 
L 149.856398 67.587367 
L 153.102943 63.984703 
L 156.349489 61.582453 
L 159.596034 59.180174 
L 162.84258 55.576849 
L 166.089125 53.174594 
L 169.33567 50.772329 
L 172.582216 47.168985 
L 175.828761 44.766729 
L 179.075307 41.163368 
L 182.321852 37.560016 
L 185.568398 33.956635 
L 188.814943 29.152166 
L 192.061489 19.296 
L 195.308034 47.769608 
L 198.55458 59.781042 
L 201.801125 69.390362 
L 205.04767 78.998732 
L 208.294216 86.205475 
L 211.540761 93.412208 
L 214.787307 100.618914 
L 218.033852 105.423453 
L 221.280398 112.630164 
L 224.526943 117.434673 
L 227.773489 124.641161 
L 231.020034 129.445891 
L 234.26658 134.250391 
L 237.513125 139.054873 
L 240.75967 134.250391 
L 244.006216 129.445891 
L 247.252761 124.641161 
L 250.499307 117.434673 
L 253.745852 112.630164 
L 256.992398 105.423453 
L 260.238943 100.618914 
L 263.485489 93.412208 
L 266.732034 86.205475 
L 269.97858 78.998732 
L 273.225125 69.390362 
L 276.47167 59.781042 
L 279.718216 47.769608 
L 282.964761 19.296 
L 286.211307 29.152166 
L 289.457852 33.956635 
L 292.704398 37.560016 
L 295.950943 41.163368 
L 299.197489 44.766729 
L 302.444034 47.168985 
L 305.69058 50.772329 
L 308.937125 53.174594 
L 312.18367 55.576849 
L 315.430216 59.180174 
L 318.676761 61.582453 
L 321.923307 63.984703 
L 325.169852 67.587367 
L 328.416398 69.990313 
L 331.662943 72.392567 
L 334.909489 75.995921 
L 338.156034 78.398179 
L 341.40258 82.001539 
L 344.649125 84.406045 
L 347.89567 88.007169 
L 351.142216 91.610533 
L 354.388761 95.213923 
L 357.635307 100.018367 
L 360.881852 103.621812 
L 364.128398 108.431649 
L 367.374943 114.431929 
L 370.621489 122.839012 
L 373.868034 139.954598 
L 377.11458 140.256 
L 380.361125 140.256 
L 383.60767 140.256 
L 386.854216 140.256 
L 390.100761 140.256 
L 393.347307 140.256 
L 396.593852 140.256 
L 399.840398 140.256 
" clip-path="url(#p7d2d669616)" style="fill: none; stroke: #1f77b4; stroke-width: 1.5; stroke-linecap: square"/>
    <defs>
     <path id="ma481f553c5" d="M 0 1.5 
C 0.397805 1.5 0.77937 1.341951 1.06066 1.06066 
C 1.341951 0.77937 1.5 0.397805 1.5 0 
C 1.5 -0.397805 1.341951 -0.77937 1.06066 -1.06066 
C 0.77937 -1.341951 0.397805 -1.5 0 -1.5 
C -0.397805 -1.5 -0.77937 -1.341951 -1.06066 -1.06066 
C -1.341951 -0.77937 -1.5 -0.397805 -1.5 0 
C -1.5 0.397805 -1.341951 0.77937 -1.06066 1.06066 
C -0.77937 1.341951 -0.397805 1.5 0 1.5 
z
" style="stroke: #1f77b4"/>
    </defs>
    <g clip-path="url(#p7d2d669616)">
     <use xlink:href="#ma481f553c5" x="75.185852" y="140.256" style="fill: #1f77b4; stroke: #1f77b4"/>
     <use xlink:href="#ma481f553c5" x="78.432398" y="140.256" style="fill: #1f77b4; stroke: #1f77b4"/>
     <use xlink:href="#ma481f553c5" x="81.678943" y="140.256" style="fill: #1f77b4; stroke: #1f77b4"/>
     <use xlink:href="#ma481f553c5" x="84.925489" y="140.256" style="fill: #1f77b4; stroke: #1f77b4"/>
     <use xlink:href="#ma481f553c5" x="88.172034" y="140.256" style="fill: #1f77b4; stroke: #1f77b4"/>
     <use xlink:href="#ma481f553c5" x="91.41858" y="140.256" style="fill: #1f77b4; stroke: #1f77b4"/>
     <use xlink:href="#ma481f553c5" x="94.665125" y="140.256" style="fill: #1f77b4; stroke: #1f77b4"/>
     <use xlink:href="#ma481f553c5" x="97.91167" y="140.256" style="fill: #1f77b4; stroke: #1f77b4"/>
     <use xlink:href="#ma481f553c5" x="101.158216" y="139.954598" style="fill: #1f77b4; stroke: #1f77b4"/>
     <use xlink:href="#ma481f553c5" x="104.404761" y="122.839012" style="fill: #1f77b4; stroke: #1f77b4"/>
     <use xlink:href="#ma481f553c5" x="107.651307" y="114.431929" style="fill: #1f77b4; stroke: #1f77b4"/>
     <use xlink:href="#ma481f553c5" x="110.897852" y="108.431649" style="fill: #1f77b4; stroke: #1f77b4"/>
     <use xlink:href="#ma481f553c5" x="114.144398" y="103.621812" style="fill: #1f77b4; stroke: #1f77b4"/>
     <use xlink:href="#ma481f553c5" x="117.390943" y="100.018367" style="fill: #1f77b4; stroke: #1f77b4"/>
     <use xlink:href="#ma481f553c5" x="120.637489" y="95.213923" style="fill: #1f77b4; stroke: #1f77b4"/>
     <use xlink:href="#ma481f553c5" x="123.884034" y="91.610533" style="fill: #1f77b4; stroke: #1f77b4"/>
     <use xlink:href="#ma481f553c5" x="127.13058" y="88.007169" style="fill: #1f77b4; stroke: #1f77b4"/>
     <use xlink:href="#ma481f553c5" x="130.377125" y="84.406045" style="fill: #1f77b4; stroke: #1f77b4"/>
     <use xlink:href="#ma481f553c5" x="133.62367" y="82.001539" style="fill: #1f77b4; stroke: #1f77b4"/>
     <use xlink:href="#ma481f553c5" x="136.870216" y="78.398179" style="fill: #1f77b4; stroke: #1f77b4"/>
     <use xlink:href="#ma481f553c5" x="140.116761" y="75.995921" style="fill: #1f77b4; stroke: #1f77b4"/>
     <use xlink:href="#ma481f553c5" x="143.363307" y="72.392567" style="fill: #1f77b4; stroke: #1f77b4"/>
     <use xlink:href="#ma481f553c5" x="146.609852" y="69.990313" style="fill: #1f77b4; stroke: #1f77b4"/>
     <use xlink:href="#ma481f553c5" x="149.856398" y="67.587367" style="fill: #1f77b4; stroke: #1f77b4"/>
     <use xlink:href="#ma481f553c5" x="153.102943" y="63.984703" style="fill: #1f77b4; stroke: #1f77b4"/>
     <use xlink:href="#ma481f553c5" x="156.349489" y="61.582453" style="fill: #1f77b4; stroke: #1f77b4"/>
     <use xlink:href="#ma481f553c5" x="159.596034" y="59.180174" style="fill: #1f77b4; stroke: #1f77b4"/>
     <use xlink:href="#ma481f553c5" x="162.84258" y="55.576849" style="fill: #1f77b4; stroke: #1f77b4"/>
     <use xlink:href="#ma481f553c5" x="166.089125" y="53.174594" style="fill: #1f77b4; stroke: #1f77b4"/>
     <use xlink:href="#ma481f553c5" x="169.33567" y="50.772329" style="fill: #1f77b4; stroke: #1f77b4"/>
     <use xlink:href="#ma481f553c5" x="172.582216" y="47.168985" style="fill: #1f77b4; stroke: #1f77b4"/>
     <use xlink:href="#ma481f553c5" x="175.828761" y="44.766729" style="fill: #1f77b4; stroke: #1f77b4"/>
     <use xlink:href="#ma481f553c5" x="179.075307" y="41.163368" style="fill: #1f77b4; stroke: #1f77b4"/>
     <use xlink:href="#ma481f553c5" x="182.321852" y="37.560016" style="fill: #1f77b4; stroke: #1f77b4"/>
     <use xlink:href="#ma481f553c5" x="185.568398" y="33.956635" style="fill: #1f77b4; stroke: #1f77b4"/>
     <use xlink:href="#ma481f553c5" x="188.814943" y="29.152166" style="fill: #1f77b4; stroke: #1f77b4"/>
     <use xlink:href="#ma481f553c5" x="192.061489" y="19.296" style="fill: #1f77b4; stroke: #1f77b4"/>
     <use xlink:href="#ma481f553c5" x="195.308034" y="47.769608" style="fill: #1f77b4; stroke: #1f77b4"/>
     <use xlink:href="#ma481f553c5" x="198.55458" y="59.781042" style="fill: #1f77b4; stroke: #1f77b4"/>
     <use xlink:href="#ma481f553c5" x="201.801125" y="69.390362" style="fill: #1f77b4; stroke: #1f77b4"/>
     <use xlink:href="#ma481f553c5" x="205.04767" y="78.998732" style="fill: #1f77b4; stroke: #1f77b4"/>
     <use xlink:href="#ma481f553c5" x="208.294216" y="86.205475" style="fill: #1f77b4; stroke: #1f77b4"/>
     <use xlink:href="#ma481f553c5" x="211.540761" y="93.412208" style="fill: #1f77b4; stroke: #1f77b4"/>
     <use xlink:href="#ma481f553c5" x="214.787307" y="100.618914" style="fill: #1f77b4; stroke: #1f77b4"/>
     <use xlink:href="#ma481f553c5" x="218.033852" y="105.423453" style="fill: #1f77b4; stroke: #1f77b4"/>
     <use xlink:href="#ma481f553c5" x="221.280398" y="112.630164" style="fill: #1f77b4; stroke: #1f77b4"/>
     <use xlink:href="#ma481f553c5" x="224.526943" y="117.434673" style="fill: #1f77b4; stroke: #1f77b4"/>
     <use xlink:href="#ma481f553c5" x="227.773489" y="124.641161" style="fill: #1f77b4; stroke: #1f77b4"/>
     <use xlink:href="#ma481f553c5" x="231.020034" y="129.445891" style="fill: #1f77b4; stroke: #1f77b4"/>
     <use xlink:href="#ma481f553c5" x="234.26658" y="134.250391" style="fill: #1f77b4; stroke: #1f77b4"/>
     <use xlink:href="#ma481f553c5" x="237.513125" y="139.054873" style="fill: #1f77b4; stroke: #1f77b4"/>
     <use xlink:href="#ma481f553c5" x="240.75967" y="134.250391" style="fill: #1f77b4; stroke: #1f77b4"/>
     <use xlink:href="#ma481f553c5" x="244.006216" y="129.445891" style="fill: #1f77b4; stroke: #1f77b4"/>
     <use xlink:href="#ma481f553c5" x="247.252761" y="124.641161" style="fill: #1f77b4; stroke: #1f77b4"/>
     <use xlink:href="#ma481f553c5" x="250.499307" y="117.434673" style="fill: #1f77b4; stroke: #1f77b4"/>
     <use xlink:href="#ma481f553c5" x="253.745852" y="112.630164" style="fill: #1f77b4; stroke: #1f77b4"/>
     <use xlink:href="#ma481f553c5" x="256.992398" y="105.423453" style="fill: #1f77b4; stroke: #1f77b4"/>
     <use xlink:href="#ma481f553c5" x="260.238943" y="100.618914" style="fill: #1f77b4; stroke: #1f77b4"/>
     <use xlink:href="#ma481f553c5" x="263.485489" y="93.412208" style="fill: #1f77b4; stroke: #1f77b4"/>
     <use xlink:href="#ma481f553c5" x="266.732034" y="86.205475" style="fill: #1f77b4; stroke: #1f77b4"/>
     <use xlink:href="#ma481f553c5" x="269.97858" y="78.998732" style="fill: #1f77b4; stroke: #1f77b4"/>
     <use xlink:href="#ma481f553c5" x="273.225125" y="69.390362" style="fill: #1f77b4; stroke: #1f77b4"/>
     <use xlink:href="#ma481f553c5" x="276.47167" y="59.781042" style="fill: #1f77b4; stroke: #1f77b4"/>
     <use xlink:href="#ma481f553c5" x="279.718216" y="47.769608" style="fill: #1f77b4; stroke: #1f77b4"/>
     <use xlink:href="#ma481f553c5" x="282.964761" y="19.296" style="fill: #1f77b4; stroke: #1f77b4"/>
     <use xlink:href="#ma481f553c5" x="286.211307" y="29.152166" style="fill: #1f77b4; stroke: #1f77b4"/>
     <use xlink:href="#ma481f553c5" x="289.457852" y="33.956635" style="fill: #1f77b4; stroke: #1f77b4"/>
     <use xlink:href="#ma481f553c5" x="292.704398" y="37.560016" style="fill: #1f77b4; stroke: #1f77b4"/>
     <use xlink:href="#ma481f553c5" x="295.950943" y="41.163368" style="fill: #1f77b4; stroke: #1f77b4"/>
     <use xlink:href="#ma481f553c5" x="299.197489" y="44.766729" style="fill: #1f77b4; stroke: #1f77b4"/>
     <use xlink:href="#ma481f553c5" x="302.444034" y="47.168985" style="fill: #1f77b4; stroke: #1f77b4"/>
     <use xlink:href="#ma481f553c5" x="305.69058" y="50.772329" style="fill: #1f77b4; stroke: #1f77b4"/>
     <use xlink:href="#ma481f553c5" x="308.937125" y="53.174594" style="fill: #1f77b4; stroke: #1f77b4"/>
     <use xlink:href="#ma481f553c5" x="312.18367" y="55.576849" style="fill: #1f77b4; stroke: #1f77b4"/>
     <use xlink:href="#ma481f553c5" x="315.430216" y="59.180174" style="fill: #1f77b4; stroke: #1f77b4"/>
     <use xlink:href="#ma481f553c5" x="318.676761" y="61.582453" style="fill: #1f77b4; stroke: #1f77b4"/>
     <use xlink:href="#ma481f553c5" x="321.923307" y="63.984703" style="fill: #1f77b4; stroke: #1f77b4"/>
     <use xlink:href="#ma481f553c5" x="325.169852" y="67.587367" style="fill: #1f77b4; stroke: #1f77b4"/>
     <use xlink:href="#ma481f553c5" x="328.416398" y="69.990313" style="fill: #1f77b4; stroke: #1f77b4"/>
     <use xlink:href="#ma481f553c5" x="331.662943" y="72.392567" style="fill: #1f77b4; stroke: #1f77b4"/>
     <use xlink:href="#ma481f553c5" x="334.909489" y="75.995921" style="fill: #1f77b4; stroke: #1f77b4"/>
     <use xlink:href="#ma481f553c5" x="338.156034" y="78.398179" style="fill: #1f77b4; stroke: #1f77b4"/>
     <use xlink:href="#ma481f553c5" x="341.40258" y="82.001539" style="fill: #1f77b4; stroke: #1f77b4"/>
     <use xlink:href="#ma481f553c5" x="344.649125" y="84.406045" style="fill: #1f77b4; stroke: #1f77b4"/>
     <use xlink:href="#ma481f553c5" x="347.89567" y="88.007169" style="fill: #1f77b4; stroke: #1f77b4"/>
     <use xlink:href="#ma481f553c5" x="351.142216" y="91.610533" style="fill: #1f77b4; stroke: #1f77b4"/>
     <use xlink:href="#ma481f553c5" x="354.388761" y="95.213923" style="fill: #1f77b4; stroke: #1f77b4"/>
     <use xlink:href="#ma481f553c5" x="357.635307" y="100.018367" style="fill: #1f77b4; stroke: #1f77b4"/>
     <use xlink:href="#ma481f553c5" x="360.881852" y="103.621812" style="fill: #1f77b4; stroke: #1f77b4"/>
     <use xlink:href="#ma481f553c5" x="364.128398" y="108.431649" style="fill: #1f77b4; stroke: #1f77b4"/>
     <use xlink:href="#ma481f553c5" x="367.374943" y="114.431929" style="fill: #1f77b4; stroke: #1f77b4"/>
     <use xlink:href="#ma481f553c5" x="370.621489" y="122.839012" style="fill: #1f77b4; stroke: #1f77b4"/>
     <use xlink:href="#ma481f553c5" x="373.868034" y="139.954598" style="fill: #1f77b4; stroke: #1f77b4"/>
     <use xlink:href="#ma481f553c5" x="377.11458" y="140.256" style="fill: #1f77b4; stroke: #1f77b4"/>
     <use xlink:href="#ma481f553c5" x="380.361125" y="140.256" style="fill: #1f77b4; stroke: #1f77b4"/>
     <use xlink:href="#ma481f553c5" x="383.60767" y="140.256" style="fill: #1f77b4; stroke: #1f77b4"/>
     <use xlink:href="#ma481f553c5" x="386.854216" y="140.256" style="fill: #1f77b4; stroke: #1f77b4"/>
     <use xlink:href="#ma481f553c5" x="390.100761" y="140.256" style="fill: #1f77b4; stroke: #1f77b4"/>
     <use xlink:href="#ma481f553c5" x="393.347307" y="140.256" style="fill: #1f77b4; stroke: #1f77b4"/>
     <use xlink:href="#ma481f553c5" x="396.593852" y="140.256" style="fill: #1f77b4; stroke: #1f77b4"/>
     <use xlink:href="#ma481f553c5" x="399.840398" y="140.256" style="fill: #1f77b4; stroke: #1f77b4"/>
    </g>
   </g>
   <g id="line2d_20">
    <path d="M 75.185852 140.256 
L 78.432398 140.256 
L 81.678943 140.256 
L 84.925489 140.256 
L 88.172034 140.256 
L 91.41858 140.256 
L 94.665125 140.256 
L 97.91167 140.256 
L 101.158216 140.557402 
L 104.404761 157.672988 
L 107.651307 166.080071 
L 110.897852 172.080351 
L 114.144398 176.890188 
L 117.390943 180.493633 
L 120.637489 185.298077 
L 123.884034 188.901467 
L 127.13058 192.504831 
L 130.377125 196.105955 
L 133.62367 198.510461 
L 136.870216 202.113821 
L 140.116761 204.516079 
L 143.363307 208.119433 
L 146.609852 210.521687 
L 149.856398 212.924633 
L 153.102943 216.527297 
L 156.349489 218.929547 
L 159.596034 221.331826 
L 162.84258 224.935151 
L 166.089125 227.337406 
L 169.33567 229.739671 
L 172.582216 233.343015 
L 175.828761 235.745271 
L 179.075307 239.348632 
L 182.321852 242.951984 
L 185.568398 246.555365 
L 188.814943 251.359834 
L 192.061489 261.216 
L 195.308034 232.742392 
L 198.55458 220.730958 
L 201.801125 211.121638 
L 205.04767 201.513268 
L 208.294216 194.306525 
L 211.540761 187.099792 
L 214.787307 179.893086 
L 218.033852 175.088547 
L 221.280398 167.881836 
L 224.526943 163.077327 
L 227.773489 155.870839 
L 231.020034 151.066109 
L 234.26658 146.261609 
L 237.513125 141.457127 
L 240.75967 146.261609 
L 244.006216 151.066109 
L 247.252761 155.870839 
L 250.499307 163.077327 
L 253.745852 167.881836 
L 256.992398 175.088547 
L 260.238943 179.893086 
L 263.485489 187.099792 
L 266.732034 194.306525 
L 269.97858 201.513268 
L 273.225125 211.121638 
L 276.47167 220.730958 
L 279.718216 232.742392 
L 282.964761 261.216 
L 286.211307 251.359834 
L 289.457852 246.555365 
L 292.704398 242.951984 
L 295.950943 239.348632 
L 299.197489 235.745271 
L 302.444034 233.343015 
L 305.69058 229.739671 
L 308.937125 227.337406 
L 312.18367 224.935151 
L 315.430216 221.331826 
L 318.676761 218.929547 
L 321.923307 216.527297 
L 325.169852 212.924633 
L 328.416398 210.521687 
L 331.662943 208.119433 
L 334.909489 204.516079 
L 338.156034 202.113821 
L 341.40258 198.510461 
L 344.649125 196.105955 
L 347.89567 192.504831 
L 351.142216 188.901467 
L 354.388761 185.298077 
L 357.635307 180.493633 
L 360.881852 176.890188 
L 364.128398 172.080351 
L 367.374943 166.080071 
L 370.621489 157.672988 
L 373.868034 140.557402 
L 377.11458 140.256 
L 380.361125 140.256 
L 383.60767 140.256 
L 386.854216 140.256 
L 390.100761 140.256 
L 393.347307 140.256 
L 396.593852 140.256 
L 399.840398 140.256 
" clip-path="url(#p7d2d669616)" style="fill: none; stroke: #ff7f0e; stroke-width: 1.5; stroke-linecap: square"/>
    <defs>
     <path id="m9f0f13e78c" d="M 0 1.5 
C 0.397805 1.5 0.77937 1.341951 1.06066 1.06066 
C 1.341951 0.77937 1.5 0.397805 1.5 0 
C 1.5 -0.397805 1.341951 -0.77937 1.06066 -1.06066 
C 0.77937 -1.341951 0.397805 -1.5 0 -1.5 
C -0.397805 -1.5 -0.77937 -1.341951 -1.06066 -1.06066 
C -1.341951 -0.77937 -1.5 -0.397805 -1.5 0 
C -1.5 0.397805 -1.341951 0.77937 -1.06066 1.06066 
C -0.77937 1.341951 -0.397805 1.5 0 1.5 
z
" style="stroke: #ff7f0e"/>
    </defs>
    <g clip-path="url(#p7d2d669616)">
     <use xlink:href="#m9f0f13e78c" x="75.185852" y="140.256" style="fill: #ff7f0e; stroke: #ff7f0e"/>
     <use xlink:href="#m9f0f13e78c" x="78.432398" y="140.256" style="fill: #ff7f0e; stroke: #ff7f0e"/>
     <use xlink:href="#m9f0f13e78c" x="81.678943" y="140.256" style="fill: #ff7f0e; stroke: #ff7f0e"/>
     <use xlink:href="#m9f0f13e78c" x="84.925489" y="140.256" style="fill: #ff7f0e; stroke: #ff7f0e"/>
     <use xlink:href="#m9f0f13e78c" x="88.172034" y="140.256" style="fill: #ff7f0e; stroke: #ff7f0e"/>
     <use xlink:href="#m9f0f13e78c" x="91.41858" y="140.256" style="fill: #ff7f0e; stroke: #ff7f0e"/>
     <use xlink:href="#m9f0f13e78c" x="94.665125" y="140.256" style="fill: #ff7f0e; stroke: #ff7f0e"/>
     <use xlink:href="#m9f0f13e78c" x="97.91167" y="140.256" style="fill: #ff7f0e; stroke: #ff7f0e"/>
     <use xlink:href="#m9f0f13e78c" x="101.158216" y="140.557402" style="fill: #ff7f0e; stroke: #ff7f0e"/>
     <use xlink:href="#m9f0f13e78c" x="104.404761" y="157.672988" style="fill: #ff7f0e; stroke: #ff7f0e"/>
     <use xlink:href="#m9f0f13e78c" x="107.651307" y="166.080071" style="fill: #ff7f0e; stroke: #ff7f0e"/>
     <use xlink:href="#m9f0f13e78c" x="110.897852" y="172.080351" style="fill: #ff7f0e; stroke: #ff7f0e"/>
     <use xlink:href="#m9f0f13e78c" x="114.144398" y="176.890188" style="fill: #ff7f0e; stroke: #ff7f0e"/>
     <use xlink:href="#m9f0f13e78c" x="117.390943" y="180.493633" style="fill: #ff7f0e; stroke: #ff7f0e"/>
     <use xlink:href="#m9f0f13e78c" x="120.637489" y="185.298077" style="fill: #ff7f0e; stroke: #ff7f0e"/>
     <use xlink:href="#m9f0f13e78c" x="123.884034" y="188.901467" style="fill: #ff7f0e; stroke: #ff7f0e"/>
     <use xlink:href="#m9f0f13e78c" x="127.13058" y="192.504831" style="fill: #ff7f0e; stroke: #ff7f0e"/>
     <use xlink:href="#m9f0f13e78c" x="130.377125" y="196.105955" style="fill: #ff7f0e; stroke: #ff7f0e"/>
     <use xlink:href="#m9f0f13e78c" x="133.62367" y="198.510461" style="fill: #ff7f0e; stroke: #ff7f0e"/>
     <use xlink:href="#m9f0f13e78c" x="136.870216" y="202.113821" style="fill: #ff7f0e; stroke: #ff7f0e"/>
     <use xlink:href="#m9f0f13e78c" x="140.116761" y="204.516079" style="fill: #ff7f0e; stroke: #ff7f0e"/>
     <use xlink:href="#m9f0f13e78c" x="143.363307" y="208.119433" style="fill: #ff7f0e; stroke: #ff7f0e"/>
     <use xlink:href="#m9f0f13e78c" x="146.609852" y="210.521687" style="fill: #ff7f0e; stroke: #ff7f0e"/>
     <use xlink:href="#m9f0f13e78c" x="149.856398" y="212.924633" style="fill: #ff7f0e; stroke: #ff7f0e"/>
     <use xlink:href="#m9f0f13e78c" x="153.102943" y="216.527297" style="fill: #ff7f0e; stroke: #ff7f0e"/>
     <use xlink:href="#m9f0f13e78c" x="156.349489" y="218.929547" style="fill: #ff7f0e; stroke: #ff7f0e"/>
     <use xlink:href="#m9f0f13e78c" x="159.596034" y="221.331826" style="fill: #ff7f0e; stroke: #ff7f0e"/>
     <use xlink:href="#m9f0f13e78c" x="162.84258" y="224.935151" style="fill: #ff7f0e; stroke: #ff7f0e"/>
     <use xlink:href="#m9f0f13e78c" x="166.089125" y="227.337406" style="fill: #ff7f0e; stroke: #ff7f0e"/>
     <use xlink:href="#m9f0f13e78c" x="169.33567" y="229.739671" style="fill: #ff7f0e; stroke: #ff7f0e"/>
     <use xlink:href="#m9f0f13e78c" x="172.582216" y="233.343015" style="fill: #ff7f0e; stroke: #ff7f0e"/>
     <use xlink:href="#m9f0f13e78c" x="175.828761" y="235.745271" style="fill: #ff7f0e; stroke: #ff7f0e"/>
     <use xlink:href="#m9f0f13e78c" x="179.075307" y="239.348632" style="fill: #ff7f0e; stroke: #ff7f0e"/>
     <use xlink:href="#m9f0f13e78c" x="182.321852" y="242.951984" style="fill: #ff7f0e; stroke: #ff7f0e"/>
     <use xlink:href="#m9f0f13e78c" x="185.568398" y="246.555365" style="fill: #ff7f0e; stroke: #ff7f0e"/>
     <use xlink:href="#m9f0f13e78c" x="188.814943" y="251.359834" style="fill: #ff7f0e; stroke: #ff7f0e"/>
     <use xlink:href="#m9f0f13e78c" x="192.061489" y="261.216" style="fill: #ff7f0e; stroke: #ff7f0e"/>
     <use xlink:href="#m9f0f13e78c" x="195.308034" y="232.742392" style="fill: #ff7f0e; stroke: #ff7f0e"/>
     <use xlink:href="#m9f0f13e78c" x="198.55458" y="220.730958" style="fill: #ff7f0e; stroke: #ff7f0e"/>
     <use xlink:href="#m9f0f13e78c" x="201.801125" y="211.121638" style="fill: #ff7f0e; stroke: #ff7f0e"/>
     <use xlink:href="#m9f0f13e78c" x="205.04767" y="201.513268" style="fill: #ff7f0e; stroke: #ff7f0e"/>
     <use xlink:href="#m9f0f13e78c" x="208.294216" y="194.306525" style="fill: #ff7f0e; stroke: #ff7f0e"/>
     <use xlink:href="#m9f0f13e78c" x="211.540761" y="187.099792" style="fill: #ff7f0e; stroke: #ff7f0e"/>
     <use xlink:href="#m9f0f13e78c" x="214.787307" y="179.893086" style="fill: #ff7f0e; stroke: #ff7f0e"/>
     <use xlink:href="#m9f0f13e78c" x="218.033852" y="175.088547" style="fill: #ff7f0e; stroke: #ff7f0e"/>
     <use xlink:href="#m9f0f13e78c" x="221.280398" y="167.881836" style="fill: #ff7f0e; stroke: #ff7f0e"/>
     <use xlink:href="#m9f0f13e78c" x="224.526943" y="163.077327" style="fill: #ff7f0e; stroke: #ff7f0e"/>
     <use xlink:href="#m9f0f13e78c" x="227.773489" y="155.870839" style="fill: #ff7f0e; stroke: #ff7f0e"/>
     <use xlink:href="#m9f0f13e78c" x="231.020034" y="151.066109" style="fill: #ff7f0e; stroke: #ff7f0e"/>
     <use xlink:href="#m9f0f13e78c" x="234.26658" y="146.261609" style="fill: #ff7f0e; stroke: #ff7f0e"/>
     <use xlink:href="#m9f0f13e78c" x="237.513125" y="141.457127" style="fill: #ff7f0e; stroke: #ff7f0e"/>
     <use xlink:href="#m9f0f13e78c" x="240.75967" y="146.261609" style="fill: #ff7f0e; stroke: #ff7f0e"/>
     <use xlink:href="#m9f0f13e78c" x="244.006216" y="151.066109" style="fill: #ff7f0e; stroke: #ff7f0e"/>
     <use xlink:href="#m9f0f13e78c" x="247.252761" y="155.870839" style="fill: #ff7f0e; stroke: #ff7f0e"/>
     <use xlink:href="#m9f0f13e78c" x="250.499307" y="163.077327" style="fill: #ff7f0e; stroke: #ff7f0e"/>
     <use xlink:href="#m9f0f13e78c" x="253.745852" y="167.881836" style="fill: #ff7f0e; stroke: #ff7f0e"/>
     <use xlink:href="#m9f0f13e78c" x="256.992398" y="175.088547" style="fill: #ff7f0e; stroke: #ff7f0e"/>
     <use xlink:href="#m9f0f13e78c" x="260.238943" y="179.893086" style="fill: #ff7f0e; stroke: #ff7f0e"/>
     <use xlink:href="#m9f0f13e78c" x="263.485489" y="187.099792" style="fill: #ff7f0e; stroke: #ff7f0e"/>
     <use xlink:href="#m9f0f13e78c" x="266.732034" y="194.306525" style="fill: #ff7f0e; stroke: #ff7f0e"/>
     <use xlink:href="#m9f0f13e78c" x="269.97858" y="201.513268" style="fill: #ff7f0e; stroke: #ff7f0e"/>
     <use xlink:href="#m9f0f13e78c" x="273.225125" y="211.121638" style="fill: #ff7f0e; stroke: #ff7f0e"/>
     <use xlink:href="#m9f0f13e78c" x="276.47167" y="220.730958" style="fill: #ff7f0e; stroke: #ff7f0e"/>
     <use xlink:href="#m9f0f13e78c" x="279.718216" y="232.742392" style="fill: #ff7f0e; stroke: #ff7f0e"/>
     <use xlink:href="#m9f0f13e78c" x="282.964761" y="261.216" style="fill: #ff7f0e; stroke: #ff7f0e"/>
     <use xlink:href="#m9f0f13e78c" x="286.211307" y="251.359834" style="fill: #ff7f0e; stroke: #ff7f0e"/>
     <use xlink:href="#m9f0f13e78c" x="289.457852" y="246.555365" style="fill: #ff7f0e; stroke: #ff7f0e"/>
     <use xlink:href="#m9f0f13e78c" x="292.704398" y="242.951984" style="fill: #ff7f0e; stroke: #ff7f0e"/>
     <use xlink:href="#m9f0f13e78c" x="295.950943" y="239.348632" style="fill: #ff7f0e; stroke: #ff7f0e"/>
     <use xlink:href="#m9f0f13e78c" x="299.197489" y="235.745271" style="fill: #ff7f0e; stroke: #ff7f0e"/>
     <use xlink:href="#m9f0f13e78c" x="302.444034" y="233.343015" style="fill: #ff7f0e; stroke: #ff7f0e"/>
     <use xlink:href="#m9f0f13e78c" x="305.69058" y="229.739671" style="fill: #ff7f0e; stroke: #ff7f0e"/>
     <use xlink:href="#m9f0f13e78c" x="308.937125" y="227.337406" style="fill: #ff7f0e; stroke: #ff7f0e"/>
     <use xlink:href="#m9f0f13e78c" x="312.18367" y="224.935151" style="fill: #ff7f0e; stroke: #ff7f0e"/>
     <use xlink:href="#m9f0f13e78c" x="315.430216" y="221.331826" style="fill: #ff7f0e; stroke: #ff7f0e"/>
     <use xlink:href="#m9f0f13e78c" x="318.676761" y="218.929547" style="fill: #ff7f0e; stroke: #ff7f0e"/>
     <use xlink:href="#m9f0f13e78c" x="321.923307" y="216.527297" style="fill: #ff7f0e; stroke: #ff7f0e"/>
     <use xlink:href="#m9f0f13e78c" x="325.169852" y="212.924633" style="fill: #ff7f0e; stroke: #ff7f0e"/>
     <use xlink:href="#m9f0f13e78c" x="328.416398" y="210.521687" style="fill: #ff7f0e; stroke: #ff7f0e"/>
     <use xlink:href="#m9f0f13e78c" x="331.662943" y="208.119433" style="fill: #ff7f0e; stroke: #ff7f0e"/>
     <use xlink:href="#m9f0f13e78c" x="334.909489" y="204.516079" style="fill: #ff7f0e; stroke: #ff7f0e"/>
     <use xlink:href="#m9f0f13e78c" x="338.156034" y="202.113821" style="fill: #ff7f0e; stroke: #ff7f0e"/>
     <use xlink:href="#m9f0f13e78c" x="341.40258" y="198.510461" style="fill: #ff7f0e; stroke: #ff7f0e"/>
     <use xlink:href="#m9f0f13e78c" x="344.649125" y="196.105955" style="fill: #ff7f0e; stroke: #ff7f0e"/>
     <use xlink:href="#m9f0f13e78c" x="347.89567" y="192.504831" style="fill: #ff7f0e; stroke: #ff7f0e"/>
     <use xlink:href="#m9f0f13e78c" x="351.142216" y="188.901467" style="fill: #ff7f0e; stroke: #ff7f0e"/>
     <use xlink:href="#m9f0f13e78c" x="354.388761" y="185.298077" style="fill: #ff7f0e; stroke: #ff7f0e"/>
     <use xlink:href="#m9f0f13e78c" x="357.635307" y="180.493633" style="fill: #ff7f0e; stroke: #ff7f0e"/>
     <use xlink:href="#m9f0f13e78c" x="360.881852" y="176.890188" style="fill: #ff7f0e; stroke: #ff7f0e"/>
     <use xlink:href="#m9f0f13e78c" x="364.128398" y="172.080351" style="fill: #ff7f0e; stroke: #ff7f0e"/>
     <use xlink:href="#m9f0f13e78c" x="367.374943" y="166.080071" style="fill: #ff7f0e; stroke: #ff7f0e"/>
     <use xlink:href="#m9f0f13e78c" x="370.621489" y="157.672988" style="fill: #ff7f0e; stroke: #ff7f0e"/>
     <use xlink:href="#m9f0f13e78c" x="373.868034" y="140.557402" style="fill: #ff7f0e; stroke: #ff7f0e"/>
     <use xlink:href="#m9f0f13e78c" x="377.11458" y="140.256" style="fill: #ff7f0e; stroke: #ff7f0e"/>
     <use xlink:href="#m9f0f13e78c" x="380.361125" y="140.256" style="fill: #ff7f0e; stroke: #ff7f0e"/>
     <use xlink:href="#m9f0f13e78c" x="383.60767" y="140.256" style="fill: #ff7f0e; stroke: #ff7f0e"/>
     <use xlink:href="#m9f0f13e78c" x="386.854216" y="140.256" style="fill: #ff7f0e; stroke: #ff7f0e"/>
     <use xlink:href="#m9f0f13e78c" x="390.100761" y="140.256" style="fill: #ff7f0e; stroke: #ff7f0e"/>
     <use xlink:href="#m9f0f13e78c" x="393.347307" y="140.256" style="fill: #ff7f0e; stroke: #ff7f0e"/>
     <use xlink:href="#m9f0f13e78c" x="396.593852" y="140.256" style="fill: #ff7f0e; stroke: #ff7f0e"/>
     <use xlink:href="#m9f0f13e78c" x="399.840398" y="140.256" style="fill: #ff7f0e; stroke: #ff7f0e"/>
    </g>
   </g>
   <g id="patch_3">
    <path d="M 58.953125 273.312 
L 58.953125 7.2 
" style="fill: none; stroke: #000000; stroke-width: 0.8; stroke-linejoin: miter; stroke-linecap: square"/>
   </g>
   <g id="patch_4">
    <path d="M 416.073125 273.312 
L 416.073125 7.2 
" style="fill: none; stroke: #000000; stroke-width: 0.8; stroke-linejoin: miter; stroke-linecap: square"/>
   </g>
   <g id="patch_5">
    <path d="M 58.953125 273.312 
L 416.073125 273.312 
" style="fill: none; stroke: #000000; stroke-width: 0.8; stroke-linejoin: miter; stroke-linecap: square"/>
   </g>
   <g id="patch_6">
    <path d="M 58.953125 7.2 
L 416.073125 7.2 
" style="fill: none; stroke: #000000; stroke-width: 0.8; stroke-linejoin: miter; stroke-linecap: square"/>
   </g>
   <g id="legend_1">
    <g id="patch_7">
     <path d="M 307.75625 52.0275 
L 407.673125 52.0275 
Q 410.073125 52.0275 410.073125 49.6275 
L 410.073125 15.6 
Q 410.073125 13.2 407.673125 13.2 
L 307.75625 13.2 
Q 305.35625 13.2 305.35625 15.6 
L 305.35625 49.6275 
Q 305.35625 52.0275 307.75625 52.0275 
z
" style="fill: #ffffff; opacity: 0.8; stroke: #cccccc; stroke-linejoin: miter"/>
    </g>
    <g id="line2d_21">
     <path d="M 310.15625 22.918125 
L 322.15625 22.918125 
L 334.15625 22.918125 
" style="fill: none; stroke: #1f77b4; stroke-width: 1.5; stroke-linecap: square"/>
     <g>
      <use xlink:href="#ma481f553c5" x="322.15625" y="22.918125" style="fill: #1f77b4; stroke: #1f77b4"/>
     </g>
    </g>
    <g id="text_21">
     <!-- spin-up -->
     <g transform="translate(343.75625 27.118125) scale(0.12 -0.12)">
      <defs>
       <path id="DejaVuSans-70" d="M 1159 525 
L 1159 -1331 
L 581 -1331 
L 581 3500 
L 1159 3500 
L 1159 2969 
Q 1341 3281 1617 3432 
Q 1894 3584 2278 3584 
Q 2916 3584 3314 3078 
Q 3713 2572 3713 1747 
Q 3713 922 3314 415 
Q 2916 -91 2278 -91 
Q 1894 -91 1617 61 
Q 1341 213 1159 525 
z
M 3116 1747 
Q 3116 2381 2855 2742 
Q 2594 3103 2138 3103 
Q 1681 3103 1420 2742 
Q 1159 2381 1159 1747 
Q 1159 1113 1420 752 
Q 1681 391 2138 391 
Q 2594 391 2855 752 
Q 3116 1113 3116 1747 
z
" transform="scale(0.015625)"/>
       <path id="DejaVuSans-2d" d="M 313 2009 
L 1997 2009 
L 1997 1497 
L 313 1497 
L 313 2009 
z
" transform="scale(0.015625)"/>
       <path id="DejaVuSans-75" d="M 544 1381 
L 544 3500 
L 1119 3500 
L 1119 1403 
Q 1119 906 1312 657 
Q 1506 409 1894 409 
Q 2359 409 2629 706 
Q 2900 1003 2900 1516 
L 2900 3500 
L 3475 3500 
L 3475 0 
L 2900 0 
L 2900 538 
Q 2691 219 2414 64 
Q 2138 -91 1772 -91 
Q 1169 -91 856 284 
Q 544 659 544 1381 
z
M 1991 3584 
L 1991 3584 
z
" transform="scale(0.015625)"/>
      </defs>
      <use xlink:href="#DejaVuSans-73"/>
      <use xlink:href="#DejaVuSans-70" x="52.099609"/>
      <use xlink:href="#DejaVuSans-69" x="115.576172"/>
      <use xlink:href="#DejaVuSans-6e" x="143.359375"/>
      <use xlink:href="#DejaVuSans-2d" x="206.738281"/>
      <use xlink:href="#DejaVuSans-75" x="242.822266"/>
      <use xlink:href="#DejaVuSans-70" x="306.201172"/>
     </g>
    </g>
    <g id="line2d_22">
     <path d="M 310.15625 40.531875 
L 322.15625 40.531875 
L 334.15625 40.531875 
" style="fill: none; stroke: #ff7f0e; stroke-width: 1.5; stroke-linecap: square"/>
     <g>
      <use xlink:href="#m9f0f13e78c" x="322.15625" y="40.531875" style="fill: #ff7f0e; stroke: #ff7f0e"/>
     </g>
    </g>
    <g id="text_22">
     <!-- spin-down -->
     <g transform="translate(343.75625 44.731875) scale(0.12 -0.12)">
      <defs>
       <path id="DejaVuSans-64" d="M 2906 2969 
L 2906 4863 
L 3481 4863 
L 3481 0 
L 2906 0 
L 2906 525 
Q 2725 213 2448 61 
Q 2172 -91 1784 -91 
Q 1150 -91 751 415 
Q 353 922 353 1747 
Q 353 2572 751 3078 
Q 1150 3584 1784 3584 
Q 2172 3584 2448 3432 
Q 2725 3281 2906 2969 
z
M 947 1747 
Q 947 1113 1208 752 
Q 1469 391 1925 391 
Q 2381 391 2643 752 
Q 2906 1113 2906 1747 
Q 2906 2381 2643 2742 
Q 2381 3103 1925 3103 
Q 1469 3103 1208 2742 
Q 947 2381 947 1747 
z
" transform="scale(0.015625)"/>
       <path id="DejaVuSans-77" d="M 269 3500 
L 844 3500 
L 1563 769 
L 2278 3500 
L 2956 3500 
L 3675 769 
L 4391 3500 
L 4966 3500 
L 4050 0 
L 3372 0 
L 2619 2869 
L 1863 0 
L 1184 0 
L 269 3500 
z
" transform="scale(0.015625)"/>
      </defs>
      <use xlink:href="#DejaVuSans-73"/>
      <use xlink:href="#DejaVuSans-70" x="52.099609"/>
      <use xlink:href="#DejaVuSans-69" x="115.576172"/>
      <use xlink:href="#DejaVuSans-6e" x="143.359375"/>
      <use xlink:href="#DejaVuSans-2d" x="206.738281"/>
      <use xlink:href="#DejaVuSans-64" x="242.822266"/>
      <use xlink:href="#DejaVuSans-6f" x="306.298828"/>
      <use xlink:href="#DejaVuSans-77" x="367.480469"/>
      <use xlink:href="#DejaVuSans-6e" x="449.267578"/>
     </g>
    </g>
   </g>
  </g>
 </g>
 <defs>
  <clipPath id="p7d2d669616">
   <rect x="58.953125" y="7.2" width="357.12" height="266.112"/>
  </clipPath>
 </defs>
</svg>