<?xml version="1.0" encoding="utf-8" standalone="no"?>
<!DOCTYPE svg PUBLIC "-//W3C//DTD SVG 1.1//EN"
  "http://www.w3.org/Graphics/SVG/1.1/DTD/svg11.dtd">
<svg xmlns:xlink="http://www.w3.org/1999/xlink" width="411.824375pt" height="314.7395pt" viewBox="0 0 411.824375 314.7395" xmlns="http://www.w3.org/2000/svg" version="1.1">
 <metadata>
  <rdf:RDF xmlns:dc="http://purl.org/dc/elements/1.1/" xmlns:cc="http://creativecommons.org/ns#" xmlns:rdf="http://www.w3.org/1999/02/22-rdf-syntax-ns#">
   <cc:Work>
    <dc:type rdf:resource="http://purl.org/dc/dcmitype/StillImage"/>
    <dc:date>2024-08-14T21:11:16.608803</dc:date>
    <dc:format>image/svg+xml</dc:format>
    <dc:creator>
     <cc:Agent>
      <dc:title>Matplotlib v3.7.2, https://matplotlib.org/</dc:title>
     </cc:Agent>
    </dc:creator>
   </cc:Work>
  </rdf:RDF>
 </metadata>
 <defs>
  <style type="text/css">*{stroke-linejoin: round; stroke-linecap: butt}</style>
 </defs>
 <g id="figure_1">
  <g id="patch_1">
   <path d="M 0 314.7395 
L 411.824375 314.7395 
L 411.824375 0 
L 0 0 
z
" style="fill: #ffffff"/>
  </g>
  <g id="axes_1">
   <g id="patch_2">
    <path d="M 47.504375 273.312 
L 404.624375 273.312 
L 404.624375 7.2 
L 47.504375 7.2 
z
" style="fill: #ffffff"/>
   </g>
   <g id="matplotlib.axis_1">
    <g id="xtick_1">
     <g id="line2d_1">
      <defs>
       <path id="mac33feffa7" d="M 0 0 
L 0 3.5 
" style="stroke: #000000; stroke-width: 0.8"/>
      </defs>
      <g>
       <use xlink:href="#mac33feffa7" x="63.737102" y="273.312" style="stroke: #000000; stroke-width: 0.8"/>
      </g>
     </g>
     <g id="text_1">
      <!-- −3 -->
      <g transform="translate(54.89179 289.430125) scale(0.12 -0.12)">
       <defs>
        <path id="DejaVuSans-2212" d="M 678 2272 
L 4684 2272 
L 4684 1741 
L 678 1741 
L 678 2272 
z
" transform="scale(0.015625)"/>
        <path id="DejaVuSans-33" d="M 2597 2516 
Q 3050 2419 3304 2112 
Q 3559 1806 3559 1356 
Q 3559 666 3084 287 
Q 2609 -91 1734 -91 
Q 1441 -91 1130 -33 
Q 819 25 488 141 
L 488 750 
Q 750 597 1062 519 
Q 1375 441 1716 441 
Q 2309 441 2620 675 
Q 2931 909 2931 1356 
Q 2931 1769 2642 2001 
Q 2353 2234 1838 2234 
L 1294 2234 
L 1294 2753 
L 1863 2753 
Q 2328 2753 2575 2939 
Q 2822 3125 2822 3475 
Q 2822 3834 2567 4026 
Q 2313 4219 1838 4219 
Q 1578 4219 1281 4162 
Q 984 4106 628 3988 
L 628 4550 
Q 988 4650 1302 4700 
Q 1616 4750 1894 4750 
Q 2613 4750 3031 4423 
Q 3450 4097 3450 3541 
Q 3450 3153 3228 2886 
Q 3006 2619 2597 2516 
z
" transform="scale(0.015625)"/>
       </defs>
       <use xlink:href="#DejaVuSans-2212"/>
       <use xlink:href="#DejaVuSans-33" x="83.789062"/>
      </g>
     </g>
    </g>
    <g id="xtick_2">
     <g id="line2d_2">
      <g>
       <use xlink:href="#mac33feffa7" x="117.846193" y="273.312" style="stroke: #000000; stroke-width: 0.8"/>
      </g>
     </g>
     <g id="text_2">
      <!-- −2 -->
      <g transform="translate(109.000881 289.430125) scale(0.12 -0.12)">
       <defs>
        <path id="DejaVuSans-32" d="M 1228 531 
L 3431 531 
L 3431 0 
L 469 0 
L 469 531 
Q 828 903 1448 1529 
Q 2069 2156 2228 2338 
Q 2531 2678 2651 2914 
Q 2772 3150 2772 3378 
Q 2772 3750 2511 3984 
Q 2250 4219 1831 4219 
Q 1534 4219 1204 4116 
Q 875 4013 500 3803 
L 500 4441 
Q 881 4594 1212 4672 
Q 1544 4750 1819 4750 
Q 2544 4750 2975 4387 
Q 3406 4025 3406 3419 
Q 3406 3131 3298 2873 
Q 3191 2616 2906 2266 
Q 2828 2175 2409 1742 
Q 1991 1309 1228 531 
z
" transform="scale(0.015625)"/>
       </defs>
       <use xlink:href="#DejaVuSans-2212"/>
       <use xlink:href="#DejaVuSans-32" x="83.789062"/>
      </g>
     </g>
    </g>
    <g id="xtick_3">
     <g id="line2d_3">
      <g>
       <use xlink:href="#mac33feffa7" x="171.955284" y="273.312" style="stroke: #000000; stroke-width: 0.8"/>
      </g>
     </g>
     <g id="text_3">
      <!-- −1 -->
      <g transform="translate(163.109972 289.430125) scale(0.12 -0.12)">
       <defs>
        <path id="DejaVuSans-31" d="M 794 531 
L 1825 531 
L 1825 4091 
L 703 3866 
L 703 4441 
L 1819 4666 
L 2450 4666 
L 2450 531 
L 3481 531 
L 3481 0 
L 794 0 
L 794 531 
z
" transform="scale(0.015625)"/>
       </defs>
       <use xlink:href="#DejaVuSans-2212"/>
       <use xlink:href="#DejaVuSans-31" x="83.789062"/>
      </g>
     </g>
    </g>
    <g id="xtick_4">
     <g id="line2d_4">
      <g>
       <use xlink:href="#mac33feffa7" x="226.064375" y="273.312" style="stroke: #000000; stroke-width: 0.8"/>
      </g>
     </g>
     <g id="text_4">
      <!-- 0 -->
      <g transform="translate(222.246875 289.430125) scale(0.12 -0.12)">
       <defs>
        <path id="DejaVuSans-30" d="M 2034 4250 
Q 1547 4250 1301 3770 
Q 1056 3291 1056 2328 
Q 1056 1369 1301 889 
Q 1547 409 2034 409 
Q 2525 409 2770 889 
Q 3016 1369 3016 2328 
Q 3016 3291 2770 3770 
Q 2525 4250 2034 4250 
z
M 2034 4750 
Q 2819 4750 3233 4129 
Q 3647 3509 3647 2328 
Q 3647 1150 3233 529 
Q 2819 -91 2034 -91 
Q 1250 -91 836 529 
Q 422 1150 422 2328 
Q 422 3509 836 4129 
Q 1250 4750 2034 4750 
z
" transform="scale(0.015625)"/>
       </defs>
       <use xlink:href="#DejaVuSans-30"/>
      </g>
     </g>
    </g>
    <g id="xtick_5">
     <g id="line2d_5">
      <g>
       <use xlink:href="#mac33feffa7" x="280.173466" y="273.312" style="stroke: #000000; stroke-width: 0.8"/>
      </g>
     </g>
     <g id="text_5">
      <!-- 1 -->
      <g transform="translate(276.355966 289.430125) scale(0.12 -0.12)">
       <use xlink:href="#DejaVuSans-31"/>
      </g>
     </g>
    </g>
    <g id="xtick_6">
     <g id="line2d_6">
      <g>
       <use xlink:href="#mac33feffa7" x="334.282557" y="273.312" style="stroke: #000000; stroke-width: 0.8"/>
      </g>
     </g>
     <g id="text_6">
      <!-- 2 -->
      <g transform="translate(330.465057 289.430125) scale(0.12 -0.12)">
       <use xlink:href="#DejaVuSans-32"/>
      </g>
     </g>
    </g>
    <g id="xtick_7">
     <g id="line2d_7">
      <g>
       <use xlink:href="#mac33feffa7" x="388.391648" y="273.312" style="stroke: #000000; stroke-width: 0.8"/>
      </g>
     </g>
     <g id="text_7">
      <!-- 3 -->
      <g transform="translate(384.574148 289.430125) scale(0.12 -0.12)">
       <use xlink:href="#DejaVuSans-33"/>
      </g>
     </g>
    </g>
    <g id="text_8">
     <!-- Energy (eV) -->
     <g transform="translate(190.671875 305.043875) scale(0.12 -0.12)">
      <defs>
       <path id="DejaVuSans-45" d="M 628 4666 
L 3578 4666 
L 3578 4134 
L 1259 4134 
L 1259 2753 
L 3481 2753 
L 3481 2222 
L 1259 2222 
L 1259 531 
L 3634 531 
L 3634 0 
L 628 0 
L 628 4666 
z
" transform="scale(0.015625)"/>
       <path id="DejaVuSans-6e" d="M 3513 2113 
L 3513 0 
L 2938 0 
L 2938 2094 
Q 2938 2591 2744 2837 
Q 2550 3084 2163 3084 
Q 1697 3084 1428 2787 
Q 1159 2491 1159 1978 
L 1159 0 
L 581 0 
L 581 3500 
L 1159 3500 
L 1159 2956 
Q 1366 3272 1645 3428 
Q 1925 3584 2291 3584 
Q 2894 3584 3203 3211 
Q 3513 2838 3513 2113 
z
" transform="scale(0.015625)"/>
       <path id="DejaVuSans-65" d="M 3597 1894 
L 3597 1613 
L 953 1613 
Q 991 1019 1311 708 
Q 1631 397 2203 397 
Q 2534 397 2845 478 
Q 3156 559 3463 722 
L 3463 178 
Q 3153 47 2828 -22 
Q 2503 -91 2169 -91 
Q 1331 -91 842 396 
Q 353 884 353 1716 
Q 353 2575 817 3079 
Q 1281 3584 2069 3584 
Q 2775 3584 3186 3129 
Q 3597 2675 3597 1894 
z
M 3022 2063 
Q 3016 2534 2758 2815 
Q 2500 3097 2075 3097 
Q 1594 3097 1305 2825 
Q 1016 2553 972 2059 
L 3022 2063 
z
" transform="scale(0.015625)"/>
       <path id="DejaVuSans-72" d="M 2631 2963 
Q 2534 3019 2420 3045 
Q 2306 3072 2169 3072 
Q 1681 3072 1420 2755 
Q 1159 2438 1159 1844 
L 1159 0 
L 581 0 
L 581 3500 
L 1159 3500 
L 1159 2956 
Q 1341 3275 1631 3429 
Q 1922 3584 2338 3584 
Q 2397 3584 2469 3576 
Q 2541 3569 2628 3553 
L 2631 2963 
z
" transform="scale(0.015625)"/>
       <path id="DejaVuSans-67" d="M 2906 1791 
Q 2906 2416 2648 2759 
Q 2391 3103 1925 3103 
Q 1463 3103 1205 2759 
Q 947 2416 947 1791 
Q 947 1169 1205 825 
Q 1463 481 1925 481 
Q 2391 481 2648 825 
Q 2906 1169 2906 1791 
z
M 3481 434 
Q 3481 -459 3084 -895 
Q 2688 -1331 1869 -1331 
Q 1566 -1331 1297 -1286 
Q 1028 -1241 775 -1147 
L 775 -588 
Q 1028 -725 1275 -790 
Q 1522 -856 1778 -856 
Q 2344 -856 2625 -561 
Q 2906 -266 2906 331 
L 2906 616 
Q 2728 306 2450 153 
Q 2172 0 1784 0 
Q 1141 0 747 490 
Q 353 981 353 1791 
Q 353 2603 747 3093 
Q 1141 3584 1784 3584 
Q 2172 3584 2450 3431 
Q 2728 3278 2906 2969 
L 2906 3500 
L 3481 3500 
L 3481 434 
z
" transform="scale(0.015625)"/>
       <path id="DejaVuSans-79" d="M 2059 -325 
Q 1816 -950 1584 -1140 
Q 1353 -1331 966 -1331 
L 506 -1331 
L 506 -850 
L 844 -850 
Q 1081 -850 1212 -737 
Q 1344 -625 1503 -206 
L 1606 56 
L 191 3500 
L 800 3500 
L 1894 763 
L 2988 3500 
L 3597 3500 
L 2059 -325 
z
" transform="scale(0.015625)"/>
       <path id="DejaVuSans-20" transform="scale(0.015625)"/>
       <path id="DejaVuSans-28" d="M 1984 4856 
Q 1566 4138 1362 3434 
Q 1159 2731 1159 2009 
Q 1159 1288 1364 580 
Q 1569 -128 1984 -844 
L 1484 -844 
Q 1016 -109 783 600 
Q 550 1309 550 2009 
Q 550 2706 781 3412 
Q 1013 4119 1484 4856 
L 1984 4856 
z
" transform="scale(0.015625)"/>
       <path id="DejaVuSans-56" d="M 1831 0 
L 50 4666 
L 709 4666 
L 2188 738 
L 3669 4666 
L 4325 4666 
L 2547 0 
L 1831 0 
z
" transform="scale(0.015625)"/>
       <path id="DejaVuSans-29" d="M 513 4856 
L 1013 4856 
Q 1481 4119 1714 3412 
Q 1947 2706 1947 2009 
Q 1947 1309 1714 600 
Q 1481 -109 1013 -844 
L 513 -844 
Q 928 -128 1133 580 
Q 1338 1288 1338 2009 
Q 1338 2731 1133 3434 
Q 928 4138 513 4856 
z
" transform="scale(0.015625)"/>
      </defs>
      <use xlink:href="#DejaVuSans-45"/>
      <use xlink:href="#DejaVuSans-6e" x="63.183594"/>
      <use xlink:href="#DejaVuSans-65" x="126.5625"/>
      <use xlink:href="#DejaVuSans-72" x="188.085938"/>
      <use xlink:href="#DejaVuSans-67" x="227.449219"/>
      <use xlink:href="#DejaVuSans-79" x="290.925781"/>
      <use xlink:href="#DejaVuSans-20" x="350.105469"/>
      <use xlink:href="#DejaVuSans-28" x="381.892578"/>
      <use xlink:href="#DejaVuSans-65" x="420.90625"/>
      <use xlink:href="#DejaVuSans-56" x="482.429688"/>
      <use xlink:href="#DejaVuSans-29" x="550.837891"/>
     </g>
    </g>
   </g>
   <g id="matplotlib.axis_2">
    <g id="ytick_1">
     <g id="line2d_8">
      <defs>
       <path id="m2880c61db6" d="M 0 0 
L -3.5 0 
" style="stroke: #000000; stroke-width: 0.8"/>
      </defs>
      <g>
       <use xlink:href="#m2880c61db6" x="47.504375" y="235.571563" style="stroke: #000000; stroke-width: 0.8"/>
      </g>
     </g>
     <g id="text_9">
      <!-- −2 -->
      <g transform="translate(22.81375 240.130625) scale(0.12 -0.12)">
       <use xlink:href="#DejaVuSans-2212"/>
       <use xlink:href="#DejaVuSans-32" x="83.789062"/>
      </g>
     </g>
    </g>
    <g id="ytick_2">
     <g id="line2d_9">
      <g>
       <use xlink:href="#m2880c61db6" x="47.504375" y="187.913781" style="stroke: #000000; stroke-width: 0.8"/>
      </g>
     </g>
     <g id="text_10">
      <!-- −1 -->
      <g transform="translate(22.81375 192.472844) scale(0.12 -0.12)">
       <use xlink:href="#DejaVuSans-2212"/>
       <use xlink:href="#DejaVuSans-31" x="83.789062"/>
      </g>
     </g>
    </g>
    <g id="ytick_3">
     <g id="line2d_10">
      <g>
       <use xlink:href="#m2880c61db6" x="47.504375" y="140.256" style="stroke: #000000; stroke-width: 0.8"/>
      </g>
     </g>
     <g id="text_11">
      <!-- 0 -->
      <g transform="translate(32.869375 144.815062) scale(0.12 -0.12)">
       <use xlink:href="#DejaVuSans-30"/>
      </g>
     </g>
    </g>
    <g id="ytick_4">
     <g id="line2d_11">
      <g>
       <use xlink:href="#m2880c61db6" x="47.504375" y="92.598219" style="stroke: #000000; stroke-width: 0.8"/>
      </g>
     </g>
     <g id="text_12">
      <!-- 1 -->
      <g transform="translate(32.869375 97.157281) scale(0.12 -0.12)">
       <use xlink:href="#DejaVuSans-31"/>
      </g>
     </g>
    </g>
    <g id="ytick_5">
     <g id="line2d_12">
      <g>
       <use xlink:href="#m2880c61db6" x="47.504375" y="44.940437" style="stroke: #000000; stroke-width: 0.8"/>
      </g>
     </g>
     <g id="text_13">
      <!-- 2 -->
      <g transform="translate(32.869375 49.4995) scale(0.12 -0.12)">
       <use xlink:href="#DejaVuSans-32"/>
      </g>
     </g>
    </g>
    <g id="text_14">
     <!-- DOS (1/eV) -->
     <g transform="translate(16.318125 173.631937) rotate(-90) scale(0.12 -0.12)">
      <defs>
       <path id="DejaVuSans-44" d="M 1259 4147 
L 1259 519 
L 2022 519 
Q 2988 519 3436 956 
Q 3884 1394 3884 2338 
Q 3884 3275 3436 3711 
Q 2988 4147 2022 4147 
L 1259 4147 
z
M 628 4666 
L 1925 4666 
Q 3281 4666 3915 4102 
Q 4550 3538 4550 2338 
Q 4550 1131 3912 565 
Q 3275 0 1925 0 
L 628 0 
L 628 4666 
z
" transform="scale(0.015625)"/>
       <path id="DejaVuSans-4f" d="M 2522 4238 
Q 1834 4238 1429 3725 
Q 1025 3213 1025 2328 
Q 1025 1447 1429 934 
Q 1834 422 2522 422 
Q 3209 422 3611 934 
Q 4013 1447 4013 2328 
Q 4013 3213 3611 3725 
Q 3209 4238 2522 4238 
z
M 2522 4750 
Q 3503 4750 4090 4092 
Q 4678 3434 4678 2328 
Q 4678 1225 4090 567 
Q 3503 -91 2522 -91 
Q 1538 -91 948 565 
Q 359 1222 359 2328 
Q 359 3434 948 4092 
Q 1538 4750 2522 4750 
z
" transform="scale(0.015625)"/>
       <path id="DejaVuSans-53" d="M 3425 4513 
L 3425 3897 
Q 3066 4069 2747 4153 
Q 2428 4238 2131 4238 
Q 1616 4238 1336 4038 
Q 1056 3838 1056 3469 
Q 1056 3159 1242 3001 
Q 1428 2844 1947 2747 
L 2328 2669 
Q 3034 2534 3370 2195 
Q 3706 1856 3706 1288 
Q 3706 609 3251 259 
Q 2797 -91 1919 -91 
Q 1588 -91 1214 -16 
Q 841 59 441 206 
L 441 856 
Q 825 641 1194 531 
Q 1563 422 1919 422 
Q 2459 422 2753 634 
Q 3047 847 3047 1241 
Q 3047 1584 2836 1778 
Q 2625 1972 2144 2069 
L 1759 2144 
Q 1053 2284 737 2584 
Q 422 2884 422 3419 
Q 422 4038 858 4394 
Q 1294 4750 2059 4750 
Q 2388 4750 2728 4690 
Q 3069 4631 3425 4513 
z
" transform="scale(0.015625)"/>
       <path id="DejaVuSans-2f" d="M 1625 4666 
L 2156 4666 
L 531 -594 
L 0 -594 
L 1625 4666 
z
" transform="scale(0.015625)"/>
      </defs>
      <use xlink:href="#DejaVuSans-44"/>
      <use xlink:href="#DejaVuSans-4f" x="77.001953"/>
      <use xlink:href="#DejaVuSans-53" x="155.712891"/>
      <use xlink:href="#DejaVuSans-20" x="219.189453"/>
      <use xlink:href="#DejaVuSans-28" x="250.976562"/>
      <use xlink:href="#DejaVuSans-31" x="289.990234"/>
      <use xlink:href="#DejaVuSans-2f" x="353.613281"/>
      <use xlink:href="#DejaVuSans-65" x="387.304688"/>
      <use xlink:href="#DejaVuSans-56" x="448.828125"/>
      <use xlink:href="#DejaVuSans-29" x="517.236328"/>
     </g>
    </g>
   </g>
   <g id="line2d_13">
    <path d="M 63.737102 140.236447 
L 66.983648 140.232403 
L 70.230193 140.227103 
L 73.476739 140.219994 
L 76.723284 140.21019 
L 79.96983 140.196205 
L 83.216375 140.17539 
L 86.46292 140.142663 
L 89.709466 140.087269 
L 92.956011 139.983122 
L 96.202557 139.752567 
L 99.449102 139.067723 
L 102.695648 134.846858 
L 105.942193 19.296 
L 109.188739 79.193866 
L 112.435284 94.202863 
L 115.68183 101.448354 
L 118.928375 105.821875 
L 122.17492 108.762108 
L 125.421466 110.858953 
L 128.668011 112.40158 
L 131.914557 113.547472 
L 135.161102 114.387157 
L 138.407648 114.972432 
L 141.654193 115.329283 
L 144.900739 115.463032 
L 148.147284 115.358131 
L 151.39383 114.972156 
L 154.640375 114.220001 
L 157.88692 112.935978 
L 161.133466 110.774302 
L 164.380011 106.890311 
L 167.626557 98.475393 
L 170.873102 65.704626 
L 174.119648 135.331649 
L 177.366193 139.142702 
L 180.612739 139.746641 
L 183.859284 139.95448 
L 187.10583 140.051116 
L 190.352375 140.104048 
L 193.59892 140.136191 
L 196.845466 140.157125 
L 200.092011 140.171444 
L 203.338557 140.181577 
L 206.585102 140.188906 
L 209.831648 140.194259 
L 213.078193 140.198153 
L 216.324739 140.200919 
L 219.571284 140.202767 
L 222.81783 140.203829 
L 226.064375 140.204176 
L 229.31092 140.203829 
L 232.557466 140.202767 
L 235.804011 140.200919 
L 239.050557 140.198153 
L 242.297102 140.194259 
L 245.543648 140.188906 
L 248.790193 140.181577 
L 252.036739 140.171444 
L 255.283284 140.157125 
L 258.52983 140.136191 
L 261.776375 140.104048 
L 265.02292 140.051116 
L 268.269466 139.95448 
L 271.516011 139.746641 
L 274.762557 139.142702 
L 278.009102 135.331649 
L 281.255648 65.704626 
L 284.502193 98.475393 
L 287.748739 106.890311 
L 290.995284 110.774302 
L 294.24183 112.935978 
L 297.488375 114.220001 
L 300.73492 114.972156 
L 303.981466 115.358131 
L 307.228011 115.463032 
L 310.474557 115.329283 
L 313.721102 114.972432 
L 316.967648 114.387157 
L 320.214193 113.547472 
L 323.460739 112.40158 
L 326.707284 110.858953 
L 329.95383 108.762108 
L 333.200375 105.821875 
L 336.44692 101.448354 
L 339.693466 94.202863 
L 342.940011 79.193866 
L 346.186557 19.296 
L 349.433102 134.846858 
L 352.679648 139.067723 
L 355.926193 139.752567 
L 359.172739 139.983122 
L 362.419284 140.087269 
L 365.66583 140.142663 
L 368.912375 140.17539 
L 372.15892 140.196205 
L 375.405466 140.21019 
L 378.652011 140.219994 
L 381.898557 140.227103 
L 385.145102 140.232403 
L 388.391648 140.236447 
" clip-path="url(#p198a041f04)" style="fill: none; stroke: #1f77b4; stroke-width: 1.5; stroke-linecap: square"/>
    <defs>
     <path id="mbde49a8aac" d="M 0 1.5 
C 0.397805 1.5 0.77937 1.341951 1.06066 1.06066 
C 1.341951 0.77937 1.5 0.397805 1.5 0 
C 1.5 -0.397805 1.341951 -0.77937 1.06066 -1.06066 
C 0.77937 -1.341951 0.397805 -1.5 0 -1.5 
C -0.397805 -1.5 -0.77937 -1.341951 -1.06066 -1.06066 
C -1.341951 -0.77937 -1.5 -0.397805 -1.5 0 
C -1.5 0.397805 -1.341951 0.77937 -1.06066 1.06066 
C -0.77937 1.341951 -0.397805 1.5 0 1.5 
z
" style="stroke: #1f77b4"/>
    </defs>
    <g clip-path="url(#p198a041f04)">
     <use xlink:href="#mbde49a8aac" x="63.737102" y="140.236447" style="fill: #1f77b4; stroke: #1f77b4"/>
     <use xlink:href="#mbde49a8aac" x="66.983648" y="140.232403" style="fill: #1f77b4; stroke: #1f77b4"/>
     <use xlink:href="#mbde49a8aac" x="70.230193" y="140.227103" style="fill: #1f77b4; stroke: #1f77b4"/>
     <use xlink:href="#mbde49a8aac" x="73.476739" y="140.219994" style="fill: #1f77b4; stroke: #1f77b4"/>
     <use xlink:href="#mbde49a8aac" x="76.723284" y="140.21019" style="fill: #1f77b4; stroke: #1f77b4"/>
     <use xlink:href="#mbde49a8aac" x="79.96983" y="140.196205" style="fill: #1f77b4; stroke: #1f77b4"/>
     <use xlink:href="#mbde49a8aac" x="83.216375" y="140.17539" style="fill: #1f77b4; stroke: #1f77b4"/>
     <use xlink:href="#mbde49a8aac" x="86.46292" y="140.142663" style="fill: #1f77b4; stroke: #1f77b4"/>
     <use xlink:href="#mbde49a8aac" x="89.709466" y="140.087269" style="fill: #1f77b4; stroke: #1f77b4"/>
     <use xlink:href="#mbde49a8aac" x="92.956011" y="139.983122" style="fill: #1f77b4; stroke: #1f77b4"/>
     <use xlink:href="#mbde49a8aac" x="96.202557" y="139.752567" style="fill: #1f77b4; stroke: #1f77b4"/>
     <use xlink:href="#mbde49a8aac" x="99.449102" y="139.067723" style="fill: #1f77b4; stroke: #1f77b4"/>
     <use xlink:href="#mbde49a8aac" x="102.695648" y="134.846858" style="fill: #1f77b4; stroke: #1f77b4"/>
     <use xlink:href="#mbde49a8aac" x="105.942193" y="19.296" style="fill: #1f77b4; stroke: #1f77b4"/>
     <use xlink:href="#mbde49a8aac" x="109.188739" y="79.193866" style="fill: #1f77b4; stroke: #1f77b4"/>
     <use xlink:href="#mbde49a8aac" x="112.435284" y="94.202863" style="fill: #1f77b4; stroke: #1f77b4"/>
     <use xlink:href="#mbde49a8aac" x="115.68183" y="101.448354" style="fill: #1f77b4; stroke: #1f77b4"/>
     <use xlink:href="#mbde49a8aac" x="118.928375" y="105.821875" style="fill: #1f77b4; stroke: #1f77b4"/>
     <use xlink:href="#mbde49a8aac" x="122.17492" y="108.762108" style="fill: #1f77b4; stroke: #1f77b4"/>
     <use xlink:href="#mbde49a8aac" x="125.421466" y="110.858953" style="fill: #1f77b4; stroke: #1f77b4"/>
     <use xlink:href="#mbde49a8aac" x="128.668011" y="112.40158" style="fill: #1f77b4; stroke: #1f77b4"/>
     <use xlink:href="#mbde49a8aac" x="131.914557" y="113.547472" style="fill: #1f77b4; stroke: #1f77b4"/>
     <use xlink:href="#mbde49a8aac" x="135.161102" y="114.387157" style="fill: #1f77b4; stroke: #1f77b4"/>
     <use xlink:href="#mbde49a8aac" x="138.407648" y="114.972432" style="fill: #1f77b4; stroke: #1f77b4"/>
     <use xlink:href="#mbde49a8aac" x="141.654193" y="115.329283" style="fill: #1f77b4; stroke: #1f77b4"/>
     <use xlink:href="#mbde49a8aac" x="144.900739" y="115.463032" style="fill: #1f77b4; stroke: #1f77b4"/>
     <use xlink:href="#mbde49a8aac" x="148.147284" y="115.358131" style="fill: #1f77b4; stroke: #1f77b4"/>
     <use xlink:href="#mbde49a8aac" x="151.39383" y="114.972156" style="fill: #1f77b4; stroke: #1f77b4"/>
     <use xlink:href="#mbde49a8aac" x="154.640375" y="114.220001" style="fill: #1f77b4; stroke: #1f77b4"/>
     <use xlink:href="#mbde49a8aac" x="157.88692" y="112.935978" style="fill: #1f77b4; stroke: #1f77b4"/>
     <use xlink:href="#mbde49a8aac" x="161.133466" y="110.774302" style="fill: #1f77b4; stroke: #1f77b4"/>
     <use xlink:href="#mbde49a8aac" x="164.380011" y="106.890311" style="fill: #1f77b4; stroke: #1f77b4"/>
     <use xlink:href="#mbde49a8aac" x="167.626557" y="98.475393" style="fill: #1f77b4; stroke: #1f77b4"/>
     <use xlink:href="#mbde49a8aac" x="170.873102" y="65.704626" style="fill: #1f77b4; stroke: #1f77b4"/>
     <use xlink:href="#mbde49a8aac" x="174.119648" y="135.331649" style="fill: #1f77b4; stroke: #1f77b4"/>
     <use xlink:href="#mbde49a8aac" x="177.366193" y="139.142702" style="fill: #1f77b4; stroke: #1f77b4"/>
     <use xlink:href="#mbde49a8aac" x="180.612739" y="139.746641" style="fill: #1f77b4; stroke: #1f77b4"/>
     <use xlink:href="#mbde49a8aac" x="183.859284" y="139.95448" style="fill: #1f77b4; stroke: #1f77b4"/>
     <use xlink:href="#mbde49a8aac" x="187.10583" y="140.051116" style="fill: #1f77b4; stroke: #1f77b4"/>
     <use xlink:href="#mbde49a8aac" x="190.352375" y="140.104048" style="fill: #1f77b4; stroke: #1f77b4"/>
     <use xlink:href="#mbde49a8aac" x="193.59892" y="140.136191" style="fill: #1f77b4; stroke: #1f77b4"/>
     <use xlink:href="#mbde49a8aac" x="196.845466" y="140.157125" style="fill: #1f77b4; stroke: #1f77b4"/>
     <use xlink:href="#mbde49a8aac" x="200.092011" y="140.171444" style="fill: #1f77b4; stroke: #1f77b4"/>
     <use xlink:href="#mbde49a8aac" x="203.338557" y="140.181577" style="fill: #1f77b4; stroke: #1f77b4"/>
     <use xlink:href="#mbde49a8aac" x="206.585102" y="140.188906" style="fill: #1f77b4; stroke: #1f77b4"/>
     <use xlink:href="#mbde49a8aac" x="209.831648" y="140.194259" style="fill: #1f77b4; stroke: #1f77b4"/>
     <use xlink:href="#mbde49a8aac" x="213.078193" y="140.198153" style="fill: #1f77b4; stroke: #1f77b4"/>
     <use xlink:href="#mbde49a8aac" x="216.324739" y="140.200919" style="fill: #1f77b4; stroke: #1f77b4"/>
     <use xlink:href="#mbde49a8aac" x="219.571284" y="140.202767" style="fill: #1f77b4; stroke: #1f77b4"/>
     <use xlink:href="#mbde49a8aac" x="222.81783" y="140.203829" style="fill: #1f77b4; stroke: #1f77b4"/>
     <use xlink:href="#mbde49a8aac" x="226.064375" y="140.204176" style="fill: #1f77b4; stroke: #1f77b4"/>
     <use xlink:href="#mbde49a8aac" x="229.31092" y="140.203829" style="fill: #1f77b4; stroke: #1f77b4"/>
     <use xlink:href="#mbde49a8aac" x="232.557466" y="140.202767" style="fill: #1f77b4; stroke: #1f77b4"/>
     <use xlink:href="#mbde49a8aac" x="235.804011" y="140.200919" style="fill: #1f77b4; stroke: #1f77b4"/>
     <use xlink:href="#mbde49a8aac" x="239.050557" y="140.198153" style="fill: #1f77b4; stroke: #1f77b4"/>
     <use xlink:href="#mbde49a8aac" x="242.297102" y="140.194259" style="fill: #1f77b4; stroke: #1f77b4"/>
     <use xlink:href="#mbde49a8aac" x="245.543648" y="140.188906" style="fill: #1f77b4; stroke: #1f77b4"/>
     <use xlink:href="#mbde49a8aac" x="248.790193" y="140.181577" style="fill: #1f77b4; stroke: #1f77b4"/>
     <use xlink:href="#mbde49a8aac" x="252.036739" y="140.171444" style="fill: #1f77b4; stroke: #1f77b4"/>
     <use xlink:href="#mbde49a8aac" x="255.283284" y="140.157125" style="fill: #1f77b4; stroke: #1f77b4"/>
     <use xlink:href="#mbde49a8aac" x="258.52983" y="140.136191" style="fill: #1f77b4; stroke: #1f77b4"/>
     <use xlink:href="#mbde49a8aac" x="261.776375" y="140.104048" style="fill: #1f77b4; stroke: #1f77b4"/>
     <use xlink:href="#mbde49a8aac" x="265.02292" y="140.051116" style="fill: #1f77b4; stroke: #1f77b4"/>
     <use xlink:href="#mbde49a8aac" x="268.269466" y="139.95448" style="fill: #1f77b4; stroke: #1f77b4"/>
     <use xlink:href="#mbde49a8aac" x="271.516011" y="139.746641" style="fill: #1f77b4; stroke: #1f77b4"/>
     <use xlink:href="#mbde49a8aac" x="274.762557" y="139.142702" style="fill: #1f77b4; stroke: #1f77b4"/>
     <use xlink:href="#mbde49a8aac" x="278.009102" y="135.331649" style="fill: #1f77b4; stroke: #1f77b4"/>
     <use xlink:href="#mbde49a8aac" x="281.255648" y="65.704626" style="fill: #1f77b4; stroke: #1f77b4"/>
     <use xlink:href="#mbde49a8aac" x="284.502193" y="98.475393" style="fill: #1f77b4; stroke: #1f77b4"/>
     <use xlink:href="#mbde49a8aac" x="287.748739" y="106.890311" style="fill: #1f77b4; stroke: #1f77b4"/>
     <use xlink:href="#mbde49a8aac" x="290.995284" y="110.774302" style="fill: #1f77b4; stroke: #1f77b4"/>
     <use xlink:href="#mbde49a8aac" x="294.24183" y="112.935978" style="fill: #1f77b4; stroke: #1f77b4"/>
     <use xlink:href="#mbde49a8aac" x="297.488375" y="114.220001" style="fill: #1f77b4; stroke: #1f77b4"/>
     <use xlink:href="#mbde49a8aac" x="300.73492" y="114.972156" style="fill: #1f77b4; stroke: #1f77b4"/>
     <use xlink:href="#mbde49a8aac" x="303.981466" y="115.358131" style="fill: #1f77b4; stroke: #1f77b4"/>
     <use xlink:href="#mbde49a8aac" x="307.228011" y="115.463032" style="fill: #1f77b4; stroke: #1f77b4"/>
     <use xlink:href="#mbde49a8aac" x="310.474557" y="115.329283" style="fill: #1f77b4; stroke: #1f77b4"/>
     <use xlink:href="#mbde49a8aac" x="313.721102" y="114.972432" style="fill: #1f77b4; stroke: #1f77b4"/>
     <use xlink:href="#mbde49a8aac" x="316.967648" y="114.387157" style="fill: #1f77b4; stroke: #1f77b4"/>
     <use xlink:href="#mbde49a8aac" x="320.214193" y="113.547472" style="fill: #1f77b4; stroke: #1f77b4"/>
     <use xlink:href="#mbde49a8aac" x="323.460739" y="112.40158" style="fill: #1f77b4; stroke: #1f77b4"/>
     <use xlink:href="#mbde49a8aac" x="326.707284" y="110.858953" style="fill: #1f77b4; stroke: #1f77b4"/>
     <use xlink:href="#mbde49a8aac" x="329.95383" y="108.762108" style="fill: #1f77b4; stroke: #1f77b4"/>
     <use xlink:href="#mbde49a8aac" x="333.200375" y="105.821875" style="fill: #1f77b4; stroke: #1f77b4"/>
     <use xlink:href="#mbde49a8aac" x="336.44692" y="101.448354" style="fill: #1f77b4; stroke: #1f77b4"/>
     <use xlink:href="#mbde49a8aac" x="339.693466" y="94.202863" style="fill: #1f77b4; stroke: #1f77b4"/>
     <use xlink:href="#mbde49a8aac" x="342.940011" y="79.193866" style="fill: #1f77b4; stroke: #1f77b4"/>
     <use xlink:href="#mbde49a8aac" x="346.186557" y="19.296" style="fill: #1f77b4; stroke: #1f77b4"/>
     <use xlink:href="#mbde49a8aac" x="349.433102" y="134.846858" style="fill: #1f77b4; stroke: #1f77b4"/>
     <use xlink:href="#mbde49a8aac" x="352.679648" y="139.067723" style="fill: #1f77b4; stroke: #1f77b4"/>
     <use xlink:href="#mbde49a8aac" x="355.926193" y="139.752567" style="fill: #1f77b4; stroke: #1f77b4"/>
     <use xlink:href="#mbde49a8aac" x="359.172739" y="139.983122" style="fill: #1f77b4; stroke: #1f77b4"/>
     <use xlink:href="#mbde49a8aac" x="362.419284" y="140.087269" style="fill: #1f77b4; stroke: #1f77b4"/>
     <use xlink:href="#mbde49a8aac" x="365.66583" y="140.142663" style="fill: #1f77b4; stroke: #1f77b4"/>
     <use xlink:href="#mbde49a8aac" x="368.912375" y="140.17539" style="fill: #1f77b4; stroke: #1f77b4"/>
     <use xlink:href="#mbde49a8aac" x="372.15892" y="140.196205" style="fill: #1f77b4; stroke: #1f77b4"/>
     <use xlink:href="#mbde49a8aac" x="375.405466" y="140.21019" style="fill: #1f77b4; stroke: #1f77b4"/>
     <use xlink:href="#mbde49a8aac" x="378.652011" y="140.219994" style="fill: #1f77b4; stroke: #1f77b4"/>
     <use xlink:href="#mbde49a8aac" x="381.898557" y="140.227103" style="fill: #1f77b4; stroke: #1f77b4"/>
     <use xlink:href="#mbde49a8aac" x="385.145102" y="140.232403" style="fill: #1f77b4; stroke: #1f77b4"/>
     <use xlink:href="#mbde49a8aac" x="388.391648" y="140.236447" style="fill: #1f77b4; stroke: #1f77b4"/>
    </g>
   </g>
   <g id="line2d_14">
    <path d="M 63.737102 140.275553 
L 66.983648 140.279597 
L 70.230193 140.284897 
L 73.476739 140.292006 
L 76.723284 140.30181 
L 79.96983 140.315795 
L 83.216375 140.33661 
L 86.46292 140.369337 
L 89.709466 140.424731 
L 92.956011 140.528878 
L 96.202557 140.759433 
L 99.449102 141.444277 
L 102.695648 145.665142 
L 105.942193 261.216 
L 109.188739 201.318134 
L 112.435284 186.309137 
L 115.68183 179.063646 
L 118.928375 174.690125 
L 122.17492 171.749892 
L 125.421466 169.653047 
L 128.668011 168.11042 
L 131.914557 166.964528 
L 135.161102 166.124843 
L 138.407648 165.539568 
L 141.654193 165.182717 
L 144.900739 165.048968 
L 148.147284 165.153869 
L 151.39383 165.539844 
L 154.640375 166.291999 
L 157.88692 167.576022 
L 161.133466 169.737698 
L 164.380011 173.621689 
L 167.626557 182.036607 
L 170.873102 214.807374 
L 174.119648 145.180351 
L 177.366193 141.369298 
L 180.612739 140.765359 
L 183.859284 140.55752 
L 187.10583 140.460884 
L 190.352375 140.407952 
L 193.59892 140.375809 
L 196.845466 140.354875 
L 200.092011 140.340556 
L 203.338557 140.330423 
L 206.585102 140.323094 
L 209.831648 140.317741 
L 213.078193 140.313847 
L 216.324739 140.311081 
L 219.571284 140.309233 
L 222.81783 140.308171 
L 226.064375 140.307824 
L 229.31092 140.308171 
L 232.557466 140.309233 
L 235.804011 140.311081 
L 239.050557 140.313847 
L 242.297102 140.317741 
L 245.543648 140.323094 
L 248.790193 140.330423 
L 252.036739 140.340556 
L 255.283284 140.354875 
L 258.52983 140.375809 
L 261.776375 140.407952 
L 265.02292 140.460884 
L 268.269466 140.55752 
L 271.516011 140.765359 
L 274.762557 141.369298 
L 278.009102 145.180351 
L 281.255648 214.807374 
L 284.502193 182.036607 
L 287.748739 173.621689 
L 290.995284 169.737698 
L 294.24183 167.576022 
L 297.488375 166.291999 
L 300.73492 165.539844 
L 303.981466 165.153869 
L 307.228011 165.048968 
L 310.474557 165.182717 
L 313.721102 165.539568 
L 316.967648 166.124843 
L 320.214193 166.964528 
L 323.460739 168.11042 
L 326.707284 169.653047 
L 329.95383 171.749892 
L 333.200375 174.690125 
L 336.44692 179.063646 
L 339.693466 186.309137 
L 342.940011 201.318134 
L 346.186557 261.216 
L 349.433102 145.665142 
L 352.679648 141.444277 
L 355.926193 140.759433 
L 359.172739 140.528878 
L 362.419284 140.424731 
L 365.66583 140.369337 
L 368.912375 140.33661 
L 372.15892 140.315795 
L 375.405466 140.30181 
L 378.652011 140.292006 
L 381.898557 140.284897 
L 385.145102 140.279597 
L 388.391648 140.275553 
" clip-path="url(#p198a041f04)" style="fill: none; stroke: #ff7f0e; stroke-width: 1.5; stroke-linecap: square"/>
    <defs>
     <path id="m7d02c47b6b" d="M 0 1.5 
C 0.397805 1.5 0.77937 1.341951 1.06066 1.06066 
C 1.341951 0.77937 1.5 0.397805 1.5 0 
C 1.5 -0.397805 1.341951 -0.77937 1.06066 -1.06066 
C 0.77937 -1.341951 0.397805 -1.5 0 -1.5 
C -0.397805 -1.5 -0.77937 -1.341951 -1.06066 -1.06066 
C -1.341951 -0.77937 -1.5 -0.397805 -1.5 0 
C -1.5 0.397805 -1.341951 0.77937 -1.06066 1.06066 
C -0.77937 1.341951 -0.397805 1.5 0 1.5 
z
" style="stroke: #ff7f0e"/>
    </defs>
    <g clip-path="url(#p198a041f04)">
     <use xlink:href="#m7d02c47b6b" x="63.737102" y="140.275553" style="fill: #ff7f0e; stroke: #ff7f0e"/>
     <use xlink:href="#m7d02c47b6b" x="66.983648" y="140.279597" style="fill: #ff7f0e; stroke: #ff7f0e"/>
     <use xlink:href="#m7d02c47b6b" x="70.230193" y="140.284897" style="fill: #ff7f0e; stroke: #ff7f0e"/>
     <use xlink:href="#m7d02c47b6b" x="73.476739" y="140.292006" style="fill: #ff7f0e; stroke: #ff7f0e"/>
     <use xlink:href="#m7d02c47b6b" x="76.723284" y="140.30181" style="fill: #ff7f0e; stroke: #ff7f0e"/>
     <use xlink:href="#m7d02c47b6b" x="79.96983" y="140.315795" style="fill: #ff7f0e; stroke: #ff7f0e"/>
     <use xlink:href="#m7d02c47b6b" x="83.216375" y="140.33661" style="fill: #ff7f0e; stroke: #ff7f0e"/>
     <use xlink:href="#m7d02c47b6b" x="86.46292" y="140.369337" style="fill: #ff7f0e; stroke: #ff7f0e"/>
     <use xlink:href="#m7d02c47b6b" x="89.709466" y="140.424731" style="fill: #ff7f0e; stroke: #ff7f0e"/>
     <use xlink:href="#m7d02c47b6b" x="92.956011" y="140.528878" style="fill: #ff7f0e; stroke: #ff7f0e"/>
     <use xlink:href="#m7d02c47b6b" x="96.202557" y="140.759433" style="fill: #ff7f0e; stroke: #ff7f0e"/>
     <use xlink:href="#m7d02c47b6b" x="99.449102" y="141.444277" style="fill: #ff7f0e; stroke: #ff7f0e"/>
     <use xlink:href="#m7d02c47b6b" x="102.695648" y="145.665142" style="fill: #ff7f0e; stroke: #ff7f0e"/>
     <use xlink:href="#m7d02c47b6b" x="105.942193" y="261.216" style="fill: #ff7f0e; stroke: #ff7f0e"/>
     <use xlink:href="#m7d02c47b6b" x="109.188739" y="201.318134" style="fill: #ff7f0e; stroke: #ff7f0e"/>
     <use xlink:href="#m7d02c47b6b" x="112.435284" y="186.309137" style="fill: #ff7f0e; stroke: #ff7f0e"/>
     <use xlink:href="#m7d02c47b6b" x="115.68183" y="179.063646" style="fill: #ff7f0e; stroke: #ff7f0e"/>
     <use xlink:href="#m7d02c47b6b" x="118.928375" y="174.690125" style="fill: #ff7f0e; stroke: #ff7f0e"/>
     <use xlink:href="#m7d02c47b6b" x="122.17492" y="171.749892" style="fill: #ff7f0e; stroke: #ff7f0e"/>
     <use xlink:href="#m7d02c47b6b" x="125.421466" y="169.653047" style="fill: #ff7f0e; stroke: #ff7f0e"/>
     <use xlink:href="#m7d02c47b6b" x="128.668011" y="168.11042" style="fill: #ff7f0e; stroke: #ff7f0e"/>
     <use xlink:href="#m7d02c47b6b" x="131.914557" y="166.964528" style="fill: #ff7f0e; stroke: #ff7f0e"/>
     <use xlink:href="#m7d02c47b6b" x="135.161102" y="166.124843" style="fill: #ff7f0e; stroke: #ff7f0e"/>
     <use xlink:href="#m7d02c47b6b" x="138.407648" y="165.539568" style="fill: #ff7f0e; stroke: #ff7f0e"/>
     <use xlink:href="#m7d02c47b6b" x="141.654193" y="165.182717" style="fill: #ff7f0e; stroke: #ff7f0e"/>
     <use xlink:href="#m7d02c47b6b" x="144.900739" y="165.048968" style="fill: #ff7f0e; stroke: #ff7f0e"/>
     <use xlink:href="#m7d02c47b6b" x="148.147284" y="165.153869" style="fill: #ff7f0e; stroke: #ff7f0e"/>
     <use xlink:href="#m7d02c47b6b" x="151.39383" y="165.539844" style="fill: #ff7f0e; stroke: #ff7f0e"/>
     <use xlink:href="#m7d02c47b6b" x="154.640375" y="166.291999" style="fill: #ff7f0e; stroke: #ff7f0e"/>
     <use xlink:href="#m7d02c47b6b" x="157.88692" y="167.576022" style="fill: #ff7f0e; stroke: #ff7f0e"/>
     <use xlink:href="#m7d02c47b6b" x="161.133466" y="169.737698" style="fill: #ff7f0e; stroke: #ff7f0e"/>
     <use xlink:href="#m7d02c47b6b" x="164.380011" y="173.621689" style="fill: #ff7f0e; stroke: #ff7f0e"/>
     <use xlink:href="#m7d02c47b6b" x="167.626557" y="182.036607" style="fill: #ff7f0e; stroke: #ff7f0e"/>
     <use xlink:href="#m7d02c47b6b" x="170.873102" y="214.807374" style="fill: #ff7f0e; stroke: #ff7f0e"/>
     <use xlink:href="#m7d02c47b6b" x="174.119648" y="145.180351" style="fill: #ff7f0e; stroke: #ff7f0e"/>
     <use xlink:href="#m7d02c47b6b" x="177.366193" y="141.369298" style="fill: #ff7f0e; stroke: #ff7f0e"/>
     <use xlink:href="#m7d02c47b6b" x="180.612739" y="140.765359" style="fill: #ff7f0e; stroke: #ff7f0e"/>
     <use xlink:href="#m7d02c47b6b" x="183.859284" y="140.55752" style="fill: #ff7f0e; stroke: #ff7f0e"/>
     <use xlink:href="#m7d02c47b6b" x="187.10583" y="140.460884" style="fill: #ff7f0e; stroke: #ff7f0e"/>
     <use xlink:href="#m7d02c47b6b" x="190.352375" y="140.407952" style="fill: #ff7f0e; stroke: #ff7f0e"/>
     <use xlink:href="#m7d02c47b6b" x="193.59892" y="140.375809" style="fill: #ff7f0e; stroke: #ff7f0e"/>
     <use xlink:href="#m7d02c47b6b" x="196.845466" y="140.354875" style="fill: #ff7f0e; stroke: #ff7f0e"/>
     <use xlink:href="#m7d02c47b6b" x="200.092011" y="140.340556" style="fill: #ff7f0e; stroke: #ff7f0e"/>
     <use xlink:href="#m7d02c47b6b" x="203.338557" y="140.330423" style="fill: #ff7f0e; stroke: #ff7f0e"/>
     <use xlink:href="#m7d02c47b6b" x="206.585102" y="140.323094" style="fill: #ff7f0e; stroke: #ff7f0e"/>
     <use xlink:href="#m7d02c47b6b" x="209.831648" y="140.317741" style="fill: #ff7f0e; stroke: #ff7f0e"/>
     <use xlink:href="#m7d02c47b6b" x="213.078193" y="140.313847" style="fill: #ff7f0e; stroke: #ff7f0e"/>
     <use xlink:href="#m7d02c47b6b" x="216.324739" y="140.311081" style="fill: #ff7f0e; stroke: #ff7f0e"/>
     <use xlink:href="#m7d02c47b6b" x="219.571284" y="140.309233" style="fill: #ff7f0e; stroke: #ff7f0e"/>
     <use xlink:href="#m7d02c47b6b" x="222.81783" y="140.308171" style="fill: #ff7f0e; stroke: #ff7f0e"/>
     <use xlink:href="#m7d02c47b6b" x="226.064375" y="140.307824" style="fill: #ff7f0e; stroke: #ff7f0e"/>
     <use xlink:href="#m7d02c47b6b" x="229.31092" y="140.308171" style="fill: #ff7f0e; stroke: #ff7f0e"/>
     <use xlink:href="#m7d02c47b6b" x="232.557466" y="140.309233" style="fill: #ff7f0e; stroke: #ff7f0e"/>
     <use xlink:href="#m7d02c47b6b" x="235.804011" y="140.311081" style="fill: #ff7f0e; stroke: #ff7f0e"/>
     <use xlink:href="#m7d02c47b6b" x="239.050557" y="140.313847" style="fill: #ff7f0e; stroke: #ff7f0e"/>
     <use xlink:href="#m7d02c47b6b" x="242.297102" y="140.317741" style="fill: #ff7f0e; stroke: #ff7f0e"/>
     <use xlink:href="#m7d02c47b6b" x="245.543648" y="140.323094" style="fill: #ff7f0e; stroke: #ff7f0e"/>
     <use xlink:href="#m7d02c47b6b" x="248.790193" y="140.330423" style="fill: #ff7f0e; stroke: #ff7f0e"/>
     <use xlink:href="#m7d02c47b6b" x="252.036739" y="140.340556" style="fill: #ff7f0e; stroke: #ff7f0e"/>
     <use xlink:href="#m7d02c47b6b" x="255.283284" y="140.354875" style="fill: #ff7f0e; stroke: #ff7f0e"/>
     <use xlink:href="#m7d02c47b6b" x="258.52983" y="140.375809" style="fill: #ff7f0e; stroke: #ff7f0e"/>
     <use xlink:href="#m7d02c47b6b" x="261.776375" y="140.407952" style="fill: #ff7f0e; stroke: #ff7f0e"/>
     <use xlink:href="#m7d02c47b6b" x="265.02292" y="140.460884" style="fill: #ff7f0e; stroke: #ff7f0e"/>
     <use xlink:href="#m7d02c47b6b" x="268.269466" y="140.55752" style="fill: #ff7f0e; stroke: #ff7f0e"/>
     <use xlink:href="#m7d02c47b6b" x="271.516011" y="140.765359" style="fill: #ff7f0e; stroke: #ff7f0e"/>
     <use xlink:href="#m7d02c47b6b" x="274.762557" y="141.369298" style="fill: #ff7f0e; stroke: #ff7f0e"/>
     <use xlink:href="#m7d02c47b6b" x="278.009102" y="145.180351" style="fill: #ff7f0e; stroke: #ff7f0e"/>
     <use xlink:href="#m7d02c47b6b" x="281.255648" y="214.807374" style="fill: #ff7f0e; stroke: #ff7f0e"/>
     <use xlink:href="#m7d02c47b6b" x="284.502193" y="182.036607" style="fill: #ff7f0e; stroke: #ff7f0e"/>
     <use xlink:href="#m7d02c47b6b" x="287.748739" y="173.621689" style="fill: #ff7f0e; stroke: #ff7f0e"/>
     <use xlink:href="#m7d02c47b6b" x="290.995284" y="169.737698" style="fill: #ff7f0e; stroke: #ff7f0e"/>
     <use xlink:href="#m7d02c47b6b" x="294.24183" y="167.576022" style="fill: #ff7f0e; stroke: #ff7f0e"/>
     <use xlink:href="#m7d02c47b6b" x="297.488375" y="166.291999" style="fill: #ff7f0e; stroke: #ff7f0e"/>
     <use xlink:href="#m7d02c47b6b" x="300.73492" y="165.539844" style="fill: #ff7f0e; stroke: #ff7f0e"/>
     <use xlink:href="#m7d02c47b6b" x="303.981466" y="165.153869" style="fill: #ff7f0e; stroke: #ff7f0e"/>
     <use xlink:href="#m7d02c47b6b" x="307.228011" y="165.048968" style="fill: #ff7f0e; stroke: #ff7f0e"/>
     <use xlink:href="#m7d02c47b6b" x="310.474557" y="165.182717" style="fill: #ff7f0e; stroke: #ff7f0e"/>
     <use xlink:href="#m7d02c47b6b" x="313.721102" y="165.539568" style="fill: #ff7f0e; stroke: #ff7f0e"/>
     <use xlink:href="#m7d02c47b6b" x="316.967648" y="166.124843" style="fill: #ff7f0e; stroke: #ff7f0e"/>
     <use xlink:href="#m7d02c47b6b" x="320.214193" y="166.964528" style="fill: #ff7f0e; stroke: #ff7f0e"/>
     <use xlink:href="#m7d02c47b6b" x="323.460739" y="168.11042" style="fill: #ff7f0e; stroke: #ff7f0e"/>
     <use xlink:href="#m7d02c47b6b" x="326.707284" y="169.653047" style="fill: #ff7f0e; stroke: #ff7f0e"/>
     <use xlink:href="#m7d02c47b6b" x="329.95383" y="171.749892" style="fill: #ff7f0e; stroke: #ff7f0e"/>
     <use xlink:href="#m7d02c47b6b" x="333.200375" y="174.690125" style="fill: #ff7f0e; stroke: #ff7f0e"/>
     <use xlink:href="#m7d02c47b6b" x="336.44692" y="179.063646" style="fill: #ff7f0e; stroke: #ff7f0e"/>
     <use xlink:href="#m7d02c47b6b" x="339.693466" y="186.309137" style="fill: #ff7f0e; stroke: #ff7f0e"/>
     <use xlink:href="#m7d02c47b6b" x="342.940011" y="201.318134" style="fill: #ff7f0e; stroke: #ff7f0e"/>
     <use xlink:href="#m7d02c47b6b" x="346.186557" y="261.216" style="fill: #ff7f0e; stroke: #ff7f0e"/>
     <use xlink:href="#m7d02c47b6b" x="349.433102" y="145.665142" style="fill: #ff7f0e; stroke: #ff7f0e"/>
     <use xlink:href="#m7d02c47b6b" x="352.679648" y="141.444277" style="fill: #ff7f0e; stroke: #ff7f0e"/>
     <use xlink:href="#m7d02c47b6b" x="355.926193" y="140.759433" style="fill: #ff7f0e; stroke: #ff7f0e"/>
     <use xlink:href="#m7d02c47b6b" x="359.172739" y="140.528878" style="fill: #ff7f0e; stroke: #ff7f0e"/>
     <use xlink:href="#m7d02c47b6b" x="362.419284" y="140.424731" style="fill: #ff7f0e; stroke: #ff7f0e"/>
     <use xlink:href="#m7d02c47b6b" x="365.66583" y="140.369337" style="fill: #ff7f0e; stroke: #ff7f0e"/>
     <use xlink:href="#m7d02c47b6b" x="368.912375" y="140.33661" style="fill: #ff7f0e; stroke: #ff7f0e"/>
     <use xlink:href="#m7d02c47b6b" x="372.15892" y="140.315795" style="fill: #ff7f0e; stroke: #ff7f0e"/>
     <use xlink:href="#m7d02c47b6b" x="375.405466" y="140.30181" style="fill: #ff7f0e; stroke: #ff7f0e"/>
     <use xlink:href="#m7d02c47b6b" x="378.652011" y="140.292006" style="fill: #ff7f0e; stroke: #ff7f0e"/>
     <use xlink:href="#m7d02c47b6b" x="381.898557" y="140.284897" style="fill: #ff7f0e; stroke: #ff7f0e"/>
     <use xlink:href="#m7d02c47b6b" x="385.145102" y="140.279597" style="fill: #ff7f0e; stroke: #ff7f0e"/>
     <use xlink:href="#m7d02c47b6b" x="388.391648" y="140.275553" style="fill: #ff7f0e; stroke: #ff7f0e"/>
    </g>
   </g>
   <g id="patch_3">
    <path d="M 47.504375 273.312 
L 47.504375 7.2 
" style="fill: none; stroke: #000000; stroke-width: 0.8; stroke-linejoin: miter; stroke-linecap: square"/>
   </g>
   <g id="patch_4">
    <path d="M 404.624375 273.312 
L 404.624375 7.2 
" style="fill: none; stroke: #000000; stroke-width: 0.8; stroke-linejoin: miter; stroke-linecap: square"/>
   </g>
   <g id="patch_5">
    <path d="M 47.504375 273.312 
L 404.624375 273.312 
" style="fill: none; stroke: #000000; stroke-width: 0.8; stroke-linejoin: miter; stroke-linecap: square"/>
   </g>
   <g id="patch_6">
    <path d="M 47.504375 7.2 
L 404.624375 7.2 
" style="fill: none; stroke: #000000; stroke-width: 0.8; stroke-linejoin: miter; stroke-linecap: square"/>
   </g>
   <g id="legend_1">
    <g id="patch_7">
     <path d="M 176.105938 267.312 
L 276.022813 267.312 
Q 278.422813 267.312 278.422813 264.912 
L 278.422813 230.8845 
Q 278.422813 228.4845 276.022813 228.4845 
L 176.105938 228.4845 
Q 173.705938 228.4845 173.705938 230.8845 
L 173.705938 264.912 
Q 173.705938 267.312 176.105938 267.312 
z
" style="fill: #ffffff; opacity: 0.8; stroke: #cccccc; stroke-linejoin: miter"/>
    </g>
    <g id="line2d_15">
     <path d="M 178.505938 238.202625 
L 190.505938 238.202625 
L 202.505938 238.202625 
" style="fill: none; stroke: #1f77b4; stroke-width: 1.5; stroke-linecap: square"/>
     <g>
      <use xlink:href="#mbde49a8aac" x="190.505938" y="238.202625" style="fill: #1f77b4; stroke: #1f77b4"/>
     </g>
    </g>
    <g id="text_15">
     <!-- spin-up -->
     <g transform="translate(212.105938 242.402625) scale(0.12 -0.12)">
      <defs>
       <path id="DejaVuSans-73" d="M 2834 3397 
L 2834 2853 
Q 2591 2978 2328 3040 
Q 2066 3103 1784 3103 
Q 1356 3103 1142 2972 
Q 928 2841 928 2578 
Q 928 2378 1081 2264 
Q 1234 2150 1697 2047 
L 1894 2003 
Q 2506 1872 2764 1633 
Q 3022 1394 3022 966 
Q 3022 478 2636 193 
Q 2250 -91 1575 -91 
Q 1294 -91 989 -36 
Q 684 19 347 128 
L 347 722 
Q 666 556 975 473 
Q 1284 391 1588 391 
Q 1994 391 2212 530 
Q 2431 669 2431 922 
Q 2431 1156 2273 1281 
Q 2116 1406 1581 1522 
L 1381 1569 
Q 847 1681 609 1914 
Q 372 2147 372 2553 
Q 372 3047 722 3315 
Q 1072 3584 1716 3584 
Q 2034 3584 2315 3537 
Q 2597 3491 2834 3397 
z
" transform="scale(0.015625)"/>
       <path id="DejaVuSans-70" d="M 1159 525 
L 1159 -1331 
L 581 -1331 
L 581 3500 
L 1159 3500 
L 1159 2969 
Q 1341 3281 1617 3432 
Q 1894 3584 2278 3584 
Q 2916 3584 3314 3078 
Q 3713 2572 3713 1747 
Q 3713 922 3314 415 
Q 2916 -91 2278 -91 
Q 1894 -91 1617 61 
Q 1341 213 1159 525 
z
M 3116 1747 
Q 3116 2381 2855 2742 
Q 2594 3103 2138 3103 
Q 1681 3103 1420 2742 
Q 1159 2381 1159 1747 
Q 1159 1113 1420 752 
Q 1681 391 2138 391 
Q 2594 391 2855 752 
Q 3116 1113 3116 1747 
z
" transform="scale(0.015625)"/>
       <path id="DejaVuSans-69" d="M 603 3500 
L 1178 3500 
L 1178 0 
L 603 0 
L 603 3500 
z
M 603 4863 
L 1178 4863 
L 1178 4134 
L 603 4134 
L 603 4863 
z
" transform="scale(0.015625)"/>
       <path id="DejaVuSans-2d" d="M 313 2009 
L 1997 2009 
L 1997 1497 
L 313 1497 
L 313 2009 
z
" transform="scale(0.015625)"/>
       <path id="DejaVuSans-75" d="M 544 1381 
L 544 3500 
L 1119 3500 
L 1119 1403 
Q 1119 906 1312 657 
Q 1506 409 1894 409 
Q 2359 409 2629 706 
Q 2900 1003 2900 1516 
L 2900 3500 
L 3475 3500 
L 3475 0 
L 2900 0 
L 2900 538 
Q 2691 219 2414 64 
Q 2138 -91 1772 -91 
Q 1169 -91 856 284 
Q 544 659 544 1381 
z
M 1991 3584 
L 1991 3584 
z
" transform="scale(0.015625)"/>
      </defs>
      <use xlink:href="#DejaVuSans-73"/>
      <use xlink:href="#DejaVuSans-70" x="52.099609"/>
      <use xlink:href="#DejaVuSans-69" x="115.576172"/>
      <use xlink:href="#DejaVuSans-6e" x="143.359375"/>
      <use xlink:href="#DejaVuSans-2d" x="206.738281"/>
      <use xlink:href="#DejaVuSans-75" x="242.822266"/>
      <use xlink:href="#DejaVuSans-70" x="306.201172"/>
     </g>
    </g>
    <g id="line2d_16">
     <path d="M 178.505938 255.816375 
L 190.505938 255.816375 
L 202.505938 255.816375 
" style="fill: none; stroke: #ff7f0e; stroke-width: 1.5; stroke-linecap: square"/>
     <g>
      <use xlink:href="#m7d02c47b6b" x="190.505938" y="255.816375" style="fill: #ff7f0e; stroke: #ff7f0e"/>
     </g>
    </g>
    <g id="text_16">
     <!-- spin-down -->
     <g transform="translate(212.105938 260.016375) scale(0.12 -0.12)">
      <defs>
       <path id="DejaVuSans-64" d="M 2906 2969 
L 2906 4863 
L 3481 4863 
L 3481 0 
L 2906 0 
L 2906 525 
Q 2725 213 2448 61 
Q 2172 -91 1784 -91 
Q 1150 -91 751 415 
Q 353 922 353 1747 
Q 353 2572 751 3078 
Q 1150 3584 1784 3584 
Q 2172 3584 2448 3432 
Q 2725 3281 2906 2969 
z
M 947 1747 
Q 947 1113 1208 752 
Q 1469 391 1925 391 
Q 2381 391 2643 752 
Q 2906 1113 2906 1747 
Q 2906 2381 2643 2742 
Q 2381 3103 1925 3103 
Q 1469 3103 1208 2742 
Q 947 2381 947 1747 
z
" transform="scale(0.015625)"/>
       <path id="DejaVuSans-6f" d="M 1959 3097 
Q 1497 3097 1228 2736 
Q 959 2375 959 1747 
Q 959 1119 1226 758 
Q 1494 397 1959 397 
Q 2419 397 2687 759 
Q 2956 1122 2956 1747 
Q 2956 2369 2687 2733 
Q 2419 3097 1959 3097 
z
M 1959 3584 
Q 2709 3584 3137 3096 
Q 3566 2609 3566 1747 
Q 3566 888 3137 398 
Q 2709 -91 1959 -91 
Q 1206 -91 779 398 
Q 353 888 353 1747 
Q 353 2609 779 3096 
Q 1206 3584 1959 3584 
z
" transform="scale(0.015625)"/>
       <path id="DejaVuSans-77" d="M 269 3500 
L 844 3500 
L 1563 769 
L 2278 3500 
L 2956 3500 
L 3675 769 
L 4391 3500 
L 4966 3500 
L 4050 0 
L 3372 0 
L 2619 2869 
L 1863 0 
L 1184 0 
L 269 3500 
z
" transform="scale(0.015625)"/>
      </defs>
      <use xlink:href="#DejaVuSans-73"/>
      <use xlink:href="#DejaVuSans-70" x="52.099609"/>
      <use xlink:href="#DejaVuSans-69" x="115.576172"/>
      <use xlink:href="#DejaVuSans-6e" x="143.359375"/>
      <use xlink:href="#DejaVuSans-2d" x="206.738281"/>
      <use xlink:href="#DejaVuSans-64" x="242.822266"/>
      <use xlink:href="#DejaVuSans-6f" x="306.298828"/>
      <use xlink:href="#DejaVuSans-77" x="367.480469"/>
      <use xlink:href="#DejaVuSans-6e" x="449.267578"/>
     </g>
    </g>
   </g>
  </g>
 </g>
 <defs>
  <clipPath id="p198a041f04">
   <rect x="47.504375" y="7.2" width="357.12" height="266.112"/>
  </clipPath>
 </defs>
</svg>