<?xml version="1.0" encoding="utf-8" standalone="no"?>
<!DOCTYPE svg PUBLIC "-//W3C//DTD SVG 1.1//EN"
  "http://www.w3.org/Graphics/SVG/1.1/DTD/svg11.dtd">
<svg xmlns:xlink="http://www.w3.org/1999/xlink" width="430.908125pt" height="314.7395pt" viewBox="0 0 430.908125 314.7395" xmlns="http://www.w3.org/2000/svg" version="1.1">
 <metadata>
  <rdf:RDF xmlns:dc="http://purl.org/dc/elements/1.1/" xmlns:cc="http://creativecommons.org/ns#" xmlns:rdf="http://www.w3.org/1999/02/22-rdf-syntax-ns#">
   <cc:Work>
    <dc:type rdf:resource="http://purl.org/dc/dcmitype/StillImage"/>
    <dc:date>2024-08-14T21:11:30.360610</dc:date>
    <dc:format>image/svg+xml</dc:format>
    <dc:creator>
     <cc:Agent>
      <dc:title>Matplotlib v3.7.2, https://matplotlib.org/</dc:title>
     </cc:Agent>
    </dc:creator>
   </cc:Work>
  </rdf:RDF>
 </metadata>
 <defs>
  <style type="text/css">*{stroke-linejoin: round; stroke-linecap: butt}</style>
 </defs>
 <g id="figure_1">
  <g id="patch_1">
   <path d="M 0 314.7395 
L 430.908125 314.7395 
L 430.908125 0 
L 0 0 
z
" style="fill: #ffffff"/>
  </g>
  <g id="axes_1">
   <g id="patch_2">
    <path d="M 66.588125 273.312 
L 423.708125 273.312 
L 423.708125 7.2 
L 66.588125 7.2 
z
" style="fill: #ffffff"/>
   </g>
   <g id="matplotlib.axis_1">
    <g id="xtick_1">
     <g id="line2d_1">
      <defs>
       <path id="mcaedb7d0b5" d="M 0 0 
L 0 3.5 
" style="stroke: #000000; stroke-width: 0.8"/>
      </defs>
      <g>
       <use xlink:href="#mcaedb7d0b5" x="82.820852" y="273.312" style="stroke: #000000; stroke-width: 0.8"/>
      </g>
     </g>
     <g id="text_1">
      <!-- −3 -->
      <g transform="translate(73.97554 289.430125) scale(0.12 -0.12)">
       <defs>
        <path id="DejaVuSans-2212" d="M 678 2272 
L 4684 2272 
L 4684 1741 
L 678 1741 
L 678 2272 
z
" transform="scale(0.015625)"/>
        <path id="DejaVuSans-33" d="M 2597 2516 
Q 3050 2419 3304 2112 
Q 3559 1806 3559 1356 
Q 3559 666 3084 287 
Q 2609 -91 1734 -91 
Q 1441 -91 1130 -33 
Q 819 25 488 141 
L 488 750 
Q 750 597 1062 519 
Q 1375 441 1716 441 
Q 2309 441 2620 675 
Q 2931 909 2931 1356 
Q 2931 1769 2642 2001 
Q 2353 2234 1838 2234 
L 1294 2234 
L 1294 2753 
L 1863 2753 
Q 2328 2753 2575 2939 
Q 2822 3125 2822 3475 
Q 2822 3834 2567 4026 
Q 2313 4219 1838 4219 
Q 1578 4219 1281 4162 
Q 984 4106 628 3988 
L 628 4550 
Q 988 4650 1302 4700 
Q 1616 4750 1894 4750 
Q 2613 4750 3031 4423 
Q 3450 4097 3450 3541 
Q 3450 3153 3228 2886 
Q 3006 2619 2597 2516 
z
" transform="scale(0.015625)"/>
       </defs>
       <use xlink:href="#DejaVuSans-2212"/>
       <use xlink:href="#DejaVuSans-33" x="83.789062"/>
      </g>
     </g>
    </g>
    <g id="xtick_2">
     <g id="line2d_2">
      <g>
       <use xlink:href="#mcaedb7d0b5" x="136.929943" y="273.312" style="stroke: #000000; stroke-width: 0.8"/>
      </g>
     </g>
     <g id="text_2">
      <!-- −2 -->
      <g transform="translate(128.084631 289.430125) scale(0.12 -0.12)">
       <defs>
        <path id="DejaVuSans-32" d="M 1228 531 
L 3431 531 
L 3431 0 
L 469 0 
L 469 531 
Q 828 903 1448 1529 
Q 2069 2156 2228 2338 
Q 2531 2678 2651 2914 
Q 2772 3150 2772 3378 
Q 2772 3750 2511 3984 
Q 2250 4219 1831 4219 
Q 1534 4219 1204 4116 
Q 875 4013 500 3803 
L 500 4441 
Q 881 4594 1212 4672 
Q 1544 4750 1819 4750 
Q 2544 4750 2975 4387 
Q 3406 4025 3406 3419 
Q 3406 3131 3298 2873 
Q 3191 2616 2906 2266 
Q 2828 2175 2409 1742 
Q 1991 1309 1228 531 
z
" transform="scale(0.015625)"/>
       </defs>
       <use xlink:href="#DejaVuSans-2212"/>
       <use xlink:href="#DejaVuSans-32" x="83.789062"/>
      </g>
     </g>
    </g>
    <g id="xtick_3">
     <g id="line2d_3">
      <g>
       <use xlink:href="#mcaedb7d0b5" x="191.039034" y="273.312" style="stroke: #000000; stroke-width: 0.8"/>
      </g>
     </g>
     <g id="text_3">
      <!-- −1 -->
      <g transform="translate(182.193722 289.430125) scale(0.12 -0.12)">
       <defs>
        <path id="DejaVuSans-31" d="M 794 531 
L 1825 531 
L 1825 4091 
L 703 3866 
L 703 4441 
L 1819 4666 
L 2450 4666 
L 2450 531 
L 3481 531 
L 3481 0 
L 794 0 
L 794 531 
z
" transform="scale(0.015625)"/>
       </defs>
       <use xlink:href="#DejaVuSans-2212"/>
       <use xlink:href="#DejaVuSans-31" x="83.789062"/>
      </g>
     </g>
    </g>
    <g id="xtick_4">
     <g id="line2d_4">
      <g>
       <use xlink:href="#mcaedb7d0b5" x="245.148125" y="273.312" style="stroke: #000000; stroke-width: 0.8"/>
      </g>
     </g>
     <g id="text_4">
      <!-- 0 -->
      <g transform="translate(241.330625 289.430125) scale(0.12 -0.12)">
       <defs>
        <path id="DejaVuSans-30" d="M 2034 4250 
Q 1547 4250 1301 3770 
Q 1056 3291 1056 2328 
Q 1056 1369 1301 889 
Q 1547 409 2034 409 
Q 2525 409 2770 889 
Q 3016 1369 3016 2328 
Q 3016 3291 2770 3770 
Q 2525 4250 2034 4250 
z
M 2034 4750 
Q 2819 4750 3233 4129 
Q 3647 3509 3647 2328 
Q 3647 1150 3233 529 
Q 2819 -91 2034 -91 
Q 1250 -91 836 529 
Q 422 1150 422 2328 
Q 422 3509 836 4129 
Q 1250 4750 2034 4750 
z
" transform="scale(0.015625)"/>
       </defs>
       <use xlink:href="#DejaVuSans-30"/>
      </g>
     </g>
    </g>
    <g id="xtick_5">
     <g id="line2d_5">
      <g>
       <use xlink:href="#mcaedb7d0b5" x="299.257216" y="273.312" style="stroke: #000000; stroke-width: 0.8"/>
      </g>
     </g>
     <g id="text_5">
      <!-- 1 -->
      <g transform="translate(295.439716 289.430125) scale(0.12 -0.12)">
       <use xlink:href="#DejaVuSans-31"/>
      </g>
     </g>
    </g>
    <g id="xtick_6">
     <g id="line2d_6">
      <g>
       <use xlink:href="#mcaedb7d0b5" x="353.366307" y="273.312" style="stroke: #000000; stroke-width: 0.8"/>
      </g>
     </g>
     <g id="text_6">
      <!-- 2 -->
      <g transform="translate(349.548807 289.430125) scale(0.12 -0.12)">
       <use xlink:href="#DejaVuSans-32"/>
      </g>
     </g>
    </g>
    <g id="xtick_7">
     <g id="line2d_7">
      <g>
       <use xlink:href="#mcaedb7d0b5" x="407.475398" y="273.312" style="stroke: #000000; stroke-width: 0.8"/>
      </g>
     </g>
     <g id="text_7">
      <!-- 3 -->
      <g transform="translate(403.657898 289.430125) scale(0.12 -0.12)">
       <use xlink:href="#DejaVuSans-33"/>
      </g>
     </g>
    </g>
    <g id="text_8">
     <!-- Energy (eV) -->
     <g transform="translate(209.755625 305.043875) scale(0.12 -0.12)">
      <defs>
       <path id="DejaVuSans-45" d="M 628 4666 
L 3578 4666 
L 3578 4134 
L 1259 4134 
L 1259 2753 
L 3481 2753 
L 3481 2222 
L 1259 2222 
L 1259 531 
L 3634 531 
L 3634 0 
L 628 0 
L 628 4666 
z
" transform="scale(0.015625)"/>
       <path id="DejaVuSans-6e" d="M 3513 2113 
L 3513 0 
L 2938 0 
L 2938 2094 
Q 2938 2591 2744 2837 
Q 2550 3084 2163 3084 
Q 1697 3084 1428 2787 
Q 1159 2491 1159 1978 
L 1159 0 
L 581 0 
L 581 3500 
L 1159 3500 
L 1159 2956 
Q 1366 3272 1645 3428 
Q 1925 3584 2291 3584 
Q 2894 3584 3203 3211 
Q 3513 2838 3513 2113 
z
" transform="scale(0.015625)"/>
       <path id="DejaVuSans-65" d="M 3597 1894 
L 3597 1613 
L 953 1613 
Q 991 1019 1311 708 
Q 1631 397 2203 397 
Q 2534 397 2845 478 
Q 3156 559 3463 722 
L 3463 178 
Q 3153 47 2828 -22 
Q 2503 -91 2169 -91 
Q 1331 -91 842 396 
Q 353 884 353 1716 
Q 353 2575 817 3079 
Q 1281 3584 2069 3584 
Q 2775 3584 3186 3129 
Q 3597 2675 3597 1894 
z
M 3022 2063 
Q 3016 2534 2758 2815 
Q 2500 3097 2075 3097 
Q 1594 3097 1305 2825 
Q 1016 2553 972 2059 
L 3022 2063 
z
" transform="scale(0.015625)"/>
       <path id="DejaVuSans-72" d="M 2631 2963 
Q 2534 3019 2420 3045 
Q 2306 3072 2169 3072 
Q 1681 3072 1420 2755 
Q 1159 2438 1159 1844 
L 1159 0 
L 581 0 
L 581 3500 
L 1159 3500 
L 1159 2956 
Q 1341 3275 1631 3429 
Q 1922 3584 2338 3584 
Q 2397 3584 2469 3576 
Q 2541 3569 2628 3553 
L 2631 2963 
z
" transform="scale(0.015625)"/>
       <path id="DejaVuSans-67" d="M 2906 1791 
Q 2906 2416 2648 2759 
Q 2391 3103 1925 3103 
Q 1463 3103 1205 2759 
Q 947 2416 947 1791 
Q 947 1169 1205 825 
Q 1463 481 1925 481 
Q 2391 481 2648 825 
Q 2906 1169 2906 1791 
z
M 3481 434 
Q 3481 -459 3084 -895 
Q 2688 -1331 1869 -1331 
Q 1566 -1331 1297 -1286 
Q 1028 -1241 775 -1147 
L 775 -588 
Q 1028 -725 1275 -790 
Q 1522 -856 1778 -856 
Q 2344 -856 2625 -561 
Q 2906 -266 2906 331 
L 2906 616 
Q 2728 306 2450 153 
Q 2172 0 1784 0 
Q 1141 0 747 490 
Q 353 981 353 1791 
Q 353 2603 747 3093 
Q 1141 3584 1784 3584 
Q 2172 3584 2450 3431 
Q 2728 3278 2906 2969 
L 2906 3500 
L 3481 3500 
L 3481 434 
z
" transform="scale(0.015625)"/>
       <path id="DejaVuSans-79" d="M 2059 -325 
Q 1816 -950 1584 -1140 
Q 1353 -1331 966 -1331 
L 506 -1331 
L 506 -850 
L 844 -850 
Q 1081 -850 1212 -737 
Q 1344 -625 1503 -206 
L 1606 56 
L 191 3500 
L 800 3500 
L 1894 763 
L 2988 3500 
L 3597 3500 
L 2059 -325 
z
" transform="scale(0.015625)"/>
       <path id="DejaVuSans-20" transform="scale(0.015625)"/>
       <path id="DejaVuSans-28" d="M 1984 4856 
Q 1566 4138 1362 3434 
Q 1159 2731 1159 2009 
Q 1159 1288 1364 580 
Q 1569 -128 1984 -844 
L 1484 -844 
Q 1016 -109 783 600 
Q 550 1309 550 2009 
Q 550 2706 781 3412 
Q 1013 4119 1484 4856 
L 1984 4856 
z
" transform="scale(0.015625)"/>
       <path id="DejaVuSans-56" d="M 1831 0 
L 50 4666 
L 709 4666 
L 2188 738 
L 3669 4666 
L 4325 4666 
L 2547 0 
L 1831 0 
z
" transform="scale(0.015625)"/>
       <path id="DejaVuSans-29" d="M 513 4856 
L 1013 4856 
Q 1481 4119 1714 3412 
Q 1947 2706 1947 2009 
Q 1947 1309 1714 600 
Q 1481 -109 1013 -844 
L 513 -844 
Q 928 -128 1133 580 
Q 1338 1288 1338 2009 
Q 1338 2731 1133 3434 
Q 928 4138 513 4856 
z
" transform="scale(0.015625)"/>
      </defs>
      <use xlink:href="#DejaVuSans-45"/>
      <use xlink:href="#DejaVuSans-6e" x="63.183594"/>
      <use xlink:href="#DejaVuSans-65" x="126.5625"/>
      <use xlink:href="#DejaVuSans-72" x="188.085938"/>
      <use xlink:href="#DejaVuSans-67" x="227.449219"/>
      <use xlink:href="#DejaVuSans-79" x="290.925781"/>
      <use xlink:href="#DejaVuSans-20" x="350.105469"/>
      <use xlink:href="#DejaVuSans-28" x="381.892578"/>
      <use xlink:href="#DejaVuSans-65" x="420.90625"/>
      <use xlink:href="#DejaVuSans-56" x="482.429688"/>
      <use xlink:href="#DejaVuSans-29" x="550.837891"/>
     </g>
    </g>
   </g>
   <g id="matplotlib.axis_2">
    <g id="ytick_1">
     <g id="line2d_8">
      <defs>
       <path id="mafba868da2" d="M 0 0 
L -3.5 0 
" style="stroke: #000000; stroke-width: 0.8"/>
      </defs>
      <g>
       <use xlink:href="#mafba868da2" x="66.588125" y="261.216" style="stroke: #000000; stroke-width: 0.8"/>
      </g>
     </g>
     <g id="text_9">
      <!-- −1.00 -->
      <g transform="translate(22.81375 265.775063) scale(0.12 -0.12)">
       <defs>
        <path id="DejaVuSans-2e" d="M 684 794 
L 1344 794 
L 1344 0 
L 684 0 
L 684 794 
z
" transform="scale(0.015625)"/>
       </defs>
       <use xlink:href="#DejaVuSans-2212"/>
       <use xlink:href="#DejaVuSans-31" x="83.789062"/>
       <use xlink:href="#DejaVuSans-2e" x="147.412109"/>
       <use xlink:href="#DejaVuSans-30" x="179.199219"/>
       <use xlink:href="#DejaVuSans-30" x="242.822266"/>
      </g>
     </g>
    </g>
    <g id="ytick_2">
     <g id="line2d_9">
      <g>
       <use xlink:href="#mafba868da2" x="66.588125" y="230.976" style="stroke: #000000; stroke-width: 0.8"/>
      </g>
     </g>
     <g id="text_10">
      <!-- −0.75 -->
      <g transform="translate(22.81375 235.535063) scale(0.12 -0.12)">
       <defs>
        <path id="DejaVuSans-37" d="M 525 4666 
L 3525 4666 
L 3525 4397 
L 1831 0 
L 1172 0 
L 2766 4134 
L 525 4134 
L 525 4666 
z
" transform="scale(0.015625)"/>
        <path id="DejaVuSans-35" d="M 691 4666 
L 3169 4666 
L 3169 4134 
L 1269 4134 
L 1269 2991 
Q 1406 3038 1543 3061 
Q 1681 3084 1819 3084 
Q 2600 3084 3056 2656 
Q 3513 2228 3513 1497 
Q 3513 744 3044 326 
Q 2575 -91 1722 -91 
Q 1428 -91 1123 -41 
Q 819 9 494 109 
L 494 744 
Q 775 591 1075 516 
Q 1375 441 1709 441 
Q 2250 441 2565 725 
Q 2881 1009 2881 1497 
Q 2881 1984 2565 2268 
Q 2250 2553 1709 2553 
Q 1456 2553 1204 2497 
Q 953 2441 691 2322 
L 691 4666 
z
" transform="scale(0.015625)"/>
       </defs>
       <use xlink:href="#DejaVuSans-2212"/>
       <use xlink:href="#DejaVuSans-30" x="83.789062"/>
       <use xlink:href="#DejaVuSans-2e" x="147.412109"/>
       <use xlink:href="#DejaVuSans-37" x="179.199219"/>
       <use xlink:href="#DejaVuSans-35" x="242.822266"/>
      </g>
     </g>
    </g>
    <g id="ytick_3">
     <g id="line2d_10">
      <g>
       <use xlink:href="#mafba868da2" x="66.588125" y="200.736" style="stroke: #000000; stroke-width: 0.8"/>
      </g>
     </g>
     <g id="text_11">
      <!-- −0.50 -->
      <g transform="translate(22.81375 205.295063) scale(0.12 -0.12)">
       <use xlink:href="#DejaVuSans-2212"/>
       <use xlink:href="#DejaVuSans-30" x="83.789062"/>
       <use xlink:href="#DejaVuSans-2e" x="147.412109"/>
       <use xlink:href="#DejaVuSans-35" x="179.199219"/>
       <use xlink:href="#DejaVuSans-30" x="242.822266"/>
      </g>
     </g>
    </g>
    <g id="ytick_4">
     <g id="line2d_11">
      <g>
       <use xlink:href="#mafba868da2" x="66.588125" y="170.496" style="stroke: #000000; stroke-width: 0.8"/>
      </g>
     </g>
     <g id="text_12">
      <!-- −0.25 -->
      <g transform="translate(22.81375 175.055063) scale(0.12 -0.12)">
       <use xlink:href="#DejaVuSans-2212"/>
       <use xlink:href="#DejaVuSans-30" x="83.789062"/>
       <use xlink:href="#DejaVuSans-2e" x="147.412109"/>
       <use xlink:href="#DejaVuSans-32" x="179.199219"/>
       <use xlink:href="#DejaVuSans-35" x="242.822266"/>
      </g>
     </g>
    </g>
    <g id="ytick_5">
     <g id="line2d_12">
      <g>
       <use xlink:href="#mafba868da2" x="66.588125" y="140.256" style="stroke: #000000; stroke-width: 0.8"/>
      </g>
     </g>
     <g id="text_13">
      <!-- 0.00 -->
      <g transform="translate(32.869375 144.815062) scale(0.12 -0.12)">
       <use xlink:href="#DejaVuSans-30"/>
       <use xlink:href="#DejaVuSans-2e" x="63.623047"/>
       <use xlink:href="#DejaVuSans-30" x="95.410156"/>
       <use xlink:href="#DejaVuSans-30" x="159.033203"/>
      </g>
     </g>
    </g>
    <g id="ytick_6">
     <g id="line2d_13">
      <g>
       <use xlink:href="#mafba868da2" x="66.588125" y="110.016" style="stroke: #000000; stroke-width: 0.8"/>
      </g>
     </g>
     <g id="text_14">
      <!-- 0.25 -->
      <g transform="translate(32.869375 114.575062) scale(0.12 -0.12)">
       <use xlink:href="#DejaVuSans-30"/>
       <use xlink:href="#DejaVuSans-2e" x="63.623047"/>
       <use xlink:href="#DejaVuSans-32" x="95.410156"/>
       <use xlink:href="#DejaVuSans-35" x="159.033203"/>
      </g>
     </g>
    </g>
    <g id="ytick_7">
     <g id="line2d_14">
      <g>
       <use xlink:href="#mafba868da2" x="66.588125" y="79.776" style="stroke: #000000; stroke-width: 0.8"/>
      </g>
     </g>
     <g id="text_15">
      <!-- 0.50 -->
      <g transform="translate(32.869375 84.335062) scale(0.12 -0.12)">
       <use xlink:href="#DejaVuSans-30"/>
       <use xlink:href="#DejaVuSans-2e" x="63.623047"/>
       <use xlink:href="#DejaVuSans-35" x="95.410156"/>
       <use xlink:href="#DejaVuSans-30" x="159.033203"/>
      </g>
     </g>
    </g>
    <g id="ytick_8">
     <g id="line2d_15">
      <g>
       <use xlink:href="#mafba868da2" x="66.588125" y="49.536" style="stroke: #000000; stroke-width: 0.8"/>
      </g>
     </g>
     <g id="text_16">
      <!-- 0.75 -->
      <g transform="translate(32.869375 54.095062) scale(0.12 -0.12)">
       <use xlink:href="#DejaVuSans-30"/>
       <use xlink:href="#DejaVuSans-2e" x="63.623047"/>
       <use xlink:href="#DejaVuSans-37" x="95.410156"/>
       <use xlink:href="#DejaVuSans-35" x="159.033203"/>
      </g>
     </g>
    </g>
    <g id="ytick_9">
     <g id="line2d_16">
      <g>
       <use xlink:href="#mafba868da2" x="66.588125" y="19.296" style="stroke: #000000; stroke-width: 0.8"/>
      </g>
     </g>
     <g id="text_17">
      <!-- 1.00 -->
      <g transform="translate(32.869375 23.855062) scale(0.12 -0.12)">
       <use xlink:href="#DejaVuSans-31"/>
       <use xlink:href="#DejaVuSans-2e" x="63.623047"/>
       <use xlink:href="#DejaVuSans-30" x="95.410156"/>
       <use xlink:href="#DejaVuSans-30" x="159.033203"/>
      </g>
     </g>
    </g>
    <g id="text_18">
     <!-- Transmission -->
     <g transform="translate(16.318125 179.010375) rotate(-90) scale(0.12 -0.12)">
      <defs>
       <path id="DejaVuSans-54" d="M -19 4666 
L 3928 4666 
L 3928 4134 
L 2272 4134 
L 2272 0 
L 1638 0 
L 1638 4134 
L -19 4134 
L -19 4666 
z
" transform="scale(0.015625)"/>
       <path id="DejaVuSans-61" d="M 2194 1759 
Q 1497 1759 1228 1600 
Q 959 1441 959 1056 
Q 959 750 1161 570 
Q 1363 391 1709 391 
Q 2188 391 2477 730 
Q 2766 1069 2766 1631 
L 2766 1759 
L 2194 1759 
z
M 3341 1997 
L 3341 0 
L 2766 0 
L 2766 531 
Q 2569 213 2275 61 
Q 1981 -91 1556 -91 
Q 1019 -91 701 211 
Q 384 513 384 1019 
Q 384 1609 779 1909 
Q 1175 2209 1959 2209 
L 2766 2209 
L 2766 2266 
Q 2766 2663 2505 2880 
Q 2244 3097 1772 3097 
Q 1472 3097 1187 3025 
Q 903 2953 641 2809 
L 641 3341 
Q 956 3463 1253 3523 
Q 1550 3584 1831 3584 
Q 2591 3584 2966 3190 
Q 3341 2797 3341 1997 
z
" transform="scale(0.015625)"/>
       <path id="DejaVuSans-73" d="M 2834 3397 
L 2834 2853 
Q 2591 2978 2328 3040 
Q 2066 3103 1784 3103 
Q 1356 3103 1142 2972 
Q 928 2841 928 2578 
Q 928 2378 1081 2264 
Q 1234 2150 1697 2047 
L 1894 2003 
Q 2506 1872 2764 1633 
Q 3022 1394 3022 966 
Q 3022 478 2636 193 
Q 2250 -91 1575 -91 
Q 1294 -91 989 -36 
Q 684 19 347 128 
L 347 722 
Q 666 556 975 473 
Q 1284 391 1588 391 
Q 1994 391 2212 530 
Q 2431 669 2431 922 
Q 2431 1156 2273 1281 
Q 2116 1406 1581 1522 
L 1381 1569 
Q 847 1681 609 1914 
Q 372 2147 372 2553 
Q 372 3047 722 3315 
Q 1072 3584 1716 3584 
Q 2034 3584 2315 3537 
Q 2597 3491 2834 3397 
z
" transform="scale(0.015625)"/>
       <path id="DejaVuSans-6d" d="M 3328 2828 
Q 3544 3216 3844 3400 
Q 4144 3584 4550 3584 
Q 5097 3584 5394 3201 
Q 5691 2819 5691 2113 
L 5691 0 
L 5113 0 
L 5113 2094 
Q 5113 2597 4934 2840 
Q 4756 3084 4391 3084 
Q 3944 3084 3684 2787 
Q 3425 2491 3425 1978 
L 3425 0 
L 2847 0 
L 2847 2094 
Q 2847 2600 2669 2842 
Q 2491 3084 2119 3084 
Q 1678 3084 1418 2786 
Q 1159 2488 1159 1978 
L 1159 0 
L 581 0 
L 581 3500 
L 1159 3500 
L 1159 2956 
Q 1356 3278 1631 3431 
Q 1906 3584 2284 3584 
Q 2666 3584 2933 3390 
Q 3200 3197 3328 2828 
z
" transform="scale(0.015625)"/>
       <path id="DejaVuSans-69" d="M 603 3500 
L 1178 3500 
L 1178 0 
L 603 0 
L 603 3500 
z
M 603 4863 
L 1178 4863 
L 1178 4134 
L 603 4134 
L 603 4863 
z
" transform="scale(0.015625)"/>
       <path id="DejaVuSans-6f" d="M 1959 3097 
Q 1497 3097 1228 2736 
Q 959 2375 959 1747 
Q 959 1119 1226 758 
Q 1494 397 1959 397 
Q 2419 397 2687 759 
Q 2956 1122 2956 1747 
Q 2956 2369 2687 2733 
Q 2419 3097 1959 3097 
z
M 1959 3584 
Q 2709 3584 3137 3096 
Q 3566 2609 3566 1747 
Q 3566 888 3137 398 
Q 2709 -91 1959 -91 
Q 1206 -91 779 398 
Q 353 888 353 1747 
Q 353 2609 779 3096 
Q 1206 3584 1959 3584 
z
" transform="scale(0.015625)"/>
      </defs>
      <use xlink:href="#DejaVuSans-54"/>
      <use xlink:href="#DejaVuSans-72" x="46.333984"/>
      <use xlink:href="#DejaVuSans-61" x="87.447266"/>
      <use xlink:href="#DejaVuSans-6e" x="148.726562"/>
      <use xlink:href="#DejaVuSans-73" x="212.105469"/>
      <use xlink:href="#DejaVuSans-6d" x="264.205078"/>
      <use xlink:href="#DejaVuSans-69" x="361.617188"/>
      <use xlink:href="#DejaVuSans-73" x="389.400391"/>
      <use xlink:href="#DejaVuSans-73" x="441.5"/>
      <use xlink:href="#DejaVuSans-69" x="493.599609"/>
      <use xlink:href="#DejaVuSans-6f" x="521.382812"/>
      <use xlink:href="#DejaVuSans-6e" x="582.564453"/>
     </g>
    </g>
   </g>
   <g id="line2d_17">
    <path d="M 82.820852 140.256 
L 86.067398 140.256 
L 89.313943 140.256 
L 92.560489 140.256 
L 95.807034 140.256 
L 99.05358 140.256 
L 102.300125 140.256 
L 105.54667 140.256 
L 108.793216 140.256 
L 112.039761 140.255999 
L 115.286307 140.255998 
L 118.532852 140.255993 
L 121.779398 140.255938 
L 125.025943 19.297107 
L 128.272489 19.296039 
L 131.519034 19.296009 
L 134.76558 19.296003 
L 138.012125 19.296001 
L 141.25867 19.296001 
L 144.505216 19.296 
L 147.751761 19.296 
L 150.998307 19.296 
L 154.244852 19.296 
L 157.491398 19.296 
L 160.737943 19.296 
L 163.984489 19.296 
L 167.231034 19.296001 
L 170.47758 19.296001 
L 173.724125 19.296001 
L 176.97067 19.296003 
L 180.217216 19.296005 
L 183.463761 19.296012 
L 186.710307 19.29604 
L 189.956852 19.296727 
L 193.203398 140.255892 
L 196.449943 140.255987 
L 199.696489 140.255996 
L 202.943034 140.255998 
L 206.18958 140.255999 
L 209.436125 140.255999 
L 212.68267 140.255999 
L 215.929216 140.256 
L 219.175761 140.256 
L 222.422307 140.256 
L 225.668852 140.256 
L 228.915398 140.256 
L 232.161943 140.256 
L 235.408489 140.256 
L 238.655034 140.256 
L 241.90158 140.256 
L 245.148125 140.256 
L 248.39467 140.256 
L 251.641216 140.256 
L 254.887761 140.256 
L 258.134307 140.256 
L 261.380852 140.256 
L 264.627398 140.256 
L 267.873943 140.256 
L 271.120489 140.256 
L 274.367034 140.256 
L 277.61358 140.255999 
L 280.860125 140.255999 
L 284.10667 140.255999 
L 287.353216 140.255998 
L 290.599761 140.255996 
L 293.846307 140.255987 
L 297.092852 140.255892 
L 300.339398 19.296727 
L 303.585943 19.29604 
L 306.832489 19.296012 
L 310.079034 19.296005 
L 313.32558 19.296003 
L 316.572125 19.296001 
L 319.81867 19.296001 
L 323.065216 19.296001 
L 326.311761 19.296 
L 329.558307 19.296 
L 332.804852 19.296 
L 336.051398 19.296 
L 339.297943 19.296 
L 342.544489 19.296 
L 345.791034 19.296 
L 349.03758 19.296001 
L 352.284125 19.296001 
L 355.53067 19.296003 
L 358.777216 19.296009 
L 362.023761 19.296039 
L 365.270307 19.297107 
L 368.516852 140.255938 
L 371.763398 140.255993 
L 375.009943 140.255998 
L 378.256489 140.255999 
L 381.503034 140.256 
L 384.74958 140.256 
L 387.996125 140.256 
L 391.24267 140.256 
L 394.489216 140.256 
L 397.735761 140.256 
L 400.982307 140.256 
L 404.228852 140.256 
L 407.475398 140.256 
" clip-path="url(#p3990fbbfbd)" style="fill: none; stroke: #1f77b4; stroke-width: 1.5; stroke-linecap: square"/>
    <defs>
     <path id="m0fbc833176" d="M 0 1.5 
C 0.397805 1.5 0.77937 1.341951 1.06066 1.06066 
C 1.341951 0.77937 1.5 0.397805 1.5 0 
C 1.5 -0.397805 1.341951 -0.77937 1.06066 -1.06066 
C 0.77937 -1.341951 0.397805 -1.5 0 -1.5 
C -0.397805 -1.5 -0.77937 -1.341951 -1.06066 -1.06066 
C -1.341951 -0.77937 -1.5 -0.397805 -1.5 0 
C -1.5 0.397805 -1.341951 0.77937 -1.06066 1.06066 
C -0.77937 1.341951 -0.397805 1.5 0 1.5 
z
" style="stroke: #1f77b4"/>
    </defs>
    <g clip-path="url(#p3990fbbfbd)">
     <use xlink:href="#m0fbc833176" x="82.820852" y="140.256" style="fill: #1f77b4; stroke: #1f77b4"/>
     <use xlink:href="#m0fbc833176" x="86.067398" y="140.256" style="fill: #1f77b4; stroke: #1f77b4"/>
     <use xlink:href="#m0fbc833176" x="89.313943" y="140.256" style="fill: #1f77b4; stroke: #1f77b4"/>
     <use xlink:href="#m0fbc833176" x="92.560489" y="140.256" style="fill: #1f77b4; stroke: #1f77b4"/>
     <use xlink:href="#m0fbc833176" x="95.807034" y="140.256" style="fill: #1f77b4; stroke: #1f77b4"/>
     <use xlink:href="#m0fbc833176" x="99.05358" y="140.256" style="fill: #1f77b4; stroke: #1f77b4"/>
     <use xlink:href="#m0fbc833176" x="102.300125" y="140.256" style="fill: #1f77b4; stroke: #1f77b4"/>
     <use xlink:href="#m0fbc833176" x="105.54667" y="140.256" style="fill: #1f77b4; stroke: #1f77b4"/>
     <use xlink:href="#m0fbc833176" x="108.793216" y="140.256" style="fill: #1f77b4; stroke: #1f77b4"/>
     <use xlink:href="#m0fbc833176" x="112.039761" y="140.255999" style="fill: #1f77b4; stroke: #1f77b4"/>
     <use xlink:href="#m0fbc833176" x="115.286307" y="140.255998" style="fill: #1f77b4; stroke: #1f77b4"/>
     <use xlink:href="#m0fbc833176" x="118.532852" y="140.255993" style="fill: #1f77b4; stroke: #1f77b4"/>
     <use xlink:href="#m0fbc833176" x="121.779398" y="140.255938" style="fill: #1f77b4; stroke: #1f77b4"/>
     <use xlink:href="#m0fbc833176" x="125.025943" y="19.297107" style="fill: #1f77b4; stroke: #1f77b4"/>
     <use xlink:href="#m0fbc833176" x="128.272489" y="19.296039" style="fill: #1f77b4; stroke: #1f77b4"/>
     <use xlink:href="#m0fbc833176" x="131.519034" y="19.296009" style="fill: #1f77b4; stroke: #1f77b4"/>
     <use xlink:href="#m0fbc833176" x="134.76558" y="19.296003" style="fill: #1f77b4; stroke: #1f77b4"/>
     <use xlink:href="#m0fbc833176" x="138.012125" y="19.296001" style="fill: #1f77b4; stroke: #1f77b4"/>
     <use xlink:href="#m0fbc833176" x="141.25867" y="19.296001" style="fill: #1f77b4; stroke: #1f77b4"/>
     <use xlink:href="#m0fbc833176" x="144.505216" y="19.296" style="fill: #1f77b4; stroke: #1f77b4"/>
     <use xlink:href="#m0fbc833176" x="147.751761" y="19.296" style="fill: #1f77b4; stroke: #1f77b4"/>
     <use xlink:href="#m0fbc833176" x="150.998307" y="19.296" style="fill: #1f77b4; stroke: #1f77b4"/>
     <use xlink:href="#m0fbc833176" x="154.244852" y="19.296" style="fill: #1f77b4; stroke: #1f77b4"/>
     <use xlink:href="#m0fbc833176" x="157.491398" y="19.296" style="fill: #1f77b4; stroke: #1f77b4"/>
     <use xlink:href="#m0fbc833176" x="160.737943" y="19.296" style="fill: #1f77b4; stroke: #1f77b4"/>
     <use xlink:href="#m0fbc833176" x="163.984489" y="19.296" style="fill: #1f77b4; stroke: #1f77b4"/>
     <use xlink:href="#m0fbc833176" x="167.231034" y="19.296001" style="fill: #1f77b4; stroke: #1f77b4"/>
     <use xlink:href="#m0fbc833176" x="170.47758" y="19.296001" style="fill: #1f77b4; stroke: #1f77b4"/>
     <use xlink:href="#m0fbc833176" x="173.724125" y="19.296001" style="fill: #1f77b4; stroke: #1f77b4"/>
     <use xlink:href="#m0fbc833176" x="176.97067" y="19.296003" style="fill: #1f77b4; stroke: #1f77b4"/>
     <use xlink:href="#m0fbc833176" x="180.217216" y="19.296005" style="fill: #1f77b4; stroke: #1f77b4"/>
     <use xlink:href="#m0fbc833176" x="183.463761" y="19.296012" style="fill: #1f77b4; stroke: #1f77b4"/>
     <use xlink:href="#m0fbc833176" x="186.710307" y="19.29604" style="fill: #1f77b4; stroke: #1f77b4"/>
     <use xlink:href="#m0fbc833176" x="189.956852" y="19.296727" style="fill: #1f77b4; stroke: #1f77b4"/>
     <use xlink:href="#m0fbc833176" x="193.203398" y="140.255892" style="fill: #1f77b4; stroke: #1f77b4"/>
     <use xlink:href="#m0fbc833176" x="196.449943" y="140.255987" style="fill: #1f77b4; stroke: #1f77b4"/>
     <use xlink:href="#m0fbc833176" x="199.696489" y="140.255996" style="fill: #1f77b4; stroke: #1f77b4"/>
     <use xlink:href="#m0fbc833176" x="202.943034" y="140.255998" style="fill: #1f77b4; stroke: #1f77b4"/>
     <use xlink:href="#m0fbc833176" x="206.18958" y="140.255999" style="fill: #1f77b4; stroke: #1f77b4"/>
     <use xlink:href="#m0fbc833176" x="209.436125" y="140.255999" style="fill: #1f77b4; stroke: #1f77b4"/>
     <use xlink:href="#m0fbc833176" x="212.68267" y="140.255999" style="fill: #1f77b4; stroke: #1f77b4"/>
     <use xlink:href="#m0fbc833176" x="215.929216" y="140.256" style="fill: #1f77b4; stroke: #1f77b4"/>
     <use xlink:href="#m0fbc833176" x="219.175761" y="140.256" style="fill: #1f77b4; stroke: #1f77b4"/>
     <use xlink:href="#m0fbc833176" x="222.422307" y="140.256" style="fill: #1f77b4; stroke: #1f77b4"/>
     <use xlink:href="#m0fbc833176" x="225.668852" y="140.256" style="fill: #1f77b4; stroke: #1f77b4"/>
     <use xlink:href="#m0fbc833176" x="228.915398" y="140.256" style="fill: #1f77b4; stroke: #1f77b4"/>
     <use xlink:href="#m0fbc833176" x="232.161943" y="140.256" style="fill: #1f77b4; stroke: #1f77b4"/>
     <use xlink:href="#m0fbc833176" x="235.408489" y="140.256" style="fill: #1f77b4; stroke: #1f77b4"/>
     <use xlink:href="#m0fbc833176" x="238.655034" y="140.256" style="fill: #1f77b4; stroke: #1f77b4"/>
     <use xlink:href="#m0fbc833176" x="241.90158" y="140.256" style="fill: #1f77b4; stroke: #1f77b4"/>
     <use xlink:href="#m0fbc833176" x="245.148125" y="140.256" style="fill: #1f77b4; stroke: #1f77b4"/>
     <use xlink:href="#m0fbc833176" x="248.39467" y="140.256" style="fill: #1f77b4; stroke: #1f77b4"/>
     <use xlink:href="#m0fbc833176" x="251.641216" y="140.256" style="fill: #1f77b4; stroke: #1f77b4"/>
     <use xlink:href="#m0fbc833176" x="254.887761" y="140.256" style="fill: #1f77b4; stroke: #1f77b4"/>
     <use xlink:href="#m0fbc833176" x="258.134307" y="140.256" style="fill: #1f77b4; stroke: #1f77b4"/>
     <use xlink:href="#m0fbc833176" x="261.380852" y="140.256" style="fill: #1f77b4; stroke: #1f77b4"/>
     <use xlink:href="#m0fbc833176" x="264.627398" y="140.256" style="fill: #1f77b4; stroke: #1f77b4"/>
     <use xlink:href="#m0fbc833176" x="267.873943" y="140.256" style="fill: #1f77b4; stroke: #1f77b4"/>
     <use xlink:href="#m0fbc833176" x="271.120489" y="140.256" style="fill: #1f77b4; stroke: #1f77b4"/>
     <use xlink:href="#m0fbc833176" x="274.367034" y="140.256" style="fill: #1f77b4; stroke: #1f77b4"/>
     <use xlink:href="#m0fbc833176" x="277.61358" y="140.255999" style="fill: #1f77b4; stroke: #1f77b4"/>
     <use xlink:href="#m0fbc833176" x="280.860125" y="140.255999" style="fill: #1f77b4; stroke: #1f77b4"/>
     <use xlink:href="#m0fbc833176" x="284.10667" y="140.255999" style="fill: #1f77b4; stroke: #1f77b4"/>
     <use xlink:href="#m0fbc833176" x="287.353216" y="140.255998" style="fill: #1f77b4; stroke: #1f77b4"/>
     <use xlink:href="#m0fbc833176" x="290.599761" y="140.255996" style="fill: #1f77b4; stroke: #1f77b4"/>
     <use xlink:href="#m0fbc833176" x="293.846307" y="140.255987" style="fill: #1f77b4; stroke: #1f77b4"/>
     <use xlink:href="#m0fbc833176" x="297.092852" y="140.255892" style="fill: #1f77b4; stroke: #1f77b4"/>
     <use xlink:href="#m0fbc833176" x="300.339398" y="19.296727" style="fill: #1f77b4; stroke: #1f77b4"/>
     <use xlink:href="#m0fbc833176" x="303.585943" y="19.29604" style="fill: #1f77b4; stroke: #1f77b4"/>
     <use xlink:href="#m0fbc833176" x="306.832489" y="19.296012" style="fill: #1f77b4; stroke: #1f77b4"/>
     <use xlink:href="#m0fbc833176" x="310.079034" y="19.296005" style="fill: #1f77b4; stroke: #1f77b4"/>
     <use xlink:href="#m0fbc833176" x="313.32558" y="19.296003" style="fill: #1f77b4; stroke: #1f77b4"/>
     <use xlink:href="#m0fbc833176" x="316.572125" y="19.296001" style="fill: #1f77b4; stroke: #1f77b4"/>
     <use xlink:href="#m0fbc833176" x="319.81867" y="19.296001" style="fill: #1f77b4; stroke: #1f77b4"/>
     <use xlink:href="#m0fbc833176" x="323.065216" y="19.296001" style="fill: #1f77b4; stroke: #1f77b4"/>
     <use xlink:href="#m0fbc833176" x="326.311761" y="19.296" style="fill: #1f77b4; stroke: #1f77b4"/>
     <use xlink:href="#m0fbc833176" x="329.558307" y="19.296" style="fill: #1f77b4; stroke: #1f77b4"/>
     <use xlink:href="#m0fbc833176" x="332.804852" y="19.296" style="fill: #1f77b4; stroke: #1f77b4"/>
     <use xlink:href="#m0fbc833176" x="336.051398" y="19.296" style="fill: #1f77b4; stroke: #1f77b4"/>
     <use xlink:href="#m0fbc833176" x="339.297943" y="19.296" style="fill: #1f77b4; stroke: #1f77b4"/>
     <use xlink:href="#m0fbc833176" x="342.544489" y="19.296" style="fill: #1f77b4; stroke: #1f77b4"/>
     <use xlink:href="#m0fbc833176" x="345.791034" y="19.296" style="fill: #1f77b4; stroke: #1f77b4"/>
     <use xlink:href="#m0fbc833176" x="349.03758" y="19.296001" style="fill: #1f77b4; stroke: #1f77b4"/>
     <use xlink:href="#m0fbc833176" x="352.284125" y="19.296001" style="fill: #1f77b4; stroke: #1f77b4"/>
     <use xlink:href="#m0fbc833176" x="355.53067" y="19.296003" style="fill: #1f77b4; stroke: #1f77b4"/>
     <use xlink:href="#m0fbc833176" x="358.777216" y="19.296009" style="fill: #1f77b4; stroke: #1f77b4"/>
     <use xlink:href="#m0fbc833176" x="362.023761" y="19.296039" style="fill: #1f77b4; stroke: #1f77b4"/>
     <use xlink:href="#m0fbc833176" x="365.270307" y="19.297107" style="fill: #1f77b4; stroke: #1f77b4"/>
     <use xlink:href="#m0fbc833176" x="368.516852" y="140.255938" style="fill: #1f77b4; stroke: #1f77b4"/>
     <use xlink:href="#m0fbc833176" x="371.763398" y="140.255993" style="fill: #1f77b4; stroke: #1f77b4"/>
     <use xlink:href="#m0fbc833176" x="375.009943" y="140.255998" style="fill: #1f77b4; stroke: #1f77b4"/>
     <use xlink:href="#m0fbc833176" x="378.256489" y="140.255999" style="fill: #1f77b4; stroke: #1f77b4"/>
     <use xlink:href="#m0fbc833176" x="381.503034" y="140.256" style="fill: #1f77b4; stroke: #1f77b4"/>
     <use xlink:href="#m0fbc833176" x="384.74958" y="140.256" style="fill: #1f77b4; stroke: #1f77b4"/>
     <use xlink:href="#m0fbc833176" x="387.996125" y="140.256" style="fill: #1f77b4; stroke: #1f77b4"/>
     <use xlink:href="#m0fbc833176" x="391.24267" y="140.256" style="fill: #1f77b4; stroke: #1f77b4"/>
     <use xlink:href="#m0fbc833176" x="394.489216" y="140.256" style="fill: #1f77b4; stroke: #1f77b4"/>
     <use xlink:href="#m0fbc833176" x="397.735761" y="140.256" style="fill: #1f77b4; stroke: #1f77b4"/>
     <use xlink:href="#m0fbc833176" x="400.982307" y="140.256" style="fill: #1f77b4; stroke: #1f77b4"/>
     <use xlink:href="#m0fbc833176" x="404.228852" y="140.256" style="fill: #1f77b4; stroke: #1f77b4"/>
     <use xlink:href="#m0fbc833176" x="407.475398" y="140.256" style="fill: #1f77b4; stroke: #1f77b4"/>
    </g>
   </g>
   <g id="line2d_18">
    <path d="M 82.820852 140.256 
L 86.067398 140.256 
L 89.313943 140.256 
L 92.560489 140.256 
L 95.807034 140.256 
L 99.05358 140.256 
L 102.300125 140.256 
L 105.54667 140.256 
L 108.793216 140.256 
L 112.039761 140.256001 
L 115.286307 140.256002 
L 118.532852 140.256007 
L 121.779398 140.256062 
L 125.025943 261.214893 
L 128.272489 261.215961 
L 131.519034 261.215991 
L 134.76558 261.215997 
L 138.012125 261.215999 
L 141.25867 261.215999 
L 144.505216 261.216 
L 147.751761 261.216 
L 150.998307 261.216 
L 154.244852 261.216 
L 157.491398 261.216 
L 160.737943 261.216 
L 163.984489 261.216 
L 167.231034 261.215999 
L 170.47758 261.215999 
L 173.724125 261.215999 
L 176.97067 261.215997 
L 180.217216 261.215995 
L 183.463761 261.215988 
L 186.710307 261.21596 
L 189.956852 261.215273 
L 193.203398 140.256108 
L 196.449943 140.256013 
L 199.696489 140.256004 
L 202.943034 140.256002 
L 206.18958 140.256001 
L 209.436125 140.256001 
L 212.68267 140.256001 
L 215.929216 140.256 
L 219.175761 140.256 
L 222.422307 140.256 
L 225.668852 140.256 
L 228.915398 140.256 
L 232.161943 140.256 
L 235.408489 140.256 
L 238.655034 140.256 
L 241.90158 140.256 
L 245.148125 140.256 
L 248.39467 140.256 
L 251.641216 140.256 
L 254.887761 140.256 
L 258.134307 140.256 
L 261.380852 140.256 
L 264.627398 140.256 
L 267.873943 140.256 
L 271.120489 140.256 
L 274.367034 140.256 
L 277.61358 140.256001 
L 280.860125 140.256001 
L 284.10667 140.256001 
L 287.353216 140.256002 
L 290.599761 140.256004 
L 293.846307 140.256013 
L 297.092852 140.256108 
L 300.339398 261.215273 
L 303.585943 261.21596 
L 306.832489 261.215988 
L 310.079034 261.215995 
L 313.32558 261.215997 
L 316.572125 261.215999 
L 319.81867 261.215999 
L 323.065216 261.215999 
L 326.311761 261.216 
L 329.558307 261.216 
L 332.804852 261.216 
L 336.051398 261.216 
L 339.297943 261.216 
L 342.544489 261.216 
L 345.791034 261.216 
L 349.03758 261.215999 
L 352.284125 261.215999 
L 355.53067 261.215997 
L 358.777216 261.215991 
L 362.023761 261.215961 
L 365.270307 261.214893 
L 368.516852 140.256062 
L 371.763398 140.256007 
L 375.009943 140.256002 
L 378.256489 140.256001 
L 381.503034 140.256 
L 384.74958 140.256 
L 387.996125 140.256 
L 391.24267 140.256 
L 394.489216 140.256 
L 397.735761 140.256 
L 400.982307 140.256 
L 404.228852 140.256 
L 407.475398 140.256 
" clip-path="url(#p3990fbbfbd)" style="fill: none; stroke: #ff7f0e; stroke-width: 1.5; stroke-linecap: square"/>
    <defs>
     <path id="m9a3f676b1e" d="M 0 1.5 
C 0.397805 1.5 0.77937 1.341951 1.06066 1.06066 
C 1.341951 0.77937 1.5 0.397805 1.5 0 
C 1.5 -0.397805 1.341951 -0.77937 1.06066 -1.06066 
C 0.77937 -1.341951 0.397805 -1.5 0 -1.5 
C -0.397805 -1.5 -0.77937 -1.341951 -1.06066 -1.06066 
C -1.341951 -0.77937 -1.5 -0.397805 -1.5 0 
C -1.5 0.397805 -1.341951 0.77937 -1.06066 1.06066 
C -0.77937 1.341951 -0.397805 1.5 0 1.5 
z
" style="stroke: #ff7f0e"/>
    </defs>
    <g clip-path="url(#p3990fbbfbd)">
     <use xlink:href="#m9a3f676b1e" x="82.820852" y="140.256" style="fill: #ff7f0e; stroke: #ff7f0e"/>
     <use xlink:href="#m9a3f676b1e" x="86.067398" y="140.256" style="fill: #ff7f0e; stroke: #ff7f0e"/>
     <use xlink:href="#m9a3f676b1e" x="89.313943" y="140.256" style="fill: #ff7f0e; stroke: #ff7f0e"/>
     <use xlink:href="#m9a3f676b1e" x="92.560489" y="140.256" style="fill: #ff7f0e; stroke: #ff7f0e"/>
     <use xlink:href="#m9a3f676b1e" x="95.807034" y="140.256" style="fill: #ff7f0e; stroke: #ff7f0e"/>
     <use xlink:href="#m9a3f676b1e" x="99.05358" y="140.256" style="fill: #ff7f0e; stroke: #ff7f0e"/>
     <use xlink:href="#m9a3f676b1e" x="102.300125" y="140.256" style="fill: #ff7f0e; stroke: #ff7f0e"/>
     <use xlink:href="#m9a3f676b1e" x="105.54667" y="140.256" style="fill: #ff7f0e; stroke: #ff7f0e"/>
     <use xlink:href="#m9a3f676b1e" x="108.793216" y="140.256" style="fill: #ff7f0e; stroke: #ff7f0e"/>
     <use xlink:href="#m9a3f676b1e" x="112.039761" y="140.256001" style="fill: #ff7f0e; stroke: #ff7f0e"/>
     <use xlink:href="#m9a3f676b1e" x="115.286307" y="140.256002" style="fill: #ff7f0e; stroke: #ff7f0e"/>
     <use xlink:href="#m9a3f676b1e" x="118.532852" y="140.256007" style="fill: #ff7f0e; stroke: #ff7f0e"/>
     <use xlink:href="#m9a3f676b1e" x="121.779398" y="140.256062" style="fill: #ff7f0e; stroke: #ff7f0e"/>
     <use xlink:href="#m9a3f676b1e" x="125.025943" y="261.214893" style="fill: #ff7f0e; stroke: #ff7f0e"/>
     <use xlink:href="#m9a3f676b1e" x="128.272489" y="261.215961" style="fill: #ff7f0e; stroke: #ff7f0e"/>
     <use xlink:href="#m9a3f676b1e" x="131.519034" y="261.215991" style="fill: #ff7f0e; stroke: #ff7f0e"/>
     <use xlink:href="#m9a3f676b1e" x="134.76558" y="261.215997" style="fill: #ff7f0e; stroke: #ff7f0e"/>
     <use xlink:href="#m9a3f676b1e" x="138.012125" y="261.215999" style="fill: #ff7f0e; stroke: #ff7f0e"/>
     <use xlink:href="#m9a3f676b1e" x="141.25867" y="261.215999" style="fill: #ff7f0e; stroke: #ff7f0e"/>
     <use xlink:href="#m9a3f676b1e" x="144.505216" y="261.216" style="fill: #ff7f0e; stroke: #ff7f0e"/>
     <use xlink:href="#m9a3f676b1e" x="147.751761" y="261.216" style="fill: #ff7f0e; stroke: #ff7f0e"/>
     <use xlink:href="#m9a3f676b1e" x="150.998307" y="261.216" style="fill: #ff7f0e; stroke: #ff7f0e"/>
     <use xlink:href="#m9a3f676b1e" x="154.244852" y="261.216" style="fill: #ff7f0e; stroke: #ff7f0e"/>
     <use xlink:href="#m9a3f676b1e" x="157.491398" y="261.216" style="fill: #ff7f0e; stroke: #ff7f0e"/>
     <use xlink:href="#m9a3f676b1e" x="160.737943" y="261.216" style="fill: #ff7f0e; stroke: #ff7f0e"/>
     <use xlink:href="#m9a3f676b1e" x="163.984489" y="261.216" style="fill: #ff7f0e; stroke: #ff7f0e"/>
     <use xlink:href="#m9a3f676b1e" x="167.231034" y="261.215999" style="fill: #ff7f0e; stroke: #ff7f0e"/>
     <use xlink:href="#m9a3f676b1e" x="170.47758" y="261.215999" style="fill: #ff7f0e; stroke: #ff7f0e"/>
     <use xlink:href="#m9a3f676b1e" x="173.724125" y="261.215999" style="fill: #ff7f0e; stroke: #ff7f0e"/>
     <use xlink:href="#m9a3f676b1e" x="176.97067" y="261.215997" style="fill: #ff7f0e; stroke: #ff7f0e"/>
     <use xlink:href="#m9a3f676b1e" x="180.217216" y="261.215995" style="fill: #ff7f0e; stroke: #ff7f0e"/>
     <use xlink:href="#m9a3f676b1e" x="183.463761" y="261.215988" style="fill: #ff7f0e; stroke: #ff7f0e"/>
     <use xlink:href="#m9a3f676b1e" x="186.710307" y="261.21596" style="fill: #ff7f0e; stroke: #ff7f0e"/>
     <use xlink:href="#m9a3f676b1e" x="189.956852" y="261.215273" style="fill: #ff7f0e; stroke: #ff7f0e"/>
     <use xlink:href="#m9a3f676b1e" x="193.203398" y="140.256108" style="fill: #ff7f0e; stroke: #ff7f0e"/>
     <use xlink:href="#m9a3f676b1e" x="196.449943" y="140.256013" style="fill: #ff7f0e; stroke: #ff7f0e"/>
     <use xlink:href="#m9a3f676b1e" x="199.696489" y="140.256004" style="fill: #ff7f0e; stroke: #ff7f0e"/>
     <use xlink:href="#m9a3f676b1e" x="202.943034" y="140.256002" style="fill: #ff7f0e; stroke: #ff7f0e"/>
     <use xlink:href="#m9a3f676b1e" x="206.18958" y="140.256001" style="fill: #ff7f0e; stroke: #ff7f0e"/>
     <use xlink:href="#m9a3f676b1e" x="209.436125" y="140.256001" style="fill: #ff7f0e; stroke: #ff7f0e"/>
     <use xlink:href="#m9a3f676b1e" x="212.68267" y="140.256001" style="fill: #ff7f0e; stroke: #ff7f0e"/>
     <use xlink:href="#m9a3f676b1e" x="215.929216" y="140.256" style="fill: #ff7f0e; stroke: #ff7f0e"/>
     <use xlink:href="#m9a3f676b1e" x="219.175761" y="140.256" style="fill: #ff7f0e; stroke: #ff7f0e"/>
     <use xlink:href="#m9a3f676b1e" x="222.422307" y="140.256" style="fill: #ff7f0e; stroke: #ff7f0e"/>
     <use xlink:href="#m9a3f676b1e" x="225.668852" y="140.256" style="fill: #ff7f0e; stroke: #ff7f0e"/>
     <use xlink:href="#m9a3f676b1e" x="228.915398" y="140.256" style="fill: #ff7f0e; stroke: #ff7f0e"/>
     <use xlink:href="#m9a3f676b1e" x="232.161943" y="140.256" style="fill: #ff7f0e; stroke: #ff7f0e"/>
     <use xlink:href="#m9a3f676b1e" x="235.408489" y="140.256" style="fill: #ff7f0e; stroke: #ff7f0e"/>
     <use xlink:href="#m9a3f676b1e" x="238.655034" y="140.256" style="fill: #ff7f0e; stroke: #ff7f0e"/>
     <use xlink:href="#m9a3f676b1e" x="241.90158" y="140.256" style="fill: #ff7f0e; stroke: #ff7f0e"/>
     <use xlink:href="#m9a3f676b1e" x="245.148125" y="140.256" style="fill: #ff7f0e; stroke: #ff7f0e"/>
     <use xlink:href="#m9a3f676b1e" x="248.39467" y="140.256" style="fill: #ff7f0e; stroke: #ff7f0e"/>
     <use xlink:href="#m9a3f676b1e" x="251.641216" y="140.256" style="fill: #ff7f0e; stroke: #ff7f0e"/>
     <use xlink:href="#m9a3f676b1e" x="254.887761" y="140.256" style="fill: #ff7f0e; stroke: #ff7f0e"/>
     <use xlink:href="#m9a3f676b1e" x="258.134307" y="140.256" style="fill: #ff7f0e; stroke: #ff7f0e"/>
     <use xlink:href="#m9a3f676b1e" x="261.380852" y="140.256" style="fill: #ff7f0e; stroke: #ff7f0e"/>
     <use xlink:href="#m9a3f676b1e" x="264.627398" y="140.256" style="fill: #ff7f0e; stroke: #ff7f0e"/>
     <use xlink:href="#m9a3f676b1e" x="267.873943" y="140.256" style="fill: #ff7f0e; stroke: #ff7f0e"/>
     <use xlink:href="#m9a3f676b1e" x="271.120489" y="140.256" style="fill: #ff7f0e; stroke: #ff7f0e"/>
     <use xlink:href="#m9a3f676b1e" x="274.367034" y="140.256" style="fill: #ff7f0e; stroke: #ff7f0e"/>
     <use xlink:href="#m9a3f676b1e" x="277.61358" y="140.256001" style="fill: #ff7f0e; stroke: #ff7f0e"/>
     <use xlink:href="#m9a3f676b1e" x="280.860125" y="140.256001" style="fill: #ff7f0e; stroke: #ff7f0e"/>
     <use xlink:href="#m9a3f676b1e" x="284.10667" y="140.256001" style="fill: #ff7f0e; stroke: #ff7f0e"/>
     <use xlink:href="#m9a3f676b1e" x="287.353216" y="140.256002" style="fill: #ff7f0e; stroke: #ff7f0e"/>
     <use xlink:href="#m9a3f676b1e" x="290.599761" y="140.256004" style="fill: #ff7f0e; stroke: #ff7f0e"/>
     <use xlink:href="#m9a3f676b1e" x="293.846307" y="140.256013" style="fill: #ff7f0e; stroke: #ff7f0e"/>
     <use xlink:href="#m9a3f676b1e" x="297.092852" y="140.256108" style="fill: #ff7f0e; stroke: #ff7f0e"/>
     <use xlink:href="#m9a3f676b1e" x="300.339398" y="261.215273" style="fill: #ff7f0e; stroke: #ff7f0e"/>
     <use xlink:href="#m9a3f676b1e" x="303.585943" y="261.21596" style="fill: #ff7f0e; stroke: #ff7f0e"/>
     <use xlink:href="#m9a3f676b1e" x="306.832489" y="261.215988" style="fill: #ff7f0e; stroke: #ff7f0e"/>
     <use xlink:href="#m9a3f676b1e" x="310.079034" y="261.215995" style="fill: #ff7f0e; stroke: #ff7f0e"/>
     <use xlink:href="#m9a3f676b1e" x="313.32558" y="261.215997" style="fill: #ff7f0e; stroke: #ff7f0e"/>
     <use xlink:href="#m9a3f676b1e" x="316.572125" y="261.215999" style="fill: #ff7f0e; stroke: #ff7f0e"/>
     <use xlink:href="#m9a3f676b1e" x="319.81867" y="261.215999" style="fill: #ff7f0e; stroke: #ff7f0e"/>
     <use xlink:href="#m9a3f676b1e" x="323.065216" y="261.215999" style="fill: #ff7f0e; stroke: #ff7f0e"/>
     <use xlink:href="#m9a3f676b1e" x="326.311761" y="261.216" style="fill: #ff7f0e; stroke: #ff7f0e"/>
     <use xlink:href="#m9a3f676b1e" x="329.558307" y="261.216" style="fill: #ff7f0e; stroke: #ff7f0e"/>
     <use xlink:href="#m9a3f676b1e" x="332.804852" y="261.216" style="fill: #ff7f0e; stroke: #ff7f0e"/>
     <use xlink:href="#m9a3f676b1e" x="336.051398" y="261.216" style="fill: #ff7f0e; stroke: #ff7f0e"/>
     <use xlink:href="#m9a3f676b1e" x="339.297943" y="261.216" style="fill: #ff7f0e; stroke: #ff7f0e"/>
     <use xlink:href="#m9a3f676b1e" x="342.544489" y="261.216" style="fill: #ff7f0e; stroke: #ff7f0e"/>
     <use xlink:href="#m9a3f676b1e" x="345.791034" y="261.216" style="fill: #ff7f0e; stroke: #ff7f0e"/>
     <use xlink:href="#m9a3f676b1e" x="349.03758" y="261.215999" style="fill: #ff7f0e; stroke: #ff7f0e"/>
     <use xlink:href="#m9a3f676b1e" x="352.284125" y="261.215999" style="fill: #ff7f0e; stroke: #ff7f0e"/>
     <use xlink:href="#m9a3f676b1e" x="355.53067" y="261.215997" style="fill: #ff7f0e; stroke: #ff7f0e"/>
     <use xlink:href="#m9a3f676b1e" x="358.777216" y="261.215991" style="fill: #ff7f0e; stroke: #ff7f0e"/>
     <use xlink:href="#m9a3f676b1e" x="362.023761" y="261.215961" style="fill: #ff7f0e; stroke: #ff7f0e"/>
     <use xlink:href="#m9a3f676b1e" x="365.270307" y="261.214893" style="fill: #ff7f0e; stroke: #ff7f0e"/>
     <use xlink:href="#m9a3f676b1e" x="368.516852" y="140.256062" style="fill: #ff7f0e; stroke: #ff7f0e"/>
     <use xlink:href="#m9a3f676b1e" x="371.763398" y="140.256007" style="fill: #ff7f0e; stroke: #ff7f0e"/>
     <use xlink:href="#m9a3f676b1e" x="375.009943" y="140.256002" style="fill: #ff7f0e; stroke: #ff7f0e"/>
     <use xlink:href="#m9a3f676b1e" x="378.256489" y="140.256001" style="fill: #ff7f0e; stroke: #ff7f0e"/>
     <use xlink:href="#m9a3f676b1e" x="381.503034" y="140.256" style="fill: #ff7f0e; stroke: #ff7f0e"/>
     <use xlink:href="#m9a3f676b1e" x="384.74958" y="140.256" style="fill: #ff7f0e; stroke: #ff7f0e"/>
     <use xlink:href="#m9a3f676b1e" x="387.996125" y="140.256" style="fill: #ff7f0e; stroke: #ff7f0e"/>
     <use xlink:href="#m9a3f676b1e" x="391.24267" y="140.256" style="fill: #ff7f0e; stroke: #ff7f0e"/>
     <use xlink:href="#m9a3f676b1e" x="394.489216" y="140.256" style="fill: #ff7f0e; stroke: #ff7f0e"/>
     <use xlink:href="#m9a3f676b1e" x="397.735761" y="140.256" style="fill: #ff7f0e; stroke: #ff7f0e"/>
     <use xlink:href="#m9a3f676b1e" x="400.982307" y="140.256" style="fill: #ff7f0e; stroke: #ff7f0e"/>
     <use xlink:href="#m9a3f676b1e" x="404.228852" y="140.256" style="fill: #ff7f0e; stroke: #ff7f0e"/>
     <use xlink:href="#m9a3f676b1e" x="407.475398" y="140.256" style="fill: #ff7f0e; stroke: #ff7f0e"/>
    </g>
   </g>
   <g id="patch_3">
    <path d="M 66.588125 273.312 
L 66.588125 7.2 
" style="fill: none; stroke: #000000; stroke-width: 0.8; stroke-linejoin: miter; stroke-linecap: square"/>
   </g>
   <g id="patch_4">
    <path d="M 423.708125 273.312 
L 423.708125 7.2 
" style="fill: none; stroke: #000000; stroke-width: 0.8; stroke-linejoin: miter; stroke-linecap: square"/>
   </g>
   <g id="patch_5">
    <path d="M 66.588125 273.312 
L 423.708125 273.312 
" style="fill: none; stroke: #000000; stroke-width: 0.8; stroke-linejoin: miter; stroke-linecap: square"/>
   </g>
   <g id="patch_6">
    <path d="M 66.588125 7.2 
L 423.708125 7.2 
" style="fill: none; stroke: #000000; stroke-width: 0.8; stroke-linejoin: miter; stroke-linecap: square"/>
   </g>
   <g id="legend_1">
    <g id="patch_7">
     <path d="M 195.189688 267.312 
L 295.106563 267.312 
Q 297.506563 267.312 297.506563 264.912 
L 297.506563 230.8845 
Q 297.506563 228.4845 295.106563 228.4845 
L 195.189688 228.4845 
Q 192.789688 228.4845 192.789688 230.8845 
L 192.789688 264.912 
Q 192.789688 267.312 195.189688 267.312 
z
" style="fill: #ffffff; opacity: 0.8; stroke: #cccccc; stroke-linejoin: miter"/>
    </g>
    <g id="line2d_19">
     <path d="M 197.589688 238.202625 
L 209.589688 238.202625 
L 221.589688 238.202625 
" style="fill: none; stroke: #1f77b4; stroke-width: 1.5; stroke-linecap: square"/>
     <g>
      <use xlink:href="#m0fbc833176" x="209.589688" y="238.202625" style="fill: #1f77b4; stroke: #1f77b4"/>
     </g>
    </g>
    <g id="text_19">
     <!-- spin-up -->
     <g transform="translate(231.189688 242.402625) scale(0.12 -0.12)">
      <defs>
       <path id="DejaVuSans-70" d="M 1159 525 
L 1159 -1331 
L 581 -1331 
L 581 3500 
L 1159 3500 
L 1159 2969 
Q 1341 3281 1617 3432 
Q 1894 3584 2278 3584 
Q 2916 3584 3314 3078 
Q 3713 2572 3713 1747 
Q 3713 922 3314 415 
Q 2916 -91 2278 -91 
Q 1894 -91 1617 61 
Q 1341 213 1159 525 
z
M 3116 1747 
Q 3116 2381 2855 2742 
Q 2594 3103 2138 3103 
Q 1681 3103 1420 2742 
Q 1159 2381 1159 1747 
Q 1159 1113 1420 752 
Q 1681 391 2138 391 
Q 2594 391 2855 752 
Q 3116 1113 3116 1747 
z
" transform="scale(0.015625)"/>
       <path id="DejaVuSans-2d" d="M 313 2009 
L 1997 2009 
L 1997 1497 
L 313 1497 
L 313 2009 
z
" transform="scale(0.015625)"/>
       <path id="DejaVuSans-75" d="M 544 1381 
L 544 3500 
L 1119 3500 
L 1119 1403 
Q 1119 906 1312 657 
Q 1506 409 1894 409 
Q 2359 409 2629 706 
Q 2900 1003 2900 1516 
L 2900 3500 
L 3475 3500 
L 3475 0 
L 2900 0 
L 2900 538 
Q 2691 219 2414 64 
Q 2138 -91 1772 -91 
Q 1169 -91 856 284 
Q 544 659 544 1381 
z
M 1991 3584 
L 1991 3584 
z
" transform="scale(0.015625)"/>
      </defs>
      <use xlink:href="#DejaVuSans-73"/>
      <use xlink:href="#DejaVuSans-70" x="52.099609"/>
      <use xlink:href="#DejaVuSans-69" x="115.576172"/>
      <use xlink:href="#DejaVuSans-6e" x="143.359375"/>
      <use xlink:href="#DejaVuSans-2d" x="206.738281"/>
      <use xlink:href="#DejaVuSans-75" x="242.822266"/>
      <use xlink:href="#DejaVuSans-70" x="306.201172"/>
     </g>
    </g>
    <g id="line2d_20">
     <path d="M 197.589688 255.816375 
L 209.589688 255.816375 
L 221.589688 255.816375 
" style="fill: none; stroke: #ff7f0e; stroke-width: 1.5; stroke-linecap: square"/>
     <g>
      <use xlink:href="#m9a3f676b1e" x="209.589688" y="255.816375" style="fill: #ff7f0e; stroke: #ff7f0e"/>
     </g>
    </g>
    <g id="text_20">
     <!-- spin-down -->
     <g transform="translate(231.189688 260.016375) scale(0.12 -0.12)">
      <defs>
       <path id="DejaVuSans-64" d="M 2906 2969 
L 2906 4863 
L 3481 4863 
L 3481 0 
L 2906 0 
L 2906 525 
Q 2725 213 2448 61 
Q 2172 -91 1784 -91 
Q 1150 -91 751 415 
Q 353 922 353 1747 
Q 353 2572 751 3078 
Q 1150 3584 1784 3584 
Q 2172 3584 2448 3432 
Q 2725 3281 2906 2969 
z
M 947 1747 
Q 947 1113 1208 752 
Q 1469 391 1925 391 
Q 2381 391 2643 752 
Q 2906 1113 2906 1747 
Q 2906 2381 2643 2742 
Q 2381 3103 1925 3103 
Q 1469 3103 1208 2742 
Q 947 2381 947 1747 
z
" transform="scale(0.015625)"/>
       <path id="DejaVuSans-77" d="M 269 3500 
L 844 3500 
L 1563 769 
L 2278 3500 
L 2956 3500 
L 3675 769 
L 4391 3500 
L 4966 3500 
L 4050 0 
L 3372 0 
L 2619 2869 
L 1863 0 
L 1184 0 
L 269 3500 
z
" transform="scale(0.015625)"/>
      </defs>
      <use xlink:href="#DejaVuSans-73"/>
      <use xlink:href="#DejaVuSans-70" x="52.099609"/>
      <use xlink:href="#DejaVuSans-69" x="115.576172"/>
      <use xlink:href="#DejaVuSans-6e" x="143.359375"/>
      <use xlink:href="#DejaVuSans-2d" x="206.738281"/>
      <use xlink:href="#DejaVuSans-64" x="242.822266"/>
      <use xlink:href="#DejaVuSans-6f" x="306.298828"/>
      <use xlink:href="#DejaVuSans-77" x="367.480469"/>
      <use xlink:href="#DejaVuSans-6e" x="449.267578"/>
     </g>
    </g>
   </g>
  </g>
 </g>
 <defs>
  <clipPath id="p3990fbbfbd">
   <rect x="66.588125" y="7.2" width="357.12" height="266.112"/>
  </clipPath>
 </defs>
</svg>